G04 EAGLE Gerber RS-274X export*
G75*
%MOMM*%
%FSLAX34Y34*%
%LPD*%
%INTop Copper*%
%IPPOS*%
%AMOC8*
5,1,8,0,0,1.08239X$1,22.5*%
G01*
%ADD10C,0.100000*%
%ADD11C,1.879600*%
%ADD12C,0.101600*%
%ADD13C,0.100800*%
%ADD14C,0.102000*%
%ADD15C,0.096000*%
%ADD16C,1.000000*%
%ADD17C,1.676400*%
%ADD18C,1.524000*%
%ADD19C,0.099059*%
%ADD20C,0.099000*%
%ADD21C,0.104000*%
%ADD22C,0.304800*%
%ADD23C,0.558800*%
%ADD24C,0.203200*%
%ADD25C,0.254000*%

G36*
X116956Y82881D02*
X116956Y82881D01*
X116984Y82878D01*
X117097Y82901D01*
X117210Y82917D01*
X117235Y82929D01*
X117263Y82934D01*
X117365Y82987D01*
X117469Y83034D01*
X117490Y83052D01*
X117515Y83065D01*
X117598Y83144D01*
X117686Y83219D01*
X117699Y83240D01*
X117721Y83261D01*
X117856Y83491D01*
X117864Y83503D01*
X118413Y84829D01*
X118441Y84939D01*
X118476Y85049D01*
X118477Y85077D01*
X118483Y85104D01*
X118480Y85218D01*
X118483Y85333D01*
X118476Y85360D01*
X118475Y85388D01*
X118440Y85497D01*
X118411Y85608D01*
X118397Y85632D01*
X118389Y85659D01*
X118325Y85754D01*
X118266Y85853D01*
X118246Y85872D01*
X118230Y85895D01*
X118142Y85969D01*
X118059Y86047D01*
X118034Y86060D01*
X118013Y86078D01*
X117908Y86125D01*
X117806Y86177D01*
X117781Y86181D01*
X117753Y86193D01*
X117489Y86230D01*
X117475Y86232D01*
X116796Y86232D01*
X115315Y87713D01*
X115315Y100247D01*
X116433Y101365D01*
X116450Y101387D01*
X116469Y101403D01*
X116486Y101428D01*
X116511Y101452D01*
X116554Y101525D01*
X116604Y101592D01*
X116616Y101624D01*
X116627Y101640D01*
X116634Y101662D01*
X116655Y101697D01*
X116675Y101779D01*
X116705Y101858D01*
X116709Y101899D01*
X116713Y101911D01*
X116713Y101927D01*
X116725Y101973D01*
X116722Y102057D01*
X116729Y102141D01*
X116720Y102187D01*
X116720Y102195D01*
X116717Y102205D01*
X116716Y102257D01*
X116690Y102337D01*
X116673Y102420D01*
X116649Y102466D01*
X116648Y102470D01*
X116645Y102475D01*
X116628Y102527D01*
X116588Y102584D01*
X116542Y102672D01*
X116505Y102712D01*
X116503Y102715D01*
X116493Y102724D01*
X116473Y102744D01*
X116433Y102801D01*
X115823Y103411D01*
X115823Y107409D01*
X118651Y110237D01*
X122649Y110237D01*
X125477Y107409D01*
X125477Y103411D01*
X124867Y102801D01*
X124834Y102757D01*
X124831Y102754D01*
X124829Y102751D01*
X124789Y102714D01*
X124746Y102641D01*
X124696Y102574D01*
X124676Y102522D01*
X124673Y102518D01*
X124672Y102514D01*
X124645Y102468D01*
X124625Y102387D01*
X124595Y102308D01*
X124590Y102256D01*
X124587Y102247D01*
X124587Y102239D01*
X124575Y102193D01*
X124578Y102109D01*
X124571Y102025D01*
X124580Y101977D01*
X124580Y101962D01*
X124583Y101951D01*
X124584Y101909D01*
X124610Y101829D01*
X124627Y101746D01*
X124646Y101708D01*
X124652Y101687D01*
X124661Y101672D01*
X124672Y101638D01*
X124712Y101582D01*
X124758Y101493D01*
X124783Y101468D01*
X124797Y101443D01*
X124839Y101403D01*
X124867Y101365D01*
X125985Y100247D01*
X125985Y90210D01*
X125993Y90152D01*
X125991Y90094D01*
X126013Y90012D01*
X126025Y89928D01*
X126048Y89875D01*
X126063Y89819D01*
X126106Y89746D01*
X126141Y89669D01*
X126179Y89624D01*
X126208Y89574D01*
X126270Y89516D01*
X126324Y89452D01*
X126373Y89420D01*
X126416Y89380D01*
X126491Y89341D01*
X126561Y89294D01*
X126617Y89277D01*
X126669Y89250D01*
X126737Y89239D01*
X126832Y89209D01*
X126932Y89206D01*
X127000Y89195D01*
X127058Y89203D01*
X127116Y89201D01*
X127198Y89223D01*
X127282Y89235D01*
X127335Y89258D01*
X127391Y89273D01*
X127464Y89316D01*
X127541Y89351D01*
X127586Y89389D01*
X127636Y89418D01*
X127694Y89480D01*
X127758Y89534D01*
X127790Y89583D01*
X127830Y89626D01*
X127869Y89701D01*
X127916Y89771D01*
X127933Y89827D01*
X127960Y89879D01*
X127971Y89947D01*
X128001Y90042D01*
X128004Y90142D01*
X128015Y90210D01*
X128015Y100247D01*
X129531Y101762D01*
X129568Y101768D01*
X129621Y101791D01*
X129677Y101806D01*
X129750Y101849D01*
X129827Y101884D01*
X129872Y101922D01*
X129922Y101951D01*
X129980Y102013D01*
X130044Y102067D01*
X130076Y102116D01*
X130116Y102159D01*
X130155Y102234D01*
X130202Y102304D01*
X130219Y102360D01*
X130246Y102412D01*
X130257Y102480D01*
X130287Y102575D01*
X130290Y102675D01*
X130301Y102743D01*
X130301Y107537D01*
X130289Y107623D01*
X130286Y107711D01*
X130269Y107763D01*
X130261Y107818D01*
X130226Y107898D01*
X130199Y107981D01*
X130171Y108020D01*
X130145Y108078D01*
X130049Y108191D01*
X130004Y108255D01*
X124131Y114127D01*
X124131Y176657D01*
X124123Y176715D01*
X124125Y176773D01*
X124103Y176855D01*
X124091Y176939D01*
X124068Y176992D01*
X124053Y177048D01*
X124010Y177121D01*
X123975Y177198D01*
X123937Y177243D01*
X123908Y177293D01*
X123846Y177351D01*
X123792Y177415D01*
X123743Y177447D01*
X123700Y177487D01*
X123625Y177526D01*
X123555Y177573D01*
X123499Y177590D01*
X123447Y177617D01*
X123379Y177628D01*
X123284Y177658D01*
X123184Y177661D01*
X123116Y177672D01*
X116796Y177672D01*
X115315Y179153D01*
X115315Y191687D01*
X116796Y193168D01*
X118013Y193168D01*
X118042Y193172D01*
X118071Y193169D01*
X118182Y193192D01*
X118294Y193208D01*
X118321Y193220D01*
X118350Y193225D01*
X118450Y193278D01*
X118553Y193324D01*
X118576Y193343D01*
X118602Y193356D01*
X118684Y193434D01*
X118770Y193507D01*
X118787Y193532D01*
X118808Y193552D01*
X118865Y193650D01*
X118928Y193744D01*
X118937Y193772D01*
X118952Y193797D01*
X118980Y193907D01*
X119014Y194015D01*
X119015Y194045D01*
X119022Y194073D01*
X119018Y194186D01*
X119021Y194299D01*
X119014Y194328D01*
X119013Y194357D01*
X118978Y194465D01*
X118949Y194574D01*
X118934Y194600D01*
X118925Y194628D01*
X118880Y194692D01*
X118804Y194819D01*
X118758Y194862D01*
X118730Y194901D01*
X118351Y195281D01*
X116765Y199108D01*
X116765Y203252D01*
X118351Y207080D01*
X121280Y210009D01*
X125108Y211595D01*
X129252Y211595D01*
X133080Y210009D01*
X136009Y207080D01*
X137595Y203252D01*
X137595Y199108D01*
X136009Y195281D01*
X135630Y194901D01*
X135612Y194877D01*
X135590Y194858D01*
X135527Y194764D01*
X135459Y194674D01*
X135448Y194646D01*
X135432Y194622D01*
X135398Y194514D01*
X135357Y194408D01*
X135355Y194379D01*
X135346Y194351D01*
X135343Y194238D01*
X135334Y194125D01*
X135340Y194096D01*
X135339Y194067D01*
X135367Y193957D01*
X135390Y193846D01*
X135403Y193820D01*
X135411Y193792D01*
X135468Y193694D01*
X135521Y193594D01*
X135541Y193572D01*
X135556Y193547D01*
X135639Y193470D01*
X135717Y193388D01*
X135742Y193373D01*
X135763Y193353D01*
X135864Y193301D01*
X135962Y193244D01*
X135990Y193237D01*
X136016Y193223D01*
X136094Y193210D01*
X136237Y193174D01*
X136300Y193176D01*
X136347Y193168D01*
X137204Y193168D01*
X138685Y191687D01*
X138685Y179153D01*
X137204Y177672D01*
X131244Y177672D01*
X131186Y177664D01*
X131128Y177666D01*
X131046Y177644D01*
X130962Y177632D01*
X130909Y177609D01*
X130853Y177594D01*
X130780Y177551D01*
X130703Y177516D01*
X130658Y177478D01*
X130608Y177449D01*
X130550Y177387D01*
X130486Y177333D01*
X130454Y177284D01*
X130414Y177241D01*
X130375Y177166D01*
X130328Y177096D01*
X130311Y177040D01*
X130284Y176988D01*
X130273Y176920D01*
X130243Y176825D01*
X130240Y176725D01*
X130229Y176657D01*
X130229Y117073D01*
X130241Y116987D01*
X130244Y116899D01*
X130261Y116847D01*
X130269Y116792D01*
X130304Y116712D01*
X130331Y116629D01*
X130359Y116590D01*
X130385Y116532D01*
X130481Y116419D01*
X130526Y116355D01*
X133280Y113602D01*
X133327Y113566D01*
X133367Y113524D01*
X133440Y113481D01*
X133507Y113431D01*
X133562Y113410D01*
X133612Y113380D01*
X133694Y113360D01*
X133773Y113330D01*
X133831Y113325D01*
X133888Y113310D01*
X133972Y113313D01*
X134056Y113306D01*
X134113Y113317D01*
X134172Y113319D01*
X134252Y113345D01*
X134335Y113362D01*
X134387Y113389D01*
X134442Y113407D01*
X134499Y113447D01*
X134587Y113493D01*
X134659Y113562D01*
X134716Y113602D01*
X137701Y116587D01*
X141699Y116587D01*
X144684Y113602D01*
X144731Y113566D01*
X144771Y113524D01*
X144844Y113481D01*
X144912Y113431D01*
X144966Y113410D01*
X145017Y113380D01*
X145098Y113360D01*
X145177Y113330D01*
X145236Y113325D01*
X145292Y113310D01*
X145376Y113313D01*
X145460Y113306D01*
X145518Y113317D01*
X145576Y113319D01*
X145657Y113345D01*
X145739Y113362D01*
X145791Y113389D01*
X145847Y113407D01*
X145903Y113447D01*
X145992Y113493D01*
X146064Y113562D01*
X146120Y113602D01*
X149234Y116715D01*
X149286Y116785D01*
X149346Y116849D01*
X149372Y116899D01*
X149405Y116943D01*
X149436Y117024D01*
X149476Y117102D01*
X149484Y117150D01*
X149506Y117208D01*
X149518Y117356D01*
X149531Y117433D01*
X149531Y176657D01*
X149523Y176715D01*
X149525Y176773D01*
X149503Y176855D01*
X149491Y176939D01*
X149468Y176992D01*
X149453Y177048D01*
X149410Y177121D01*
X149375Y177198D01*
X149337Y177243D01*
X149308Y177293D01*
X149246Y177351D01*
X149192Y177415D01*
X149143Y177447D01*
X149100Y177487D01*
X149025Y177526D01*
X148955Y177573D01*
X148899Y177590D01*
X148847Y177617D01*
X148779Y177628D01*
X148684Y177658D01*
X148584Y177661D01*
X148516Y177672D01*
X142196Y177672D01*
X140715Y179153D01*
X140715Y191687D01*
X142196Y193168D01*
X143413Y193168D01*
X143442Y193172D01*
X143471Y193169D01*
X143582Y193192D01*
X143694Y193208D01*
X143721Y193220D01*
X143750Y193225D01*
X143850Y193278D01*
X143953Y193324D01*
X143976Y193343D01*
X144002Y193356D01*
X144084Y193434D01*
X144170Y193507D01*
X144187Y193532D01*
X144208Y193552D01*
X144265Y193650D01*
X144328Y193744D01*
X144337Y193772D01*
X144352Y193797D01*
X144380Y193907D01*
X144414Y194015D01*
X144415Y194045D01*
X144422Y194073D01*
X144418Y194186D01*
X144421Y194299D01*
X144414Y194328D01*
X144413Y194357D01*
X144378Y194465D01*
X144349Y194574D01*
X144334Y194600D01*
X144325Y194628D01*
X144280Y194692D01*
X144204Y194819D01*
X144158Y194862D01*
X144130Y194901D01*
X143751Y195281D01*
X142165Y199108D01*
X142165Y203252D01*
X143751Y207080D01*
X146680Y210009D01*
X150508Y211595D01*
X154652Y211595D01*
X158480Y210009D01*
X161409Y207080D01*
X162995Y203252D01*
X162995Y199108D01*
X161409Y195281D01*
X161030Y194901D01*
X161012Y194877D01*
X160990Y194858D01*
X160927Y194764D01*
X160859Y194674D01*
X160848Y194646D01*
X160832Y194622D01*
X160798Y194514D01*
X160757Y194408D01*
X160755Y194379D01*
X160746Y194351D01*
X160743Y194238D01*
X160734Y194125D01*
X160740Y194096D01*
X160739Y194067D01*
X160767Y193957D01*
X160790Y193846D01*
X160803Y193820D01*
X160811Y193792D01*
X160868Y193694D01*
X160921Y193594D01*
X160941Y193572D01*
X160956Y193547D01*
X161039Y193470D01*
X161117Y193388D01*
X161142Y193373D01*
X161163Y193353D01*
X161264Y193301D01*
X161362Y193244D01*
X161390Y193237D01*
X161416Y193223D01*
X161494Y193210D01*
X161637Y193174D01*
X161700Y193176D01*
X161747Y193168D01*
X162604Y193168D01*
X164085Y191687D01*
X164085Y179153D01*
X162604Y177672D01*
X156644Y177672D01*
X156586Y177664D01*
X156528Y177666D01*
X156446Y177644D01*
X156362Y177632D01*
X156309Y177609D01*
X156253Y177594D01*
X156180Y177551D01*
X156103Y177516D01*
X156058Y177478D01*
X156008Y177449D01*
X155950Y177387D01*
X155886Y177333D01*
X155854Y177284D01*
X155814Y177241D01*
X155775Y177166D01*
X155728Y177096D01*
X155711Y177040D01*
X155684Y176988D01*
X155673Y176920D01*
X155643Y176825D01*
X155640Y176725D01*
X155629Y176657D01*
X155629Y148421D01*
X155633Y148392D01*
X155630Y148363D01*
X155653Y148252D01*
X155669Y148140D01*
X155681Y148113D01*
X155686Y148084D01*
X155739Y147984D01*
X155785Y147880D01*
X155804Y147858D01*
X155817Y147832D01*
X155895Y147750D01*
X155968Y147663D01*
X155993Y147647D01*
X156013Y147626D01*
X156111Y147569D01*
X156205Y147506D01*
X156233Y147497D01*
X156258Y147482D01*
X156368Y147454D01*
X156476Y147420D01*
X156506Y147419D01*
X156534Y147412D01*
X156647Y147416D01*
X156760Y147413D01*
X156789Y147420D01*
X156818Y147421D01*
X156926Y147456D01*
X157035Y147485D01*
X157061Y147500D01*
X157089Y147509D01*
X157152Y147554D01*
X157280Y147630D01*
X157323Y147675D01*
X157362Y147703D01*
X159976Y150317D01*
X160028Y150387D01*
X160088Y150451D01*
X160114Y150501D01*
X160147Y150545D01*
X160178Y150626D01*
X160218Y150704D01*
X160226Y150752D01*
X160248Y150810D01*
X160260Y150958D01*
X160273Y151035D01*
X160273Y153129D01*
X163101Y155957D01*
X167386Y155957D01*
X167444Y155965D01*
X167502Y155963D01*
X167584Y155985D01*
X167668Y155997D01*
X167721Y156020D01*
X167777Y156035D01*
X167850Y156078D01*
X167927Y156113D01*
X167972Y156151D01*
X168022Y156180D01*
X168080Y156242D01*
X168144Y156296D01*
X168176Y156345D01*
X168216Y156388D01*
X168255Y156463D01*
X168302Y156533D01*
X168319Y156589D01*
X168346Y156641D01*
X168357Y156709D01*
X168387Y156804D01*
X168390Y156904D01*
X168401Y156972D01*
X168401Y176657D01*
X168393Y176715D01*
X168395Y176773D01*
X168373Y176855D01*
X168361Y176939D01*
X168338Y176992D01*
X168323Y177048D01*
X168280Y177121D01*
X168245Y177198D01*
X168207Y177243D01*
X168178Y177293D01*
X168116Y177351D01*
X168062Y177415D01*
X168013Y177447D01*
X167970Y177487D01*
X167895Y177526D01*
X167825Y177573D01*
X167769Y177590D01*
X167717Y177617D01*
X167649Y177628D01*
X167636Y177632D01*
X166115Y179153D01*
X166115Y191687D01*
X167596Y193168D01*
X168813Y193168D01*
X168842Y193172D01*
X168871Y193169D01*
X168982Y193192D01*
X169094Y193208D01*
X169121Y193220D01*
X169150Y193225D01*
X169250Y193278D01*
X169353Y193324D01*
X169376Y193343D01*
X169402Y193356D01*
X169484Y193434D01*
X169570Y193507D01*
X169587Y193532D01*
X169608Y193552D01*
X169665Y193650D01*
X169728Y193744D01*
X169737Y193772D01*
X169752Y193797D01*
X169780Y193907D01*
X169814Y194015D01*
X169815Y194045D01*
X169822Y194073D01*
X169818Y194186D01*
X169821Y194299D01*
X169814Y194328D01*
X169813Y194357D01*
X169778Y194465D01*
X169749Y194574D01*
X169734Y194600D01*
X169725Y194628D01*
X169680Y194692D01*
X169604Y194819D01*
X169558Y194862D01*
X169530Y194901D01*
X169151Y195281D01*
X167565Y199108D01*
X167565Y203252D01*
X169151Y207080D01*
X172080Y210009D01*
X175908Y211595D01*
X180052Y211595D01*
X183880Y210009D01*
X186809Y207080D01*
X188395Y203252D01*
X188395Y202777D01*
X188399Y202748D01*
X188396Y202719D01*
X188419Y202608D01*
X188435Y202496D01*
X188447Y202469D01*
X188452Y202440D01*
X188505Y202340D01*
X188551Y202236D01*
X188570Y202214D01*
X188583Y202188D01*
X188661Y202106D01*
X188734Y202019D01*
X188759Y202003D01*
X188779Y201982D01*
X188877Y201925D01*
X188971Y201862D01*
X188999Y201853D01*
X189024Y201838D01*
X189134Y201810D01*
X189242Y201776D01*
X189272Y201775D01*
X189300Y201768D01*
X189413Y201772D01*
X189526Y201769D01*
X189555Y201776D01*
X189584Y201777D01*
X189692Y201812D01*
X189801Y201841D01*
X189827Y201856D01*
X189855Y201865D01*
X189918Y201910D01*
X190046Y201986D01*
X190089Y202031D01*
X190128Y202059D01*
X192297Y204229D01*
X192692Y204229D01*
X192693Y204229D01*
X192695Y204229D01*
X192835Y204249D01*
X192973Y204269D01*
X192975Y204269D01*
X192976Y204269D01*
X193104Y204327D01*
X193233Y204385D01*
X193234Y204386D01*
X193235Y204387D01*
X193342Y204478D01*
X193450Y204568D01*
X193450Y204570D01*
X193452Y204571D01*
X193460Y204584D01*
X193607Y204805D01*
X193616Y204834D01*
X193630Y204855D01*
X194551Y207080D01*
X197480Y210009D01*
X201308Y211595D01*
X205452Y211595D01*
X209280Y210009D01*
X212209Y207080D01*
X213795Y203252D01*
X213795Y199108D01*
X212209Y195281D01*
X211830Y194901D01*
X211812Y194877D01*
X211790Y194858D01*
X211727Y194764D01*
X211659Y194674D01*
X211648Y194646D01*
X211632Y194622D01*
X211598Y194514D01*
X211557Y194408D01*
X211555Y194379D01*
X211546Y194351D01*
X211543Y194238D01*
X211534Y194125D01*
X211540Y194096D01*
X211539Y194067D01*
X211567Y193957D01*
X211590Y193846D01*
X211603Y193820D01*
X211611Y193792D01*
X211668Y193694D01*
X211721Y193594D01*
X211741Y193572D01*
X211756Y193547D01*
X211839Y193470D01*
X211917Y193388D01*
X211942Y193373D01*
X211963Y193353D01*
X212064Y193301D01*
X212162Y193244D01*
X212190Y193237D01*
X212216Y193223D01*
X212294Y193210D01*
X212437Y193174D01*
X212500Y193176D01*
X212547Y193168D01*
X213404Y193168D01*
X214885Y191687D01*
X214885Y179153D01*
X213369Y177638D01*
X213332Y177632D01*
X213279Y177609D01*
X213223Y177594D01*
X213150Y177551D01*
X213073Y177516D01*
X213028Y177478D01*
X212978Y177449D01*
X212920Y177387D01*
X212856Y177333D01*
X212824Y177284D01*
X212784Y177241D01*
X212745Y177166D01*
X212698Y177096D01*
X212681Y177040D01*
X212654Y176988D01*
X212643Y176920D01*
X212613Y176825D01*
X212610Y176725D01*
X212599Y176657D01*
X212599Y157868D01*
X212606Y157818D01*
X212605Y157801D01*
X212611Y157780D01*
X212614Y157694D01*
X212631Y157641D01*
X212639Y157586D01*
X212674Y157507D01*
X212701Y157423D01*
X212729Y157384D01*
X212755Y157327D01*
X212851Y157214D01*
X212896Y157150D01*
X214377Y155669D01*
X214377Y151671D01*
X211549Y148843D01*
X207551Y148843D01*
X204723Y151671D01*
X204723Y155669D01*
X206204Y157150D01*
X206256Y157220D01*
X206316Y157284D01*
X206342Y157333D01*
X206375Y157377D01*
X206406Y157459D01*
X206446Y157537D01*
X206454Y157584D01*
X206476Y157643D01*
X206484Y157739D01*
X206487Y157750D01*
X206488Y157791D01*
X206501Y157868D01*
X206501Y176657D01*
X206493Y176715D01*
X206495Y176773D01*
X206473Y176855D01*
X206461Y176939D01*
X206438Y176992D01*
X206423Y177048D01*
X206380Y177121D01*
X206345Y177198D01*
X206307Y177243D01*
X206278Y177293D01*
X206216Y177351D01*
X206162Y177415D01*
X206113Y177447D01*
X206070Y177487D01*
X205995Y177526D01*
X205925Y177573D01*
X205869Y177590D01*
X205817Y177617D01*
X205749Y177628D01*
X205736Y177632D01*
X204215Y179153D01*
X204215Y189750D01*
X204207Y189808D01*
X204209Y189866D01*
X204187Y189948D01*
X204175Y190032D01*
X204152Y190085D01*
X204137Y190141D01*
X204094Y190214D01*
X204059Y190291D01*
X204021Y190336D01*
X203992Y190386D01*
X203930Y190444D01*
X203876Y190508D01*
X203827Y190540D01*
X203784Y190580D01*
X203709Y190619D01*
X203639Y190666D01*
X203583Y190683D01*
X203531Y190710D01*
X203463Y190721D01*
X203368Y190751D01*
X203268Y190754D01*
X203200Y190765D01*
X203142Y190757D01*
X203084Y190759D01*
X203002Y190737D01*
X202918Y190725D01*
X202865Y190702D01*
X202809Y190687D01*
X202736Y190644D01*
X202659Y190609D01*
X202614Y190571D01*
X202564Y190542D01*
X202506Y190480D01*
X202442Y190426D01*
X202410Y190377D01*
X202370Y190334D01*
X202331Y190259D01*
X202284Y190189D01*
X202267Y190133D01*
X202240Y190081D01*
X202229Y190013D01*
X202199Y189918D01*
X202196Y189818D01*
X202185Y189750D01*
X202185Y179153D01*
X200704Y177672D01*
X200690Y177672D01*
X200632Y177664D01*
X200573Y177666D01*
X200492Y177644D01*
X200408Y177632D01*
X200355Y177609D01*
X200298Y177594D01*
X200226Y177551D01*
X200149Y177516D01*
X200104Y177478D01*
X200054Y177449D01*
X199996Y177387D01*
X199932Y177333D01*
X199899Y177284D01*
X199859Y177241D01*
X199821Y177166D01*
X199774Y177096D01*
X199757Y177040D01*
X199730Y176988D01*
X199719Y176920D01*
X199688Y176825D01*
X199686Y176725D01*
X199674Y176657D01*
X199674Y124624D01*
X199687Y124537D01*
X199690Y124450D01*
X199707Y124397D01*
X199714Y124342D01*
X199750Y124262D01*
X199777Y124179D01*
X199805Y124140D01*
X199831Y124083D01*
X199926Y123969D01*
X199972Y123906D01*
X201452Y122425D01*
X201452Y118426D01*
X198692Y115666D01*
X198656Y115619D01*
X198614Y115579D01*
X198572Y115506D01*
X198521Y115438D01*
X198500Y115384D01*
X198470Y115333D01*
X198450Y115252D01*
X198420Y115173D01*
X198415Y115114D01*
X198400Y115058D01*
X198403Y114974D01*
X198396Y114890D01*
X198407Y114832D01*
X198409Y114774D01*
X198435Y114693D01*
X198452Y114611D01*
X198479Y114559D01*
X198497Y114503D01*
X198537Y114447D01*
X198583Y114358D01*
X198652Y114286D01*
X198692Y114230D01*
X199899Y113023D01*
X199899Y102743D01*
X199907Y102685D01*
X199905Y102627D01*
X199927Y102545D01*
X199939Y102461D01*
X199962Y102408D01*
X199977Y102352D01*
X200020Y102279D01*
X200055Y102202D01*
X200093Y102157D01*
X200122Y102107D01*
X200184Y102049D01*
X200238Y101985D01*
X200287Y101953D01*
X200330Y101913D01*
X200405Y101874D01*
X200475Y101827D01*
X200531Y101810D01*
X200583Y101783D01*
X200651Y101772D01*
X200664Y101768D01*
X202185Y100247D01*
X202185Y90210D01*
X202193Y90152D01*
X202191Y90094D01*
X202213Y90012D01*
X202225Y89928D01*
X202248Y89875D01*
X202263Y89819D01*
X202306Y89746D01*
X202341Y89669D01*
X202379Y89624D01*
X202408Y89574D01*
X202470Y89516D01*
X202524Y89452D01*
X202573Y89420D01*
X202616Y89380D01*
X202691Y89341D01*
X202761Y89294D01*
X202817Y89277D01*
X202869Y89250D01*
X202937Y89239D01*
X203032Y89209D01*
X203132Y89206D01*
X203200Y89195D01*
X203258Y89203D01*
X203316Y89201D01*
X203398Y89223D01*
X203482Y89235D01*
X203535Y89258D01*
X203591Y89273D01*
X203664Y89316D01*
X203741Y89351D01*
X203786Y89389D01*
X203836Y89418D01*
X203894Y89480D01*
X203958Y89534D01*
X203990Y89583D01*
X204030Y89626D01*
X204069Y89701D01*
X204116Y89771D01*
X204133Y89827D01*
X204160Y89879D01*
X204171Y89947D01*
X204201Y90042D01*
X204204Y90142D01*
X204215Y90210D01*
X204215Y100247D01*
X205731Y101762D01*
X205768Y101768D01*
X205821Y101791D01*
X205877Y101806D01*
X205950Y101849D01*
X206027Y101884D01*
X206072Y101922D01*
X206122Y101951D01*
X206180Y102013D01*
X206244Y102067D01*
X206276Y102116D01*
X206316Y102159D01*
X206355Y102234D01*
X206402Y102304D01*
X206419Y102360D01*
X206446Y102412D01*
X206457Y102480D01*
X206487Y102575D01*
X206490Y102675D01*
X206501Y102743D01*
X206501Y126993D01*
X221539Y142030D01*
X221556Y142054D01*
X221579Y142073D01*
X221641Y142167D01*
X221709Y142257D01*
X221720Y142285D01*
X221736Y142309D01*
X221770Y142417D01*
X221811Y142523D01*
X221813Y142552D01*
X221822Y142580D01*
X221825Y142694D01*
X221834Y142806D01*
X221829Y142835D01*
X221829Y142864D01*
X221801Y142974D01*
X221778Y143085D01*
X221765Y143111D01*
X221757Y143139D01*
X221700Y143237D01*
X221647Y143337D01*
X221627Y143359D01*
X221612Y143384D01*
X221530Y143461D01*
X221452Y143543D01*
X221426Y143558D01*
X221405Y143578D01*
X221304Y143630D01*
X221206Y143687D01*
X221178Y143694D01*
X221152Y143708D01*
X221074Y143721D01*
X220931Y143757D01*
X220868Y143755D01*
X220821Y143763D01*
X220251Y143763D01*
X217423Y146591D01*
X217423Y150589D01*
X218904Y152070D01*
X218956Y152140D01*
X219016Y152204D01*
X219042Y152253D01*
X219075Y152297D01*
X219106Y152379D01*
X219146Y152457D01*
X219154Y152504D01*
X219176Y152563D01*
X219184Y152664D01*
X219187Y152673D01*
X219188Y152710D01*
X219201Y152788D01*
X219201Y176657D01*
X219193Y176715D01*
X219195Y176773D01*
X219173Y176855D01*
X219161Y176939D01*
X219138Y176992D01*
X219123Y177048D01*
X219080Y177121D01*
X219045Y177198D01*
X219007Y177243D01*
X218978Y177293D01*
X218916Y177351D01*
X218862Y177415D01*
X218813Y177447D01*
X218770Y177487D01*
X218695Y177526D01*
X218625Y177573D01*
X218569Y177590D01*
X218517Y177617D01*
X218449Y177628D01*
X218436Y177632D01*
X216915Y179153D01*
X216915Y191687D01*
X218396Y193168D01*
X219613Y193168D01*
X219642Y193172D01*
X219671Y193169D01*
X219782Y193192D01*
X219894Y193208D01*
X219921Y193220D01*
X219950Y193225D01*
X220050Y193278D01*
X220153Y193324D01*
X220176Y193343D01*
X220202Y193356D01*
X220284Y193434D01*
X220370Y193507D01*
X220387Y193532D01*
X220408Y193552D01*
X220465Y193650D01*
X220528Y193744D01*
X220537Y193772D01*
X220552Y193797D01*
X220580Y193907D01*
X220614Y194015D01*
X220615Y194045D01*
X220622Y194073D01*
X220618Y194186D01*
X220621Y194299D01*
X220614Y194328D01*
X220613Y194357D01*
X220578Y194465D01*
X220549Y194574D01*
X220534Y194600D01*
X220525Y194628D01*
X220480Y194692D01*
X220404Y194819D01*
X220358Y194862D01*
X220330Y194901D01*
X219951Y195281D01*
X218365Y199108D01*
X218365Y203252D01*
X219951Y207080D01*
X222880Y210009D01*
X226708Y211595D01*
X230852Y211595D01*
X234680Y210009D01*
X237609Y207080D01*
X239195Y203252D01*
X239195Y199108D01*
X238076Y196408D01*
X238068Y196378D01*
X238054Y196350D01*
X238041Y196273D01*
X238005Y196132D01*
X238007Y196068D01*
X237999Y196019D01*
X237999Y194183D01*
X238007Y194125D01*
X238005Y194067D01*
X238027Y193985D01*
X238039Y193901D01*
X238062Y193848D01*
X238077Y193792D01*
X238120Y193719D01*
X238155Y193642D01*
X238193Y193597D01*
X238222Y193547D01*
X238284Y193489D01*
X238338Y193425D01*
X238387Y193393D01*
X238430Y193353D01*
X238505Y193314D01*
X238575Y193267D01*
X238631Y193250D01*
X238683Y193223D01*
X238751Y193212D01*
X238764Y193208D01*
X240285Y191687D01*
X240285Y179153D01*
X238804Y177672D01*
X231096Y177672D01*
X229615Y179153D01*
X229615Y189750D01*
X229607Y189808D01*
X229609Y189866D01*
X229587Y189948D01*
X229575Y190032D01*
X229552Y190085D01*
X229537Y190141D01*
X229494Y190214D01*
X229459Y190291D01*
X229421Y190336D01*
X229392Y190386D01*
X229330Y190444D01*
X229276Y190508D01*
X229227Y190540D01*
X229184Y190580D01*
X229109Y190619D01*
X229039Y190666D01*
X228983Y190683D01*
X228931Y190710D01*
X228863Y190721D01*
X228768Y190751D01*
X228668Y190754D01*
X228600Y190765D01*
X228542Y190757D01*
X228484Y190759D01*
X228402Y190737D01*
X228318Y190725D01*
X228265Y190702D01*
X228209Y190687D01*
X228136Y190644D01*
X228059Y190609D01*
X228014Y190571D01*
X227964Y190542D01*
X227906Y190480D01*
X227842Y190426D01*
X227810Y190377D01*
X227770Y190334D01*
X227731Y190259D01*
X227684Y190189D01*
X227667Y190133D01*
X227640Y190081D01*
X227629Y190013D01*
X227599Y189918D01*
X227596Y189818D01*
X227585Y189750D01*
X227585Y179153D01*
X226069Y177638D01*
X226032Y177632D01*
X225979Y177609D01*
X225923Y177594D01*
X225850Y177551D01*
X225773Y177516D01*
X225728Y177478D01*
X225678Y177449D01*
X225620Y177387D01*
X225556Y177333D01*
X225524Y177284D01*
X225484Y177241D01*
X225445Y177166D01*
X225398Y177096D01*
X225381Y177040D01*
X225354Y176988D01*
X225343Y176920D01*
X225313Y176825D01*
X225310Y176725D01*
X225299Y176657D01*
X225299Y152788D01*
X225306Y152738D01*
X225305Y152725D01*
X225310Y152706D01*
X225311Y152701D01*
X225314Y152614D01*
X225331Y152561D01*
X225339Y152506D01*
X225374Y152427D01*
X225401Y152343D01*
X225429Y152304D01*
X225455Y152247D01*
X225551Y152134D01*
X225596Y152070D01*
X227077Y150589D01*
X227077Y150019D01*
X227081Y149990D01*
X227078Y149961D01*
X227101Y149850D01*
X227117Y149738D01*
X227129Y149711D01*
X227134Y149682D01*
X227186Y149582D01*
X227233Y149478D01*
X227252Y149456D01*
X227265Y149430D01*
X227343Y149348D01*
X227416Y149261D01*
X227441Y149245D01*
X227461Y149224D01*
X227559Y149167D01*
X227653Y149104D01*
X227681Y149095D01*
X227706Y149080D01*
X227816Y149052D01*
X227924Y149018D01*
X227954Y149017D01*
X227982Y149010D01*
X228095Y149014D01*
X228208Y149011D01*
X228237Y149018D01*
X228266Y149019D01*
X228374Y149054D01*
X228483Y149083D01*
X228509Y149098D01*
X228537Y149107D01*
X228600Y149152D01*
X228728Y149228D01*
X228771Y149273D01*
X228810Y149301D01*
X240714Y161206D01*
X240761Y161246D01*
X240825Y161291D01*
X242306Y162772D01*
X246304Y162772D01*
X248032Y161044D01*
X248079Y161009D01*
X248119Y160966D01*
X248192Y160924D01*
X248259Y160873D01*
X248314Y160852D01*
X248364Y160823D01*
X248446Y160802D01*
X248525Y160772D01*
X248583Y160767D01*
X248640Y160753D01*
X248724Y160755D01*
X248808Y160748D01*
X248866Y160760D01*
X248924Y160762D01*
X249004Y160788D01*
X249087Y160804D01*
X249139Y160831D01*
X249195Y160849D01*
X249251Y160889D01*
X249339Y160935D01*
X249412Y161004D01*
X249468Y161044D01*
X251251Y162827D01*
X255249Y162827D01*
X258077Y159999D01*
X258077Y156001D01*
X256464Y154388D01*
X256429Y154341D01*
X256386Y154301D01*
X256344Y154228D01*
X256293Y154161D01*
X256272Y154106D01*
X256243Y154056D01*
X256222Y153974D01*
X256192Y153895D01*
X256187Y153837D01*
X256173Y153780D01*
X256175Y153696D01*
X256168Y153612D01*
X256180Y153554D01*
X256182Y153496D01*
X256208Y153416D01*
X256224Y153333D01*
X256251Y153281D01*
X256269Y153225D01*
X256309Y153169D01*
X256355Y153081D01*
X256424Y153008D01*
X256464Y152952D01*
X258827Y150589D01*
X258827Y147459D01*
X258835Y147401D01*
X258833Y147343D01*
X258855Y147261D01*
X258867Y147178D01*
X258890Y147124D01*
X258905Y147068D01*
X258948Y146995D01*
X258983Y146918D01*
X259021Y146874D01*
X259050Y146823D01*
X259112Y146766D01*
X259166Y146701D01*
X259215Y146669D01*
X259258Y146629D01*
X259333Y146590D01*
X259403Y146544D01*
X259459Y146526D01*
X259511Y146499D01*
X259579Y146488D01*
X259674Y146458D01*
X259774Y146455D01*
X259842Y146444D01*
X261841Y146444D01*
X264669Y143616D01*
X264669Y139618D01*
X261841Y136790D01*
X257756Y136790D01*
X257751Y136792D01*
X257700Y136822D01*
X257619Y136842D01*
X257540Y136873D01*
X257481Y136877D01*
X257425Y136892D01*
X257341Y136889D01*
X257257Y136896D01*
X257199Y136885D01*
X257141Y136883D01*
X257061Y136857D01*
X256978Y136840D01*
X256926Y136813D01*
X256870Y136795D01*
X256814Y136755D01*
X256726Y136709D01*
X256653Y136640D01*
X256597Y136600D01*
X255264Y135268D01*
X255252Y135251D01*
X255241Y135242D01*
X255223Y135216D01*
X255187Y135181D01*
X255144Y135108D01*
X255093Y135040D01*
X255072Y134986D01*
X255043Y134935D01*
X255022Y134854D01*
X254992Y134775D01*
X254987Y134716D01*
X254973Y134660D01*
X254975Y134576D01*
X254968Y134492D01*
X254980Y134434D01*
X254982Y134376D01*
X255008Y134296D01*
X255024Y134213D01*
X255051Y134161D01*
X255069Y134105D01*
X255109Y134049D01*
X255155Y133960D01*
X255224Y133888D01*
X255264Y133832D01*
X257737Y131359D01*
X257737Y128651D01*
X257745Y128593D01*
X257743Y128535D01*
X257765Y128453D01*
X257777Y128369D01*
X257800Y128316D01*
X257815Y128260D01*
X257858Y128187D01*
X257893Y128110D01*
X257931Y128065D01*
X257960Y128015D01*
X258022Y127957D01*
X258076Y127893D01*
X258125Y127861D01*
X258168Y127821D01*
X258243Y127782D01*
X258313Y127735D01*
X258369Y127718D01*
X258421Y127691D01*
X258489Y127680D01*
X258584Y127650D01*
X258684Y127647D01*
X258752Y127636D01*
X260370Y127636D01*
X263198Y124808D01*
X263198Y122682D01*
X263206Y122624D01*
X263204Y122566D01*
X263226Y122484D01*
X263238Y122400D01*
X263261Y122347D01*
X263276Y122291D01*
X263319Y122218D01*
X263354Y122141D01*
X263392Y122096D01*
X263421Y122046D01*
X263483Y121988D01*
X263537Y121924D01*
X263586Y121892D01*
X263629Y121852D01*
X263704Y121813D01*
X263774Y121766D01*
X263830Y121749D01*
X263882Y121722D01*
X263950Y121711D01*
X264045Y121681D01*
X264145Y121678D01*
X264213Y121667D01*
X265951Y121667D01*
X266018Y121676D01*
X266087Y121676D01*
X266159Y121696D01*
X266233Y121707D01*
X266295Y121734D01*
X266360Y121753D01*
X266424Y121792D01*
X266492Y121823D01*
X266544Y121867D01*
X266602Y121903D01*
X266652Y121958D01*
X266709Y122006D01*
X266747Y122063D01*
X266792Y122114D01*
X266818Y122171D01*
X266867Y122243D01*
X266901Y122352D01*
X266932Y122419D01*
X266986Y122624D01*
X267387Y123317D01*
X267953Y123883D01*
X268646Y124284D01*
X269420Y124491D01*
X272289Y124491D01*
X272289Y117466D01*
X272297Y117408D01*
X272295Y117350D01*
X272317Y117268D01*
X272329Y117185D01*
X272353Y117131D01*
X272367Y117075D01*
X272410Y117002D01*
X272445Y116925D01*
X272483Y116881D01*
X272513Y116830D01*
X272574Y116773D01*
X272629Y116708D01*
X272677Y116676D01*
X272720Y116636D01*
X272795Y116597D01*
X272865Y116551D01*
X272921Y116533D01*
X272973Y116506D01*
X273041Y116495D01*
X273136Y116465D01*
X273236Y116462D01*
X273304Y116451D01*
X274321Y116451D01*
X274321Y115434D01*
X274329Y115376D01*
X274328Y115318D01*
X274349Y115236D01*
X274361Y115153D01*
X274385Y115099D01*
X274399Y115043D01*
X274442Y114970D01*
X274477Y114893D01*
X274515Y114848D01*
X274545Y114798D01*
X274606Y114740D01*
X274661Y114676D01*
X274709Y114644D01*
X274752Y114604D01*
X274827Y114565D01*
X274897Y114519D01*
X274953Y114501D01*
X275005Y114474D01*
X275073Y114463D01*
X275168Y114433D01*
X275268Y114430D01*
X275336Y114419D01*
X281867Y114419D01*
X281954Y114431D01*
X282041Y114434D01*
X282094Y114451D01*
X282148Y114459D01*
X282228Y114494D01*
X282311Y114521D01*
X282351Y114549D01*
X282408Y114575D01*
X282521Y114671D01*
X282585Y114716D01*
X284684Y116815D01*
X284719Y116862D01*
X284761Y116902D01*
X284804Y116975D01*
X284855Y117042D01*
X284875Y117097D01*
X284905Y117147D01*
X284926Y117229D01*
X284956Y117308D01*
X284961Y117366D01*
X284975Y117423D01*
X284972Y117507D01*
X284979Y117591D01*
X284968Y117648D01*
X284966Y117707D01*
X284940Y117787D01*
X284924Y117870D01*
X284897Y117922D01*
X284879Y117977D01*
X284838Y118034D01*
X284793Y118122D01*
X284724Y118195D01*
X284684Y118251D01*
X283594Y119341D01*
X283570Y119358D01*
X283551Y119381D01*
X283457Y119444D01*
X283367Y119512D01*
X283339Y119522D01*
X283315Y119538D01*
X283207Y119572D01*
X283101Y119613D01*
X283072Y119615D01*
X283044Y119624D01*
X282930Y119627D01*
X282818Y119636D01*
X282789Y119631D01*
X282760Y119631D01*
X282650Y119603D01*
X282539Y119580D01*
X282513Y119567D01*
X282485Y119560D01*
X282387Y119502D01*
X282287Y119449D01*
X282265Y119429D01*
X282240Y119414D01*
X282163Y119332D01*
X282081Y119254D01*
X282066Y119228D01*
X282046Y119207D01*
X281994Y119106D01*
X281937Y119008D01*
X281930Y118980D01*
X281916Y118954D01*
X281903Y118876D01*
X281867Y118733D01*
X281869Y118670D01*
X281861Y118623D01*
X281861Y118481D01*
X276351Y118481D01*
X276351Y124491D01*
X279220Y124491D01*
X279391Y124445D01*
X279440Y124439D01*
X279486Y124424D01*
X279580Y124422D01*
X279630Y124416D01*
X279639Y124414D01*
X279643Y124414D01*
X279673Y124411D01*
X279722Y124418D01*
X279770Y124417D01*
X279861Y124441D01*
X279954Y124456D01*
X279998Y124477D01*
X280045Y124489D01*
X280126Y124537D01*
X280211Y124577D01*
X280248Y124609D01*
X280290Y124634D01*
X280354Y124703D01*
X280425Y124765D01*
X280451Y124806D01*
X280484Y124841D01*
X280527Y124925D01*
X280557Y124971D01*
X280570Y124991D01*
X280570Y124992D01*
X280578Y125004D01*
X280592Y125051D01*
X280614Y125095D01*
X280626Y125168D01*
X280633Y125190D01*
X280655Y125262D01*
X280655Y125267D01*
X280658Y125277D01*
X280659Y125364D01*
X280669Y125426D01*
X280669Y129274D01*
X281618Y131565D01*
X281619Y131567D01*
X281620Y131568D01*
X281654Y131702D01*
X281689Y131841D01*
X281689Y131842D01*
X281690Y131844D01*
X281685Y131984D01*
X281681Y132125D01*
X281681Y132126D01*
X281681Y132128D01*
X281638Y132261D01*
X281595Y132395D01*
X281594Y132397D01*
X281593Y132398D01*
X281585Y132410D01*
X281436Y132632D01*
X281413Y132651D01*
X281398Y132672D01*
X270763Y143307D01*
X270763Y153132D01*
X270755Y153190D01*
X270757Y153248D01*
X270735Y153330D01*
X270723Y153414D01*
X270700Y153467D01*
X270685Y153523D01*
X270642Y153596D01*
X270607Y153673D01*
X270569Y153718D01*
X270540Y153768D01*
X270478Y153826D01*
X270424Y153890D01*
X270375Y153922D01*
X270332Y153962D01*
X270257Y154001D01*
X270187Y154048D01*
X270131Y154065D01*
X270079Y154092D01*
X270011Y154103D01*
X269916Y154133D01*
X269816Y154136D01*
X269748Y154147D01*
X268771Y154147D01*
X267287Y155631D01*
X267287Y167729D01*
X268825Y169267D01*
X268855Y169306D01*
X268891Y169339D01*
X268940Y169419D01*
X268996Y169494D01*
X269014Y169540D01*
X269039Y169582D01*
X269064Y169672D01*
X269098Y169760D01*
X269102Y169809D01*
X269115Y169856D01*
X269113Y169950D01*
X269121Y170043D01*
X269112Y170091D01*
X269111Y170140D01*
X269084Y170230D01*
X269065Y170322D01*
X269043Y170365D01*
X269029Y170412D01*
X268978Y170491D01*
X268934Y170575D01*
X268901Y170610D01*
X268874Y170651D01*
X268817Y170698D01*
X268739Y170781D01*
X268664Y170825D01*
X268615Y170864D01*
X267953Y171247D01*
X267387Y171813D01*
X266986Y172506D01*
X266779Y173280D01*
X266779Y177078D01*
X266775Y177107D01*
X266778Y177137D01*
X266755Y177248D01*
X266739Y177360D01*
X266727Y177387D01*
X266722Y177415D01*
X266670Y177516D01*
X266623Y177619D01*
X266604Y177642D01*
X266591Y177668D01*
X266513Y177750D01*
X266440Y177836D01*
X266415Y177852D01*
X266395Y177874D01*
X266297Y177931D01*
X266203Y177994D01*
X266175Y178003D01*
X266150Y178017D01*
X266040Y178045D01*
X265932Y178080D01*
X265902Y178080D01*
X265874Y178088D01*
X265761Y178084D01*
X265648Y178087D01*
X265619Y178079D01*
X265590Y178078D01*
X265482Y178044D01*
X265373Y178015D01*
X265347Y178000D01*
X265319Y177991D01*
X265256Y177945D01*
X265128Y177870D01*
X265085Y177824D01*
X265046Y177796D01*
X265021Y177771D01*
X264329Y177371D01*
X263556Y177164D01*
X262000Y177164D01*
X262000Y184785D01*
X261992Y184843D01*
X261994Y184901D01*
X261972Y184983D01*
X261960Y185066D01*
X261937Y185120D01*
X261922Y185176D01*
X261879Y185249D01*
X261844Y185326D01*
X261806Y185370D01*
X261777Y185421D01*
X261715Y185478D01*
X261661Y185543D01*
X261612Y185575D01*
X261569Y185615D01*
X261494Y185654D01*
X261424Y185700D01*
X261368Y185718D01*
X261316Y185745D01*
X261248Y185756D01*
X261153Y185786D01*
X261053Y185789D01*
X260985Y185800D01*
X259715Y185800D01*
X259657Y185792D01*
X259599Y185793D01*
X259517Y185772D01*
X259433Y185760D01*
X259380Y185736D01*
X259324Y185722D01*
X259251Y185678D01*
X259174Y185644D01*
X259129Y185606D01*
X259079Y185576D01*
X259021Y185515D01*
X258957Y185460D01*
X258925Y185412D01*
X258885Y185369D01*
X258846Y185294D01*
X258799Y185224D01*
X258782Y185168D01*
X258755Y185116D01*
X258744Y185048D01*
X258714Y184953D01*
X258711Y184853D01*
X258700Y184785D01*
X258700Y177164D01*
X257144Y177164D01*
X256371Y177371D01*
X255679Y177771D01*
X255114Y178336D01*
X254697Y179058D01*
X254667Y179097D01*
X254645Y179140D01*
X254580Y179208D01*
X254522Y179282D01*
X254482Y179311D01*
X254449Y179346D01*
X254368Y179393D01*
X254291Y179448D01*
X254245Y179465D01*
X254203Y179490D01*
X254113Y179513D01*
X254024Y179545D01*
X253975Y179548D01*
X253928Y179560D01*
X253834Y179557D01*
X253740Y179563D01*
X253693Y179552D01*
X253644Y179551D01*
X253554Y179522D01*
X253463Y179502D01*
X253420Y179478D01*
X253373Y179463D01*
X253313Y179420D01*
X253213Y179366D01*
X253151Y179305D01*
X253100Y179268D01*
X251504Y177672D01*
X243796Y177672D01*
X242315Y179153D01*
X242315Y191687D01*
X243831Y193202D01*
X243868Y193208D01*
X243921Y193231D01*
X243977Y193246D01*
X244050Y193289D01*
X244127Y193324D01*
X244172Y193362D01*
X244222Y193391D01*
X244280Y193453D01*
X244344Y193507D01*
X244376Y193556D01*
X244416Y193599D01*
X244455Y193674D01*
X244502Y193744D01*
X244519Y193800D01*
X244546Y193852D01*
X244557Y193920D01*
X244587Y194015D01*
X244590Y194115D01*
X244601Y194183D01*
X244601Y195957D01*
X244637Y196005D01*
X244638Y196007D01*
X244639Y196008D01*
X244650Y196038D01*
X244664Y196058D01*
X244693Y196152D01*
X244738Y196271D01*
X244739Y196272D01*
X244739Y196274D01*
X244742Y196305D01*
X244749Y196329D01*
X244752Y196432D01*
X244762Y196554D01*
X244762Y196556D01*
X244762Y196557D01*
X244758Y196572D01*
X244756Y196585D01*
X244757Y196613D01*
X244729Y196718D01*
X244706Y196833D01*
X244692Y196860D01*
X244692Y196862D01*
X244686Y196884D01*
X243765Y199108D01*
X243765Y203252D01*
X245351Y207080D01*
X248280Y210009D01*
X252108Y211595D01*
X256252Y211595D01*
X260080Y210009D01*
X263009Y207080D01*
X264595Y203252D01*
X264595Y199108D01*
X262981Y195212D01*
X262932Y195147D01*
X262918Y195110D01*
X262897Y195077D01*
X262867Y194978D01*
X262830Y194881D01*
X262827Y194842D01*
X262816Y194805D01*
X262815Y194701D01*
X262807Y194598D01*
X262815Y194560D01*
X262814Y194520D01*
X262842Y194420D01*
X262863Y194319D01*
X262881Y194284D01*
X262891Y194247D01*
X262946Y194158D01*
X262994Y194067D01*
X263021Y194038D01*
X263041Y194005D01*
X263118Y193936D01*
X263190Y193861D01*
X263223Y193841D01*
X263252Y193815D01*
X263323Y193782D01*
X263435Y193717D01*
X263507Y193699D01*
X263558Y193675D01*
X264329Y193469D01*
X265021Y193069D01*
X265586Y192504D01*
X265986Y191812D01*
X266193Y191039D01*
X266193Y186804D01*
X266197Y186775D01*
X266194Y186746D01*
X266217Y186635D01*
X266233Y186523D01*
X266245Y186496D01*
X266250Y186467D01*
X266302Y186366D01*
X266349Y186263D01*
X266368Y186241D01*
X266381Y186215D01*
X266459Y186132D01*
X266532Y186046D01*
X266557Y186030D01*
X266577Y186009D01*
X266675Y185951D01*
X266769Y185889D01*
X266797Y185880D01*
X266822Y185865D01*
X266932Y185837D01*
X267040Y185803D01*
X267070Y185802D01*
X267098Y185795D01*
X267211Y185798D01*
X267324Y185795D01*
X267353Y185803D01*
X267382Y185804D01*
X267490Y185839D01*
X267599Y185867D01*
X267625Y185882D01*
X267653Y185891D01*
X267717Y185937D01*
X267844Y186013D01*
X267887Y186058D01*
X267926Y186086D01*
X267953Y186113D01*
X268646Y186514D01*
X269420Y186721D01*
X272289Y186721D01*
X272289Y179696D01*
X272297Y179638D01*
X272295Y179580D01*
X272317Y179498D01*
X272329Y179415D01*
X272353Y179361D01*
X272367Y179305D01*
X272410Y179232D01*
X272445Y179155D01*
X272483Y179111D01*
X272513Y179060D01*
X272574Y179003D01*
X272629Y178938D01*
X272677Y178906D01*
X272720Y178866D01*
X272795Y178827D01*
X272865Y178781D01*
X272921Y178763D01*
X272973Y178736D01*
X273041Y178725D01*
X273136Y178695D01*
X273236Y178692D01*
X273304Y178681D01*
X275336Y178681D01*
X275394Y178689D01*
X275452Y178688D01*
X275534Y178709D01*
X275617Y178721D01*
X275671Y178745D01*
X275727Y178759D01*
X275800Y178802D01*
X275877Y178837D01*
X275921Y178875D01*
X275972Y178905D01*
X276029Y178966D01*
X276094Y179021D01*
X276126Y179069D01*
X276166Y179112D01*
X276205Y179187D01*
X276251Y179257D01*
X276269Y179313D01*
X276296Y179365D01*
X276307Y179433D01*
X276337Y179528D01*
X276340Y179628D01*
X276351Y179696D01*
X276351Y186721D01*
X279220Y186721D01*
X279994Y186514D01*
X280687Y186113D01*
X281253Y185547D01*
X281480Y185153D01*
X281511Y185115D01*
X281533Y185072D01*
X281598Y185003D01*
X281656Y184930D01*
X281695Y184901D01*
X281729Y184866D01*
X281810Y184818D01*
X281886Y184763D01*
X281932Y184746D01*
X281974Y184722D01*
X282065Y184699D01*
X282154Y184667D01*
X282202Y184664D01*
X282250Y184652D01*
X282343Y184655D01*
X282437Y184649D01*
X282485Y184659D01*
X282534Y184661D01*
X282623Y184690D01*
X282715Y184710D01*
X282758Y184733D01*
X282804Y184748D01*
X282865Y184791D01*
X282965Y184846D01*
X283027Y184907D01*
X283078Y184943D01*
X285625Y187491D01*
X289826Y189231D01*
X294374Y189231D01*
X298575Y187490D01*
X301790Y184275D01*
X303531Y180074D01*
X303531Y175526D01*
X302371Y172727D01*
X302371Y172725D01*
X302370Y172724D01*
X302336Y172590D01*
X302300Y172451D01*
X302300Y172450D01*
X302300Y172448D01*
X302304Y172308D01*
X302308Y172167D01*
X302309Y172166D01*
X302309Y172164D01*
X302352Y172030D01*
X302395Y171897D01*
X302396Y171895D01*
X302396Y171894D01*
X302405Y171882D01*
X302553Y171660D01*
X302577Y171641D01*
X302591Y171620D01*
X305003Y169208D01*
X305004Y169208D01*
X307087Y167125D01*
X307087Y166883D01*
X307098Y166803D01*
X307100Y166722D01*
X307118Y166662D01*
X307127Y166601D01*
X307160Y166527D01*
X307184Y166450D01*
X307218Y166398D01*
X307243Y166342D01*
X307295Y166280D01*
X307339Y166212D01*
X307386Y166172D01*
X307426Y166125D01*
X307494Y166080D01*
X307555Y166027D01*
X307612Y166001D01*
X307663Y165967D01*
X307740Y165943D01*
X307814Y165909D01*
X307875Y165900D01*
X307934Y165881D01*
X308015Y165879D01*
X308095Y165867D01*
X308156Y165876D01*
X308218Y165874D01*
X308297Y165895D01*
X308377Y165905D01*
X308434Y165930D01*
X308493Y165946D01*
X308563Y165987D01*
X308637Y166020D01*
X308677Y166055D01*
X308738Y166091D01*
X308830Y166190D01*
X308889Y166241D01*
X313406Y171787D01*
X315228Y172880D01*
X315282Y172924D01*
X315342Y172959D01*
X315392Y173013D01*
X315449Y173059D01*
X315489Y173116D01*
X315536Y173167D01*
X315570Y173232D01*
X315612Y173293D01*
X315634Y173358D01*
X315666Y173420D01*
X315676Y173481D01*
X315703Y173562D01*
X315709Y173677D01*
X315721Y173751D01*
X315721Y195705D01*
X316380Y197073D01*
X316380Y197074D01*
X317358Y199104D01*
X318589Y201659D01*
X321451Y203942D01*
X321511Y204005D01*
X321576Y204061D01*
X321608Y204108D01*
X321647Y204149D01*
X321686Y204225D01*
X321734Y204297D01*
X321751Y204351D01*
X321777Y204402D01*
X321794Y204486D01*
X321820Y204568D01*
X321821Y204625D01*
X321832Y204680D01*
X321825Y204766D01*
X321827Y204852D01*
X321813Y204907D01*
X321808Y204964D01*
X321777Y205044D01*
X321755Y205127D01*
X321726Y205176D01*
X321706Y205229D01*
X321654Y205298D01*
X321610Y205372D01*
X321569Y205411D01*
X321534Y205456D01*
X321466Y205507D01*
X321403Y205566D01*
X321352Y205592D01*
X321307Y205626D01*
X321226Y205657D01*
X321150Y205696D01*
X321101Y205704D01*
X321041Y205727D01*
X320896Y205738D01*
X320818Y205751D01*
X315054Y205751D01*
X314940Y205735D01*
X314826Y205725D01*
X314800Y205715D01*
X314772Y205711D01*
X314668Y205664D01*
X314561Y205623D01*
X314538Y205607D01*
X314513Y205595D01*
X314425Y205521D01*
X314334Y205452D01*
X314317Y205429D01*
X314296Y205412D01*
X314232Y205316D01*
X314164Y205224D01*
X314154Y205198D01*
X314138Y205175D01*
X314104Y205065D01*
X314063Y204958D01*
X314061Y204930D01*
X314053Y204904D01*
X314050Y204789D01*
X314041Y204675D01*
X314046Y204650D01*
X314045Y204620D01*
X314112Y204363D01*
X314116Y204347D01*
X314633Y203100D01*
X314633Y199260D01*
X313163Y195712D01*
X310448Y192997D01*
X306900Y191527D01*
X303060Y191527D01*
X299512Y192997D01*
X296797Y195712D01*
X295327Y199260D01*
X295327Y203100D01*
X296797Y206648D01*
X298727Y208578D01*
X298745Y208602D01*
X298767Y208621D01*
X298830Y208715D01*
X298898Y208805D01*
X298908Y208833D01*
X298925Y208857D01*
X298959Y208965D01*
X298999Y209071D01*
X299002Y209100D01*
X299011Y209128D01*
X299013Y209242D01*
X299023Y209354D01*
X299017Y209383D01*
X299018Y209412D01*
X298989Y209522D01*
X298967Y209633D01*
X298953Y209659D01*
X298946Y209687D01*
X298888Y209785D01*
X298836Y209885D01*
X298816Y209907D01*
X298801Y209932D01*
X298718Y210009D01*
X298640Y210091D01*
X298615Y210106D01*
X298593Y210126D01*
X298493Y210178D01*
X298395Y210235D01*
X298366Y210242D01*
X298340Y210256D01*
X298263Y210269D01*
X298119Y210305D01*
X298057Y210303D01*
X298009Y210311D01*
X293443Y210311D01*
X293357Y210299D01*
X293269Y210296D01*
X293217Y210279D01*
X293162Y210271D01*
X293082Y210236D01*
X292999Y210209D01*
X292960Y210181D01*
X292902Y210155D01*
X292789Y210059D01*
X292725Y210014D01*
X288710Y205999D01*
X288709Y205998D01*
X288708Y205997D01*
X288619Y205877D01*
X288539Y205772D01*
X288539Y205770D01*
X288538Y205769D01*
X288487Y205634D01*
X288438Y205506D01*
X288438Y205504D01*
X288438Y205503D01*
X288426Y205357D01*
X288415Y205223D01*
X288415Y205221D01*
X288415Y205220D01*
X288418Y205204D01*
X288471Y204944D01*
X288485Y204917D01*
X288490Y204892D01*
X289233Y203100D01*
X289233Y199260D01*
X287763Y195712D01*
X285048Y192997D01*
X281500Y191527D01*
X277660Y191527D01*
X274112Y192997D01*
X271397Y195712D01*
X269927Y199260D01*
X269927Y203100D01*
X271397Y206648D01*
X274112Y209363D01*
X277660Y210833D01*
X281500Y210833D01*
X283292Y210090D01*
X283294Y210090D01*
X283295Y210089D01*
X283430Y210055D01*
X283568Y210019D01*
X283569Y210019D01*
X283571Y210019D01*
X283711Y210023D01*
X283852Y210028D01*
X283853Y210028D01*
X283855Y210028D01*
X283988Y210071D01*
X284123Y210114D01*
X284124Y210115D01*
X284125Y210116D01*
X284138Y210124D01*
X284359Y210272D01*
X284379Y210296D01*
X284399Y210310D01*
X288414Y214325D01*
X290287Y216198D01*
X290304Y216222D01*
X290327Y216241D01*
X290389Y216335D01*
X290457Y216425D01*
X290468Y216453D01*
X290484Y216477D01*
X290518Y216585D01*
X290559Y216691D01*
X290561Y216720D01*
X290570Y216748D01*
X290573Y216862D01*
X290582Y216974D01*
X290577Y217003D01*
X290577Y217032D01*
X290549Y217142D01*
X290526Y217253D01*
X290513Y217279D01*
X290505Y217307D01*
X290448Y217405D01*
X290395Y217505D01*
X290375Y217527D01*
X290360Y217552D01*
X290278Y217629D01*
X290200Y217711D01*
X290174Y217726D01*
X290153Y217746D01*
X290052Y217798D01*
X289954Y217855D01*
X289926Y217862D01*
X289900Y217876D01*
X289822Y217889D01*
X289679Y217925D01*
X289616Y217923D01*
X289569Y217931D01*
X51398Y217931D01*
X51340Y217923D01*
X51282Y217925D01*
X51200Y217903D01*
X51116Y217891D01*
X51063Y217868D01*
X51007Y217853D01*
X50934Y217810D01*
X50857Y217775D01*
X50812Y217737D01*
X50762Y217708D01*
X50704Y217646D01*
X50640Y217592D01*
X50608Y217543D01*
X50568Y217500D01*
X50529Y217425D01*
X50482Y217355D01*
X50465Y217299D01*
X50438Y217247D01*
X50427Y217179D01*
X50397Y217084D01*
X50394Y216984D01*
X50383Y216916D01*
X50383Y205369D01*
X48911Y203897D01*
X27789Y203897D01*
X26317Y205369D01*
X26317Y216916D01*
X26309Y216974D01*
X26311Y217032D01*
X26289Y217114D01*
X26277Y217198D01*
X26254Y217251D01*
X26239Y217307D01*
X26196Y217380D01*
X26161Y217457D01*
X26123Y217502D01*
X26094Y217552D01*
X26032Y217610D01*
X25978Y217674D01*
X25929Y217706D01*
X25886Y217746D01*
X25811Y217785D01*
X25741Y217832D01*
X25685Y217849D01*
X25633Y217876D01*
X25565Y217887D01*
X25470Y217917D01*
X25370Y217920D01*
X25302Y217931D01*
X4064Y217931D01*
X4006Y217923D01*
X3948Y217925D01*
X3866Y217903D01*
X3782Y217891D01*
X3729Y217868D01*
X3673Y217853D01*
X3600Y217810D01*
X3523Y217775D01*
X3478Y217737D01*
X3428Y217708D01*
X3370Y217646D01*
X3306Y217592D01*
X3274Y217543D01*
X3234Y217500D01*
X3195Y217425D01*
X3148Y217355D01*
X3131Y217299D01*
X3104Y217247D01*
X3093Y217179D01*
X3063Y217084D01*
X3060Y216984D01*
X3049Y216916D01*
X3049Y204374D01*
X3053Y204345D01*
X3050Y204316D01*
X3073Y204205D01*
X3089Y204093D01*
X3101Y204066D01*
X3106Y204037D01*
X3158Y203937D01*
X3205Y203833D01*
X3224Y203811D01*
X3237Y203785D01*
X3315Y203703D01*
X3388Y203616D01*
X3413Y203600D01*
X3433Y203579D01*
X3531Y203521D01*
X3625Y203459D01*
X3653Y203450D01*
X3678Y203435D01*
X3788Y203407D01*
X3896Y203373D01*
X3925Y203372D01*
X3954Y203365D01*
X4067Y203368D01*
X4180Y203366D01*
X4209Y203373D01*
X4238Y203374D01*
X4346Y203409D01*
X4455Y203437D01*
X4481Y203452D01*
X4509Y203461D01*
X4572Y203507D01*
X4700Y203583D01*
X4743Y203628D01*
X4782Y203656D01*
X4987Y203861D01*
X5682Y204263D01*
X6458Y204471D01*
X12601Y204471D01*
X12601Y199414D01*
X12609Y199356D01*
X12607Y199298D01*
X12629Y199216D01*
X12641Y199133D01*
X12664Y199079D01*
X12679Y199023D01*
X12722Y198950D01*
X12757Y198873D01*
X12795Y198829D01*
X12824Y198778D01*
X12886Y198721D01*
X12940Y198656D01*
X12989Y198624D01*
X13032Y198584D01*
X13107Y198545D01*
X13177Y198499D01*
X13233Y198481D01*
X13285Y198454D01*
X13353Y198443D01*
X13448Y198413D01*
X13548Y198410D01*
X13575Y198406D01*
X13577Y198388D01*
X13576Y198330D01*
X13597Y198248D01*
X13609Y198164D01*
X13633Y198111D01*
X13647Y198055D01*
X13691Y197982D01*
X13725Y197905D01*
X13763Y197860D01*
X13793Y197810D01*
X13854Y197752D01*
X13909Y197688D01*
X13957Y197656D01*
X14000Y197616D01*
X14075Y197577D01*
X14145Y197530D01*
X14201Y197513D01*
X14253Y197486D01*
X14321Y197475D01*
X14416Y197445D01*
X14516Y197442D01*
X14584Y197431D01*
X24391Y197431D01*
X24391Y196038D01*
X24183Y195262D01*
X23990Y194929D01*
X23987Y194920D01*
X23981Y194912D01*
X23934Y194789D01*
X23884Y194665D01*
X23883Y194655D01*
X23879Y194646D01*
X23868Y194514D01*
X23855Y194382D01*
X23857Y194373D01*
X23856Y194363D01*
X23882Y194233D01*
X23905Y194103D01*
X23910Y194094D01*
X23912Y194084D01*
X23973Y193966D01*
X24032Y193848D01*
X24038Y193841D01*
X24043Y193832D01*
X24134Y193736D01*
X24223Y193638D01*
X24232Y193633D01*
X24239Y193626D01*
X24353Y193559D01*
X24466Y193490D01*
X24475Y193487D01*
X24484Y193482D01*
X24612Y193450D01*
X24740Y193414D01*
X24750Y193414D01*
X24759Y193412D01*
X24891Y193416D01*
X25024Y193418D01*
X25034Y193421D01*
X25043Y193421D01*
X25169Y193462D01*
X25296Y193500D01*
X25305Y193506D01*
X25314Y193509D01*
X25360Y193541D01*
X25535Y193655D01*
X25558Y193683D01*
X25587Y193703D01*
X25941Y194057D01*
X29939Y194057D01*
X32767Y191229D01*
X32767Y187231D01*
X31039Y185503D01*
X31004Y185456D01*
X30961Y185416D01*
X30919Y185343D01*
X30868Y185276D01*
X30847Y185221D01*
X30818Y185171D01*
X30797Y185089D01*
X30767Y185010D01*
X30762Y184952D01*
X30748Y184895D01*
X30750Y184811D01*
X30743Y184727D01*
X30755Y184669D01*
X30757Y184611D01*
X30783Y184531D01*
X30799Y184448D01*
X30826Y184396D01*
X30844Y184340D01*
X30884Y184284D01*
X30930Y184196D01*
X30999Y184123D01*
X31039Y184067D01*
X34037Y181069D01*
X34037Y177071D01*
X31209Y174243D01*
X27211Y174243D01*
X25870Y175584D01*
X25800Y175636D01*
X25736Y175696D01*
X25687Y175722D01*
X25643Y175755D01*
X25561Y175786D01*
X25483Y175826D01*
X25436Y175834D01*
X25377Y175856D01*
X25230Y175868D01*
X25152Y175881D01*
X24798Y175881D01*
X24711Y175869D01*
X24624Y175866D01*
X24571Y175849D01*
X24516Y175841D01*
X24436Y175806D01*
X24353Y175779D01*
X24314Y175751D01*
X24257Y175725D01*
X24144Y175629D01*
X24080Y175584D01*
X23144Y174648D01*
X23109Y174601D01*
X23066Y174561D01*
X23024Y174488D01*
X22973Y174421D01*
X22952Y174366D01*
X22923Y174316D01*
X22902Y174234D01*
X22872Y174155D01*
X22867Y174097D01*
X22852Y174040D01*
X22855Y173956D01*
X22848Y173872D01*
X22860Y173814D01*
X22862Y173756D01*
X22887Y173676D01*
X22904Y173593D01*
X22931Y173541D01*
X22949Y173485D01*
X22989Y173429D01*
X23035Y173341D01*
X23104Y173268D01*
X23144Y173212D01*
X24080Y172276D01*
X24150Y172224D01*
X24214Y172164D01*
X24263Y172138D01*
X24307Y172105D01*
X24389Y172074D01*
X24467Y172034D01*
X24514Y172026D01*
X24573Y172004D01*
X24720Y171992D01*
X24798Y171979D01*
X47892Y171979D01*
X47979Y171991D01*
X48066Y171994D01*
X48119Y172011D01*
X48174Y172019D01*
X48253Y172054D01*
X48337Y172081D01*
X48376Y172109D01*
X48433Y172135D01*
X48546Y172231D01*
X48610Y172276D01*
X51341Y175007D01*
X55339Y175007D01*
X58316Y172030D01*
X58377Y171984D01*
X58432Y171930D01*
X58490Y171899D01*
X58543Y171859D01*
X58615Y171832D01*
X58682Y171795D01*
X58747Y171781D01*
X58809Y171758D01*
X58885Y171751D01*
X58960Y171735D01*
X59026Y171740D01*
X59092Y171734D01*
X59167Y171749D01*
X59244Y171754D01*
X59297Y171775D01*
X59371Y171790D01*
X59484Y171849D01*
X59556Y171877D01*
X61228Y172880D01*
X61282Y172924D01*
X61342Y172959D01*
X61392Y173013D01*
X61449Y173059D01*
X61489Y173116D01*
X61536Y173167D01*
X61570Y173232D01*
X61612Y173293D01*
X61634Y173358D01*
X61666Y173420D01*
X61676Y173481D01*
X61703Y173562D01*
X61709Y173677D01*
X61721Y173751D01*
X61721Y195705D01*
X62380Y197073D01*
X62380Y197074D01*
X63358Y199104D01*
X64589Y201659D01*
X69756Y205780D01*
X76200Y207251D01*
X82644Y205780D01*
X87811Y201660D01*
X90679Y195705D01*
X90679Y173751D01*
X90688Y173682D01*
X90688Y173613D01*
X90708Y173542D01*
X90719Y173469D01*
X90747Y173406D01*
X90766Y173340D01*
X90805Y173277D01*
X90835Y173210D01*
X90880Y173157D01*
X90916Y173098D01*
X90963Y173058D01*
X91018Y172993D01*
X91115Y172929D01*
X91172Y172880D01*
X92993Y171787D01*
X98584Y164925D01*
X101508Y156570D01*
X101419Y147720D01*
X98326Y139426D01*
X92599Y132678D01*
X84919Y128278D01*
X76200Y126751D01*
X68394Y128118D01*
X68277Y128122D01*
X68160Y128132D01*
X68135Y128127D01*
X68110Y128127D01*
X67996Y128099D01*
X67882Y128076D01*
X67859Y128064D01*
X67834Y128058D01*
X67733Y127998D01*
X67629Y127945D01*
X67611Y127927D01*
X67589Y127914D01*
X67508Y127829D01*
X67423Y127749D01*
X67410Y127727D01*
X67393Y127708D01*
X67339Y127604D01*
X67280Y127504D01*
X67273Y127479D01*
X67261Y127456D01*
X67238Y127341D01*
X67209Y127228D01*
X67210Y127203D01*
X67205Y127177D01*
X67215Y127061D01*
X67218Y126944D01*
X67226Y126920D01*
X67228Y126894D01*
X67270Y126784D01*
X67306Y126674D01*
X67319Y126655D01*
X67329Y126628D01*
X67500Y126401D01*
X67501Y126401D01*
X67501Y126400D01*
X73708Y120193D01*
X73708Y116898D01*
X73716Y116840D01*
X73714Y116782D01*
X73736Y116700D01*
X73748Y116616D01*
X73771Y116563D01*
X73786Y116507D01*
X73829Y116434D01*
X73864Y116357D01*
X73902Y116312D01*
X73931Y116262D01*
X73993Y116204D01*
X74047Y116140D01*
X74096Y116108D01*
X74139Y116068D01*
X74214Y116029D01*
X74284Y115982D01*
X74340Y115965D01*
X74392Y115938D01*
X74460Y115927D01*
X74555Y115897D01*
X74655Y115894D01*
X74723Y115883D01*
X76703Y115883D01*
X77362Y115224D01*
X77432Y115172D01*
X77495Y115112D01*
X77545Y115086D01*
X77589Y115053D01*
X77671Y115022D01*
X77748Y114982D01*
X77796Y114974D01*
X77854Y114952D01*
X78002Y114940D01*
X78080Y114927D01*
X80852Y114927D01*
X80910Y114935D01*
X80968Y114933D01*
X81050Y114955D01*
X81134Y114967D01*
X81187Y114990D01*
X81243Y115005D01*
X81316Y115048D01*
X81393Y115083D01*
X81438Y115121D01*
X81488Y115150D01*
X81546Y115212D01*
X81610Y115266D01*
X81642Y115315D01*
X81682Y115358D01*
X81721Y115433D01*
X81768Y115503D01*
X81785Y115559D01*
X81812Y115611D01*
X81823Y115679D01*
X81853Y115774D01*
X81856Y115874D01*
X81867Y115942D01*
X81867Y117419D01*
X83351Y118903D01*
X94449Y118903D01*
X95933Y117419D01*
X95933Y115942D01*
X95941Y115884D01*
X95939Y115826D01*
X95961Y115744D01*
X95973Y115660D01*
X95996Y115607D01*
X96011Y115551D01*
X96054Y115478D01*
X96089Y115401D01*
X96127Y115356D01*
X96156Y115306D01*
X96218Y115248D01*
X96272Y115184D01*
X96321Y115152D01*
X96364Y115112D01*
X96439Y115073D01*
X96509Y115026D01*
X96565Y115009D01*
X96617Y114982D01*
X96685Y114971D01*
X96780Y114941D01*
X96880Y114938D01*
X96948Y114927D01*
X100060Y114927D01*
X100147Y114939D01*
X100234Y114942D01*
X100287Y114959D01*
X100342Y114967D01*
X100421Y115002D01*
X100505Y115029D01*
X100544Y115057D01*
X100601Y115083D01*
X100714Y115179D01*
X100778Y115224D01*
X102141Y116587D01*
X106036Y116587D01*
X106094Y116595D01*
X106152Y116593D01*
X106234Y116615D01*
X106318Y116627D01*
X106371Y116650D01*
X106427Y116665D01*
X106500Y116708D01*
X106577Y116743D01*
X106622Y116781D01*
X106672Y116810D01*
X106730Y116872D01*
X106794Y116926D01*
X106826Y116975D01*
X106866Y117018D01*
X106905Y117093D01*
X106952Y117163D01*
X106969Y117219D01*
X106996Y117271D01*
X107007Y117339D01*
X107037Y117434D01*
X107040Y117534D01*
X107051Y117602D01*
X107051Y135493D01*
X107906Y136347D01*
X107958Y136417D01*
X108018Y136481D01*
X108044Y136531D01*
X108077Y136575D01*
X108108Y136656D01*
X108148Y136734D01*
X108156Y136782D01*
X108178Y136840D01*
X108190Y136988D01*
X108203Y137065D01*
X108203Y139159D01*
X111031Y141987D01*
X115029Y141987D01*
X117857Y139159D01*
X117857Y135161D01*
X115029Y132333D01*
X114164Y132333D01*
X114106Y132325D01*
X114048Y132327D01*
X113966Y132305D01*
X113882Y132293D01*
X113829Y132270D01*
X113773Y132255D01*
X113700Y132212D01*
X113623Y132177D01*
X113578Y132139D01*
X113528Y132110D01*
X113470Y132048D01*
X113406Y131994D01*
X113374Y131945D01*
X113334Y131902D01*
X113295Y131827D01*
X113248Y131757D01*
X113231Y131701D01*
X113204Y131649D01*
X113193Y131581D01*
X113163Y131486D01*
X113160Y131386D01*
X113149Y131318D01*
X113149Y84248D01*
X113157Y84190D01*
X113155Y84132D01*
X113177Y84050D01*
X113189Y83966D01*
X113212Y83913D01*
X113227Y83857D01*
X113270Y83784D01*
X113305Y83707D01*
X113343Y83662D01*
X113372Y83612D01*
X113434Y83554D01*
X113488Y83490D01*
X113537Y83458D01*
X113580Y83418D01*
X113655Y83379D01*
X113725Y83332D01*
X113781Y83315D01*
X113833Y83288D01*
X113901Y83277D01*
X113996Y83247D01*
X114096Y83244D01*
X114164Y83233D01*
X116149Y83233D01*
X116208Y83174D01*
X116299Y83105D01*
X116387Y83031D01*
X116413Y83020D01*
X116435Y83003D01*
X116542Y82962D01*
X116647Y82916D01*
X116675Y82912D01*
X116701Y82902D01*
X116815Y82892D01*
X116929Y82877D01*
X116956Y82881D01*
G37*
G36*
X352520Y61477D02*
X352520Y61477D01*
X352578Y61475D01*
X352660Y61497D01*
X352744Y61509D01*
X352797Y61532D01*
X352853Y61547D01*
X352926Y61590D01*
X353003Y61625D01*
X353048Y61663D01*
X353098Y61692D01*
X353156Y61754D01*
X353220Y61808D01*
X353252Y61857D01*
X353292Y61900D01*
X353331Y61975D01*
X353378Y62045D01*
X353395Y62101D01*
X353422Y62153D01*
X353433Y62221D01*
X353463Y62316D01*
X353466Y62416D01*
X353477Y62484D01*
X353477Y74031D01*
X354949Y75503D01*
X376071Y75503D01*
X377543Y74031D01*
X377543Y62484D01*
X377551Y62426D01*
X377549Y62368D01*
X377571Y62286D01*
X377583Y62202D01*
X377606Y62149D01*
X377621Y62093D01*
X377664Y62020D01*
X377699Y61943D01*
X377737Y61898D01*
X377766Y61848D01*
X377828Y61790D01*
X377882Y61726D01*
X377931Y61694D01*
X377974Y61654D01*
X378049Y61615D01*
X378119Y61568D01*
X378175Y61551D01*
X378227Y61524D01*
X378295Y61513D01*
X378390Y61483D01*
X378490Y61480D01*
X378558Y61469D01*
X402336Y61469D01*
X402394Y61477D01*
X402452Y61475D01*
X402534Y61497D01*
X402618Y61509D01*
X402671Y61532D01*
X402727Y61547D01*
X402800Y61590D01*
X402877Y61625D01*
X402922Y61663D01*
X402972Y61692D01*
X403030Y61754D01*
X403094Y61808D01*
X403126Y61857D01*
X403166Y61900D01*
X403205Y61975D01*
X403252Y62045D01*
X403269Y62101D01*
X403296Y62153D01*
X403307Y62221D01*
X403337Y62316D01*
X403340Y62416D01*
X403351Y62484D01*
X403351Y169768D01*
X403347Y169798D01*
X403350Y169828D01*
X403327Y169939D01*
X403311Y170050D01*
X403299Y170077D01*
X403293Y170106D01*
X403241Y170207D01*
X403195Y170309D01*
X403176Y170332D01*
X403162Y170359D01*
X403084Y170440D01*
X403012Y170526D01*
X402987Y170543D01*
X402966Y170564D01*
X402869Y170621D01*
X402775Y170684D01*
X402746Y170693D01*
X402721Y170708D01*
X402611Y170736D01*
X402504Y170770D01*
X402474Y170770D01*
X402445Y170778D01*
X402332Y170774D01*
X402220Y170777D01*
X402191Y170769D01*
X402161Y170768D01*
X402157Y170767D01*
X399914Y170767D01*
X399856Y170759D01*
X399798Y170761D01*
X399716Y170739D01*
X399632Y170727D01*
X399579Y170704D01*
X399523Y170689D01*
X399450Y170646D01*
X399373Y170611D01*
X399328Y170573D01*
X399278Y170544D01*
X399220Y170482D01*
X399156Y170428D01*
X399124Y170379D01*
X399084Y170336D01*
X399045Y170261D01*
X398998Y170191D01*
X398981Y170135D01*
X398954Y170083D01*
X398943Y170015D01*
X398913Y169920D01*
X398910Y169820D01*
X398899Y169752D01*
X398899Y169001D01*
X398911Y168915D01*
X398914Y168827D01*
X398931Y168775D01*
X398939Y168720D01*
X398974Y168640D01*
X399001Y168557D01*
X399029Y168517D01*
X399055Y168460D01*
X399151Y168347D01*
X399196Y168283D01*
X399883Y167597D01*
X399883Y160203D01*
X398397Y158717D01*
X389003Y158717D01*
X387517Y160203D01*
X387517Y167597D01*
X389003Y169083D01*
X389034Y169083D01*
X389064Y169087D01*
X389093Y169084D01*
X389204Y169107D01*
X389316Y169123D01*
X389343Y169135D01*
X389371Y169140D01*
X389472Y169193D01*
X389575Y169239D01*
X389598Y169258D01*
X389624Y169271D01*
X389706Y169349D01*
X389792Y169422D01*
X389809Y169447D01*
X389830Y169467D01*
X389887Y169565D01*
X389950Y169659D01*
X389959Y169687D01*
X389974Y169712D01*
X390001Y169822D01*
X390036Y169930D01*
X390036Y169960D01*
X390044Y169988D01*
X390040Y170100D01*
X390043Y170214D01*
X390036Y170243D01*
X390035Y170272D01*
X390000Y170380D01*
X389971Y170489D01*
X389956Y170515D01*
X389947Y170543D01*
X389902Y170607D01*
X389826Y170734D01*
X389824Y170736D01*
X389823Y170736D01*
X389780Y170777D01*
X389752Y170816D01*
X388068Y172500D01*
X388021Y172535D01*
X387981Y172578D01*
X387908Y172620D01*
X387841Y172671D01*
X387786Y172692D01*
X387736Y172722D01*
X387654Y172742D01*
X387575Y172772D01*
X387517Y172777D01*
X387460Y172792D01*
X387376Y172789D01*
X387292Y172796D01*
X387234Y172784D01*
X387176Y172783D01*
X387096Y172757D01*
X387013Y172740D01*
X386961Y172713D01*
X386905Y172695D01*
X386849Y172655D01*
X386761Y172609D01*
X386688Y172540D01*
X386632Y172500D01*
X384899Y170767D01*
X372801Y170767D01*
X371317Y172251D01*
X371317Y173736D01*
X371309Y173794D01*
X371311Y173852D01*
X371289Y173934D01*
X371277Y174018D01*
X371254Y174071D01*
X371239Y174127D01*
X371196Y174200D01*
X371161Y174277D01*
X371123Y174322D01*
X371094Y174372D01*
X371032Y174430D01*
X370978Y174494D01*
X370929Y174526D01*
X370886Y174566D01*
X370811Y174605D01*
X370741Y174652D01*
X370685Y174669D01*
X370633Y174696D01*
X370565Y174707D01*
X370470Y174737D01*
X370370Y174740D01*
X370302Y174751D01*
X369697Y174751D01*
X369639Y174743D01*
X369581Y174745D01*
X369499Y174723D01*
X369415Y174711D01*
X369362Y174688D01*
X369306Y174673D01*
X369233Y174630D01*
X369156Y174595D01*
X369111Y174557D01*
X369061Y174528D01*
X369003Y174466D01*
X368939Y174412D01*
X368907Y174363D01*
X368867Y174320D01*
X368828Y174245D01*
X368781Y174175D01*
X368764Y174119D01*
X368737Y174067D01*
X368726Y173999D01*
X368696Y173904D01*
X368693Y173804D01*
X368682Y173736D01*
X368682Y170906D01*
X367193Y169417D01*
X351627Y169417D01*
X351139Y169905D01*
X351066Y169960D01*
X350999Y170022D01*
X350953Y170045D01*
X350911Y170076D01*
X350826Y170109D01*
X350745Y170149D01*
X350694Y170159D01*
X350646Y170177D01*
X350555Y170185D01*
X350466Y170202D01*
X350414Y170197D01*
X350362Y170201D01*
X350273Y170183D01*
X350183Y170174D01*
X350135Y170155D01*
X350084Y170145D01*
X350003Y170103D01*
X349918Y170070D01*
X349877Y170038D01*
X349831Y170014D01*
X349765Y169952D01*
X349694Y169896D01*
X349663Y169854D01*
X349625Y169818D01*
X349579Y169740D01*
X349526Y169667D01*
X349508Y169618D01*
X349482Y169573D01*
X349459Y169485D01*
X349428Y169400D01*
X349424Y169348D01*
X349411Y169298D01*
X349414Y169207D01*
X349408Y169116D01*
X349419Y169065D01*
X349420Y169013D01*
X349448Y168927D01*
X349467Y168838D01*
X349490Y168798D01*
X349508Y168743D01*
X349576Y168648D01*
X349634Y168546D01*
X352584Y164925D01*
X355508Y156570D01*
X355419Y147720D01*
X352326Y139426D01*
X346599Y132678D01*
X338919Y128278D01*
X330200Y126751D01*
X321481Y128278D01*
X313801Y132678D01*
X308876Y138481D01*
X308823Y138528D01*
X308777Y138582D01*
X308718Y138622D01*
X308664Y138670D01*
X308600Y138700D01*
X308541Y138740D01*
X308472Y138761D01*
X308407Y138792D01*
X308337Y138804D01*
X308270Y138825D01*
X308198Y138827D01*
X308127Y138839D01*
X308056Y138831D01*
X307986Y138833D01*
X307916Y138814D01*
X307844Y138806D01*
X307779Y138779D01*
X307711Y138761D01*
X307649Y138724D01*
X307582Y138696D01*
X307527Y138652D01*
X307466Y138616D01*
X307417Y138563D01*
X307361Y138518D01*
X307320Y138460D01*
X307272Y138408D01*
X307239Y138344D01*
X307197Y138285D01*
X307174Y138218D01*
X307142Y138155D01*
X307132Y138095D01*
X307105Y138016D01*
X307099Y137898D01*
X307087Y137824D01*
X307087Y129445D01*
X307094Y129394D01*
X307093Y129374D01*
X307099Y129352D01*
X307102Y129271D01*
X307119Y129219D01*
X307127Y129164D01*
X307162Y129084D01*
X307189Y129001D01*
X307217Y128962D01*
X307243Y128904D01*
X307339Y128791D01*
X307384Y128727D01*
X322275Y113836D01*
X322345Y113784D01*
X322409Y113724D01*
X322458Y113698D01*
X322503Y113665D01*
X322584Y113634D01*
X322662Y113594D01*
X322710Y113586D01*
X322768Y113564D01*
X322916Y113552D01*
X322993Y113539D01*
X354397Y113539D01*
X354426Y113543D01*
X354455Y113540D01*
X354566Y113563D01*
X354678Y113579D01*
X354705Y113591D01*
X354734Y113596D01*
X354834Y113649D01*
X354938Y113695D01*
X354960Y113714D01*
X354986Y113727D01*
X355068Y113805D01*
X355155Y113878D01*
X355171Y113903D01*
X355192Y113923D01*
X355249Y114021D01*
X355312Y114115D01*
X355321Y114143D01*
X355336Y114168D01*
X355364Y114278D01*
X355398Y114386D01*
X355399Y114416D01*
X355406Y114444D01*
X355402Y114557D01*
X355405Y114670D01*
X355398Y114699D01*
X355397Y114728D01*
X355362Y114836D01*
X355333Y114945D01*
X355318Y114971D01*
X355309Y114999D01*
X355264Y115062D01*
X355188Y115190D01*
X355143Y115233D01*
X355115Y115272D01*
X353477Y116909D01*
X353477Y130031D01*
X354949Y131503D01*
X376071Y131503D01*
X377543Y130031D01*
X377543Y116909D01*
X375885Y115252D01*
X375868Y115228D01*
X375845Y115209D01*
X375783Y115115D01*
X375715Y115025D01*
X375704Y114997D01*
X375688Y114973D01*
X375654Y114865D01*
X375613Y114759D01*
X375611Y114730D01*
X375602Y114702D01*
X375599Y114588D01*
X375590Y114476D01*
X375595Y114447D01*
X375595Y114418D01*
X375623Y114308D01*
X375646Y114197D01*
X375659Y114171D01*
X375667Y114143D01*
X375724Y114045D01*
X375777Y113945D01*
X375797Y113923D01*
X375812Y113898D01*
X375894Y113821D01*
X375972Y113739D01*
X375998Y113724D01*
X376019Y113704D01*
X376120Y113652D01*
X376218Y113595D01*
X376246Y113588D01*
X376272Y113574D01*
X376350Y113561D01*
X376493Y113525D01*
X376556Y113527D01*
X376603Y113519D01*
X379062Y113519D01*
X379149Y113531D01*
X379236Y113534D01*
X379289Y113551D01*
X379344Y113559D01*
X379424Y113594D01*
X379507Y113621D01*
X379546Y113649D01*
X379603Y113675D01*
X379716Y113771D01*
X379780Y113816D01*
X381467Y115503D01*
X398053Y115503D01*
X399543Y114013D01*
X399543Y106927D01*
X398804Y106188D01*
X398769Y106141D01*
X398726Y106101D01*
X398684Y106028D01*
X398633Y105961D01*
X398612Y105906D01*
X398583Y105856D01*
X398562Y105774D01*
X398532Y105695D01*
X398527Y105637D01*
X398512Y105580D01*
X398515Y105496D01*
X398508Y105412D01*
X398520Y105354D01*
X398522Y105296D01*
X398547Y105216D01*
X398564Y105133D01*
X398591Y105081D01*
X398609Y105025D01*
X398649Y104969D01*
X398695Y104881D01*
X398764Y104808D01*
X398804Y104752D01*
X399543Y104013D01*
X399543Y96927D01*
X398804Y96188D01*
X398769Y96141D01*
X398726Y96101D01*
X398684Y96028D01*
X398633Y95961D01*
X398612Y95906D01*
X398583Y95856D01*
X398562Y95774D01*
X398532Y95695D01*
X398527Y95637D01*
X398512Y95580D01*
X398515Y95496D01*
X398508Y95412D01*
X398520Y95354D01*
X398522Y95296D01*
X398547Y95216D01*
X398564Y95133D01*
X398591Y95081D01*
X398609Y95025D01*
X398649Y94969D01*
X398695Y94881D01*
X398764Y94808D01*
X398804Y94752D01*
X399543Y94013D01*
X399543Y86927D01*
X399163Y86547D01*
X399147Y86526D01*
X399129Y86510D01*
X399112Y86485D01*
X399085Y86460D01*
X399043Y86387D01*
X398992Y86320D01*
X398979Y86286D01*
X398971Y86274D01*
X398965Y86254D01*
X398942Y86215D01*
X398921Y86133D01*
X398891Y86054D01*
X398887Y86009D01*
X398885Y86003D01*
X398885Y85991D01*
X398872Y85939D01*
X398874Y85855D01*
X398867Y85771D01*
X398879Y85714D01*
X398881Y85655D01*
X398907Y85575D01*
X398923Y85492D01*
X398950Y85440D01*
X398968Y85385D01*
X399008Y85328D01*
X399054Y85240D01*
X399123Y85168D01*
X399163Y85111D01*
X399441Y84833D01*
X399843Y84138D01*
X400051Y83362D01*
X400051Y81969D01*
X390244Y81969D01*
X390186Y81961D01*
X390128Y81963D01*
X390046Y81941D01*
X389963Y81929D01*
X389909Y81906D01*
X389853Y81891D01*
X389780Y81848D01*
X389761Y81839D01*
X389715Y81870D01*
X389659Y81887D01*
X389607Y81914D01*
X389539Y81925D01*
X389444Y81955D01*
X389344Y81958D01*
X389276Y81969D01*
X379469Y81969D01*
X379469Y83362D01*
X379677Y84138D01*
X380079Y84833D01*
X380357Y85111D01*
X380392Y85158D01*
X380435Y85199D01*
X380477Y85271D01*
X380528Y85339D01*
X380549Y85393D01*
X380578Y85444D01*
X380599Y85525D01*
X380629Y85604D01*
X380634Y85663D01*
X380648Y85719D01*
X380646Y85804D01*
X380653Y85888D01*
X380642Y85941D01*
X380642Y85951D01*
X380641Y85956D01*
X380639Y86004D01*
X380613Y86084D01*
X380597Y86166D01*
X380575Y86208D01*
X380570Y86226D01*
X380564Y86238D01*
X380552Y86274D01*
X380512Y86330D01*
X380466Y86419D01*
X380440Y86446D01*
X380425Y86471D01*
X380384Y86509D01*
X380357Y86547D01*
X380288Y86616D01*
X380218Y86669D01*
X380154Y86728D01*
X380105Y86754D01*
X380061Y86787D01*
X379979Y86818D01*
X379901Y86858D01*
X379854Y86866D01*
X379795Y86888D01*
X379648Y86900D01*
X379570Y86913D01*
X316997Y86913D01*
X306323Y97587D01*
X306323Y113676D01*
X306311Y113763D01*
X306308Y113850D01*
X306291Y113903D01*
X306283Y113958D01*
X306248Y114038D01*
X306221Y114121D01*
X306193Y114160D01*
X306167Y114217D01*
X306071Y114330D01*
X306026Y114394D01*
X301561Y118859D01*
X301514Y118894D01*
X301474Y118937D01*
X301401Y118980D01*
X301333Y119030D01*
X301279Y119051D01*
X301228Y119081D01*
X301147Y119101D01*
X301068Y119131D01*
X301009Y119136D01*
X300953Y119151D01*
X300869Y119148D01*
X300784Y119155D01*
X300727Y119144D01*
X300669Y119142D01*
X300588Y119116D01*
X300506Y119099D01*
X300454Y119072D01*
X300398Y119054D01*
X300342Y119014D01*
X300253Y118968D01*
X300181Y118899D01*
X300125Y118859D01*
X298575Y117309D01*
X294374Y115569D01*
X293918Y115569D01*
X293832Y115557D01*
X293745Y115554D01*
X293692Y115537D01*
X293637Y115529D01*
X293557Y115494D01*
X293474Y115467D01*
X293435Y115439D01*
X293378Y115413D01*
X293265Y115318D01*
X293201Y115272D01*
X293091Y115163D01*
X293036Y115089D01*
X292974Y115021D01*
X292951Y114976D01*
X292920Y114936D01*
X292888Y114849D01*
X292846Y114767D01*
X292837Y114717D01*
X292819Y114670D01*
X292812Y114578D01*
X292795Y114488D01*
X292800Y114437D01*
X292796Y114387D01*
X292814Y114296D01*
X292823Y114205D01*
X292842Y114157D01*
X292851Y114108D01*
X292894Y114026D01*
X292928Y113941D01*
X292959Y113901D01*
X292982Y113856D01*
X293046Y113789D01*
X293102Y113716D01*
X293143Y113686D01*
X293178Y113649D01*
X293258Y113603D01*
X293332Y113549D01*
X293374Y113534D01*
X293423Y113506D01*
X293577Y113466D01*
X293650Y113442D01*
X294896Y113245D01*
X296683Y112664D01*
X298357Y111811D01*
X299878Y110706D01*
X301206Y109378D01*
X302311Y107857D01*
X303164Y106183D01*
X303745Y104396D01*
X303866Y103631D01*
X293116Y103631D01*
X293058Y103623D01*
X293000Y103625D01*
X292918Y103603D01*
X292835Y103591D01*
X292781Y103567D01*
X292725Y103553D01*
X292652Y103510D01*
X292575Y103475D01*
X292531Y103437D01*
X292480Y103407D01*
X292423Y103346D01*
X292358Y103291D01*
X292326Y103243D01*
X292286Y103200D01*
X292247Y103125D01*
X292201Y103055D01*
X292183Y102999D01*
X292156Y102947D01*
X292145Y102879D01*
X292115Y102784D01*
X292112Y102684D01*
X292101Y102616D01*
X292101Y101599D01*
X291084Y101599D01*
X291026Y101591D01*
X290968Y101592D01*
X290886Y101571D01*
X290803Y101559D01*
X290749Y101535D01*
X290693Y101521D01*
X290620Y101478D01*
X290543Y101443D01*
X290498Y101405D01*
X290448Y101375D01*
X290390Y101314D01*
X290326Y101259D01*
X290294Y101211D01*
X290254Y101168D01*
X290215Y101093D01*
X290169Y101023D01*
X290151Y100967D01*
X290124Y100915D01*
X290113Y100847D01*
X290083Y100752D01*
X290080Y100652D01*
X290069Y100584D01*
X290069Y89834D01*
X289304Y89955D01*
X287517Y90536D01*
X285843Y91389D01*
X284322Y92494D01*
X283086Y93730D01*
X283062Y93748D01*
X283043Y93770D01*
X282949Y93833D01*
X282859Y93901D01*
X282831Y93912D01*
X282807Y93928D01*
X282699Y93962D01*
X282593Y94002D01*
X282564Y94005D01*
X282536Y94014D01*
X282422Y94017D01*
X282310Y94026D01*
X282281Y94020D01*
X282252Y94021D01*
X282142Y93992D01*
X282031Y93970D01*
X282005Y93956D01*
X281977Y93949D01*
X281879Y93891D01*
X281779Y93839D01*
X281757Y93819D01*
X281732Y93804D01*
X281655Y93721D01*
X281573Y93643D01*
X281558Y93618D01*
X281538Y93597D01*
X281526Y93574D01*
X279869Y91917D01*
X268771Y91917D01*
X267418Y93270D01*
X267394Y93288D01*
X267375Y93310D01*
X267281Y93373D01*
X267191Y93441D01*
X267163Y93452D01*
X267139Y93468D01*
X267031Y93502D01*
X266925Y93542D01*
X266896Y93545D01*
X266868Y93554D01*
X266754Y93557D01*
X266642Y93566D01*
X266613Y93560D01*
X266584Y93561D01*
X266474Y93532D01*
X266363Y93510D01*
X266337Y93497D01*
X266309Y93489D01*
X266211Y93431D01*
X266111Y93379D01*
X266089Y93359D01*
X266064Y93344D01*
X265987Y93261D01*
X265905Y93183D01*
X265890Y93158D01*
X265870Y93137D01*
X265818Y93036D01*
X265761Y92938D01*
X265754Y92910D01*
X265740Y92883D01*
X265727Y92806D01*
X265691Y92663D01*
X265693Y92600D01*
X265685Y92552D01*
X265685Y87713D01*
X264204Y86232D01*
X263885Y86232D01*
X263772Y86216D01*
X263657Y86206D01*
X263631Y86196D01*
X263604Y86192D01*
X263499Y86145D01*
X263392Y86104D01*
X263370Y86088D01*
X263345Y86076D01*
X263257Y86002D01*
X263165Y85933D01*
X263149Y85910D01*
X263128Y85893D01*
X263064Y85797D01*
X262995Y85705D01*
X262985Y85679D01*
X262970Y85656D01*
X262935Y85546D01*
X262895Y85439D01*
X262893Y85411D01*
X262884Y85385D01*
X262881Y85270D01*
X262872Y85156D01*
X262878Y85131D01*
X262877Y85101D01*
X262944Y84844D01*
X262947Y84828D01*
X264595Y80852D01*
X264595Y76708D01*
X263009Y72880D01*
X260080Y69951D01*
X256252Y68365D01*
X252108Y68365D01*
X248281Y69951D01*
X248040Y70191D01*
X248016Y70209D01*
X247997Y70231D01*
X247903Y70294D01*
X247813Y70362D01*
X247785Y70373D01*
X247761Y70389D01*
X247653Y70423D01*
X247547Y70464D01*
X247518Y70466D01*
X247490Y70475D01*
X247377Y70478D01*
X247264Y70487D01*
X247235Y70481D01*
X247206Y70482D01*
X247096Y70454D01*
X246985Y70431D01*
X246959Y70418D01*
X246931Y70410D01*
X246833Y70353D01*
X246733Y70300D01*
X246711Y70280D01*
X246686Y70265D01*
X246609Y70183D01*
X246527Y70105D01*
X246512Y70079D01*
X246492Y70058D01*
X246440Y69957D01*
X246383Y69859D01*
X246376Y69831D01*
X246362Y69805D01*
X246349Y69727D01*
X246313Y69584D01*
X246315Y69521D01*
X246307Y69474D01*
X246307Y69275D01*
X244224Y67192D01*
X244223Y67192D01*
X240233Y63202D01*
X240216Y63178D01*
X240193Y63159D01*
X240131Y63065D01*
X240063Y62975D01*
X240052Y62947D01*
X240036Y62923D01*
X240002Y62815D01*
X239961Y62709D01*
X239959Y62680D01*
X239950Y62652D01*
X239947Y62538D01*
X239938Y62426D01*
X239943Y62397D01*
X239943Y62368D01*
X239971Y62258D01*
X239994Y62147D01*
X240007Y62121D01*
X240015Y62093D01*
X240072Y61995D01*
X240125Y61895D01*
X240145Y61873D01*
X240160Y61848D01*
X240242Y61771D01*
X240320Y61689D01*
X240346Y61674D01*
X240367Y61654D01*
X240468Y61602D01*
X240566Y61545D01*
X240594Y61538D01*
X240620Y61524D01*
X240698Y61511D01*
X240841Y61475D01*
X240904Y61477D01*
X240951Y61469D01*
X352462Y61469D01*
X352520Y61477D01*
G37*
G36*
X55378Y61473D02*
X55378Y61473D01*
X55407Y61470D01*
X55518Y61493D01*
X55630Y61509D01*
X55657Y61521D01*
X55686Y61526D01*
X55786Y61579D01*
X55890Y61625D01*
X55912Y61644D01*
X55938Y61657D01*
X56020Y61735D01*
X56107Y61808D01*
X56123Y61833D01*
X56144Y61853D01*
X56201Y61951D01*
X56264Y62045D01*
X56273Y62073D01*
X56288Y62098D01*
X56316Y62208D01*
X56350Y62316D01*
X56351Y62346D01*
X56358Y62374D01*
X56354Y62487D01*
X56357Y62600D01*
X56350Y62629D01*
X56349Y62658D01*
X56314Y62766D01*
X56285Y62875D01*
X56270Y62901D01*
X56261Y62929D01*
X56216Y62992D01*
X56140Y63120D01*
X56095Y63163D01*
X56067Y63202D01*
X54035Y65234D01*
X54034Y65234D01*
X51951Y67317D01*
X51951Y68152D01*
X51943Y68210D01*
X51945Y68268D01*
X51923Y68350D01*
X51911Y68434D01*
X51888Y68487D01*
X51873Y68543D01*
X51830Y68616D01*
X51795Y68693D01*
X51757Y68738D01*
X51728Y68788D01*
X51666Y68846D01*
X51612Y68910D01*
X51563Y68942D01*
X51520Y68982D01*
X51445Y69021D01*
X51375Y69068D01*
X51319Y69085D01*
X51267Y69112D01*
X51199Y69123D01*
X51104Y69153D01*
X51004Y69156D01*
X50936Y69167D01*
X48951Y69167D01*
X47467Y70651D01*
X47467Y71185D01*
X47463Y71214D01*
X47466Y71243D01*
X47443Y71354D01*
X47427Y71466D01*
X47415Y71493D01*
X47410Y71522D01*
X47357Y71622D01*
X47311Y71726D01*
X47292Y71748D01*
X47279Y71774D01*
X47201Y71856D01*
X47128Y71943D01*
X47103Y71959D01*
X47083Y71980D01*
X46985Y72037D01*
X46891Y72100D01*
X46863Y72109D01*
X46838Y72124D01*
X46728Y72152D01*
X46620Y72186D01*
X46590Y72187D01*
X46562Y72194D01*
X46449Y72190D01*
X46336Y72193D01*
X46307Y72186D01*
X46278Y72185D01*
X46170Y72150D01*
X46061Y72121D01*
X46035Y72107D01*
X46007Y72097D01*
X45943Y72052D01*
X45816Y71976D01*
X45773Y71931D01*
X45734Y71903D01*
X44443Y70611D01*
X21978Y70611D01*
X21891Y70599D01*
X21804Y70596D01*
X21751Y70579D01*
X21696Y70571D01*
X21617Y70536D01*
X21533Y70509D01*
X21494Y70481D01*
X21437Y70455D01*
X21324Y70359D01*
X21260Y70314D01*
X19779Y68833D01*
X15781Y68833D01*
X12953Y71661D01*
X12953Y75659D01*
X13628Y76334D01*
X13646Y76358D01*
X13668Y76377D01*
X13731Y76471D01*
X13799Y76561D01*
X13809Y76589D01*
X13826Y76613D01*
X13860Y76721D01*
X13900Y76827D01*
X13903Y76856D01*
X13912Y76884D01*
X13914Y76998D01*
X13924Y77110D01*
X13918Y77139D01*
X13919Y77168D01*
X13890Y77278D01*
X13868Y77389D01*
X13854Y77415D01*
X13847Y77443D01*
X13789Y77541D01*
X13737Y77641D01*
X13717Y77663D01*
X13702Y77688D01*
X13619Y77765D01*
X13541Y77847D01*
X13516Y77862D01*
X13494Y77882D01*
X13393Y77934D01*
X13296Y77991D01*
X13267Y77998D01*
X13241Y78012D01*
X13164Y78025D01*
X13020Y78061D01*
X12958Y78059D01*
X12910Y78067D01*
X12013Y78067D01*
X10517Y79563D01*
X10517Y93637D01*
X12013Y95133D01*
X26087Y95133D01*
X27583Y93637D01*
X27583Y93587D01*
X27587Y93558D01*
X27584Y93528D01*
X27607Y93417D01*
X27623Y93305D01*
X27635Y93279D01*
X27640Y93250D01*
X27693Y93149D01*
X27739Y93046D01*
X27758Y93023D01*
X27771Y92997D01*
X27849Y92915D01*
X27922Y92829D01*
X27947Y92813D01*
X27967Y92791D01*
X28065Y92734D01*
X28159Y92671D01*
X28187Y92662D01*
X28212Y92648D01*
X28322Y92620D01*
X28430Y92585D01*
X28460Y92585D01*
X28488Y92578D01*
X28601Y92581D01*
X28714Y92578D01*
X28743Y92586D01*
X28772Y92587D01*
X28880Y92621D01*
X28989Y92650D01*
X29015Y92665D01*
X29043Y92674D01*
X29106Y92720D01*
X29234Y92795D01*
X29277Y92841D01*
X29316Y92869D01*
X31850Y95403D01*
X35696Y95403D01*
X35783Y95415D01*
X35871Y95418D01*
X35923Y95435D01*
X35978Y95443D01*
X36058Y95478D01*
X36141Y95505D01*
X36180Y95533D01*
X36237Y95559D01*
X36351Y95655D01*
X36414Y95700D01*
X37597Y96883D01*
X50701Y96883D01*
X52182Y95402D01*
X52182Y88798D01*
X50701Y87317D01*
X37597Y87317D01*
X36414Y88500D01*
X36344Y88552D01*
X36281Y88612D01*
X36231Y88638D01*
X36187Y88671D01*
X36105Y88702D01*
X36028Y88742D01*
X35980Y88750D01*
X35922Y88772D01*
X35774Y88784D01*
X35696Y88797D01*
X35006Y88797D01*
X34920Y88785D01*
X34832Y88782D01*
X34780Y88765D01*
X34725Y88757D01*
X34645Y88722D01*
X34562Y88695D01*
X34523Y88667D01*
X34465Y88641D01*
X34352Y88545D01*
X34288Y88500D01*
X29086Y83297D01*
X28598Y83297D01*
X28540Y83289D01*
X28482Y83291D01*
X28400Y83269D01*
X28316Y83257D01*
X28263Y83234D01*
X28207Y83219D01*
X28134Y83176D01*
X28057Y83141D01*
X28012Y83103D01*
X27962Y83074D01*
X27904Y83012D01*
X27840Y82958D01*
X27808Y82909D01*
X27768Y82866D01*
X27729Y82791D01*
X27682Y82721D01*
X27665Y82665D01*
X27638Y82613D01*
X27627Y82545D01*
X27597Y82450D01*
X27594Y82350D01*
X27583Y82282D01*
X27583Y79563D01*
X26462Y78442D01*
X26444Y78418D01*
X26422Y78399D01*
X26359Y78305D01*
X26291Y78215D01*
X26281Y78187D01*
X26264Y78163D01*
X26230Y78055D01*
X26190Y77949D01*
X26187Y77920D01*
X26179Y77892D01*
X26176Y77778D01*
X26166Y77666D01*
X26172Y77637D01*
X26171Y77608D01*
X26200Y77498D01*
X26222Y77387D01*
X26236Y77361D01*
X26243Y77333D01*
X26301Y77235D01*
X26353Y77135D01*
X26373Y77113D01*
X26388Y77088D01*
X26471Y77011D01*
X26549Y76929D01*
X26574Y76914D01*
X26596Y76894D01*
X26697Y76842D01*
X26794Y76785D01*
X26823Y76778D01*
X26849Y76764D01*
X26926Y76751D01*
X27070Y76715D01*
X27132Y76717D01*
X27180Y76709D01*
X41497Y76709D01*
X41583Y76721D01*
X41671Y76724D01*
X41723Y76741D01*
X41778Y76749D01*
X41858Y76784D01*
X41941Y76811D01*
X41980Y76839D01*
X42038Y76865D01*
X42151Y76961D01*
X42215Y77006D01*
X44457Y79249D01*
X46452Y79249D01*
X46510Y79257D01*
X46568Y79255D01*
X46650Y79277D01*
X46734Y79289D01*
X46787Y79312D01*
X46843Y79327D01*
X46916Y79370D01*
X46993Y79405D01*
X47038Y79443D01*
X47088Y79472D01*
X47146Y79534D01*
X47210Y79588D01*
X47242Y79637D01*
X47282Y79680D01*
X47321Y79755D01*
X47368Y79825D01*
X47385Y79881D01*
X47412Y79933D01*
X47423Y80001D01*
X47453Y80096D01*
X47456Y80196D01*
X47467Y80264D01*
X47467Y81749D01*
X48951Y83233D01*
X61049Y83233D01*
X62782Y81500D01*
X62829Y81465D01*
X62869Y81422D01*
X62942Y81379D01*
X63009Y81329D01*
X63064Y81308D01*
X63114Y81278D01*
X63196Y81258D01*
X63275Y81228D01*
X63333Y81223D01*
X63390Y81208D01*
X63474Y81211D01*
X63558Y81204D01*
X63616Y81216D01*
X63674Y81217D01*
X63754Y81243D01*
X63837Y81260D01*
X63889Y81287D01*
X63945Y81305D01*
X64001Y81345D01*
X64089Y81391D01*
X64162Y81460D01*
X64218Y81500D01*
X65951Y83233D01*
X66376Y83233D01*
X66405Y83237D01*
X66435Y83234D01*
X66546Y83257D01*
X66658Y83273D01*
X66684Y83285D01*
X66713Y83290D01*
X66814Y83343D01*
X66917Y83389D01*
X66940Y83408D01*
X66966Y83421D01*
X67048Y83499D01*
X67134Y83572D01*
X67150Y83597D01*
X67172Y83617D01*
X67229Y83715D01*
X67292Y83809D01*
X67301Y83837D01*
X67315Y83862D01*
X67343Y83972D01*
X67378Y84080D01*
X67378Y84110D01*
X67386Y84138D01*
X67382Y84251D01*
X67385Y84364D01*
X67377Y84393D01*
X67376Y84422D01*
X67342Y84530D01*
X67313Y84639D01*
X67298Y84665D01*
X67289Y84693D01*
X67243Y84757D01*
X67168Y84884D01*
X67122Y84927D01*
X67094Y84966D01*
X66594Y85466D01*
X66594Y86302D01*
X66586Y86360D01*
X66588Y86418D01*
X66566Y86500D01*
X66554Y86584D01*
X66531Y86637D01*
X66516Y86693D01*
X66473Y86766D01*
X66438Y86843D01*
X66400Y86888D01*
X66371Y86938D01*
X66309Y86996D01*
X66255Y87060D01*
X66206Y87092D01*
X66163Y87132D01*
X66088Y87171D01*
X66018Y87218D01*
X65962Y87235D01*
X65910Y87262D01*
X65842Y87273D01*
X65747Y87303D01*
X65647Y87306D01*
X65579Y87317D01*
X63599Y87317D01*
X62118Y88798D01*
X62118Y95402D01*
X62489Y95773D01*
X62524Y95820D01*
X62567Y95860D01*
X62609Y95933D01*
X62660Y96000D01*
X62681Y96055D01*
X62710Y96105D01*
X62731Y96187D01*
X62761Y96266D01*
X62766Y96324D01*
X62781Y96381D01*
X62778Y96465D01*
X62785Y96549D01*
X62773Y96606D01*
X62771Y96665D01*
X62746Y96745D01*
X62729Y96828D01*
X62702Y96880D01*
X62684Y96935D01*
X62644Y96991D01*
X62598Y97080D01*
X62529Y97153D01*
X62489Y97209D01*
X62217Y97481D01*
X61817Y98173D01*
X61610Y98945D01*
X61610Y100226D01*
X69792Y100226D01*
X69850Y100234D01*
X69908Y100232D01*
X69990Y100254D01*
X70073Y100266D01*
X70127Y100289D01*
X70151Y100296D01*
X70179Y100281D01*
X70247Y100270D01*
X70342Y100240D01*
X70442Y100237D01*
X70510Y100226D01*
X78692Y100226D01*
X78692Y98945D01*
X78485Y98173D01*
X78085Y97481D01*
X77813Y97209D01*
X77778Y97162D01*
X77735Y97122D01*
X77693Y97049D01*
X77642Y96981D01*
X77621Y96927D01*
X77592Y96876D01*
X77571Y96795D01*
X77541Y96716D01*
X77536Y96657D01*
X77521Y96601D01*
X77524Y96517D01*
X77517Y96432D01*
X77529Y96375D01*
X77531Y96317D01*
X77556Y96236D01*
X77573Y96154D01*
X77600Y96102D01*
X77618Y96046D01*
X77658Y95990D01*
X77704Y95901D01*
X77773Y95829D01*
X77813Y95773D01*
X78184Y95402D01*
X78184Y88798D01*
X76703Y87317D01*
X76572Y87317D01*
X76514Y87309D01*
X76456Y87311D01*
X76374Y87289D01*
X76290Y87277D01*
X76237Y87254D01*
X76181Y87239D01*
X76108Y87196D01*
X76031Y87161D01*
X75986Y87123D01*
X75936Y87094D01*
X75878Y87032D01*
X75814Y86978D01*
X75782Y86929D01*
X75742Y86886D01*
X75703Y86811D01*
X75656Y86741D01*
X75639Y86685D01*
X75612Y86633D01*
X75601Y86565D01*
X75571Y86470D01*
X75568Y86370D01*
X75557Y86302D01*
X75557Y84248D01*
X75565Y84190D01*
X75563Y84132D01*
X75585Y84050D01*
X75597Y83966D01*
X75620Y83913D01*
X75635Y83857D01*
X75678Y83784D01*
X75713Y83707D01*
X75751Y83662D01*
X75780Y83612D01*
X75842Y83554D01*
X75896Y83490D01*
X75945Y83458D01*
X75988Y83418D01*
X76063Y83379D01*
X76133Y83332D01*
X76189Y83315D01*
X76241Y83288D01*
X76309Y83277D01*
X76404Y83247D01*
X76504Y83244D01*
X76572Y83233D01*
X78049Y83233D01*
X79577Y81705D01*
X79647Y81653D01*
X79710Y81593D01*
X79760Y81567D01*
X79804Y81534D01*
X79886Y81503D01*
X79964Y81463D01*
X80011Y81455D01*
X80070Y81433D01*
X80217Y81421D01*
X80295Y81408D01*
X84805Y81408D01*
X84892Y81420D01*
X84979Y81423D01*
X85032Y81440D01*
X85087Y81448D01*
X85167Y81483D01*
X85250Y81510D01*
X85289Y81538D01*
X85346Y81564D01*
X85459Y81660D01*
X85523Y81705D01*
X87051Y83233D01*
X99149Y83233D01*
X100882Y81500D01*
X100929Y81465D01*
X100969Y81422D01*
X101042Y81379D01*
X101109Y81329D01*
X101164Y81308D01*
X101214Y81278D01*
X101296Y81258D01*
X101375Y81228D01*
X101433Y81223D01*
X101490Y81208D01*
X101574Y81211D01*
X101658Y81204D01*
X101716Y81216D01*
X101774Y81217D01*
X101854Y81243D01*
X101937Y81260D01*
X101989Y81287D01*
X102045Y81305D01*
X102101Y81345D01*
X102189Y81391D01*
X102262Y81460D01*
X102318Y81500D01*
X104051Y83233D01*
X106036Y83233D01*
X106094Y83241D01*
X106152Y83239D01*
X106234Y83261D01*
X106318Y83273D01*
X106371Y83296D01*
X106427Y83311D01*
X106500Y83354D01*
X106577Y83389D01*
X106622Y83427D01*
X106672Y83456D01*
X106730Y83518D01*
X106794Y83572D01*
X106826Y83621D01*
X106866Y83664D01*
X106905Y83739D01*
X106952Y83809D01*
X106969Y83865D01*
X106996Y83917D01*
X107007Y83985D01*
X107037Y84080D01*
X107040Y84180D01*
X107051Y84248D01*
X107051Y105918D01*
X107043Y105976D01*
X107045Y106034D01*
X107023Y106116D01*
X107011Y106200D01*
X106988Y106253D01*
X106973Y106309D01*
X106930Y106382D01*
X106895Y106459D01*
X106857Y106504D01*
X106828Y106554D01*
X106766Y106612D01*
X106712Y106676D01*
X106663Y106708D01*
X106620Y106748D01*
X106545Y106787D01*
X106475Y106834D01*
X106419Y106851D01*
X106367Y106878D01*
X106299Y106889D01*
X106204Y106919D01*
X106104Y106922D01*
X106036Y106933D01*
X102141Y106933D01*
X101558Y107516D01*
X101488Y107568D01*
X101424Y107628D01*
X101375Y107654D01*
X101331Y107687D01*
X101249Y107718D01*
X101171Y107758D01*
X101124Y107766D01*
X101065Y107788D01*
X100918Y107800D01*
X100840Y107813D01*
X96948Y107813D01*
X96890Y107805D01*
X96832Y107807D01*
X96750Y107785D01*
X96666Y107773D01*
X96613Y107750D01*
X96557Y107735D01*
X96484Y107692D01*
X96407Y107657D01*
X96362Y107619D01*
X96312Y107590D01*
X96254Y107528D01*
X96190Y107474D01*
X96158Y107425D01*
X96118Y107382D01*
X96079Y107307D01*
X96032Y107237D01*
X96015Y107181D01*
X95988Y107129D01*
X95977Y107061D01*
X95947Y106966D01*
X95944Y106866D01*
X95933Y106798D01*
X95933Y105321D01*
X94395Y103783D01*
X94386Y103772D01*
X94384Y103769D01*
X94377Y103759D01*
X94365Y103744D01*
X94329Y103711D01*
X94280Y103631D01*
X94224Y103556D01*
X94206Y103510D01*
X94181Y103468D01*
X94156Y103378D01*
X94122Y103290D01*
X94118Y103241D01*
X94105Y103194D01*
X94107Y103100D01*
X94099Y103007D01*
X94108Y102959D01*
X94109Y102910D01*
X94136Y102820D01*
X94155Y102728D01*
X94177Y102685D01*
X94191Y102638D01*
X94242Y102559D01*
X94286Y102475D01*
X94319Y102440D01*
X94346Y102399D01*
X94403Y102352D01*
X94481Y102269D01*
X94556Y102225D01*
X94605Y102186D01*
X95267Y101803D01*
X95833Y101237D01*
X96234Y100544D01*
X96441Y99770D01*
X96441Y96401D01*
X89916Y96401D01*
X89858Y96393D01*
X89800Y96394D01*
X89718Y96373D01*
X89635Y96361D01*
X89581Y96337D01*
X89525Y96323D01*
X89452Y96280D01*
X89375Y96245D01*
X89331Y96207D01*
X89280Y96177D01*
X89223Y96116D01*
X89158Y96061D01*
X89126Y96013D01*
X89086Y95970D01*
X89047Y95895D01*
X89001Y95825D01*
X88983Y95769D01*
X88956Y95717D01*
X88945Y95649D01*
X88915Y95554D01*
X88912Y95454D01*
X88901Y95386D01*
X88901Y94369D01*
X88899Y94369D01*
X88899Y95386D01*
X88891Y95444D01*
X88892Y95502D01*
X88871Y95584D01*
X88859Y95667D01*
X88835Y95721D01*
X88821Y95777D01*
X88778Y95850D01*
X88743Y95927D01*
X88705Y95971D01*
X88675Y96022D01*
X88614Y96079D01*
X88559Y96144D01*
X88511Y96176D01*
X88468Y96216D01*
X88393Y96255D01*
X88323Y96301D01*
X88267Y96319D01*
X88215Y96346D01*
X88147Y96357D01*
X88052Y96387D01*
X87952Y96390D01*
X87884Y96401D01*
X81359Y96401D01*
X81359Y99770D01*
X81566Y100544D01*
X81967Y101237D01*
X82533Y101803D01*
X83195Y102186D01*
X83234Y102216D01*
X83277Y102238D01*
X83345Y102303D01*
X83419Y102361D01*
X83448Y102400D01*
X83483Y102434D01*
X83531Y102515D01*
X83586Y102591D01*
X83602Y102637D01*
X83627Y102679D01*
X83650Y102770D01*
X83682Y102859D01*
X83685Y102908D01*
X83697Y102955D01*
X83694Y103048D01*
X83700Y103142D01*
X83689Y103190D01*
X83688Y103239D01*
X83659Y103328D01*
X83639Y103420D01*
X83615Y103463D01*
X83600Y103509D01*
X83557Y103570D01*
X83503Y103670D01*
X83459Y103714D01*
X83450Y103730D01*
X83430Y103749D01*
X83405Y103783D01*
X81867Y105321D01*
X81867Y106798D01*
X81859Y106856D01*
X81861Y106914D01*
X81839Y106996D01*
X81827Y107080D01*
X81804Y107133D01*
X81789Y107189D01*
X81746Y107262D01*
X81711Y107339D01*
X81673Y107384D01*
X81644Y107434D01*
X81582Y107492D01*
X81528Y107556D01*
X81479Y107588D01*
X81436Y107628D01*
X81361Y107667D01*
X81291Y107714D01*
X81235Y107731D01*
X81183Y107758D01*
X81115Y107769D01*
X81020Y107799D01*
X80920Y107802D01*
X80852Y107813D01*
X78620Y107813D01*
X78533Y107801D01*
X78445Y107798D01*
X78393Y107781D01*
X78338Y107773D01*
X78258Y107738D01*
X78175Y107711D01*
X78136Y107683D01*
X78079Y107657D01*
X77965Y107561D01*
X77901Y107516D01*
X77813Y107427D01*
X77778Y107380D01*
X77735Y107340D01*
X77693Y107267D01*
X77642Y107200D01*
X77621Y107145D01*
X77592Y107095D01*
X77571Y107013D01*
X77541Y106934D01*
X77536Y106876D01*
X77521Y106819D01*
X77524Y106735D01*
X77517Y106651D01*
X77529Y106594D01*
X77531Y106535D01*
X77556Y106455D01*
X77573Y106372D01*
X77600Y106320D01*
X77618Y106265D01*
X77658Y106208D01*
X77704Y106120D01*
X77773Y106047D01*
X77813Y105991D01*
X78085Y105719D01*
X78485Y105027D01*
X78692Y104255D01*
X78692Y102974D01*
X70510Y102974D01*
X70452Y102966D01*
X70394Y102968D01*
X70312Y102946D01*
X70229Y102934D01*
X70175Y102911D01*
X70151Y102904D01*
X70123Y102919D01*
X70055Y102930D01*
X69960Y102960D01*
X69860Y102963D01*
X69792Y102974D01*
X61610Y102974D01*
X61610Y104255D01*
X61817Y105027D01*
X62217Y105719D01*
X62489Y105991D01*
X62524Y106038D01*
X62567Y106078D01*
X62609Y106151D01*
X62660Y106218D01*
X62681Y106273D01*
X62710Y106324D01*
X62731Y106405D01*
X62761Y106484D01*
X62766Y106543D01*
X62781Y106599D01*
X62778Y106683D01*
X62785Y106767D01*
X62773Y106825D01*
X62771Y106883D01*
X62746Y106963D01*
X62729Y107046D01*
X62702Y107098D01*
X62684Y107154D01*
X62644Y107210D01*
X62598Y107298D01*
X62529Y107371D01*
X62489Y107427D01*
X62118Y107798D01*
X62118Y114402D01*
X63410Y115694D01*
X63428Y115718D01*
X63450Y115737D01*
X63513Y115831D01*
X63581Y115921D01*
X63592Y115949D01*
X63608Y115973D01*
X63642Y116081D01*
X63683Y116187D01*
X63685Y116216D01*
X63694Y116244D01*
X63697Y116358D01*
X63706Y116470D01*
X63700Y116499D01*
X63701Y116528D01*
X63672Y116638D01*
X63650Y116749D01*
X63637Y116775D01*
X63629Y116803D01*
X63572Y116900D01*
X63519Y117001D01*
X63499Y117023D01*
X63484Y117048D01*
X63402Y117125D01*
X63323Y117207D01*
X63298Y117222D01*
X63277Y117242D01*
X63176Y117294D01*
X63078Y117351D01*
X63050Y117358D01*
X63024Y117372D01*
X62946Y117385D01*
X62803Y117421D01*
X62740Y117419D01*
X62693Y117427D01*
X51607Y117427D01*
X51578Y117423D01*
X51549Y117426D01*
X51438Y117403D01*
X51326Y117387D01*
X51299Y117375D01*
X51270Y117370D01*
X51170Y117317D01*
X51067Y117271D01*
X51044Y117252D01*
X51018Y117239D01*
X50936Y117161D01*
X50850Y117088D01*
X50833Y117063D01*
X50812Y117043D01*
X50755Y116945D01*
X50692Y116851D01*
X50683Y116823D01*
X50668Y116798D01*
X50640Y116688D01*
X50606Y116580D01*
X50605Y116550D01*
X50598Y116522D01*
X50602Y116409D01*
X50599Y116296D01*
X50606Y116267D01*
X50607Y116238D01*
X50642Y116130D01*
X50671Y116021D01*
X50686Y115995D01*
X50695Y115967D01*
X50740Y115903D01*
X50816Y115776D01*
X50862Y115733D01*
X50890Y115694D01*
X52182Y114402D01*
X52182Y107798D01*
X50701Y106317D01*
X37597Y106317D01*
X36668Y107246D01*
X36598Y107298D01*
X36535Y107358D01*
X36485Y107384D01*
X36441Y107417D01*
X36359Y107448D01*
X36282Y107488D01*
X36234Y107496D01*
X36176Y107518D01*
X36028Y107530D01*
X35950Y107543D01*
X34780Y107543D01*
X34693Y107531D01*
X34606Y107528D01*
X34553Y107511D01*
X34498Y107503D01*
X34419Y107468D01*
X34335Y107441D01*
X34296Y107413D01*
X34239Y107387D01*
X34126Y107291D01*
X34062Y107246D01*
X33749Y106933D01*
X29751Y106933D01*
X28070Y108614D01*
X28023Y108649D01*
X27983Y108692D01*
X27910Y108734D01*
X27843Y108785D01*
X27788Y108806D01*
X27738Y108835D01*
X27656Y108856D01*
X27577Y108886D01*
X27519Y108891D01*
X27462Y108905D01*
X27378Y108903D01*
X27294Y108910D01*
X27237Y108898D01*
X27178Y108896D01*
X27098Y108870D01*
X27015Y108854D01*
X26963Y108827D01*
X26907Y108809D01*
X26851Y108769D01*
X26763Y108723D01*
X26690Y108654D01*
X26634Y108614D01*
X26087Y108067D01*
X12013Y108067D01*
X10517Y109563D01*
X10517Y123637D01*
X12013Y125133D01*
X14478Y125133D01*
X14536Y125141D01*
X14594Y125139D01*
X14676Y125161D01*
X14760Y125173D01*
X14813Y125196D01*
X14869Y125211D01*
X14942Y125254D01*
X15019Y125289D01*
X15064Y125327D01*
X15114Y125356D01*
X15172Y125418D01*
X15236Y125472D01*
X15268Y125521D01*
X15308Y125564D01*
X15347Y125639D01*
X15394Y125709D01*
X15411Y125765D01*
X15438Y125817D01*
X15449Y125885D01*
X15479Y125980D01*
X15482Y126080D01*
X15493Y126148D01*
X15493Y134823D01*
X26467Y145797D01*
X39490Y145797D01*
X39577Y145809D01*
X39664Y145812D01*
X39717Y145829D01*
X39772Y145837D01*
X39851Y145872D01*
X39935Y145899D01*
X39974Y145927D01*
X40031Y145953D01*
X40144Y146048D01*
X40208Y146094D01*
X40278Y146164D01*
X40296Y146188D01*
X40318Y146207D01*
X40381Y146301D01*
X40449Y146391D01*
X40459Y146419D01*
X40476Y146443D01*
X40510Y146551D01*
X40550Y146657D01*
X40553Y146686D01*
X40562Y146714D01*
X40564Y146827D01*
X40574Y146940D01*
X40568Y146969D01*
X40569Y146998D01*
X40540Y147108D01*
X40518Y147219D01*
X40504Y147245D01*
X40497Y147273D01*
X40439Y147371D01*
X40387Y147471D01*
X40367Y147493D01*
X40352Y147518D01*
X40269Y147595D01*
X40191Y147677D01*
X40166Y147692D01*
X40144Y147712D01*
X40044Y147764D01*
X39946Y147821D01*
X39917Y147828D01*
X39891Y147842D01*
X39814Y147855D01*
X39671Y147891D01*
X39608Y147889D01*
X39560Y147897D01*
X27789Y147897D01*
X26317Y149369D01*
X26317Y162491D01*
X27975Y164148D01*
X27992Y164172D01*
X28015Y164191D01*
X28077Y164285D01*
X28145Y164375D01*
X28156Y164403D01*
X28172Y164427D01*
X28206Y164535D01*
X28247Y164641D01*
X28249Y164670D01*
X28258Y164698D01*
X28261Y164812D01*
X28270Y164924D01*
X28265Y164953D01*
X28265Y164982D01*
X28237Y165092D01*
X28214Y165203D01*
X28201Y165229D01*
X28193Y165257D01*
X28136Y165355D01*
X28083Y165455D01*
X28063Y165477D01*
X28048Y165502D01*
X27966Y165579D01*
X27888Y165661D01*
X27862Y165676D01*
X27841Y165696D01*
X27740Y165748D01*
X27642Y165805D01*
X27614Y165812D01*
X27588Y165826D01*
X27510Y165839D01*
X27367Y165875D01*
X27304Y165873D01*
X27257Y165881D01*
X24798Y165881D01*
X24711Y165869D01*
X24624Y165866D01*
X24571Y165849D01*
X24516Y165841D01*
X24436Y165806D01*
X24353Y165779D01*
X24314Y165751D01*
X24257Y165725D01*
X24144Y165629D01*
X24080Y165584D01*
X22393Y163897D01*
X5807Y163897D01*
X4782Y164922D01*
X4758Y164940D01*
X4739Y164962D01*
X4645Y165025D01*
X4555Y165093D01*
X4527Y165104D01*
X4503Y165120D01*
X4395Y165154D01*
X4289Y165194D01*
X4260Y165197D01*
X4232Y165206D01*
X4118Y165208D01*
X4006Y165218D01*
X3977Y165212D01*
X3948Y165213D01*
X3838Y165184D01*
X3727Y165162D01*
X3701Y165148D01*
X3673Y165141D01*
X3575Y165083D01*
X3475Y165031D01*
X3453Y165011D01*
X3428Y164996D01*
X3351Y164913D01*
X3269Y164835D01*
X3254Y164810D01*
X3234Y164788D01*
X3182Y164688D01*
X3125Y164590D01*
X3118Y164561D01*
X3104Y164535D01*
X3091Y164458D01*
X3055Y164314D01*
X3057Y164252D01*
X3049Y164204D01*
X3049Y62484D01*
X3057Y62426D01*
X3055Y62368D01*
X3077Y62286D01*
X3089Y62202D01*
X3112Y62149D01*
X3127Y62093D01*
X3170Y62020D01*
X3205Y61943D01*
X3243Y61898D01*
X3272Y61848D01*
X3334Y61790D01*
X3388Y61726D01*
X3437Y61694D01*
X3480Y61654D01*
X3555Y61615D01*
X3625Y61568D01*
X3681Y61551D01*
X3733Y61524D01*
X3801Y61513D01*
X3896Y61483D01*
X3996Y61480D01*
X4064Y61469D01*
X55349Y61469D01*
X55378Y61473D01*
G37*
%LPC*%
G36*
X302908Y68365D02*
X302908Y68365D01*
X299080Y69951D01*
X296151Y72880D01*
X294565Y76708D01*
X294565Y80852D01*
X296151Y84680D01*
X299080Y87609D01*
X302908Y89195D01*
X307052Y89195D01*
X310880Y87609D01*
X313809Y84680D01*
X315395Y80852D01*
X315395Y76708D01*
X313809Y72880D01*
X310880Y69951D01*
X307052Y68365D01*
X302908Y68365D01*
G37*
%LPD*%
%LPC*%
G36*
X277508Y68365D02*
X277508Y68365D01*
X273680Y69951D01*
X270751Y72880D01*
X269165Y76708D01*
X269165Y80852D01*
X270751Y84680D01*
X273680Y87609D01*
X277508Y89195D01*
X281652Y89195D01*
X285480Y87609D01*
X288409Y84680D01*
X289995Y80852D01*
X289995Y76708D01*
X288409Y72880D01*
X285480Y69951D01*
X281652Y68365D01*
X277508Y68365D01*
G37*
%LPD*%
G36*
X28601Y115864D02*
X28601Y115864D01*
X28714Y115861D01*
X28743Y115869D01*
X28772Y115870D01*
X28880Y115904D01*
X28989Y115933D01*
X29015Y115948D01*
X29043Y115957D01*
X29107Y116003D01*
X29234Y116078D01*
X29277Y116124D01*
X29316Y116152D01*
X29751Y116587D01*
X31438Y116587D01*
X31477Y116592D01*
X31516Y116590D01*
X31617Y116612D01*
X31719Y116627D01*
X31755Y116643D01*
X31793Y116651D01*
X31884Y116700D01*
X31979Y116743D01*
X32009Y116768D01*
X32043Y116787D01*
X32117Y116860D01*
X32196Y116926D01*
X32217Y116959D01*
X32245Y116986D01*
X32296Y117077D01*
X32353Y117163D01*
X32365Y117200D01*
X32384Y117234D01*
X32408Y117335D01*
X32439Y117434D01*
X32440Y117473D01*
X32449Y117511D01*
X32444Y117615D01*
X32447Y117718D01*
X32437Y117756D01*
X32435Y117795D01*
X32407Y117868D01*
X32375Y117993D01*
X32337Y118057D01*
X32317Y118110D01*
X31927Y118786D01*
X31719Y119560D01*
X31719Y122429D01*
X38744Y122429D01*
X38802Y122437D01*
X38860Y122435D01*
X38942Y122457D01*
X39025Y122469D01*
X39079Y122493D01*
X39135Y122507D01*
X39208Y122550D01*
X39285Y122585D01*
X39329Y122623D01*
X39380Y122653D01*
X39437Y122714D01*
X39502Y122769D01*
X39534Y122817D01*
X39574Y122860D01*
X39613Y122935D01*
X39659Y123005D01*
X39677Y123061D01*
X39704Y123113D01*
X39715Y123181D01*
X39745Y123276D01*
X39748Y123376D01*
X39759Y123444D01*
X39759Y124461D01*
X40776Y124461D01*
X40834Y124469D01*
X40892Y124468D01*
X40974Y124489D01*
X41057Y124501D01*
X41111Y124525D01*
X41167Y124539D01*
X41240Y124582D01*
X41317Y124617D01*
X41361Y124655D01*
X41412Y124685D01*
X41469Y124746D01*
X41534Y124801D01*
X41566Y124849D01*
X41606Y124892D01*
X41645Y124967D01*
X41691Y125037D01*
X41709Y125093D01*
X41736Y125145D01*
X41747Y125213D01*
X41777Y125308D01*
X41780Y125408D01*
X41791Y125476D01*
X41791Y132001D01*
X45160Y132001D01*
X45934Y131794D01*
X46627Y131393D01*
X47193Y130827D01*
X47576Y130165D01*
X47606Y130126D01*
X47628Y130083D01*
X47693Y130015D01*
X47751Y129941D01*
X47790Y129912D01*
X47824Y129877D01*
X47905Y129829D01*
X47981Y129774D01*
X48027Y129758D01*
X48069Y129733D01*
X48160Y129710D01*
X48249Y129678D01*
X48298Y129675D01*
X48345Y129663D01*
X48438Y129666D01*
X48532Y129660D01*
X48580Y129671D01*
X48629Y129672D01*
X48718Y129701D01*
X48810Y129721D01*
X48853Y129745D01*
X48899Y129760D01*
X48960Y129803D01*
X49060Y129857D01*
X49122Y129918D01*
X49173Y129955D01*
X50991Y131773D01*
X51026Y131820D01*
X51069Y131860D01*
X51112Y131933D01*
X51162Y132000D01*
X51183Y132055D01*
X51212Y132105D01*
X51233Y132187D01*
X51263Y132266D01*
X51268Y132324D01*
X51283Y132381D01*
X51280Y132465D01*
X51287Y132549D01*
X51275Y132606D01*
X51274Y132665D01*
X51248Y132745D01*
X51231Y132828D01*
X51204Y132880D01*
X51186Y132935D01*
X51146Y132992D01*
X51100Y133080D01*
X51031Y133153D01*
X51030Y133154D01*
X51020Y133172D01*
X51013Y133178D01*
X50991Y133209D01*
X46701Y137499D01*
X46654Y137534D01*
X46614Y137577D01*
X46541Y137619D01*
X46474Y137670D01*
X46419Y137691D01*
X46369Y137720D01*
X46287Y137741D01*
X46208Y137771D01*
X46150Y137776D01*
X46093Y137791D01*
X46009Y137788D01*
X45925Y137795D01*
X45867Y137783D01*
X45809Y137781D01*
X45729Y137755D01*
X45646Y137739D01*
X45594Y137712D01*
X45538Y137694D01*
X45482Y137654D01*
X45394Y137608D01*
X45321Y137539D01*
X45265Y137499D01*
X45179Y137413D01*
X41181Y137413D01*
X40208Y138386D01*
X40138Y138438D01*
X40074Y138498D01*
X40025Y138524D01*
X39981Y138557D01*
X39899Y138588D01*
X39821Y138628D01*
X39774Y138636D01*
X39715Y138658D01*
X39568Y138670D01*
X39490Y138683D01*
X29834Y138683D01*
X29747Y138671D01*
X29660Y138668D01*
X29607Y138651D01*
X29552Y138643D01*
X29472Y138608D01*
X29389Y138581D01*
X29350Y138553D01*
X29293Y138527D01*
X29180Y138431D01*
X29116Y138386D01*
X22904Y132174D01*
X22852Y132104D01*
X22792Y132040D01*
X22766Y131991D01*
X22733Y131947D01*
X22702Y131865D01*
X22662Y131787D01*
X22654Y131740D01*
X22632Y131681D01*
X22620Y131534D01*
X22607Y131456D01*
X22607Y126148D01*
X22615Y126090D01*
X22613Y126032D01*
X22635Y125950D01*
X22647Y125866D01*
X22670Y125813D01*
X22685Y125757D01*
X22728Y125684D01*
X22763Y125607D01*
X22801Y125562D01*
X22830Y125512D01*
X22892Y125454D01*
X22946Y125390D01*
X22995Y125358D01*
X23038Y125318D01*
X23113Y125279D01*
X23183Y125232D01*
X23239Y125215D01*
X23291Y125188D01*
X23359Y125177D01*
X23454Y125147D01*
X23554Y125144D01*
X23622Y125133D01*
X26087Y125133D01*
X27583Y123637D01*
X27583Y116870D01*
X27587Y116841D01*
X27584Y116811D01*
X27607Y116700D01*
X27623Y116588D01*
X27635Y116562D01*
X27640Y116533D01*
X27693Y116432D01*
X27739Y116329D01*
X27758Y116306D01*
X27771Y116280D01*
X27849Y116198D01*
X27922Y116112D01*
X27947Y116096D01*
X27967Y116074D01*
X28065Y116017D01*
X28159Y115954D01*
X28187Y115945D01*
X28212Y115931D01*
X28322Y115903D01*
X28430Y115868D01*
X28460Y115868D01*
X28488Y115861D01*
X28601Y115864D01*
G37*
%LPC*%
G36*
X389003Y135717D02*
X389003Y135717D01*
X387444Y137276D01*
X387439Y137297D01*
X387396Y137370D01*
X387361Y137447D01*
X387323Y137492D01*
X387294Y137542D01*
X387232Y137600D01*
X387178Y137664D01*
X387129Y137696D01*
X387086Y137736D01*
X387011Y137775D01*
X386941Y137822D01*
X386885Y137839D01*
X386833Y137866D01*
X386765Y137877D01*
X386670Y137907D01*
X386570Y137910D01*
X386502Y137921D01*
X377578Y137921D01*
X377491Y137909D01*
X377404Y137906D01*
X377351Y137889D01*
X377296Y137881D01*
X377217Y137846D01*
X377133Y137819D01*
X377094Y137791D01*
X377037Y137765D01*
X376924Y137669D01*
X376860Y137624D01*
X375379Y136143D01*
X371381Y136143D01*
X368553Y138971D01*
X368553Y142969D01*
X371381Y145797D01*
X375379Y145797D01*
X376860Y144316D01*
X376930Y144264D01*
X376994Y144204D01*
X377043Y144178D01*
X377087Y144145D01*
X377169Y144114D01*
X377247Y144074D01*
X377294Y144066D01*
X377353Y144044D01*
X377500Y144032D01*
X377578Y144019D01*
X386519Y144019D01*
X386605Y144031D01*
X386693Y144034D01*
X386745Y144051D01*
X386800Y144059D01*
X386880Y144094D01*
X386963Y144121D01*
X387003Y144149D01*
X387060Y144175D01*
X387173Y144271D01*
X387237Y144316D01*
X389003Y146083D01*
X398397Y146083D01*
X399883Y144597D01*
X399883Y137203D01*
X398397Y135717D01*
X389003Y135717D01*
G37*
%LPD*%
%LPC*%
G36*
X294131Y99569D02*
X294131Y99569D01*
X303866Y99569D01*
X303745Y98804D01*
X303164Y97017D01*
X302311Y95343D01*
X301206Y93822D01*
X299878Y92494D01*
X298357Y91389D01*
X296683Y90536D01*
X294896Y89955D01*
X294131Y89834D01*
X294131Y99569D01*
G37*
%LPD*%
%LPC*%
G36*
X15599Y200429D02*
X15599Y200429D01*
X15599Y204471D01*
X21742Y204471D01*
X22518Y204263D01*
X23213Y203861D01*
X23781Y203293D01*
X24183Y202598D01*
X24391Y201822D01*
X24391Y200429D01*
X15599Y200429D01*
G37*
%LPD*%
%LPC*%
G36*
X391259Y74929D02*
X391259Y74929D01*
X391259Y78971D01*
X400051Y78971D01*
X400051Y77578D01*
X399843Y76802D01*
X399441Y76107D01*
X398873Y75539D01*
X398178Y75137D01*
X397402Y74929D01*
X391259Y74929D01*
G37*
%LPD*%
%LPC*%
G36*
X382118Y74929D02*
X382118Y74929D01*
X381342Y75137D01*
X380647Y75539D01*
X380079Y76107D01*
X379677Y76802D01*
X379469Y77578D01*
X379469Y78971D01*
X388261Y78971D01*
X388261Y74929D01*
X382118Y74929D01*
G37*
%LPD*%
%LPC*%
G36*
X31719Y126491D02*
X31719Y126491D01*
X31719Y129360D01*
X31926Y130134D01*
X32327Y130827D01*
X32893Y131393D01*
X33586Y131794D01*
X34360Y132001D01*
X37729Y132001D01*
X37729Y126491D01*
X31719Y126491D01*
G37*
%LPD*%
%LPC*%
G36*
X90931Y86329D02*
X90931Y86329D01*
X90931Y92339D01*
X96441Y92339D01*
X96441Y88970D01*
X96234Y88196D01*
X95833Y87503D01*
X95267Y86937D01*
X94574Y86536D01*
X93800Y86329D01*
X90931Y86329D01*
G37*
%LPD*%
%LPC*%
G36*
X84000Y86329D02*
X84000Y86329D01*
X83226Y86536D01*
X82533Y86937D01*
X81967Y87503D01*
X81566Y88196D01*
X81359Y88970D01*
X81359Y92339D01*
X86869Y92339D01*
X86869Y86329D01*
X84000Y86329D01*
G37*
%LPD*%
D10*
X278820Y104450D02*
X278820Y94450D01*
X269820Y94450D01*
X269820Y104450D01*
X278820Y104450D01*
X278820Y95400D02*
X269820Y95400D01*
X269820Y96350D02*
X278820Y96350D01*
X278820Y97300D02*
X269820Y97300D01*
X269820Y98250D02*
X278820Y98250D01*
X278820Y99200D02*
X269820Y99200D01*
X269820Y100150D02*
X278820Y100150D01*
X278820Y101100D02*
X269820Y101100D01*
X269820Y102050D02*
X278820Y102050D01*
X278820Y103000D02*
X269820Y103000D01*
X269820Y103950D02*
X278820Y103950D01*
X278820Y111450D02*
X278820Y121450D01*
X278820Y111450D02*
X269820Y111450D01*
X269820Y121450D01*
X278820Y121450D01*
X278820Y112400D02*
X269820Y112400D01*
X269820Y113350D02*
X278820Y113350D01*
X278820Y114300D02*
X269820Y114300D01*
X269820Y115250D02*
X278820Y115250D01*
X278820Y116200D02*
X269820Y116200D01*
X269820Y117150D02*
X278820Y117150D01*
X278820Y118100D02*
X269820Y118100D01*
X269820Y119050D02*
X278820Y119050D01*
X278820Y120000D02*
X269820Y120000D01*
X269820Y120950D02*
X278820Y120950D01*
D11*
X292100Y101600D03*
X292100Y127000D03*
X292100Y152400D03*
X292100Y177800D03*
D10*
X60000Y71700D02*
X50000Y71700D01*
X50000Y80700D01*
X60000Y80700D01*
X60000Y71700D01*
X60000Y72650D02*
X50000Y72650D01*
X50000Y73600D02*
X60000Y73600D01*
X60000Y74550D02*
X50000Y74550D01*
X50000Y75500D02*
X60000Y75500D01*
X60000Y76450D02*
X50000Y76450D01*
X50000Y77400D02*
X60000Y77400D01*
X60000Y78350D02*
X50000Y78350D01*
X50000Y79300D02*
X60000Y79300D01*
X60000Y80250D02*
X50000Y80250D01*
X67000Y71700D02*
X77000Y71700D01*
X67000Y71700D02*
X67000Y80700D01*
X77000Y80700D01*
X77000Y71700D01*
X77000Y72650D02*
X67000Y72650D01*
X67000Y73600D02*
X77000Y73600D01*
X77000Y74550D02*
X67000Y74550D01*
X67000Y75500D02*
X77000Y75500D01*
X77000Y76450D02*
X67000Y76450D01*
X67000Y77400D02*
X77000Y77400D01*
X77000Y78350D02*
X67000Y78350D01*
X67000Y79300D02*
X77000Y79300D01*
X77000Y80250D02*
X67000Y80250D01*
X105100Y80700D02*
X115100Y80700D01*
X115100Y71700D01*
X105100Y71700D01*
X105100Y80700D01*
X105100Y72650D02*
X115100Y72650D01*
X115100Y73600D02*
X105100Y73600D01*
X105100Y74550D02*
X115100Y74550D01*
X115100Y75500D02*
X105100Y75500D01*
X105100Y76450D02*
X115100Y76450D01*
X115100Y77400D02*
X105100Y77400D01*
X105100Y78350D02*
X115100Y78350D01*
X115100Y79300D02*
X105100Y79300D01*
X105100Y80250D02*
X115100Y80250D01*
X98100Y80700D02*
X88100Y80700D01*
X98100Y80700D02*
X98100Y71700D01*
X88100Y71700D01*
X88100Y80700D01*
X88100Y72650D02*
X98100Y72650D01*
X98100Y73600D02*
X88100Y73600D01*
X88100Y74550D02*
X98100Y74550D01*
X98100Y75500D02*
X88100Y75500D01*
X88100Y76450D02*
X98100Y76450D01*
X98100Y77400D02*
X88100Y77400D01*
X88100Y78350D02*
X98100Y78350D01*
X98100Y79300D02*
X88100Y79300D01*
X88100Y80250D02*
X98100Y80250D01*
D12*
X352679Y171958D02*
X358013Y171958D01*
X352679Y171958D02*
X352679Y183642D01*
X358013Y183642D01*
X358013Y171958D01*
X358013Y172923D02*
X352679Y172923D01*
X352679Y173888D02*
X358013Y173888D01*
X358013Y174853D02*
X352679Y174853D01*
X352679Y175818D02*
X358013Y175818D01*
X358013Y176783D02*
X352679Y176783D01*
X352679Y177748D02*
X358013Y177748D01*
X358013Y178713D02*
X352679Y178713D01*
X352679Y179678D02*
X358013Y179678D01*
X358013Y180643D02*
X352679Y180643D01*
X352679Y181608D02*
X358013Y181608D01*
X358013Y182573D02*
X352679Y182573D01*
X352679Y183538D02*
X358013Y183538D01*
X360807Y171958D02*
X366141Y171958D01*
X360807Y171958D02*
X360807Y183642D01*
X366141Y183642D01*
X366141Y171958D01*
X366141Y172923D02*
X360807Y172923D01*
X360807Y173888D02*
X366141Y173888D01*
X366141Y174853D02*
X360807Y174853D01*
X360807Y175818D02*
X366141Y175818D01*
X366141Y176783D02*
X360807Y176783D01*
X360807Y177748D02*
X366141Y177748D01*
X366141Y178713D02*
X360807Y178713D01*
X360807Y179678D02*
X366141Y179678D01*
X366141Y180643D02*
X360807Y180643D01*
X360807Y181608D02*
X366141Y181608D01*
X366141Y182573D02*
X360807Y182573D01*
X360807Y183538D02*
X366141Y183538D01*
X355473Y197358D02*
X350139Y197358D01*
X350139Y209042D01*
X355473Y209042D01*
X355473Y197358D01*
X355473Y198323D02*
X350139Y198323D01*
X350139Y199288D02*
X355473Y199288D01*
X355473Y200253D02*
X350139Y200253D01*
X350139Y201218D02*
X355473Y201218D01*
X355473Y202183D02*
X350139Y202183D01*
X350139Y203148D02*
X355473Y203148D01*
X355473Y204113D02*
X350139Y204113D01*
X350139Y205078D02*
X355473Y205078D01*
X355473Y206043D02*
X350139Y206043D01*
X350139Y207008D02*
X355473Y207008D01*
X355473Y207973D02*
X350139Y207973D01*
X350139Y208938D02*
X355473Y208938D01*
X358267Y197358D02*
X363601Y197358D01*
X358267Y197358D02*
X358267Y209042D01*
X363601Y209042D01*
X363601Y197358D01*
X363601Y198323D02*
X358267Y198323D01*
X358267Y199288D02*
X363601Y199288D01*
X363601Y200253D02*
X358267Y200253D01*
X358267Y201218D02*
X363601Y201218D01*
X363601Y202183D02*
X358267Y202183D01*
X358267Y203148D02*
X363601Y203148D01*
X363601Y204113D02*
X358267Y204113D01*
X358267Y205078D02*
X363601Y205078D01*
X363601Y206043D02*
X358267Y206043D01*
X358267Y207008D02*
X363601Y207008D01*
X363601Y207973D02*
X358267Y207973D01*
X358267Y208938D02*
X363601Y208938D01*
D10*
X373850Y173300D02*
X383850Y173300D01*
X373850Y173300D02*
X373850Y182300D01*
X383850Y182300D01*
X383850Y173300D01*
X383850Y174250D02*
X373850Y174250D01*
X373850Y175200D02*
X383850Y175200D01*
X383850Y176150D02*
X373850Y176150D01*
X373850Y177100D02*
X383850Y177100D01*
X383850Y178050D02*
X373850Y178050D01*
X373850Y179000D02*
X383850Y179000D01*
X383850Y179950D02*
X373850Y179950D01*
X373850Y180900D02*
X383850Y180900D01*
X383850Y181850D02*
X373850Y181850D01*
X390850Y173300D02*
X400850Y173300D01*
X390850Y173300D02*
X390850Y182300D01*
X400850Y182300D01*
X400850Y173300D01*
X400850Y174250D02*
X390850Y174250D01*
X390850Y175200D02*
X400850Y175200D01*
X400850Y176150D02*
X390850Y176150D01*
X390850Y177100D02*
X400850Y177100D01*
X400850Y178050D02*
X390850Y178050D01*
X390850Y179000D02*
X400850Y179000D01*
X400850Y179950D02*
X390850Y179950D01*
X390850Y180900D02*
X400850Y180900D01*
X400850Y181850D02*
X390850Y181850D01*
X383850Y189810D02*
X373850Y189810D01*
X373850Y198810D01*
X383850Y198810D01*
X383850Y189810D01*
X383850Y190760D02*
X373850Y190760D01*
X373850Y191710D02*
X383850Y191710D01*
X383850Y192660D02*
X373850Y192660D01*
X373850Y193610D02*
X383850Y193610D01*
X383850Y194560D02*
X373850Y194560D01*
X373850Y195510D02*
X383850Y195510D01*
X383850Y196460D02*
X373850Y196460D01*
X373850Y197410D02*
X383850Y197410D01*
X383850Y198360D02*
X373850Y198360D01*
X390850Y189810D02*
X400850Y189810D01*
X390850Y189810D02*
X390850Y198810D01*
X400850Y198810D01*
X400850Y189810D01*
X400850Y190760D02*
X390850Y190760D01*
X390850Y191710D02*
X400850Y191710D01*
X400850Y192660D02*
X390850Y192660D01*
X390850Y193610D02*
X400850Y193610D01*
X400850Y194560D02*
X390850Y194560D01*
X390850Y195510D02*
X400850Y195510D01*
X400850Y196460D02*
X390850Y196460D01*
X390850Y197410D02*
X400850Y197410D01*
X400850Y198360D02*
X390850Y198360D01*
D13*
X390054Y166546D02*
X390054Y161254D01*
X390054Y166546D02*
X397346Y166546D01*
X397346Y161254D01*
X390054Y161254D01*
X390054Y162212D02*
X397346Y162212D01*
X397346Y163170D02*
X390054Y163170D01*
X390054Y164128D02*
X397346Y164128D01*
X397346Y165086D02*
X390054Y165086D01*
X390054Y166044D02*
X397346Y166044D01*
X390054Y143546D02*
X390054Y138254D01*
X390054Y143546D02*
X397346Y143546D01*
X397346Y138254D01*
X390054Y138254D01*
X390054Y139212D02*
X397346Y139212D01*
X397346Y140170D02*
X390054Y140170D01*
X390054Y141128D02*
X397346Y141128D01*
X397346Y142086D02*
X390054Y142086D01*
X390054Y143044D02*
X397346Y143044D01*
D14*
X6860Y196440D02*
X6860Y201420D01*
X21340Y201420D01*
X21340Y196440D01*
X6860Y196440D01*
X6860Y197409D02*
X21340Y197409D01*
X21340Y198378D02*
X6860Y198378D01*
X6860Y199347D02*
X21340Y199347D01*
X21340Y200316D02*
X6860Y200316D01*
X6860Y201285D02*
X21340Y201285D01*
X6860Y191420D02*
X6860Y186440D01*
X6860Y191420D02*
X21340Y191420D01*
X21340Y186440D01*
X6860Y186440D01*
X6860Y187409D02*
X21340Y187409D01*
X21340Y188378D02*
X6860Y188378D01*
X6860Y189347D02*
X21340Y189347D01*
X21340Y190316D02*
X6860Y190316D01*
X6860Y191285D02*
X21340Y191285D01*
X6860Y181420D02*
X6860Y176440D01*
X6860Y181420D02*
X21340Y181420D01*
X21340Y176440D01*
X6860Y176440D01*
X6860Y177409D02*
X21340Y177409D01*
X21340Y178378D02*
X6860Y178378D01*
X6860Y179347D02*
X21340Y179347D01*
X21340Y180316D02*
X6860Y180316D01*
X6860Y181285D02*
X21340Y181285D01*
X6860Y171420D02*
X6860Y166440D01*
X6860Y171420D02*
X21340Y171420D01*
X21340Y166440D01*
X6860Y166440D01*
X6860Y167409D02*
X21340Y167409D01*
X21340Y168378D02*
X6860Y168378D01*
X6860Y169347D02*
X21340Y169347D01*
X21340Y170316D02*
X6860Y170316D01*
X6860Y171285D02*
X21340Y171285D01*
D15*
X28830Y206410D02*
X28830Y217450D01*
X47870Y217450D01*
X47870Y206410D01*
X28830Y206410D01*
X28830Y207322D02*
X47870Y207322D01*
X47870Y208234D02*
X28830Y208234D01*
X28830Y209146D02*
X47870Y209146D01*
X47870Y210058D02*
X28830Y210058D01*
X28830Y210970D02*
X47870Y210970D01*
X47870Y211882D02*
X28830Y211882D01*
X28830Y212794D02*
X47870Y212794D01*
X47870Y213706D02*
X28830Y213706D01*
X28830Y214618D02*
X47870Y214618D01*
X47870Y215530D02*
X28830Y215530D01*
X28830Y216442D02*
X47870Y216442D01*
X47870Y217354D02*
X28830Y217354D01*
X28830Y161450D02*
X28830Y150410D01*
X28830Y161450D02*
X47870Y161450D01*
X47870Y150410D01*
X28830Y150410D01*
X28830Y151322D02*
X47870Y151322D01*
X47870Y152234D02*
X28830Y152234D01*
X28830Y153146D02*
X47870Y153146D01*
X47870Y154058D02*
X28830Y154058D01*
X28830Y154970D02*
X47870Y154970D01*
X47870Y155882D02*
X28830Y155882D01*
X28830Y156794D02*
X47870Y156794D01*
X47870Y157706D02*
X28830Y157706D01*
X28830Y158618D02*
X47870Y158618D01*
X47870Y159530D02*
X28830Y159530D01*
X28830Y160442D02*
X47870Y160442D01*
X47870Y161354D02*
X28830Y161354D01*
D14*
X397000Y82960D02*
X397000Y77980D01*
X382520Y77980D01*
X382520Y82960D01*
X397000Y82960D01*
X397000Y78949D02*
X382520Y78949D01*
X382520Y79918D02*
X397000Y79918D01*
X397000Y80887D02*
X382520Y80887D01*
X382520Y81856D02*
X397000Y81856D01*
X397000Y82825D02*
X382520Y82825D01*
X397000Y87980D02*
X397000Y92960D01*
X397000Y87980D02*
X382520Y87980D01*
X382520Y92960D01*
X397000Y92960D01*
X397000Y88949D02*
X382520Y88949D01*
X382520Y89918D02*
X397000Y89918D01*
X397000Y90887D02*
X382520Y90887D01*
X382520Y91856D02*
X397000Y91856D01*
X397000Y92825D02*
X382520Y92825D01*
X397000Y97980D02*
X397000Y102960D01*
X397000Y97980D02*
X382520Y97980D01*
X382520Y102960D01*
X397000Y102960D01*
X397000Y98949D02*
X382520Y98949D01*
X382520Y99918D02*
X397000Y99918D01*
X397000Y100887D02*
X382520Y100887D01*
X382520Y101856D02*
X397000Y101856D01*
X397000Y102825D02*
X382520Y102825D01*
X397000Y107980D02*
X397000Y112960D01*
X397000Y107980D02*
X382520Y107980D01*
X382520Y112960D01*
X397000Y112960D01*
X397000Y108949D02*
X382520Y108949D01*
X382520Y109918D02*
X397000Y109918D01*
X397000Y110887D02*
X382520Y110887D01*
X382520Y111856D02*
X397000Y111856D01*
X397000Y112825D02*
X382520Y112825D01*
D15*
X375030Y72990D02*
X375030Y61950D01*
X355990Y61950D01*
X355990Y72990D01*
X375030Y72990D01*
X375030Y62862D02*
X355990Y62862D01*
X355990Y63774D02*
X375030Y63774D01*
X375030Y64686D02*
X355990Y64686D01*
X355990Y65598D02*
X375030Y65598D01*
X375030Y66510D02*
X355990Y66510D01*
X355990Y67422D02*
X375030Y67422D01*
X375030Y68334D02*
X355990Y68334D01*
X355990Y69246D02*
X375030Y69246D01*
X375030Y70158D02*
X355990Y70158D01*
X355990Y71070D02*
X375030Y71070D01*
X375030Y71982D02*
X355990Y71982D01*
X355990Y72894D02*
X375030Y72894D01*
X375030Y117950D02*
X375030Y128990D01*
X375030Y117950D02*
X355990Y117950D01*
X355990Y128990D01*
X375030Y128990D01*
X375030Y118862D02*
X355990Y118862D01*
X355990Y119774D02*
X375030Y119774D01*
X375030Y120686D02*
X355990Y120686D01*
X355990Y121598D02*
X375030Y121598D01*
X375030Y122510D02*
X355990Y122510D01*
X355990Y123422D02*
X375030Y123422D01*
X375030Y124334D02*
X355990Y124334D01*
X355990Y125246D02*
X375030Y125246D01*
X375030Y126158D02*
X355990Y126158D01*
X355990Y127070D02*
X375030Y127070D01*
X375030Y127982D02*
X355990Y127982D01*
X355990Y128894D02*
X375030Y128894D01*
D16*
X50800Y12700D03*
X355600Y266700D03*
D17*
X304980Y78780D03*
X279580Y78780D03*
X254180Y78780D03*
X228780Y78780D03*
X203380Y78780D03*
X177980Y78780D03*
X152580Y78780D03*
X127180Y78780D03*
X127180Y201180D03*
X152580Y201180D03*
X177980Y201180D03*
X203380Y201180D03*
X228780Y201180D03*
X254180Y201180D03*
D18*
X279580Y201180D03*
X304980Y201180D03*
D19*
X199657Y190640D02*
X194043Y190640D01*
X199657Y190640D02*
X199657Y180200D01*
X194043Y180200D01*
X194043Y190640D01*
X194043Y181141D02*
X199657Y181141D01*
X199657Y182082D02*
X194043Y182082D01*
X194043Y183023D02*
X199657Y183023D01*
X199657Y183964D02*
X194043Y183964D01*
X194043Y184905D02*
X199657Y184905D01*
X199657Y185846D02*
X194043Y185846D01*
X194043Y186787D02*
X199657Y186787D01*
X199657Y187728D02*
X194043Y187728D01*
X194043Y188669D02*
X199657Y188669D01*
X199657Y189610D02*
X194043Y189610D01*
X194043Y190551D02*
X199657Y190551D01*
X186957Y190640D02*
X181343Y190640D01*
X186957Y190640D02*
X186957Y180200D01*
X181343Y180200D01*
X181343Y190640D01*
X181343Y181141D02*
X186957Y181141D01*
X186957Y182082D02*
X181343Y182082D01*
X181343Y183023D02*
X186957Y183023D01*
X186957Y183964D02*
X181343Y183964D01*
X181343Y184905D02*
X186957Y184905D01*
X186957Y185846D02*
X181343Y185846D01*
X181343Y186787D02*
X186957Y186787D01*
X186957Y187728D02*
X181343Y187728D01*
X181343Y188669D02*
X186957Y188669D01*
X186957Y189610D02*
X181343Y189610D01*
X181343Y190551D02*
X186957Y190551D01*
X194043Y99200D02*
X199657Y99200D01*
X199657Y88760D01*
X194043Y88760D01*
X194043Y99200D01*
X194043Y89701D02*
X199657Y89701D01*
X199657Y90642D02*
X194043Y90642D01*
X194043Y91583D02*
X199657Y91583D01*
X199657Y92524D02*
X194043Y92524D01*
X194043Y93465D02*
X199657Y93465D01*
X199657Y94406D02*
X194043Y94406D01*
X194043Y95347D02*
X199657Y95347D01*
X199657Y96288D02*
X194043Y96288D01*
X194043Y97229D02*
X199657Y97229D01*
X199657Y98170D02*
X194043Y98170D01*
X194043Y99111D02*
X199657Y99111D01*
X186957Y99200D02*
X181343Y99200D01*
X186957Y99200D02*
X186957Y88760D01*
X181343Y88760D01*
X181343Y99200D01*
X181343Y89701D02*
X186957Y89701D01*
X186957Y90642D02*
X181343Y90642D01*
X181343Y91583D02*
X186957Y91583D01*
X186957Y92524D02*
X181343Y92524D01*
X181343Y93465D02*
X186957Y93465D01*
X186957Y94406D02*
X181343Y94406D01*
X181343Y95347D02*
X186957Y95347D01*
X186957Y96288D02*
X181343Y96288D01*
X181343Y97229D02*
X186957Y97229D01*
X186957Y98170D02*
X181343Y98170D01*
X181343Y99111D02*
X186957Y99111D01*
X174257Y190640D02*
X168643Y190640D01*
X174257Y190640D02*
X174257Y180200D01*
X168643Y180200D01*
X168643Y190640D01*
X168643Y181141D02*
X174257Y181141D01*
X174257Y182082D02*
X168643Y182082D01*
X168643Y183023D02*
X174257Y183023D01*
X174257Y183964D02*
X168643Y183964D01*
X168643Y184905D02*
X174257Y184905D01*
X174257Y185846D02*
X168643Y185846D01*
X168643Y186787D02*
X174257Y186787D01*
X174257Y187728D02*
X168643Y187728D01*
X168643Y188669D02*
X174257Y188669D01*
X174257Y189610D02*
X168643Y189610D01*
X168643Y190551D02*
X174257Y190551D01*
X161557Y190640D02*
X155943Y190640D01*
X161557Y190640D02*
X161557Y180200D01*
X155943Y180200D01*
X155943Y190640D01*
X155943Y181141D02*
X161557Y181141D01*
X161557Y182082D02*
X155943Y182082D01*
X155943Y183023D02*
X161557Y183023D01*
X161557Y183964D02*
X155943Y183964D01*
X155943Y184905D02*
X161557Y184905D01*
X161557Y185846D02*
X155943Y185846D01*
X155943Y186787D02*
X161557Y186787D01*
X161557Y187728D02*
X155943Y187728D01*
X155943Y188669D02*
X161557Y188669D01*
X161557Y189610D02*
X155943Y189610D01*
X155943Y190551D02*
X161557Y190551D01*
X148857Y190640D02*
X143243Y190640D01*
X148857Y190640D02*
X148857Y180200D01*
X143243Y180200D01*
X143243Y190640D01*
X143243Y181141D02*
X148857Y181141D01*
X148857Y182082D02*
X143243Y182082D01*
X143243Y183023D02*
X148857Y183023D01*
X148857Y183964D02*
X143243Y183964D01*
X143243Y184905D02*
X148857Y184905D01*
X148857Y185846D02*
X143243Y185846D01*
X143243Y186787D02*
X148857Y186787D01*
X148857Y187728D02*
X143243Y187728D01*
X143243Y188669D02*
X148857Y188669D01*
X148857Y189610D02*
X143243Y189610D01*
X143243Y190551D02*
X148857Y190551D01*
X136157Y190640D02*
X130543Y190640D01*
X136157Y190640D02*
X136157Y180200D01*
X130543Y180200D01*
X130543Y190640D01*
X130543Y181141D02*
X136157Y181141D01*
X136157Y182082D02*
X130543Y182082D01*
X130543Y183023D02*
X136157Y183023D01*
X136157Y183964D02*
X130543Y183964D01*
X130543Y184905D02*
X136157Y184905D01*
X136157Y185846D02*
X130543Y185846D01*
X130543Y186787D02*
X136157Y186787D01*
X136157Y187728D02*
X130543Y187728D01*
X130543Y188669D02*
X136157Y188669D01*
X136157Y189610D02*
X130543Y189610D01*
X130543Y190551D02*
X136157Y190551D01*
X123457Y190640D02*
X117843Y190640D01*
X123457Y190640D02*
X123457Y180200D01*
X117843Y180200D01*
X117843Y190640D01*
X117843Y181141D02*
X123457Y181141D01*
X123457Y182082D02*
X117843Y182082D01*
X117843Y183023D02*
X123457Y183023D01*
X123457Y183964D02*
X117843Y183964D01*
X117843Y184905D02*
X123457Y184905D01*
X123457Y185846D02*
X117843Y185846D01*
X117843Y186787D02*
X123457Y186787D01*
X123457Y187728D02*
X117843Y187728D01*
X117843Y188669D02*
X123457Y188669D01*
X123457Y189610D02*
X117843Y189610D01*
X117843Y190551D02*
X123457Y190551D01*
X257543Y190640D02*
X263157Y190640D01*
X263157Y180200D01*
X257543Y180200D01*
X257543Y190640D01*
X257543Y181141D02*
X263157Y181141D01*
X263157Y182082D02*
X257543Y182082D01*
X257543Y183023D02*
X263157Y183023D01*
X263157Y183964D02*
X257543Y183964D01*
X257543Y184905D02*
X263157Y184905D01*
X263157Y185846D02*
X257543Y185846D01*
X257543Y186787D02*
X263157Y186787D01*
X263157Y187728D02*
X257543Y187728D01*
X257543Y188669D02*
X263157Y188669D01*
X263157Y189610D02*
X257543Y189610D01*
X257543Y190551D02*
X263157Y190551D01*
X250457Y190640D02*
X244843Y190640D01*
X250457Y190640D02*
X250457Y180200D01*
X244843Y180200D01*
X244843Y190640D01*
X244843Y181141D02*
X250457Y181141D01*
X250457Y182082D02*
X244843Y182082D01*
X244843Y183023D02*
X250457Y183023D01*
X250457Y183964D02*
X244843Y183964D01*
X244843Y184905D02*
X250457Y184905D01*
X250457Y185846D02*
X244843Y185846D01*
X244843Y186787D02*
X250457Y186787D01*
X250457Y187728D02*
X244843Y187728D01*
X244843Y188669D02*
X250457Y188669D01*
X250457Y189610D02*
X244843Y189610D01*
X244843Y190551D02*
X250457Y190551D01*
X237757Y190640D02*
X232143Y190640D01*
X237757Y190640D02*
X237757Y180200D01*
X232143Y180200D01*
X232143Y190640D01*
X232143Y181141D02*
X237757Y181141D01*
X237757Y182082D02*
X232143Y182082D01*
X232143Y183023D02*
X237757Y183023D01*
X237757Y183964D02*
X232143Y183964D01*
X232143Y184905D02*
X237757Y184905D01*
X237757Y185846D02*
X232143Y185846D01*
X232143Y186787D02*
X237757Y186787D01*
X237757Y187728D02*
X232143Y187728D01*
X232143Y188669D02*
X237757Y188669D01*
X237757Y189610D02*
X232143Y189610D01*
X232143Y190551D02*
X237757Y190551D01*
X225057Y190640D02*
X219443Y190640D01*
X225057Y190640D02*
X225057Y180200D01*
X219443Y180200D01*
X219443Y190640D01*
X219443Y181141D02*
X225057Y181141D01*
X225057Y182082D02*
X219443Y182082D01*
X219443Y183023D02*
X225057Y183023D01*
X225057Y183964D02*
X219443Y183964D01*
X219443Y184905D02*
X225057Y184905D01*
X225057Y185846D02*
X219443Y185846D01*
X219443Y186787D02*
X225057Y186787D01*
X225057Y187728D02*
X219443Y187728D01*
X219443Y188669D02*
X225057Y188669D01*
X225057Y189610D02*
X219443Y189610D01*
X219443Y190551D02*
X225057Y190551D01*
X212357Y190640D02*
X206743Y190640D01*
X212357Y190640D02*
X212357Y180200D01*
X206743Y180200D01*
X206743Y190640D01*
X206743Y181141D02*
X212357Y181141D01*
X212357Y182082D02*
X206743Y182082D01*
X206743Y183023D02*
X212357Y183023D01*
X212357Y183964D02*
X206743Y183964D01*
X206743Y184905D02*
X212357Y184905D01*
X212357Y185846D02*
X206743Y185846D01*
X206743Y186787D02*
X212357Y186787D01*
X212357Y187728D02*
X206743Y187728D01*
X206743Y188669D02*
X212357Y188669D01*
X212357Y189610D02*
X206743Y189610D01*
X206743Y190551D02*
X212357Y190551D01*
X212357Y99200D02*
X206743Y99200D01*
X212357Y99200D02*
X212357Y88760D01*
X206743Y88760D01*
X206743Y99200D01*
X206743Y89701D02*
X212357Y89701D01*
X212357Y90642D02*
X206743Y90642D01*
X206743Y91583D02*
X212357Y91583D01*
X212357Y92524D02*
X206743Y92524D01*
X206743Y93465D02*
X212357Y93465D01*
X212357Y94406D02*
X206743Y94406D01*
X206743Y95347D02*
X212357Y95347D01*
X212357Y96288D02*
X206743Y96288D01*
X206743Y97229D02*
X212357Y97229D01*
X212357Y98170D02*
X206743Y98170D01*
X206743Y99111D02*
X212357Y99111D01*
X174257Y99200D02*
X168643Y99200D01*
X174257Y99200D02*
X174257Y88760D01*
X168643Y88760D01*
X168643Y99200D01*
X168643Y89701D02*
X174257Y89701D01*
X174257Y90642D02*
X168643Y90642D01*
X168643Y91583D02*
X174257Y91583D01*
X174257Y92524D02*
X168643Y92524D01*
X168643Y93465D02*
X174257Y93465D01*
X174257Y94406D02*
X168643Y94406D01*
X168643Y95347D02*
X174257Y95347D01*
X174257Y96288D02*
X168643Y96288D01*
X168643Y97229D02*
X174257Y97229D01*
X174257Y98170D02*
X168643Y98170D01*
X168643Y99111D02*
X174257Y99111D01*
X161557Y99200D02*
X155943Y99200D01*
X161557Y99200D02*
X161557Y88760D01*
X155943Y88760D01*
X155943Y99200D01*
X155943Y89701D02*
X161557Y89701D01*
X161557Y90642D02*
X155943Y90642D01*
X155943Y91583D02*
X161557Y91583D01*
X161557Y92524D02*
X155943Y92524D01*
X155943Y93465D02*
X161557Y93465D01*
X161557Y94406D02*
X155943Y94406D01*
X155943Y95347D02*
X161557Y95347D01*
X161557Y96288D02*
X155943Y96288D01*
X155943Y97229D02*
X161557Y97229D01*
X161557Y98170D02*
X155943Y98170D01*
X155943Y99111D02*
X161557Y99111D01*
X219443Y99200D02*
X225057Y99200D01*
X225057Y88760D01*
X219443Y88760D01*
X219443Y99200D01*
X219443Y89701D02*
X225057Y89701D01*
X225057Y90642D02*
X219443Y90642D01*
X219443Y91583D02*
X225057Y91583D01*
X225057Y92524D02*
X219443Y92524D01*
X219443Y93465D02*
X225057Y93465D01*
X225057Y94406D02*
X219443Y94406D01*
X219443Y95347D02*
X225057Y95347D01*
X225057Y96288D02*
X219443Y96288D01*
X219443Y97229D02*
X225057Y97229D01*
X225057Y98170D02*
X219443Y98170D01*
X219443Y99111D02*
X225057Y99111D01*
X148857Y99200D02*
X143243Y99200D01*
X148857Y99200D02*
X148857Y88760D01*
X143243Y88760D01*
X143243Y99200D01*
X143243Y89701D02*
X148857Y89701D01*
X148857Y90642D02*
X143243Y90642D01*
X143243Y91583D02*
X148857Y91583D01*
X148857Y92524D02*
X143243Y92524D01*
X143243Y93465D02*
X148857Y93465D01*
X148857Y94406D02*
X143243Y94406D01*
X143243Y95347D02*
X148857Y95347D01*
X148857Y96288D02*
X143243Y96288D01*
X143243Y97229D02*
X148857Y97229D01*
X148857Y98170D02*
X143243Y98170D01*
X143243Y99111D02*
X148857Y99111D01*
X232143Y99200D02*
X237757Y99200D01*
X237757Y88760D01*
X232143Y88760D01*
X232143Y99200D01*
X232143Y89701D02*
X237757Y89701D01*
X237757Y90642D02*
X232143Y90642D01*
X232143Y91583D02*
X237757Y91583D01*
X237757Y92524D02*
X232143Y92524D01*
X232143Y93465D02*
X237757Y93465D01*
X237757Y94406D02*
X232143Y94406D01*
X232143Y95347D02*
X237757Y95347D01*
X237757Y96288D02*
X232143Y96288D01*
X232143Y97229D02*
X237757Y97229D01*
X237757Y98170D02*
X232143Y98170D01*
X232143Y99111D02*
X237757Y99111D01*
X244843Y99200D02*
X250457Y99200D01*
X250457Y88760D01*
X244843Y88760D01*
X244843Y99200D01*
X244843Y89701D02*
X250457Y89701D01*
X250457Y90642D02*
X244843Y90642D01*
X244843Y91583D02*
X250457Y91583D01*
X250457Y92524D02*
X244843Y92524D01*
X244843Y93465D02*
X250457Y93465D01*
X250457Y94406D02*
X244843Y94406D01*
X244843Y95347D02*
X250457Y95347D01*
X250457Y96288D02*
X244843Y96288D01*
X244843Y97229D02*
X250457Y97229D01*
X250457Y98170D02*
X244843Y98170D01*
X244843Y99111D02*
X250457Y99111D01*
X136157Y99200D02*
X130543Y99200D01*
X136157Y99200D02*
X136157Y88760D01*
X130543Y88760D01*
X130543Y99200D01*
X130543Y89701D02*
X136157Y89701D01*
X136157Y90642D02*
X130543Y90642D01*
X130543Y91583D02*
X136157Y91583D01*
X136157Y92524D02*
X130543Y92524D01*
X130543Y93465D02*
X136157Y93465D01*
X136157Y94406D02*
X130543Y94406D01*
X130543Y95347D02*
X136157Y95347D01*
X136157Y96288D02*
X130543Y96288D01*
X130543Y97229D02*
X136157Y97229D01*
X136157Y98170D02*
X130543Y98170D01*
X130543Y99111D02*
X136157Y99111D01*
X123457Y99200D02*
X117843Y99200D01*
X123457Y99200D02*
X123457Y88760D01*
X117843Y88760D01*
X117843Y99200D01*
X117843Y89701D02*
X123457Y89701D01*
X123457Y90642D02*
X117843Y90642D01*
X117843Y91583D02*
X123457Y91583D01*
X123457Y92524D02*
X117843Y92524D01*
X117843Y93465D02*
X123457Y93465D01*
X123457Y94406D02*
X117843Y94406D01*
X117843Y95347D02*
X123457Y95347D01*
X123457Y96288D02*
X117843Y96288D01*
X117843Y97229D02*
X123457Y97229D01*
X123457Y98170D02*
X117843Y98170D01*
X117843Y99111D02*
X123457Y99111D01*
X257543Y99200D02*
X263157Y99200D01*
X263157Y88760D01*
X257543Y88760D01*
X257543Y99200D01*
X257543Y89701D02*
X263157Y89701D01*
X263157Y90642D02*
X257543Y90642D01*
X257543Y91583D02*
X263157Y91583D01*
X263157Y92524D02*
X257543Y92524D01*
X257543Y93465D02*
X263157Y93465D01*
X263157Y94406D02*
X257543Y94406D01*
X257543Y95347D02*
X263157Y95347D01*
X263157Y96288D02*
X257543Y96288D01*
X257543Y97229D02*
X263157Y97229D01*
X263157Y98170D02*
X257543Y98170D01*
X257543Y99111D02*
X263157Y99111D01*
D10*
X278820Y156680D02*
X278820Y166680D01*
X278820Y156680D02*
X269820Y156680D01*
X269820Y166680D01*
X278820Y166680D01*
X278820Y157630D02*
X269820Y157630D01*
X269820Y158580D02*
X278820Y158580D01*
X278820Y159530D02*
X269820Y159530D01*
X269820Y160480D02*
X278820Y160480D01*
X278820Y161430D02*
X269820Y161430D01*
X269820Y162380D02*
X278820Y162380D01*
X278820Y163330D02*
X269820Y163330D01*
X269820Y164280D02*
X278820Y164280D01*
X278820Y165230D02*
X269820Y165230D01*
X269820Y166180D02*
X278820Y166180D01*
X278820Y173680D02*
X278820Y183680D01*
X278820Y173680D02*
X269820Y173680D01*
X269820Y183680D01*
X278820Y183680D01*
X278820Y174630D02*
X269820Y174630D01*
X269820Y175580D02*
X278820Y175580D01*
X278820Y176530D02*
X269820Y176530D01*
X269820Y177480D02*
X278820Y177480D01*
X278820Y178430D02*
X269820Y178430D01*
X269820Y179380D02*
X278820Y179380D01*
X278820Y180330D02*
X269820Y180330D01*
X269820Y181280D02*
X278820Y181280D01*
X278820Y182230D02*
X269820Y182230D01*
X269820Y183180D02*
X278820Y183180D01*
D20*
X75656Y94355D02*
X75656Y89845D01*
X64646Y89845D01*
X64646Y94355D01*
X75656Y94355D01*
X75656Y90785D02*
X64646Y90785D01*
X64646Y91725D02*
X75656Y91725D01*
X75656Y92665D02*
X64646Y92665D01*
X64646Y93605D02*
X75656Y93605D01*
X75656Y99345D02*
X75656Y103855D01*
X75656Y99345D02*
X64646Y99345D01*
X64646Y103855D01*
X75656Y103855D01*
X75656Y100285D02*
X64646Y100285D01*
X64646Y101225D02*
X75656Y101225D01*
X75656Y102165D02*
X64646Y102165D01*
X64646Y103105D02*
X75656Y103105D01*
X75656Y108845D02*
X75656Y113355D01*
X75656Y108845D02*
X64646Y108845D01*
X64646Y113355D01*
X75656Y113355D01*
X75656Y109785D02*
X64646Y109785D01*
X64646Y110725D02*
X75656Y110725D01*
X75656Y111665D02*
X64646Y111665D01*
X64646Y112605D02*
X75656Y112605D01*
X49654Y113355D02*
X49654Y108845D01*
X38644Y108845D01*
X38644Y113355D01*
X49654Y113355D01*
X49654Y109785D02*
X38644Y109785D01*
X38644Y110725D02*
X49654Y110725D01*
X49654Y111665D02*
X38644Y111665D01*
X38644Y112605D02*
X49654Y112605D01*
X49654Y94355D02*
X49654Y89845D01*
X38644Y89845D01*
X38644Y94355D01*
X49654Y94355D01*
X49654Y90785D02*
X38644Y90785D01*
X38644Y91725D02*
X49654Y91725D01*
X49654Y92665D02*
X38644Y92665D01*
X38644Y93605D02*
X49654Y93605D01*
D10*
X84400Y106370D02*
X84400Y116370D01*
X93400Y116370D01*
X93400Y106370D01*
X84400Y106370D01*
X84400Y107320D02*
X93400Y107320D01*
X93400Y108270D02*
X84400Y108270D01*
X84400Y109220D02*
X93400Y109220D01*
X93400Y110170D02*
X84400Y110170D01*
X84400Y111120D02*
X93400Y111120D01*
X93400Y112070D02*
X84400Y112070D01*
X84400Y113020D02*
X93400Y113020D01*
X93400Y113970D02*
X84400Y113970D01*
X84400Y114920D02*
X93400Y114920D01*
X93400Y115870D02*
X84400Y115870D01*
X84400Y99370D02*
X84400Y89370D01*
X84400Y99370D02*
X93400Y99370D01*
X93400Y89370D01*
X84400Y89370D01*
X84400Y90320D02*
X93400Y90320D01*
X93400Y91270D02*
X84400Y91270D01*
X84400Y92220D02*
X93400Y92220D01*
X93400Y93170D02*
X84400Y93170D01*
X84400Y94120D02*
X93400Y94120D01*
X93400Y95070D02*
X84400Y95070D01*
X84400Y96020D02*
X93400Y96020D01*
X93400Y96970D02*
X84400Y96970D01*
X84400Y97920D02*
X93400Y97920D01*
X93400Y98870D02*
X84400Y98870D01*
X61760Y128960D02*
X51760Y128960D01*
X61760Y128960D02*
X61760Y119960D01*
X51760Y119960D01*
X51760Y128960D01*
X51760Y120910D02*
X61760Y120910D01*
X61760Y121860D02*
X51760Y121860D01*
X51760Y122810D02*
X61760Y122810D01*
X61760Y123760D02*
X51760Y123760D01*
X51760Y124710D02*
X61760Y124710D01*
X61760Y125660D02*
X51760Y125660D01*
X51760Y126610D02*
X61760Y126610D01*
X61760Y127560D02*
X51760Y127560D01*
X51760Y128510D02*
X61760Y128510D01*
X44760Y128960D02*
X34760Y128960D01*
X44760Y128960D02*
X44760Y119960D01*
X34760Y119960D01*
X34760Y128960D01*
X34760Y120910D02*
X44760Y120910D01*
X44760Y121860D02*
X34760Y121860D01*
X34760Y122810D02*
X44760Y122810D01*
X44760Y123760D02*
X34760Y123760D01*
X34760Y124710D02*
X44760Y124710D01*
X44760Y125660D02*
X34760Y125660D01*
X34760Y126610D02*
X44760Y126610D01*
X44760Y127560D02*
X34760Y127560D01*
X34760Y128510D02*
X44760Y128510D01*
D21*
X25030Y92580D02*
X13070Y92580D01*
X25030Y92580D02*
X25030Y80620D01*
X13070Y80620D01*
X13070Y92580D01*
X13070Y81608D02*
X25030Y81608D01*
X25030Y82596D02*
X13070Y82596D01*
X13070Y83584D02*
X25030Y83584D01*
X25030Y84572D02*
X13070Y84572D01*
X13070Y85560D02*
X25030Y85560D01*
X25030Y86548D02*
X13070Y86548D01*
X13070Y87536D02*
X25030Y87536D01*
X25030Y88524D02*
X13070Y88524D01*
X13070Y89512D02*
X25030Y89512D01*
X25030Y90500D02*
X13070Y90500D01*
X13070Y91488D02*
X25030Y91488D01*
X25030Y92476D02*
X13070Y92476D01*
X13070Y122580D02*
X25030Y122580D01*
X25030Y110620D01*
X13070Y110620D01*
X13070Y122580D01*
X13070Y111608D02*
X25030Y111608D01*
X25030Y112596D02*
X13070Y112596D01*
X13070Y113584D02*
X25030Y113584D01*
X25030Y114572D02*
X13070Y114572D01*
X13070Y115560D02*
X25030Y115560D01*
X25030Y116548D02*
X13070Y116548D01*
X13070Y117536D02*
X25030Y117536D01*
X25030Y118524D02*
X13070Y118524D01*
X13070Y119512D02*
X25030Y119512D01*
X25030Y120500D02*
X13070Y120500D01*
X13070Y121488D02*
X25030Y121488D01*
X25030Y122476D02*
X13070Y122476D01*
D22*
X292100Y127000D02*
X298450Y127000D01*
X309880Y115570D01*
X309880Y99060D01*
X318470Y90470D01*
X389760Y90470D01*
D23*
X264160Y116840D03*
D22*
X27640Y188930D02*
X14100Y188930D01*
D24*
X27640Y188930D02*
X27940Y189230D01*
D23*
X27940Y189230D03*
X43180Y142240D03*
X82647Y76581D03*
D22*
X274320Y99450D02*
X274320Y101421D01*
X292100Y119201D01*
X292100Y127000D01*
X274320Y144780D01*
X274320Y161680D01*
X70421Y111370D02*
X70151Y111100D01*
X70151Y118720D01*
X64411Y124460D01*
X264160Y116840D02*
X265256Y115744D01*
X265256Y102173D01*
X267979Y99450D02*
X274320Y99450D01*
X267979Y99450D02*
X265256Y102173D01*
X92719Y76581D02*
X82647Y76581D01*
D25*
X92719Y76581D02*
X93100Y76200D01*
D22*
X88900Y111370D02*
X70421Y111370D01*
X64411Y124460D02*
X56760Y124460D01*
D25*
X82647Y76581D02*
X82266Y76200D01*
D22*
X72000Y76200D01*
X70151Y86939D02*
X70151Y92100D01*
X70151Y86939D02*
X72000Y85090D01*
X72000Y76200D01*
X19050Y116600D02*
X19050Y133350D01*
X27940Y142240D02*
X43180Y142240D01*
X27940Y142240D02*
X19050Y133350D01*
X43180Y142240D02*
X46990Y142240D01*
X56760Y132470D01*
X56760Y124460D01*
X88900Y111370D02*
X103750Y111370D01*
D24*
X104140Y111760D01*
D23*
X104140Y111760D03*
X106680Y205740D03*
X274320Y128270D03*
X12700Y101600D03*
X318770Y68580D03*
X119380Y152400D03*
X269240Y191770D03*
D22*
X266700Y191770D02*
X260350Y185420D01*
X266700Y191770D02*
X269240Y191770D01*
D23*
X34290Y135890D03*
X57150Y102870D03*
X327660Y104140D03*
D24*
X331340Y100470D02*
X389760Y100470D01*
X331340Y100470D02*
X327670Y104140D01*
X327660Y104140D01*
X247650Y93980D02*
X247650Y87696D01*
X243258Y83304D01*
X243258Y70538D02*
X236220Y63500D01*
X243258Y70538D02*
X243258Y83304D01*
X236220Y63500D02*
X60080Y63500D01*
X55000Y68580D01*
X55000Y76200D01*
X257302Y141617D02*
X259842Y141617D01*
X257302Y141617D02*
X247650Y131965D01*
D23*
X259842Y141617D03*
D24*
X247650Y131965D02*
X247650Y93980D01*
X29070Y178930D02*
X14100Y178930D01*
X29070Y178930D02*
X29210Y179070D01*
D23*
X29210Y179070D03*
X17780Y73660D03*
D24*
X43180Y73660D01*
X45720Y76200D01*
X55000Y76200D01*
X292100Y177800D02*
X304038Y165862D01*
X368300Y110470D02*
X389760Y110470D01*
X321310Y110490D02*
X304038Y127762D01*
X304038Y165862D01*
X368280Y110490D02*
X368300Y110470D01*
X368280Y110490D02*
X321310Y110490D01*
X234950Y93980D02*
X234950Y129540D01*
X254000Y148590D01*
X234950Y93980D02*
X234950Y88056D01*
X239702Y83304D01*
X239702Y72390D01*
X234622Y67310D01*
X110100Y70240D02*
X110100Y76200D01*
X113030Y67310D02*
X234622Y67310D01*
X113030Y67310D02*
X110100Y70240D01*
D23*
X254000Y148590D03*
D24*
X52090Y168930D02*
X14100Y168930D01*
X52090Y168930D02*
X53340Y170180D01*
D23*
X53340Y170180D03*
X113030Y137160D03*
D24*
X110100Y134230D01*
X110100Y76200D01*
X349250Y177800D02*
X355346Y177800D01*
X346360Y180690D02*
X346360Y198884D01*
X336444Y208800D01*
X312600Y208800D01*
X304980Y201180D01*
X346360Y180690D02*
X349250Y177800D01*
X222250Y132080D02*
X222250Y93980D01*
X222250Y132080D02*
X241820Y151650D01*
X246900Y151650D01*
X253250Y158000D01*
D23*
X253250Y158000D03*
X171450Y105410D03*
D24*
X171450Y93980D01*
X279580Y201180D02*
X291760Y213360D01*
X339090Y213360D02*
X349250Y203200D01*
X352806Y203200D01*
X339090Y213360D02*
X291760Y213360D01*
X209550Y125730D02*
X209550Y93980D01*
X241765Y157945D02*
X244305Y157945D01*
X241765Y157945D02*
X209550Y125730D01*
D23*
X244305Y157945D03*
D24*
X158750Y144780D02*
X158750Y93980D01*
X158750Y144780D02*
X165100Y151130D01*
D23*
X165100Y151130D03*
D24*
X177980Y130630D02*
X177980Y201180D01*
X177980Y130630D02*
X196850Y111760D01*
X196850Y93980D01*
X152580Y115750D02*
X152580Y201180D01*
X152580Y115750D02*
X146050Y109220D01*
X146050Y93980D01*
X127180Y115390D02*
X127180Y201180D01*
X127180Y115390D02*
X133350Y109220D01*
X133350Y93980D01*
D23*
X120650Y105410D03*
D24*
X120650Y93980D01*
D23*
X373380Y140970D03*
D24*
X393630Y140970D01*
X393700Y140900D01*
X247650Y185420D02*
X247650Y194650D01*
X254180Y201180D01*
X234950Y195010D02*
X234950Y185420D01*
X234950Y195010D02*
X228780Y201180D01*
D23*
X222250Y148590D03*
D24*
X222250Y185420D01*
X228780Y130169D02*
X228780Y78780D01*
X228780Y130169D02*
X228981Y130370D01*
D23*
X228981Y130370D03*
X209550Y153670D03*
D24*
X209550Y185420D01*
X252910Y129360D02*
X252910Y111800D01*
X254180Y110530D02*
X254180Y78780D01*
X254180Y110530D02*
X252910Y111800D01*
D23*
X252910Y129360D03*
X196626Y120426D03*
D24*
X196626Y185196D01*
X196850Y185420D01*
X184150Y185420D02*
X184150Y191770D01*
X193560Y201180D02*
X203380Y201180D01*
X193560Y201180D02*
X184150Y191770D01*
X130850Y78780D02*
X127180Y78780D01*
X130850Y78780D02*
X139700Y87630D01*
X139700Y111760D01*
D23*
X139700Y111760D03*
X178659Y115981D03*
D24*
X184150Y110490D01*
X184150Y93980D01*
X171450Y132080D02*
X171450Y185420D01*
X171450Y132080D02*
X190500Y113030D01*
X190500Y85090D01*
X196810Y78780D01*
X203380Y78780D01*
X363474Y177800D02*
X378850Y177800D01*
X369960Y203200D02*
X360934Y203200D01*
X369960Y203200D02*
X378850Y194310D01*
X395850Y194310D02*
X395850Y177800D01*
X395850Y166050D01*
X393700Y163900D01*
D25*
X27718Y86600D02*
X19050Y86600D01*
X33218Y92100D02*
X44149Y92100D01*
X33218Y92100D02*
X27718Y86600D01*
D22*
X32410Y111100D02*
X44149Y111100D01*
D24*
X32410Y111100D02*
X31750Y111760D01*
D23*
X31750Y111760D03*
X258371Y122809D03*
D22*
X257810Y114736D02*
X260350Y112196D01*
X260350Y93980D01*
X257810Y122248D02*
X258371Y122809D01*
X257810Y122248D02*
X257810Y114736D01*
M02*
