G04 EAGLE Gerber RS-274X export*
G75*
%MOMM*%
%FSLAX34Y34*%
%LPD*%
%INSolderpaste Top*%
%IPPOS*%
%AMOC8*
5,1,8,0,0,1.08239X$1,22.5*%
G01*
%ADD10C,0.100000*%
%ADD11C,0.100800*%
%ADD12C,0.102000*%
%ADD13C,0.096000*%
%ADD14C,0.099059*%
%ADD15C,0.099000*%
%ADD16C,0.104000*%


D10*
X278820Y104450D02*
X278820Y94450D01*
X269820Y94450D01*
X269820Y104450D01*
X278820Y104450D01*
X278820Y95400D02*
X269820Y95400D01*
X269820Y96350D02*
X278820Y96350D01*
X278820Y97300D02*
X269820Y97300D01*
X269820Y98250D02*
X278820Y98250D01*
X278820Y99200D02*
X269820Y99200D01*
X269820Y100150D02*
X278820Y100150D01*
X278820Y101100D02*
X269820Y101100D01*
X269820Y102050D02*
X278820Y102050D01*
X278820Y103000D02*
X269820Y103000D01*
X269820Y103950D02*
X278820Y103950D01*
X278820Y111450D02*
X278820Y121450D01*
X278820Y111450D02*
X269820Y111450D01*
X269820Y121450D01*
X278820Y121450D01*
X278820Y112400D02*
X269820Y112400D01*
X269820Y113350D02*
X278820Y113350D01*
X278820Y114300D02*
X269820Y114300D01*
X269820Y115250D02*
X278820Y115250D01*
X278820Y116200D02*
X269820Y116200D01*
X269820Y117150D02*
X278820Y117150D01*
X278820Y118100D02*
X269820Y118100D01*
X269820Y119050D02*
X278820Y119050D01*
X278820Y120000D02*
X269820Y120000D01*
X269820Y120950D02*
X278820Y120950D01*
X60000Y71700D02*
X50000Y71700D01*
X50000Y80700D01*
X60000Y80700D01*
X60000Y71700D01*
X60000Y72650D02*
X50000Y72650D01*
X50000Y73600D02*
X60000Y73600D01*
X60000Y74550D02*
X50000Y74550D01*
X50000Y75500D02*
X60000Y75500D01*
X60000Y76450D02*
X50000Y76450D01*
X50000Y77400D02*
X60000Y77400D01*
X60000Y78350D02*
X50000Y78350D01*
X50000Y79300D02*
X60000Y79300D01*
X60000Y80250D02*
X50000Y80250D01*
X67000Y71700D02*
X77000Y71700D01*
X67000Y71700D02*
X67000Y80700D01*
X77000Y80700D01*
X77000Y71700D01*
X77000Y72650D02*
X67000Y72650D01*
X67000Y73600D02*
X77000Y73600D01*
X77000Y74550D02*
X67000Y74550D01*
X67000Y75500D02*
X77000Y75500D01*
X77000Y76450D02*
X67000Y76450D01*
X67000Y77400D02*
X77000Y77400D01*
X77000Y78350D02*
X67000Y78350D01*
X67000Y79300D02*
X77000Y79300D01*
X77000Y80250D02*
X67000Y80250D01*
X105100Y80700D02*
X115100Y80700D01*
X115100Y71700D01*
X105100Y71700D01*
X105100Y80700D01*
X105100Y72650D02*
X115100Y72650D01*
X115100Y73600D02*
X105100Y73600D01*
X105100Y74550D02*
X115100Y74550D01*
X115100Y75500D02*
X105100Y75500D01*
X105100Y76450D02*
X115100Y76450D01*
X115100Y77400D02*
X105100Y77400D01*
X105100Y78350D02*
X115100Y78350D01*
X115100Y79300D02*
X105100Y79300D01*
X105100Y80250D02*
X115100Y80250D01*
X98100Y80700D02*
X88100Y80700D01*
X98100Y80700D02*
X98100Y71700D01*
X88100Y71700D01*
X88100Y80700D01*
X88100Y72650D02*
X98100Y72650D01*
X98100Y73600D02*
X88100Y73600D01*
X88100Y74550D02*
X98100Y74550D01*
X98100Y75500D02*
X88100Y75500D01*
X88100Y76450D02*
X98100Y76450D01*
X98100Y77400D02*
X88100Y77400D01*
X88100Y78350D02*
X98100Y78350D01*
X98100Y79300D02*
X88100Y79300D01*
X88100Y80250D02*
X98100Y80250D01*
X373850Y173300D02*
X383850Y173300D01*
X373850Y173300D02*
X373850Y182300D01*
X383850Y182300D01*
X383850Y173300D01*
X383850Y174250D02*
X373850Y174250D01*
X373850Y175200D02*
X383850Y175200D01*
X383850Y176150D02*
X373850Y176150D01*
X373850Y177100D02*
X383850Y177100D01*
X383850Y178050D02*
X373850Y178050D01*
X373850Y179000D02*
X383850Y179000D01*
X383850Y179950D02*
X373850Y179950D01*
X373850Y180900D02*
X383850Y180900D01*
X383850Y181850D02*
X373850Y181850D01*
X390850Y173300D02*
X400850Y173300D01*
X390850Y173300D02*
X390850Y182300D01*
X400850Y182300D01*
X400850Y173300D01*
X400850Y174250D02*
X390850Y174250D01*
X390850Y175200D02*
X400850Y175200D01*
X400850Y176150D02*
X390850Y176150D01*
X390850Y177100D02*
X400850Y177100D01*
X400850Y178050D02*
X390850Y178050D01*
X390850Y179000D02*
X400850Y179000D01*
X400850Y179950D02*
X390850Y179950D01*
X390850Y180900D02*
X400850Y180900D01*
X400850Y181850D02*
X390850Y181850D01*
X383850Y189810D02*
X373850Y189810D01*
X373850Y198810D01*
X383850Y198810D01*
X383850Y189810D01*
X383850Y190760D02*
X373850Y190760D01*
X373850Y191710D02*
X383850Y191710D01*
X383850Y192660D02*
X373850Y192660D01*
X373850Y193610D02*
X383850Y193610D01*
X383850Y194560D02*
X373850Y194560D01*
X373850Y195510D02*
X383850Y195510D01*
X383850Y196460D02*
X373850Y196460D01*
X373850Y197410D02*
X383850Y197410D01*
X383850Y198360D02*
X373850Y198360D01*
X390850Y189810D02*
X400850Y189810D01*
X390850Y189810D02*
X390850Y198810D01*
X400850Y198810D01*
X400850Y189810D01*
X400850Y190760D02*
X390850Y190760D01*
X390850Y191710D02*
X400850Y191710D01*
X400850Y192660D02*
X390850Y192660D01*
X390850Y193610D02*
X400850Y193610D01*
X400850Y194560D02*
X390850Y194560D01*
X390850Y195510D02*
X400850Y195510D01*
X400850Y196460D02*
X390850Y196460D01*
X390850Y197410D02*
X400850Y197410D01*
X400850Y198360D02*
X390850Y198360D01*
D11*
X390054Y166546D02*
X390054Y161254D01*
X390054Y166546D02*
X397346Y166546D01*
X397346Y161254D01*
X390054Y161254D01*
X390054Y162212D02*
X397346Y162212D01*
X397346Y163170D02*
X390054Y163170D01*
X390054Y164128D02*
X397346Y164128D01*
X397346Y165086D02*
X390054Y165086D01*
X390054Y166044D02*
X397346Y166044D01*
X390054Y143546D02*
X390054Y138254D01*
X390054Y143546D02*
X397346Y143546D01*
X397346Y138254D01*
X390054Y138254D01*
X390054Y139212D02*
X397346Y139212D01*
X397346Y140170D02*
X390054Y140170D01*
X390054Y141128D02*
X397346Y141128D01*
X397346Y142086D02*
X390054Y142086D01*
X390054Y143044D02*
X397346Y143044D01*
D12*
X6860Y196440D02*
X6860Y201420D01*
X21340Y201420D01*
X21340Y196440D01*
X6860Y196440D01*
X6860Y197409D02*
X21340Y197409D01*
X21340Y198378D02*
X6860Y198378D01*
X6860Y199347D02*
X21340Y199347D01*
X21340Y200316D02*
X6860Y200316D01*
X6860Y201285D02*
X21340Y201285D01*
X6860Y191420D02*
X6860Y186440D01*
X6860Y191420D02*
X21340Y191420D01*
X21340Y186440D01*
X6860Y186440D01*
X6860Y187409D02*
X21340Y187409D01*
X21340Y188378D02*
X6860Y188378D01*
X6860Y189347D02*
X21340Y189347D01*
X21340Y190316D02*
X6860Y190316D01*
X6860Y191285D02*
X21340Y191285D01*
X6860Y181420D02*
X6860Y176440D01*
X6860Y181420D02*
X21340Y181420D01*
X21340Y176440D01*
X6860Y176440D01*
X6860Y177409D02*
X21340Y177409D01*
X21340Y178378D02*
X6860Y178378D01*
X6860Y179347D02*
X21340Y179347D01*
X21340Y180316D02*
X6860Y180316D01*
X6860Y181285D02*
X21340Y181285D01*
X6860Y171420D02*
X6860Y166440D01*
X6860Y171420D02*
X21340Y171420D01*
X21340Y166440D01*
X6860Y166440D01*
X6860Y167409D02*
X21340Y167409D01*
X21340Y168378D02*
X6860Y168378D01*
X6860Y169347D02*
X21340Y169347D01*
X21340Y170316D02*
X6860Y170316D01*
X6860Y171285D02*
X21340Y171285D01*
D13*
X28830Y206410D02*
X28830Y217450D01*
X47870Y217450D01*
X47870Y206410D01*
X28830Y206410D01*
X28830Y207322D02*
X47870Y207322D01*
X47870Y208234D02*
X28830Y208234D01*
X28830Y209146D02*
X47870Y209146D01*
X47870Y210058D02*
X28830Y210058D01*
X28830Y210970D02*
X47870Y210970D01*
X47870Y211882D02*
X28830Y211882D01*
X28830Y212794D02*
X47870Y212794D01*
X47870Y213706D02*
X28830Y213706D01*
X28830Y214618D02*
X47870Y214618D01*
X47870Y215530D02*
X28830Y215530D01*
X28830Y216442D02*
X47870Y216442D01*
X47870Y217354D02*
X28830Y217354D01*
X28830Y161450D02*
X28830Y150410D01*
X28830Y161450D02*
X47870Y161450D01*
X47870Y150410D01*
X28830Y150410D01*
X28830Y151322D02*
X47870Y151322D01*
X47870Y152234D02*
X28830Y152234D01*
X28830Y153146D02*
X47870Y153146D01*
X47870Y154058D02*
X28830Y154058D01*
X28830Y154970D02*
X47870Y154970D01*
X47870Y155882D02*
X28830Y155882D01*
X28830Y156794D02*
X47870Y156794D01*
X47870Y157706D02*
X28830Y157706D01*
X28830Y158618D02*
X47870Y158618D01*
X47870Y159530D02*
X28830Y159530D01*
X28830Y160442D02*
X47870Y160442D01*
X47870Y161354D02*
X28830Y161354D01*
D12*
X397000Y82960D02*
X397000Y77980D01*
X382520Y77980D01*
X382520Y82960D01*
X397000Y82960D01*
X397000Y78949D02*
X382520Y78949D01*
X382520Y79918D02*
X397000Y79918D01*
X397000Y80887D02*
X382520Y80887D01*
X382520Y81856D02*
X397000Y81856D01*
X397000Y82825D02*
X382520Y82825D01*
X397000Y87980D02*
X397000Y92960D01*
X397000Y87980D02*
X382520Y87980D01*
X382520Y92960D01*
X397000Y92960D01*
X397000Y88949D02*
X382520Y88949D01*
X382520Y89918D02*
X397000Y89918D01*
X397000Y90887D02*
X382520Y90887D01*
X382520Y91856D02*
X397000Y91856D01*
X397000Y92825D02*
X382520Y92825D01*
X397000Y97980D02*
X397000Y102960D01*
X397000Y97980D02*
X382520Y97980D01*
X382520Y102960D01*
X397000Y102960D01*
X397000Y98949D02*
X382520Y98949D01*
X382520Y99918D02*
X397000Y99918D01*
X397000Y100887D02*
X382520Y100887D01*
X382520Y101856D02*
X397000Y101856D01*
X397000Y102825D02*
X382520Y102825D01*
X397000Y107980D02*
X397000Y112960D01*
X397000Y107980D02*
X382520Y107980D01*
X382520Y112960D01*
X397000Y112960D01*
X397000Y108949D02*
X382520Y108949D01*
X382520Y109918D02*
X397000Y109918D01*
X397000Y110887D02*
X382520Y110887D01*
X382520Y111856D02*
X397000Y111856D01*
X397000Y112825D02*
X382520Y112825D01*
D13*
X375030Y72990D02*
X375030Y61950D01*
X355990Y61950D01*
X355990Y72990D01*
X375030Y72990D01*
X375030Y62862D02*
X355990Y62862D01*
X355990Y63774D02*
X375030Y63774D01*
X375030Y64686D02*
X355990Y64686D01*
X355990Y65598D02*
X375030Y65598D01*
X375030Y66510D02*
X355990Y66510D01*
X355990Y67422D02*
X375030Y67422D01*
X375030Y68334D02*
X355990Y68334D01*
X355990Y69246D02*
X375030Y69246D01*
X375030Y70158D02*
X355990Y70158D01*
X355990Y71070D02*
X375030Y71070D01*
X375030Y71982D02*
X355990Y71982D01*
X355990Y72894D02*
X375030Y72894D01*
X375030Y117950D02*
X375030Y128990D01*
X375030Y117950D02*
X355990Y117950D01*
X355990Y128990D01*
X375030Y128990D01*
X375030Y118862D02*
X355990Y118862D01*
X355990Y119774D02*
X375030Y119774D01*
X375030Y120686D02*
X355990Y120686D01*
X355990Y121598D02*
X375030Y121598D01*
X375030Y122510D02*
X355990Y122510D01*
X355990Y123422D02*
X375030Y123422D01*
X375030Y124334D02*
X355990Y124334D01*
X355990Y125246D02*
X375030Y125246D01*
X375030Y126158D02*
X355990Y126158D01*
X355990Y127070D02*
X375030Y127070D01*
X375030Y127982D02*
X355990Y127982D01*
X355990Y128894D02*
X375030Y128894D01*
D14*
X199657Y190640D02*
X194043Y190640D01*
X199657Y190640D02*
X199657Y180200D01*
X194043Y180200D01*
X194043Y190640D01*
X194043Y181141D02*
X199657Y181141D01*
X199657Y182082D02*
X194043Y182082D01*
X194043Y183023D02*
X199657Y183023D01*
X199657Y183964D02*
X194043Y183964D01*
X194043Y184905D02*
X199657Y184905D01*
X199657Y185846D02*
X194043Y185846D01*
X194043Y186787D02*
X199657Y186787D01*
X199657Y187728D02*
X194043Y187728D01*
X194043Y188669D02*
X199657Y188669D01*
X199657Y189610D02*
X194043Y189610D01*
X194043Y190551D02*
X199657Y190551D01*
X186957Y190640D02*
X181343Y190640D01*
X186957Y190640D02*
X186957Y180200D01*
X181343Y180200D01*
X181343Y190640D01*
X181343Y181141D02*
X186957Y181141D01*
X186957Y182082D02*
X181343Y182082D01*
X181343Y183023D02*
X186957Y183023D01*
X186957Y183964D02*
X181343Y183964D01*
X181343Y184905D02*
X186957Y184905D01*
X186957Y185846D02*
X181343Y185846D01*
X181343Y186787D02*
X186957Y186787D01*
X186957Y187728D02*
X181343Y187728D01*
X181343Y188669D02*
X186957Y188669D01*
X186957Y189610D02*
X181343Y189610D01*
X181343Y190551D02*
X186957Y190551D01*
X194043Y99200D02*
X199657Y99200D01*
X199657Y88760D01*
X194043Y88760D01*
X194043Y99200D01*
X194043Y89701D02*
X199657Y89701D01*
X199657Y90642D02*
X194043Y90642D01*
X194043Y91583D02*
X199657Y91583D01*
X199657Y92524D02*
X194043Y92524D01*
X194043Y93465D02*
X199657Y93465D01*
X199657Y94406D02*
X194043Y94406D01*
X194043Y95347D02*
X199657Y95347D01*
X199657Y96288D02*
X194043Y96288D01*
X194043Y97229D02*
X199657Y97229D01*
X199657Y98170D02*
X194043Y98170D01*
X194043Y99111D02*
X199657Y99111D01*
X186957Y99200D02*
X181343Y99200D01*
X186957Y99200D02*
X186957Y88760D01*
X181343Y88760D01*
X181343Y99200D01*
X181343Y89701D02*
X186957Y89701D01*
X186957Y90642D02*
X181343Y90642D01*
X181343Y91583D02*
X186957Y91583D01*
X186957Y92524D02*
X181343Y92524D01*
X181343Y93465D02*
X186957Y93465D01*
X186957Y94406D02*
X181343Y94406D01*
X181343Y95347D02*
X186957Y95347D01*
X186957Y96288D02*
X181343Y96288D01*
X181343Y97229D02*
X186957Y97229D01*
X186957Y98170D02*
X181343Y98170D01*
X181343Y99111D02*
X186957Y99111D01*
X174257Y190640D02*
X168643Y190640D01*
X174257Y190640D02*
X174257Y180200D01*
X168643Y180200D01*
X168643Y190640D01*
X168643Y181141D02*
X174257Y181141D01*
X174257Y182082D02*
X168643Y182082D01*
X168643Y183023D02*
X174257Y183023D01*
X174257Y183964D02*
X168643Y183964D01*
X168643Y184905D02*
X174257Y184905D01*
X174257Y185846D02*
X168643Y185846D01*
X168643Y186787D02*
X174257Y186787D01*
X174257Y187728D02*
X168643Y187728D01*
X168643Y188669D02*
X174257Y188669D01*
X174257Y189610D02*
X168643Y189610D01*
X168643Y190551D02*
X174257Y190551D01*
X161557Y190640D02*
X155943Y190640D01*
X161557Y190640D02*
X161557Y180200D01*
X155943Y180200D01*
X155943Y190640D01*
X155943Y181141D02*
X161557Y181141D01*
X161557Y182082D02*
X155943Y182082D01*
X155943Y183023D02*
X161557Y183023D01*
X161557Y183964D02*
X155943Y183964D01*
X155943Y184905D02*
X161557Y184905D01*
X161557Y185846D02*
X155943Y185846D01*
X155943Y186787D02*
X161557Y186787D01*
X161557Y187728D02*
X155943Y187728D01*
X155943Y188669D02*
X161557Y188669D01*
X161557Y189610D02*
X155943Y189610D01*
X155943Y190551D02*
X161557Y190551D01*
X148857Y190640D02*
X143243Y190640D01*
X148857Y190640D02*
X148857Y180200D01*
X143243Y180200D01*
X143243Y190640D01*
X143243Y181141D02*
X148857Y181141D01*
X148857Y182082D02*
X143243Y182082D01*
X143243Y183023D02*
X148857Y183023D01*
X148857Y183964D02*
X143243Y183964D01*
X143243Y184905D02*
X148857Y184905D01*
X148857Y185846D02*
X143243Y185846D01*
X143243Y186787D02*
X148857Y186787D01*
X148857Y187728D02*
X143243Y187728D01*
X143243Y188669D02*
X148857Y188669D01*
X148857Y189610D02*
X143243Y189610D01*
X143243Y190551D02*
X148857Y190551D01*
X136157Y190640D02*
X130543Y190640D01*
X136157Y190640D02*
X136157Y180200D01*
X130543Y180200D01*
X130543Y190640D01*
X130543Y181141D02*
X136157Y181141D01*
X136157Y182082D02*
X130543Y182082D01*
X130543Y183023D02*
X136157Y183023D01*
X136157Y183964D02*
X130543Y183964D01*
X130543Y184905D02*
X136157Y184905D01*
X136157Y185846D02*
X130543Y185846D01*
X130543Y186787D02*
X136157Y186787D01*
X136157Y187728D02*
X130543Y187728D01*
X130543Y188669D02*
X136157Y188669D01*
X136157Y189610D02*
X130543Y189610D01*
X130543Y190551D02*
X136157Y190551D01*
X123457Y190640D02*
X117843Y190640D01*
X123457Y190640D02*
X123457Y180200D01*
X117843Y180200D01*
X117843Y190640D01*
X117843Y181141D02*
X123457Y181141D01*
X123457Y182082D02*
X117843Y182082D01*
X117843Y183023D02*
X123457Y183023D01*
X123457Y183964D02*
X117843Y183964D01*
X117843Y184905D02*
X123457Y184905D01*
X123457Y185846D02*
X117843Y185846D01*
X117843Y186787D02*
X123457Y186787D01*
X123457Y187728D02*
X117843Y187728D01*
X117843Y188669D02*
X123457Y188669D01*
X123457Y189610D02*
X117843Y189610D01*
X117843Y190551D02*
X123457Y190551D01*
X257543Y190640D02*
X263157Y190640D01*
X263157Y180200D01*
X257543Y180200D01*
X257543Y190640D01*
X257543Y181141D02*
X263157Y181141D01*
X263157Y182082D02*
X257543Y182082D01*
X257543Y183023D02*
X263157Y183023D01*
X263157Y183964D02*
X257543Y183964D01*
X257543Y184905D02*
X263157Y184905D01*
X263157Y185846D02*
X257543Y185846D01*
X257543Y186787D02*
X263157Y186787D01*
X263157Y187728D02*
X257543Y187728D01*
X257543Y188669D02*
X263157Y188669D01*
X263157Y189610D02*
X257543Y189610D01*
X257543Y190551D02*
X263157Y190551D01*
X250457Y190640D02*
X244843Y190640D01*
X250457Y190640D02*
X250457Y180200D01*
X244843Y180200D01*
X244843Y190640D01*
X244843Y181141D02*
X250457Y181141D01*
X250457Y182082D02*
X244843Y182082D01*
X244843Y183023D02*
X250457Y183023D01*
X250457Y183964D02*
X244843Y183964D01*
X244843Y184905D02*
X250457Y184905D01*
X250457Y185846D02*
X244843Y185846D01*
X244843Y186787D02*
X250457Y186787D01*
X250457Y187728D02*
X244843Y187728D01*
X244843Y188669D02*
X250457Y188669D01*
X250457Y189610D02*
X244843Y189610D01*
X244843Y190551D02*
X250457Y190551D01*
X237757Y190640D02*
X232143Y190640D01*
X237757Y190640D02*
X237757Y180200D01*
X232143Y180200D01*
X232143Y190640D01*
X232143Y181141D02*
X237757Y181141D01*
X237757Y182082D02*
X232143Y182082D01*
X232143Y183023D02*
X237757Y183023D01*
X237757Y183964D02*
X232143Y183964D01*
X232143Y184905D02*
X237757Y184905D01*
X237757Y185846D02*
X232143Y185846D01*
X232143Y186787D02*
X237757Y186787D01*
X237757Y187728D02*
X232143Y187728D01*
X232143Y188669D02*
X237757Y188669D01*
X237757Y189610D02*
X232143Y189610D01*
X232143Y190551D02*
X237757Y190551D01*
X225057Y190640D02*
X219443Y190640D01*
X225057Y190640D02*
X225057Y180200D01*
X219443Y180200D01*
X219443Y190640D01*
X219443Y181141D02*
X225057Y181141D01*
X225057Y182082D02*
X219443Y182082D01*
X219443Y183023D02*
X225057Y183023D01*
X225057Y183964D02*
X219443Y183964D01*
X219443Y184905D02*
X225057Y184905D01*
X225057Y185846D02*
X219443Y185846D01*
X219443Y186787D02*
X225057Y186787D01*
X225057Y187728D02*
X219443Y187728D01*
X219443Y188669D02*
X225057Y188669D01*
X225057Y189610D02*
X219443Y189610D01*
X219443Y190551D02*
X225057Y190551D01*
X212357Y190640D02*
X206743Y190640D01*
X212357Y190640D02*
X212357Y180200D01*
X206743Y180200D01*
X206743Y190640D01*
X206743Y181141D02*
X212357Y181141D01*
X212357Y182082D02*
X206743Y182082D01*
X206743Y183023D02*
X212357Y183023D01*
X212357Y183964D02*
X206743Y183964D01*
X206743Y184905D02*
X212357Y184905D01*
X212357Y185846D02*
X206743Y185846D01*
X206743Y186787D02*
X212357Y186787D01*
X212357Y187728D02*
X206743Y187728D01*
X206743Y188669D02*
X212357Y188669D01*
X212357Y189610D02*
X206743Y189610D01*
X206743Y190551D02*
X212357Y190551D01*
X212357Y99200D02*
X206743Y99200D01*
X212357Y99200D02*
X212357Y88760D01*
X206743Y88760D01*
X206743Y99200D01*
X206743Y89701D02*
X212357Y89701D01*
X212357Y90642D02*
X206743Y90642D01*
X206743Y91583D02*
X212357Y91583D01*
X212357Y92524D02*
X206743Y92524D01*
X206743Y93465D02*
X212357Y93465D01*
X212357Y94406D02*
X206743Y94406D01*
X206743Y95347D02*
X212357Y95347D01*
X212357Y96288D02*
X206743Y96288D01*
X206743Y97229D02*
X212357Y97229D01*
X212357Y98170D02*
X206743Y98170D01*
X206743Y99111D02*
X212357Y99111D01*
X174257Y99200D02*
X168643Y99200D01*
X174257Y99200D02*
X174257Y88760D01*
X168643Y88760D01*
X168643Y99200D01*
X168643Y89701D02*
X174257Y89701D01*
X174257Y90642D02*
X168643Y90642D01*
X168643Y91583D02*
X174257Y91583D01*
X174257Y92524D02*
X168643Y92524D01*
X168643Y93465D02*
X174257Y93465D01*
X174257Y94406D02*
X168643Y94406D01*
X168643Y95347D02*
X174257Y95347D01*
X174257Y96288D02*
X168643Y96288D01*
X168643Y97229D02*
X174257Y97229D01*
X174257Y98170D02*
X168643Y98170D01*
X168643Y99111D02*
X174257Y99111D01*
X161557Y99200D02*
X155943Y99200D01*
X161557Y99200D02*
X161557Y88760D01*
X155943Y88760D01*
X155943Y99200D01*
X155943Y89701D02*
X161557Y89701D01*
X161557Y90642D02*
X155943Y90642D01*
X155943Y91583D02*
X161557Y91583D01*
X161557Y92524D02*
X155943Y92524D01*
X155943Y93465D02*
X161557Y93465D01*
X161557Y94406D02*
X155943Y94406D01*
X155943Y95347D02*
X161557Y95347D01*
X161557Y96288D02*
X155943Y96288D01*
X155943Y97229D02*
X161557Y97229D01*
X161557Y98170D02*
X155943Y98170D01*
X155943Y99111D02*
X161557Y99111D01*
X219443Y99200D02*
X225057Y99200D01*
X225057Y88760D01*
X219443Y88760D01*
X219443Y99200D01*
X219443Y89701D02*
X225057Y89701D01*
X225057Y90642D02*
X219443Y90642D01*
X219443Y91583D02*
X225057Y91583D01*
X225057Y92524D02*
X219443Y92524D01*
X219443Y93465D02*
X225057Y93465D01*
X225057Y94406D02*
X219443Y94406D01*
X219443Y95347D02*
X225057Y95347D01*
X225057Y96288D02*
X219443Y96288D01*
X219443Y97229D02*
X225057Y97229D01*
X225057Y98170D02*
X219443Y98170D01*
X219443Y99111D02*
X225057Y99111D01*
X148857Y99200D02*
X143243Y99200D01*
X148857Y99200D02*
X148857Y88760D01*
X143243Y88760D01*
X143243Y99200D01*
X143243Y89701D02*
X148857Y89701D01*
X148857Y90642D02*
X143243Y90642D01*
X143243Y91583D02*
X148857Y91583D01*
X148857Y92524D02*
X143243Y92524D01*
X143243Y93465D02*
X148857Y93465D01*
X148857Y94406D02*
X143243Y94406D01*
X143243Y95347D02*
X148857Y95347D01*
X148857Y96288D02*
X143243Y96288D01*
X143243Y97229D02*
X148857Y97229D01*
X148857Y98170D02*
X143243Y98170D01*
X143243Y99111D02*
X148857Y99111D01*
X232143Y99200D02*
X237757Y99200D01*
X237757Y88760D01*
X232143Y88760D01*
X232143Y99200D01*
X232143Y89701D02*
X237757Y89701D01*
X237757Y90642D02*
X232143Y90642D01*
X232143Y91583D02*
X237757Y91583D01*
X237757Y92524D02*
X232143Y92524D01*
X232143Y93465D02*
X237757Y93465D01*
X237757Y94406D02*
X232143Y94406D01*
X232143Y95347D02*
X237757Y95347D01*
X237757Y96288D02*
X232143Y96288D01*
X232143Y97229D02*
X237757Y97229D01*
X237757Y98170D02*
X232143Y98170D01*
X232143Y99111D02*
X237757Y99111D01*
X244843Y99200D02*
X250457Y99200D01*
X250457Y88760D01*
X244843Y88760D01*
X244843Y99200D01*
X244843Y89701D02*
X250457Y89701D01*
X250457Y90642D02*
X244843Y90642D01*
X244843Y91583D02*
X250457Y91583D01*
X250457Y92524D02*
X244843Y92524D01*
X244843Y93465D02*
X250457Y93465D01*
X250457Y94406D02*
X244843Y94406D01*
X244843Y95347D02*
X250457Y95347D01*
X250457Y96288D02*
X244843Y96288D01*
X244843Y97229D02*
X250457Y97229D01*
X250457Y98170D02*
X244843Y98170D01*
X244843Y99111D02*
X250457Y99111D01*
X136157Y99200D02*
X130543Y99200D01*
X136157Y99200D02*
X136157Y88760D01*
X130543Y88760D01*
X130543Y99200D01*
X130543Y89701D02*
X136157Y89701D01*
X136157Y90642D02*
X130543Y90642D01*
X130543Y91583D02*
X136157Y91583D01*
X136157Y92524D02*
X130543Y92524D01*
X130543Y93465D02*
X136157Y93465D01*
X136157Y94406D02*
X130543Y94406D01*
X130543Y95347D02*
X136157Y95347D01*
X136157Y96288D02*
X130543Y96288D01*
X130543Y97229D02*
X136157Y97229D01*
X136157Y98170D02*
X130543Y98170D01*
X130543Y99111D02*
X136157Y99111D01*
X123457Y99200D02*
X117843Y99200D01*
X123457Y99200D02*
X123457Y88760D01*
X117843Y88760D01*
X117843Y99200D01*
X117843Y89701D02*
X123457Y89701D01*
X123457Y90642D02*
X117843Y90642D01*
X117843Y91583D02*
X123457Y91583D01*
X123457Y92524D02*
X117843Y92524D01*
X117843Y93465D02*
X123457Y93465D01*
X123457Y94406D02*
X117843Y94406D01*
X117843Y95347D02*
X123457Y95347D01*
X123457Y96288D02*
X117843Y96288D01*
X117843Y97229D02*
X123457Y97229D01*
X123457Y98170D02*
X117843Y98170D01*
X117843Y99111D02*
X123457Y99111D01*
X257543Y99200D02*
X263157Y99200D01*
X263157Y88760D01*
X257543Y88760D01*
X257543Y99200D01*
X257543Y89701D02*
X263157Y89701D01*
X263157Y90642D02*
X257543Y90642D01*
X257543Y91583D02*
X263157Y91583D01*
X263157Y92524D02*
X257543Y92524D01*
X257543Y93465D02*
X263157Y93465D01*
X263157Y94406D02*
X257543Y94406D01*
X257543Y95347D02*
X263157Y95347D01*
X263157Y96288D02*
X257543Y96288D01*
X257543Y97229D02*
X263157Y97229D01*
X263157Y98170D02*
X257543Y98170D01*
X257543Y99111D02*
X263157Y99111D01*
D10*
X278820Y156680D02*
X278820Y166680D01*
X278820Y156680D02*
X269820Y156680D01*
X269820Y166680D01*
X278820Y166680D01*
X278820Y157630D02*
X269820Y157630D01*
X269820Y158580D02*
X278820Y158580D01*
X278820Y159530D02*
X269820Y159530D01*
X269820Y160480D02*
X278820Y160480D01*
X278820Y161430D02*
X269820Y161430D01*
X269820Y162380D02*
X278820Y162380D01*
X278820Y163330D02*
X269820Y163330D01*
X269820Y164280D02*
X278820Y164280D01*
X278820Y165230D02*
X269820Y165230D01*
X269820Y166180D02*
X278820Y166180D01*
X278820Y173680D02*
X278820Y183680D01*
X278820Y173680D02*
X269820Y173680D01*
X269820Y183680D01*
X278820Y183680D01*
X278820Y174630D02*
X269820Y174630D01*
X269820Y175580D02*
X278820Y175580D01*
X278820Y176530D02*
X269820Y176530D01*
X269820Y177480D02*
X278820Y177480D01*
X278820Y178430D02*
X269820Y178430D01*
X269820Y179380D02*
X278820Y179380D01*
X278820Y180330D02*
X269820Y180330D01*
X269820Y181280D02*
X278820Y181280D01*
X278820Y182230D02*
X269820Y182230D01*
X269820Y183180D02*
X278820Y183180D01*
D15*
X75656Y94355D02*
X75656Y89845D01*
X64646Y89845D01*
X64646Y94355D01*
X75656Y94355D01*
X75656Y90785D02*
X64646Y90785D01*
X64646Y91725D02*
X75656Y91725D01*
X75656Y92665D02*
X64646Y92665D01*
X64646Y93605D02*
X75656Y93605D01*
X75656Y99345D02*
X75656Y103855D01*
X75656Y99345D02*
X64646Y99345D01*
X64646Y103855D01*
X75656Y103855D01*
X75656Y100285D02*
X64646Y100285D01*
X64646Y101225D02*
X75656Y101225D01*
X75656Y102165D02*
X64646Y102165D01*
X64646Y103105D02*
X75656Y103105D01*
X75656Y108845D02*
X75656Y113355D01*
X75656Y108845D02*
X64646Y108845D01*
X64646Y113355D01*
X75656Y113355D01*
X75656Y109785D02*
X64646Y109785D01*
X64646Y110725D02*
X75656Y110725D01*
X75656Y111665D02*
X64646Y111665D01*
X64646Y112605D02*
X75656Y112605D01*
X49654Y113355D02*
X49654Y108845D01*
X38644Y108845D01*
X38644Y113355D01*
X49654Y113355D01*
X49654Y109785D02*
X38644Y109785D01*
X38644Y110725D02*
X49654Y110725D01*
X49654Y111665D02*
X38644Y111665D01*
X38644Y112605D02*
X49654Y112605D01*
X49654Y94355D02*
X49654Y89845D01*
X38644Y89845D01*
X38644Y94355D01*
X49654Y94355D01*
X49654Y90785D02*
X38644Y90785D01*
X38644Y91725D02*
X49654Y91725D01*
X49654Y92665D02*
X38644Y92665D01*
X38644Y93605D02*
X49654Y93605D01*
D10*
X84400Y106370D02*
X84400Y116370D01*
X93400Y116370D01*
X93400Y106370D01*
X84400Y106370D01*
X84400Y107320D02*
X93400Y107320D01*
X93400Y108270D02*
X84400Y108270D01*
X84400Y109220D02*
X93400Y109220D01*
X93400Y110170D02*
X84400Y110170D01*
X84400Y111120D02*
X93400Y111120D01*
X93400Y112070D02*
X84400Y112070D01*
X84400Y113020D02*
X93400Y113020D01*
X93400Y113970D02*
X84400Y113970D01*
X84400Y114920D02*
X93400Y114920D01*
X93400Y115870D02*
X84400Y115870D01*
X84400Y99370D02*
X84400Y89370D01*
X84400Y99370D02*
X93400Y99370D01*
X93400Y89370D01*
X84400Y89370D01*
X84400Y90320D02*
X93400Y90320D01*
X93400Y91270D02*
X84400Y91270D01*
X84400Y92220D02*
X93400Y92220D01*
X93400Y93170D02*
X84400Y93170D01*
X84400Y94120D02*
X93400Y94120D01*
X93400Y95070D02*
X84400Y95070D01*
X84400Y96020D02*
X93400Y96020D01*
X93400Y96970D02*
X84400Y96970D01*
X84400Y97920D02*
X93400Y97920D01*
X93400Y98870D02*
X84400Y98870D01*
X61760Y128960D02*
X51760Y128960D01*
X61760Y128960D02*
X61760Y119960D01*
X51760Y119960D01*
X51760Y128960D01*
X51760Y120910D02*
X61760Y120910D01*
X61760Y121860D02*
X51760Y121860D01*
X51760Y122810D02*
X61760Y122810D01*
X61760Y123760D02*
X51760Y123760D01*
X51760Y124710D02*
X61760Y124710D01*
X61760Y125660D02*
X51760Y125660D01*
X51760Y126610D02*
X61760Y126610D01*
X61760Y127560D02*
X51760Y127560D01*
X51760Y128510D02*
X61760Y128510D01*
X44760Y128960D02*
X34760Y128960D01*
X44760Y128960D02*
X44760Y119960D01*
X34760Y119960D01*
X34760Y128960D01*
X34760Y120910D02*
X44760Y120910D01*
X44760Y121860D02*
X34760Y121860D01*
X34760Y122810D02*
X44760Y122810D01*
X44760Y123760D02*
X34760Y123760D01*
X34760Y124710D02*
X44760Y124710D01*
X44760Y125660D02*
X34760Y125660D01*
X34760Y126610D02*
X44760Y126610D01*
X44760Y127560D02*
X34760Y127560D01*
X34760Y128510D02*
X44760Y128510D01*
D16*
X25030Y92580D02*
X13070Y92580D01*
X25030Y92580D02*
X25030Y80620D01*
X13070Y80620D01*
X13070Y92580D01*
X13070Y81608D02*
X25030Y81608D01*
X25030Y82596D02*
X13070Y82596D01*
X13070Y83584D02*
X25030Y83584D01*
X25030Y84572D02*
X13070Y84572D01*
X13070Y85560D02*
X25030Y85560D01*
X25030Y86548D02*
X13070Y86548D01*
X13070Y87536D02*
X25030Y87536D01*
X25030Y88524D02*
X13070Y88524D01*
X13070Y89512D02*
X25030Y89512D01*
X25030Y90500D02*
X13070Y90500D01*
X13070Y91488D02*
X25030Y91488D01*
X25030Y92476D02*
X13070Y92476D01*
X13070Y122580D02*
X25030Y122580D01*
X25030Y110620D01*
X13070Y110620D01*
X13070Y122580D01*
X13070Y111608D02*
X25030Y111608D01*
X25030Y112596D02*
X13070Y112596D01*
X13070Y113584D02*
X25030Y113584D01*
X25030Y114572D02*
X13070Y114572D01*
X13070Y115560D02*
X25030Y115560D01*
X25030Y116548D02*
X13070Y116548D01*
X13070Y117536D02*
X25030Y117536D01*
X25030Y118524D02*
X13070Y118524D01*
X13070Y119512D02*
X25030Y119512D01*
X25030Y120500D02*
X13070Y120500D01*
X13070Y121488D02*
X25030Y121488D01*
X25030Y122476D02*
X13070Y122476D01*
M02*
