G04 EAGLE Gerber RS-274X export*
G75*
%MOMM*%
%FSLAX34Y34*%
%LPD*%
%IN*%
%IPPOS*%
%AMOC8*
5,1,8,0,0,1.08239X$1,22.5*%
G01*
%ADD10C,0.203200*%
%ADD11C,0.000000*%
%ADD12C,0.050800*%
%ADD13C,0.254000*%


D10*
X406400Y58420D02*
X406400Y220980D01*
X0Y220980D02*
X0Y58420D01*
X0Y220980D02*
X0Y279400D01*
X406400Y279400D01*
X406400Y220980D01*
X406400Y58420D02*
X406400Y0D01*
X0Y0D01*
X0Y58420D01*
D11*
X364490Y25400D02*
X364495Y25805D01*
X364510Y26210D01*
X364535Y26615D01*
X364570Y27018D01*
X364614Y27421D01*
X364669Y27823D01*
X364733Y28223D01*
X364807Y28621D01*
X364891Y29017D01*
X364985Y29412D01*
X365088Y29803D01*
X365201Y30193D01*
X365323Y30579D01*
X365455Y30962D01*
X365596Y31342D01*
X365747Y31718D01*
X365906Y32091D01*
X366075Y32459D01*
X366253Y32823D01*
X366439Y33183D01*
X366635Y33538D01*
X366839Y33888D01*
X367051Y34233D01*
X367272Y34572D01*
X367502Y34907D01*
X367739Y35235D01*
X367984Y35557D01*
X368238Y35874D01*
X368498Y36184D01*
X368767Y36487D01*
X369043Y36784D01*
X369326Y37074D01*
X369616Y37357D01*
X369913Y37633D01*
X370216Y37902D01*
X370526Y38162D01*
X370843Y38416D01*
X371165Y38661D01*
X371493Y38898D01*
X371828Y39128D01*
X372167Y39349D01*
X372512Y39561D01*
X372862Y39765D01*
X373217Y39961D01*
X373577Y40147D01*
X373941Y40325D01*
X374309Y40494D01*
X374682Y40653D01*
X375058Y40804D01*
X375438Y40945D01*
X375821Y41077D01*
X376207Y41199D01*
X376597Y41312D01*
X376988Y41415D01*
X377383Y41509D01*
X377779Y41593D01*
X378177Y41667D01*
X378577Y41731D01*
X378979Y41786D01*
X379382Y41830D01*
X379785Y41865D01*
X380190Y41890D01*
X380595Y41905D01*
X381000Y41910D01*
X381405Y41905D01*
X381810Y41890D01*
X382215Y41865D01*
X382618Y41830D01*
X383021Y41786D01*
X383423Y41731D01*
X383823Y41667D01*
X384221Y41593D01*
X384617Y41509D01*
X385012Y41415D01*
X385403Y41312D01*
X385793Y41199D01*
X386179Y41077D01*
X386562Y40945D01*
X386942Y40804D01*
X387318Y40653D01*
X387691Y40494D01*
X388059Y40325D01*
X388423Y40147D01*
X388783Y39961D01*
X389138Y39765D01*
X389488Y39561D01*
X389833Y39349D01*
X390172Y39128D01*
X390507Y38898D01*
X390835Y38661D01*
X391157Y38416D01*
X391474Y38162D01*
X391784Y37902D01*
X392087Y37633D01*
X392384Y37357D01*
X392674Y37074D01*
X392957Y36784D01*
X393233Y36487D01*
X393502Y36184D01*
X393762Y35874D01*
X394016Y35557D01*
X394261Y35235D01*
X394498Y34907D01*
X394728Y34572D01*
X394949Y34233D01*
X395161Y33888D01*
X395365Y33538D01*
X395561Y33183D01*
X395747Y32823D01*
X395925Y32459D01*
X396094Y32091D01*
X396253Y31718D01*
X396404Y31342D01*
X396545Y30962D01*
X396677Y30579D01*
X396799Y30193D01*
X396912Y29803D01*
X397015Y29412D01*
X397109Y29017D01*
X397193Y28621D01*
X397267Y28223D01*
X397331Y27823D01*
X397386Y27421D01*
X397430Y27018D01*
X397465Y26615D01*
X397490Y26210D01*
X397505Y25805D01*
X397510Y25400D01*
X397505Y24995D01*
X397490Y24590D01*
X397465Y24185D01*
X397430Y23782D01*
X397386Y23379D01*
X397331Y22977D01*
X397267Y22577D01*
X397193Y22179D01*
X397109Y21783D01*
X397015Y21388D01*
X396912Y20997D01*
X396799Y20607D01*
X396677Y20221D01*
X396545Y19838D01*
X396404Y19458D01*
X396253Y19082D01*
X396094Y18709D01*
X395925Y18341D01*
X395747Y17977D01*
X395561Y17617D01*
X395365Y17262D01*
X395161Y16912D01*
X394949Y16567D01*
X394728Y16228D01*
X394498Y15893D01*
X394261Y15565D01*
X394016Y15243D01*
X393762Y14926D01*
X393502Y14616D01*
X393233Y14313D01*
X392957Y14016D01*
X392674Y13726D01*
X392384Y13443D01*
X392087Y13167D01*
X391784Y12898D01*
X391474Y12638D01*
X391157Y12384D01*
X390835Y12139D01*
X390507Y11902D01*
X390172Y11672D01*
X389833Y11451D01*
X389488Y11239D01*
X389138Y11035D01*
X388783Y10839D01*
X388423Y10653D01*
X388059Y10475D01*
X387691Y10306D01*
X387318Y10147D01*
X386942Y9996D01*
X386562Y9855D01*
X386179Y9723D01*
X385793Y9601D01*
X385403Y9488D01*
X385012Y9385D01*
X384617Y9291D01*
X384221Y9207D01*
X383823Y9133D01*
X383423Y9069D01*
X383021Y9014D01*
X382618Y8970D01*
X382215Y8935D01*
X381810Y8910D01*
X381405Y8895D01*
X381000Y8890D01*
X380595Y8895D01*
X380190Y8910D01*
X379785Y8935D01*
X379382Y8970D01*
X378979Y9014D01*
X378577Y9069D01*
X378177Y9133D01*
X377779Y9207D01*
X377383Y9291D01*
X376988Y9385D01*
X376597Y9488D01*
X376207Y9601D01*
X375821Y9723D01*
X375438Y9855D01*
X375058Y9996D01*
X374682Y10147D01*
X374309Y10306D01*
X373941Y10475D01*
X373577Y10653D01*
X373217Y10839D01*
X372862Y11035D01*
X372512Y11239D01*
X372167Y11451D01*
X371828Y11672D01*
X371493Y11902D01*
X371165Y12139D01*
X370843Y12384D01*
X370526Y12638D01*
X370216Y12898D01*
X369913Y13167D01*
X369616Y13443D01*
X369326Y13726D01*
X369043Y14016D01*
X368767Y14313D01*
X368498Y14616D01*
X368238Y14926D01*
X367984Y15243D01*
X367739Y15565D01*
X367502Y15893D01*
X367272Y16228D01*
X367051Y16567D01*
X366839Y16912D01*
X366635Y17262D01*
X366439Y17617D01*
X366253Y17977D01*
X366075Y18341D01*
X365906Y18709D01*
X365747Y19082D01*
X365596Y19458D01*
X365455Y19838D01*
X365323Y20221D01*
X365201Y20607D01*
X365088Y20997D01*
X364985Y21388D01*
X364891Y21783D01*
X364807Y22179D01*
X364733Y22577D01*
X364669Y22977D01*
X364614Y23379D01*
X364570Y23782D01*
X364535Y24185D01*
X364510Y24590D01*
X364495Y24995D01*
X364490Y25400D01*
X8890Y254000D02*
X8895Y254405D01*
X8910Y254810D01*
X8935Y255215D01*
X8970Y255618D01*
X9014Y256021D01*
X9069Y256423D01*
X9133Y256823D01*
X9207Y257221D01*
X9291Y257617D01*
X9385Y258012D01*
X9488Y258403D01*
X9601Y258793D01*
X9723Y259179D01*
X9855Y259562D01*
X9996Y259942D01*
X10147Y260318D01*
X10306Y260691D01*
X10475Y261059D01*
X10653Y261423D01*
X10839Y261783D01*
X11035Y262138D01*
X11239Y262488D01*
X11451Y262833D01*
X11672Y263172D01*
X11902Y263507D01*
X12139Y263835D01*
X12384Y264157D01*
X12638Y264474D01*
X12898Y264784D01*
X13167Y265087D01*
X13443Y265384D01*
X13726Y265674D01*
X14016Y265957D01*
X14313Y266233D01*
X14616Y266502D01*
X14926Y266762D01*
X15243Y267016D01*
X15565Y267261D01*
X15893Y267498D01*
X16228Y267728D01*
X16567Y267949D01*
X16912Y268161D01*
X17262Y268365D01*
X17617Y268561D01*
X17977Y268747D01*
X18341Y268925D01*
X18709Y269094D01*
X19082Y269253D01*
X19458Y269404D01*
X19838Y269545D01*
X20221Y269677D01*
X20607Y269799D01*
X20997Y269912D01*
X21388Y270015D01*
X21783Y270109D01*
X22179Y270193D01*
X22577Y270267D01*
X22977Y270331D01*
X23379Y270386D01*
X23782Y270430D01*
X24185Y270465D01*
X24590Y270490D01*
X24995Y270505D01*
X25400Y270510D01*
X25805Y270505D01*
X26210Y270490D01*
X26615Y270465D01*
X27018Y270430D01*
X27421Y270386D01*
X27823Y270331D01*
X28223Y270267D01*
X28621Y270193D01*
X29017Y270109D01*
X29412Y270015D01*
X29803Y269912D01*
X30193Y269799D01*
X30579Y269677D01*
X30962Y269545D01*
X31342Y269404D01*
X31718Y269253D01*
X32091Y269094D01*
X32459Y268925D01*
X32823Y268747D01*
X33183Y268561D01*
X33538Y268365D01*
X33888Y268161D01*
X34233Y267949D01*
X34572Y267728D01*
X34907Y267498D01*
X35235Y267261D01*
X35557Y267016D01*
X35874Y266762D01*
X36184Y266502D01*
X36487Y266233D01*
X36784Y265957D01*
X37074Y265674D01*
X37357Y265384D01*
X37633Y265087D01*
X37902Y264784D01*
X38162Y264474D01*
X38416Y264157D01*
X38661Y263835D01*
X38898Y263507D01*
X39128Y263172D01*
X39349Y262833D01*
X39561Y262488D01*
X39765Y262138D01*
X39961Y261783D01*
X40147Y261423D01*
X40325Y261059D01*
X40494Y260691D01*
X40653Y260318D01*
X40804Y259942D01*
X40945Y259562D01*
X41077Y259179D01*
X41199Y258793D01*
X41312Y258403D01*
X41415Y258012D01*
X41509Y257617D01*
X41593Y257221D01*
X41667Y256823D01*
X41731Y256423D01*
X41786Y256021D01*
X41830Y255618D01*
X41865Y255215D01*
X41890Y254810D01*
X41905Y254405D01*
X41910Y254000D01*
X41905Y253595D01*
X41890Y253190D01*
X41865Y252785D01*
X41830Y252382D01*
X41786Y251979D01*
X41731Y251577D01*
X41667Y251177D01*
X41593Y250779D01*
X41509Y250383D01*
X41415Y249988D01*
X41312Y249597D01*
X41199Y249207D01*
X41077Y248821D01*
X40945Y248438D01*
X40804Y248058D01*
X40653Y247682D01*
X40494Y247309D01*
X40325Y246941D01*
X40147Y246577D01*
X39961Y246217D01*
X39765Y245862D01*
X39561Y245512D01*
X39349Y245167D01*
X39128Y244828D01*
X38898Y244493D01*
X38661Y244165D01*
X38416Y243843D01*
X38162Y243526D01*
X37902Y243216D01*
X37633Y242913D01*
X37357Y242616D01*
X37074Y242326D01*
X36784Y242043D01*
X36487Y241767D01*
X36184Y241498D01*
X35874Y241238D01*
X35557Y240984D01*
X35235Y240739D01*
X34907Y240502D01*
X34572Y240272D01*
X34233Y240051D01*
X33888Y239839D01*
X33538Y239635D01*
X33183Y239439D01*
X32823Y239253D01*
X32459Y239075D01*
X32091Y238906D01*
X31718Y238747D01*
X31342Y238596D01*
X30962Y238455D01*
X30579Y238323D01*
X30193Y238201D01*
X29803Y238088D01*
X29412Y237985D01*
X29017Y237891D01*
X28621Y237807D01*
X28223Y237733D01*
X27823Y237669D01*
X27421Y237614D01*
X27018Y237570D01*
X26615Y237535D01*
X26210Y237510D01*
X25805Y237495D01*
X25400Y237490D01*
X24995Y237495D01*
X24590Y237510D01*
X24185Y237535D01*
X23782Y237570D01*
X23379Y237614D01*
X22977Y237669D01*
X22577Y237733D01*
X22179Y237807D01*
X21783Y237891D01*
X21388Y237985D01*
X20997Y238088D01*
X20607Y238201D01*
X20221Y238323D01*
X19838Y238455D01*
X19458Y238596D01*
X19082Y238747D01*
X18709Y238906D01*
X18341Y239075D01*
X17977Y239253D01*
X17617Y239439D01*
X17262Y239635D01*
X16912Y239839D01*
X16567Y240051D01*
X16228Y240272D01*
X15893Y240502D01*
X15565Y240739D01*
X15243Y240984D01*
X14926Y241238D01*
X14616Y241498D01*
X14313Y241767D01*
X14016Y242043D01*
X13726Y242326D01*
X13443Y242616D01*
X13167Y242913D01*
X12898Y243216D01*
X12638Y243526D01*
X12384Y243843D01*
X12139Y244165D01*
X11902Y244493D01*
X11672Y244828D01*
X11451Y245167D01*
X11239Y245512D01*
X11035Y245862D01*
X10839Y246217D01*
X10653Y246577D01*
X10475Y246941D01*
X10306Y247309D01*
X10147Y247682D01*
X9996Y248058D01*
X9855Y248438D01*
X9723Y248821D01*
X9601Y249207D01*
X9488Y249597D01*
X9385Y249988D01*
X9291Y250383D01*
X9207Y250779D01*
X9133Y251177D01*
X9069Y251577D01*
X9014Y251979D01*
X8970Y252382D01*
X8935Y252785D01*
X8910Y253190D01*
X8895Y253595D01*
X8890Y254000D01*
X8890Y25400D02*
X8895Y25805D01*
X8910Y26210D01*
X8935Y26615D01*
X8970Y27018D01*
X9014Y27421D01*
X9069Y27823D01*
X9133Y28223D01*
X9207Y28621D01*
X9291Y29017D01*
X9385Y29412D01*
X9488Y29803D01*
X9601Y30193D01*
X9723Y30579D01*
X9855Y30962D01*
X9996Y31342D01*
X10147Y31718D01*
X10306Y32091D01*
X10475Y32459D01*
X10653Y32823D01*
X10839Y33183D01*
X11035Y33538D01*
X11239Y33888D01*
X11451Y34233D01*
X11672Y34572D01*
X11902Y34907D01*
X12139Y35235D01*
X12384Y35557D01*
X12638Y35874D01*
X12898Y36184D01*
X13167Y36487D01*
X13443Y36784D01*
X13726Y37074D01*
X14016Y37357D01*
X14313Y37633D01*
X14616Y37902D01*
X14926Y38162D01*
X15243Y38416D01*
X15565Y38661D01*
X15893Y38898D01*
X16228Y39128D01*
X16567Y39349D01*
X16912Y39561D01*
X17262Y39765D01*
X17617Y39961D01*
X17977Y40147D01*
X18341Y40325D01*
X18709Y40494D01*
X19082Y40653D01*
X19458Y40804D01*
X19838Y40945D01*
X20221Y41077D01*
X20607Y41199D01*
X20997Y41312D01*
X21388Y41415D01*
X21783Y41509D01*
X22179Y41593D01*
X22577Y41667D01*
X22977Y41731D01*
X23379Y41786D01*
X23782Y41830D01*
X24185Y41865D01*
X24590Y41890D01*
X24995Y41905D01*
X25400Y41910D01*
X25805Y41905D01*
X26210Y41890D01*
X26615Y41865D01*
X27018Y41830D01*
X27421Y41786D01*
X27823Y41731D01*
X28223Y41667D01*
X28621Y41593D01*
X29017Y41509D01*
X29412Y41415D01*
X29803Y41312D01*
X30193Y41199D01*
X30579Y41077D01*
X30962Y40945D01*
X31342Y40804D01*
X31718Y40653D01*
X32091Y40494D01*
X32459Y40325D01*
X32823Y40147D01*
X33183Y39961D01*
X33538Y39765D01*
X33888Y39561D01*
X34233Y39349D01*
X34572Y39128D01*
X34907Y38898D01*
X35235Y38661D01*
X35557Y38416D01*
X35874Y38162D01*
X36184Y37902D01*
X36487Y37633D01*
X36784Y37357D01*
X37074Y37074D01*
X37357Y36784D01*
X37633Y36487D01*
X37902Y36184D01*
X38162Y35874D01*
X38416Y35557D01*
X38661Y35235D01*
X38898Y34907D01*
X39128Y34572D01*
X39349Y34233D01*
X39561Y33888D01*
X39765Y33538D01*
X39961Y33183D01*
X40147Y32823D01*
X40325Y32459D01*
X40494Y32091D01*
X40653Y31718D01*
X40804Y31342D01*
X40945Y30962D01*
X41077Y30579D01*
X41199Y30193D01*
X41312Y29803D01*
X41415Y29412D01*
X41509Y29017D01*
X41593Y28621D01*
X41667Y28223D01*
X41731Y27823D01*
X41786Y27421D01*
X41830Y27018D01*
X41865Y26615D01*
X41890Y26210D01*
X41905Y25805D01*
X41910Y25400D01*
X41905Y24995D01*
X41890Y24590D01*
X41865Y24185D01*
X41830Y23782D01*
X41786Y23379D01*
X41731Y22977D01*
X41667Y22577D01*
X41593Y22179D01*
X41509Y21783D01*
X41415Y21388D01*
X41312Y20997D01*
X41199Y20607D01*
X41077Y20221D01*
X40945Y19838D01*
X40804Y19458D01*
X40653Y19082D01*
X40494Y18709D01*
X40325Y18341D01*
X40147Y17977D01*
X39961Y17617D01*
X39765Y17262D01*
X39561Y16912D01*
X39349Y16567D01*
X39128Y16228D01*
X38898Y15893D01*
X38661Y15565D01*
X38416Y15243D01*
X38162Y14926D01*
X37902Y14616D01*
X37633Y14313D01*
X37357Y14016D01*
X37074Y13726D01*
X36784Y13443D01*
X36487Y13167D01*
X36184Y12898D01*
X35874Y12638D01*
X35557Y12384D01*
X35235Y12139D01*
X34907Y11902D01*
X34572Y11672D01*
X34233Y11451D01*
X33888Y11239D01*
X33538Y11035D01*
X33183Y10839D01*
X32823Y10653D01*
X32459Y10475D01*
X32091Y10306D01*
X31718Y10147D01*
X31342Y9996D01*
X30962Y9855D01*
X30579Y9723D01*
X30193Y9601D01*
X29803Y9488D01*
X29412Y9385D01*
X29017Y9291D01*
X28621Y9207D01*
X28223Y9133D01*
X27823Y9069D01*
X27421Y9014D01*
X27018Y8970D01*
X26615Y8935D01*
X26210Y8910D01*
X25805Y8895D01*
X25400Y8890D01*
X24995Y8895D01*
X24590Y8910D01*
X24185Y8935D01*
X23782Y8970D01*
X23379Y9014D01*
X22977Y9069D01*
X22577Y9133D01*
X22179Y9207D01*
X21783Y9291D01*
X21388Y9385D01*
X20997Y9488D01*
X20607Y9601D01*
X20221Y9723D01*
X19838Y9855D01*
X19458Y9996D01*
X19082Y10147D01*
X18709Y10306D01*
X18341Y10475D01*
X17977Y10653D01*
X17617Y10839D01*
X17262Y11035D01*
X16912Y11239D01*
X16567Y11451D01*
X16228Y11672D01*
X15893Y11902D01*
X15565Y12139D01*
X15243Y12384D01*
X14926Y12638D01*
X14616Y12898D01*
X14313Y13167D01*
X14016Y13443D01*
X13726Y13726D01*
X13443Y14016D01*
X13167Y14313D01*
X12898Y14616D01*
X12638Y14926D01*
X12384Y15243D01*
X12139Y15565D01*
X11902Y15893D01*
X11672Y16228D01*
X11451Y16567D01*
X11239Y16912D01*
X11035Y17262D01*
X10839Y17617D01*
X10653Y17977D01*
X10475Y18341D01*
X10306Y18709D01*
X10147Y19082D01*
X9996Y19458D01*
X9855Y19838D01*
X9723Y20221D01*
X9601Y20607D01*
X9488Y20997D01*
X9385Y21388D01*
X9291Y21783D01*
X9207Y22179D01*
X9133Y22577D01*
X9069Y22977D01*
X9014Y23379D01*
X8970Y23782D01*
X8935Y24185D01*
X8910Y24590D01*
X8895Y24995D01*
X8890Y25400D01*
X364490Y254000D02*
X364495Y254405D01*
X364510Y254810D01*
X364535Y255215D01*
X364570Y255618D01*
X364614Y256021D01*
X364669Y256423D01*
X364733Y256823D01*
X364807Y257221D01*
X364891Y257617D01*
X364985Y258012D01*
X365088Y258403D01*
X365201Y258793D01*
X365323Y259179D01*
X365455Y259562D01*
X365596Y259942D01*
X365747Y260318D01*
X365906Y260691D01*
X366075Y261059D01*
X366253Y261423D01*
X366439Y261783D01*
X366635Y262138D01*
X366839Y262488D01*
X367051Y262833D01*
X367272Y263172D01*
X367502Y263507D01*
X367739Y263835D01*
X367984Y264157D01*
X368238Y264474D01*
X368498Y264784D01*
X368767Y265087D01*
X369043Y265384D01*
X369326Y265674D01*
X369616Y265957D01*
X369913Y266233D01*
X370216Y266502D01*
X370526Y266762D01*
X370843Y267016D01*
X371165Y267261D01*
X371493Y267498D01*
X371828Y267728D01*
X372167Y267949D01*
X372512Y268161D01*
X372862Y268365D01*
X373217Y268561D01*
X373577Y268747D01*
X373941Y268925D01*
X374309Y269094D01*
X374682Y269253D01*
X375058Y269404D01*
X375438Y269545D01*
X375821Y269677D01*
X376207Y269799D01*
X376597Y269912D01*
X376988Y270015D01*
X377383Y270109D01*
X377779Y270193D01*
X378177Y270267D01*
X378577Y270331D01*
X378979Y270386D01*
X379382Y270430D01*
X379785Y270465D01*
X380190Y270490D01*
X380595Y270505D01*
X381000Y270510D01*
X381405Y270505D01*
X381810Y270490D01*
X382215Y270465D01*
X382618Y270430D01*
X383021Y270386D01*
X383423Y270331D01*
X383823Y270267D01*
X384221Y270193D01*
X384617Y270109D01*
X385012Y270015D01*
X385403Y269912D01*
X385793Y269799D01*
X386179Y269677D01*
X386562Y269545D01*
X386942Y269404D01*
X387318Y269253D01*
X387691Y269094D01*
X388059Y268925D01*
X388423Y268747D01*
X388783Y268561D01*
X389138Y268365D01*
X389488Y268161D01*
X389833Y267949D01*
X390172Y267728D01*
X390507Y267498D01*
X390835Y267261D01*
X391157Y267016D01*
X391474Y266762D01*
X391784Y266502D01*
X392087Y266233D01*
X392384Y265957D01*
X392674Y265674D01*
X392957Y265384D01*
X393233Y265087D01*
X393502Y264784D01*
X393762Y264474D01*
X394016Y264157D01*
X394261Y263835D01*
X394498Y263507D01*
X394728Y263172D01*
X394949Y262833D01*
X395161Y262488D01*
X395365Y262138D01*
X395561Y261783D01*
X395747Y261423D01*
X395925Y261059D01*
X396094Y260691D01*
X396253Y260318D01*
X396404Y259942D01*
X396545Y259562D01*
X396677Y259179D01*
X396799Y258793D01*
X396912Y258403D01*
X397015Y258012D01*
X397109Y257617D01*
X397193Y257221D01*
X397267Y256823D01*
X397331Y256423D01*
X397386Y256021D01*
X397430Y255618D01*
X397465Y255215D01*
X397490Y254810D01*
X397505Y254405D01*
X397510Y254000D01*
X397505Y253595D01*
X397490Y253190D01*
X397465Y252785D01*
X397430Y252382D01*
X397386Y251979D01*
X397331Y251577D01*
X397267Y251177D01*
X397193Y250779D01*
X397109Y250383D01*
X397015Y249988D01*
X396912Y249597D01*
X396799Y249207D01*
X396677Y248821D01*
X396545Y248438D01*
X396404Y248058D01*
X396253Y247682D01*
X396094Y247309D01*
X395925Y246941D01*
X395747Y246577D01*
X395561Y246217D01*
X395365Y245862D01*
X395161Y245512D01*
X394949Y245167D01*
X394728Y244828D01*
X394498Y244493D01*
X394261Y244165D01*
X394016Y243843D01*
X393762Y243526D01*
X393502Y243216D01*
X393233Y242913D01*
X392957Y242616D01*
X392674Y242326D01*
X392384Y242043D01*
X392087Y241767D01*
X391784Y241498D01*
X391474Y241238D01*
X391157Y240984D01*
X390835Y240739D01*
X390507Y240502D01*
X390172Y240272D01*
X389833Y240051D01*
X389488Y239839D01*
X389138Y239635D01*
X388783Y239439D01*
X388423Y239253D01*
X388059Y239075D01*
X387691Y238906D01*
X387318Y238747D01*
X386942Y238596D01*
X386562Y238455D01*
X386179Y238323D01*
X385793Y238201D01*
X385403Y238088D01*
X385012Y237985D01*
X384617Y237891D01*
X384221Y237807D01*
X383823Y237733D01*
X383423Y237669D01*
X383021Y237614D01*
X382618Y237570D01*
X382215Y237535D01*
X381810Y237510D01*
X381405Y237495D01*
X381000Y237490D01*
X380595Y237495D01*
X380190Y237510D01*
X379785Y237535D01*
X379382Y237570D01*
X378979Y237614D01*
X378577Y237669D01*
X378177Y237733D01*
X377779Y237807D01*
X377383Y237891D01*
X376988Y237985D01*
X376597Y238088D01*
X376207Y238201D01*
X375821Y238323D01*
X375438Y238455D01*
X375058Y238596D01*
X374682Y238747D01*
X374309Y238906D01*
X373941Y239075D01*
X373577Y239253D01*
X373217Y239439D01*
X372862Y239635D01*
X372512Y239839D01*
X372167Y240051D01*
X371828Y240272D01*
X371493Y240502D01*
X371165Y240739D01*
X370843Y240984D01*
X370526Y241238D01*
X370216Y241498D01*
X369913Y241767D01*
X369616Y242043D01*
X369326Y242326D01*
X369043Y242616D01*
X368767Y242913D01*
X368498Y243216D01*
X368238Y243526D01*
X367984Y243843D01*
X367739Y244165D01*
X367502Y244493D01*
X367272Y244828D01*
X367051Y245167D01*
X366839Y245512D01*
X366635Y245862D01*
X366439Y246217D01*
X366253Y246577D01*
X366075Y246941D01*
X365906Y247309D01*
X365747Y247682D01*
X365596Y248058D01*
X365455Y248438D01*
X365323Y248821D01*
X365201Y249207D01*
X365088Y249597D01*
X364985Y249988D01*
X364891Y250383D01*
X364807Y250779D01*
X364733Y251177D01*
X364669Y251577D01*
X364614Y251979D01*
X364570Y252382D01*
X364535Y252785D01*
X364510Y253190D01*
X364495Y253595D01*
X364490Y254000D01*
D10*
X341630Y192400D02*
X341630Y171450D01*
X341630Y192400D02*
X341627Y192678D01*
X341616Y192956D01*
X341600Y193234D01*
X341576Y193512D01*
X341545Y193788D01*
X341508Y194064D01*
X341464Y194339D01*
X341414Y194613D01*
X341357Y194885D01*
X341293Y195156D01*
X341222Y195425D01*
X341145Y195693D01*
X341062Y195959D01*
X340972Y196222D01*
X340876Y196483D01*
X340773Y196742D01*
X340664Y196998D01*
X340549Y197252D01*
X340428Y197502D01*
X340301Y197750D01*
X340168Y197994D01*
X340028Y198235D01*
X339883Y198473D01*
X339733Y198707D01*
X339576Y198937D01*
X339414Y199163D01*
X339247Y199386D01*
X339074Y199604D01*
X338896Y199818D01*
X338713Y200027D01*
X338524Y200232D01*
X338331Y200433D01*
X338133Y200628D01*
X337931Y200819D01*
X337723Y201005D01*
X337511Y201186D01*
X337295Y201361D01*
X337075Y201531D01*
X336851Y201696D01*
X336622Y201855D01*
X336390Y202009D01*
X336154Y202157D01*
X335915Y202299D01*
X335672Y202435D01*
X335426Y202565D01*
X335177Y202689D01*
X334925Y202808D01*
X334670Y202920D01*
X334413Y203025D01*
X334153Y203125D01*
X333891Y203218D01*
X333626Y203304D01*
X333359Y203385D01*
X333091Y203458D01*
X332821Y203525D01*
X332549Y203586D01*
X332276Y203640D01*
X332002Y203687D01*
X331726Y203728D01*
X331450Y203761D01*
X331173Y203789D01*
X330895Y203809D01*
X330617Y203822D01*
X330339Y203829D01*
X330061Y203829D01*
X329783Y203822D01*
X329505Y203809D01*
X329227Y203789D01*
X328950Y203761D01*
X328674Y203728D01*
X328398Y203687D01*
X328124Y203640D01*
X327851Y203586D01*
X327579Y203525D01*
X327309Y203458D01*
X327041Y203385D01*
X326774Y203304D01*
X326509Y203218D01*
X326247Y203125D01*
X325987Y203025D01*
X325730Y202920D01*
X325475Y202808D01*
X325223Y202689D01*
X324974Y202565D01*
X324728Y202435D01*
X324485Y202299D01*
X324246Y202157D01*
X324010Y202009D01*
X323778Y201855D01*
X323549Y201696D01*
X323325Y201531D01*
X323105Y201361D01*
X322889Y201186D01*
X322677Y201005D01*
X322469Y200819D01*
X322267Y200628D01*
X322069Y200433D01*
X321876Y200232D01*
X321687Y200027D01*
X321504Y199818D01*
X321326Y199604D01*
X321153Y199386D01*
X320986Y199163D01*
X320824Y198937D01*
X320667Y198707D01*
X320517Y198473D01*
X320372Y198235D01*
X320232Y197994D01*
X320099Y197750D01*
X319972Y197502D01*
X319851Y197252D01*
X319736Y196998D01*
X319627Y196742D01*
X319524Y196483D01*
X319428Y196222D01*
X319338Y195959D01*
X319255Y195693D01*
X319178Y195425D01*
X319107Y195156D01*
X319043Y194885D01*
X318986Y194613D01*
X318936Y194339D01*
X318892Y194064D01*
X318855Y193788D01*
X318824Y193512D01*
X318800Y193234D01*
X318784Y192956D01*
X318773Y192678D01*
X318770Y192400D01*
X318770Y171450D01*
D12*
X321519Y158396D02*
X321519Y153904D01*
X321519Y158396D02*
X322766Y158396D01*
X322835Y158394D01*
X322903Y158388D01*
X322971Y158379D01*
X323039Y158366D01*
X323106Y158349D01*
X323171Y158328D01*
X323236Y158304D01*
X323299Y158277D01*
X323360Y158246D01*
X323420Y158211D01*
X323477Y158174D01*
X323533Y158133D01*
X323586Y158089D01*
X323636Y158043D01*
X323684Y157993D01*
X323729Y157941D01*
X323772Y157887D01*
X323811Y157831D01*
X323847Y157772D01*
X323880Y157712D01*
X323909Y157649D01*
X323935Y157586D01*
X323957Y157521D01*
X323976Y157454D01*
X323991Y157387D01*
X324002Y157319D01*
X324010Y157251D01*
X324014Y157182D01*
X324014Y157114D01*
X324010Y157045D01*
X324002Y156977D01*
X323991Y156909D01*
X323976Y156842D01*
X323957Y156775D01*
X323935Y156710D01*
X323909Y156647D01*
X323880Y156584D01*
X323847Y156524D01*
X323811Y156465D01*
X323772Y156409D01*
X323729Y156355D01*
X323684Y156303D01*
X323636Y156253D01*
X323586Y156207D01*
X323533Y156163D01*
X323477Y156122D01*
X323420Y156085D01*
X323360Y156050D01*
X323299Y156019D01*
X323236Y155992D01*
X323171Y155968D01*
X323106Y155947D01*
X323039Y155930D01*
X322971Y155917D01*
X322903Y155908D01*
X322835Y155902D01*
X322766Y155900D01*
X321519Y155900D01*
X323016Y155900D02*
X324014Y153904D01*
X325935Y154902D02*
X325935Y155900D01*
X325937Y155961D01*
X325943Y156023D01*
X325952Y156083D01*
X325965Y156143D01*
X325982Y156203D01*
X326002Y156261D01*
X326026Y156317D01*
X326054Y156372D01*
X326084Y156425D01*
X326118Y156477D01*
X326155Y156526D01*
X326195Y156572D01*
X326238Y156616D01*
X326284Y156658D01*
X326332Y156696D01*
X326382Y156732D01*
X326434Y156764D01*
X326488Y156793D01*
X326544Y156819D01*
X326601Y156841D01*
X326660Y156860D01*
X326719Y156875D01*
X326780Y156886D01*
X326841Y156894D01*
X326902Y156898D01*
X326964Y156898D01*
X327025Y156894D01*
X327086Y156886D01*
X327147Y156875D01*
X327206Y156860D01*
X327265Y156841D01*
X327322Y156819D01*
X327378Y156793D01*
X327432Y156764D01*
X327484Y156732D01*
X327534Y156696D01*
X327582Y156658D01*
X327628Y156616D01*
X327671Y156572D01*
X327711Y156526D01*
X327748Y156477D01*
X327782Y156425D01*
X327812Y156372D01*
X327840Y156317D01*
X327864Y156261D01*
X327884Y156203D01*
X327901Y156143D01*
X327914Y156083D01*
X327923Y156023D01*
X327929Y155961D01*
X327931Y155900D01*
X327932Y155900D02*
X327932Y154902D01*
X327931Y154902D02*
X327929Y154841D01*
X327923Y154779D01*
X327914Y154719D01*
X327901Y154659D01*
X327884Y154599D01*
X327864Y154541D01*
X327840Y154485D01*
X327812Y154430D01*
X327782Y154377D01*
X327748Y154325D01*
X327711Y154276D01*
X327671Y154230D01*
X327628Y154186D01*
X327582Y154144D01*
X327534Y154106D01*
X327484Y154070D01*
X327432Y154038D01*
X327378Y154009D01*
X327322Y153983D01*
X327265Y153961D01*
X327206Y153942D01*
X327147Y153927D01*
X327086Y153916D01*
X327025Y153908D01*
X326964Y153904D01*
X326902Y153904D01*
X326841Y153908D01*
X326780Y153916D01*
X326719Y153927D01*
X326660Y153942D01*
X326601Y153961D01*
X326544Y153983D01*
X326488Y154009D01*
X326434Y154038D01*
X326382Y154070D01*
X326332Y154106D01*
X326284Y154144D01*
X326238Y154186D01*
X326195Y154230D01*
X326155Y154276D01*
X326118Y154325D01*
X326084Y154377D01*
X326054Y154430D01*
X326026Y154485D01*
X326002Y154541D01*
X325982Y154599D01*
X325965Y154659D01*
X325952Y154719D01*
X325943Y154779D01*
X325937Y154841D01*
X325935Y154902D01*
X329985Y154653D02*
X329985Y156899D01*
X329985Y154653D02*
X329987Y154600D01*
X329993Y154546D01*
X330002Y154494D01*
X330015Y154442D01*
X330032Y154391D01*
X330053Y154342D01*
X330077Y154294D01*
X330104Y154248D01*
X330134Y154204D01*
X330168Y154163D01*
X330204Y154123D01*
X330244Y154087D01*
X330285Y154053D01*
X330329Y154023D01*
X330375Y153996D01*
X330423Y153972D01*
X330472Y153951D01*
X330523Y153934D01*
X330575Y153921D01*
X330627Y153912D01*
X330681Y153906D01*
X330734Y153904D01*
X331982Y153904D01*
X331982Y156899D01*
X333643Y156899D02*
X335141Y156899D01*
X334143Y158396D02*
X334143Y154653D01*
X334142Y154653D02*
X334144Y154600D01*
X334150Y154546D01*
X334159Y154494D01*
X334172Y154442D01*
X334189Y154391D01*
X334210Y154342D01*
X334234Y154294D01*
X334261Y154248D01*
X334291Y154204D01*
X334325Y154163D01*
X334361Y154123D01*
X334401Y154087D01*
X334442Y154053D01*
X334486Y154023D01*
X334532Y153996D01*
X334580Y153972D01*
X334629Y153951D01*
X334680Y153934D01*
X334732Y153921D01*
X334784Y153912D01*
X334838Y153906D01*
X334891Y153904D01*
X335141Y153904D01*
X337634Y153904D02*
X338882Y153904D01*
X337634Y153904D02*
X337581Y153906D01*
X337527Y153912D01*
X337475Y153921D01*
X337423Y153934D01*
X337372Y153951D01*
X337323Y153972D01*
X337275Y153996D01*
X337229Y154023D01*
X337185Y154053D01*
X337144Y154087D01*
X337104Y154123D01*
X337068Y154163D01*
X337034Y154204D01*
X337004Y154248D01*
X336977Y154294D01*
X336953Y154342D01*
X336932Y154391D01*
X336915Y154442D01*
X336902Y154494D01*
X336893Y154546D01*
X336887Y154600D01*
X336885Y154653D01*
X336885Y155900D01*
X336887Y155961D01*
X336893Y156023D01*
X336902Y156083D01*
X336915Y156143D01*
X336932Y156203D01*
X336952Y156261D01*
X336976Y156317D01*
X337004Y156372D01*
X337034Y156425D01*
X337068Y156477D01*
X337105Y156526D01*
X337145Y156572D01*
X337188Y156616D01*
X337234Y156658D01*
X337282Y156696D01*
X337332Y156732D01*
X337384Y156764D01*
X337438Y156793D01*
X337494Y156819D01*
X337551Y156841D01*
X337610Y156860D01*
X337669Y156875D01*
X337730Y156886D01*
X337791Y156894D01*
X337852Y156898D01*
X337914Y156898D01*
X337975Y156894D01*
X338036Y156886D01*
X338097Y156875D01*
X338156Y156860D01*
X338215Y156841D01*
X338272Y156819D01*
X338328Y156793D01*
X338382Y156764D01*
X338434Y156732D01*
X338484Y156696D01*
X338532Y156658D01*
X338578Y156616D01*
X338621Y156572D01*
X338661Y156526D01*
X338698Y156477D01*
X338732Y156425D01*
X338762Y156372D01*
X338790Y156317D01*
X338814Y156261D01*
X338834Y156203D01*
X338851Y156143D01*
X338864Y156083D01*
X338873Y156023D01*
X338879Y155961D01*
X338881Y155900D01*
X338882Y155900D02*
X338882Y155401D01*
X336885Y155401D01*
X325322Y149648D02*
X325322Y147652D01*
X325322Y149648D02*
X325324Y149717D01*
X325330Y149785D01*
X325339Y149853D01*
X325352Y149921D01*
X325369Y149988D01*
X325390Y150053D01*
X325414Y150118D01*
X325441Y150181D01*
X325472Y150242D01*
X325507Y150302D01*
X325544Y150359D01*
X325585Y150415D01*
X325629Y150468D01*
X325675Y150518D01*
X325725Y150566D01*
X325777Y150611D01*
X325831Y150654D01*
X325887Y150693D01*
X325946Y150729D01*
X326006Y150762D01*
X326069Y150791D01*
X326132Y150817D01*
X326197Y150839D01*
X326264Y150858D01*
X326331Y150873D01*
X326399Y150884D01*
X326467Y150892D01*
X326536Y150896D01*
X326604Y150896D01*
X326673Y150892D01*
X326741Y150884D01*
X326809Y150873D01*
X326876Y150858D01*
X326943Y150839D01*
X327008Y150817D01*
X327071Y150791D01*
X327134Y150762D01*
X327194Y150729D01*
X327253Y150693D01*
X327309Y150654D01*
X327363Y150611D01*
X327415Y150566D01*
X327465Y150518D01*
X327511Y150468D01*
X327555Y150415D01*
X327596Y150359D01*
X327633Y150302D01*
X327668Y150242D01*
X327699Y150181D01*
X327726Y150118D01*
X327750Y150053D01*
X327771Y149988D01*
X327788Y149921D01*
X327801Y149853D01*
X327810Y149785D01*
X327816Y149717D01*
X327818Y149648D01*
X327818Y147652D01*
X327816Y147583D01*
X327810Y147515D01*
X327801Y147447D01*
X327788Y147379D01*
X327771Y147312D01*
X327750Y147247D01*
X327726Y147182D01*
X327699Y147119D01*
X327668Y147058D01*
X327633Y146998D01*
X327596Y146941D01*
X327555Y146885D01*
X327511Y146832D01*
X327465Y146782D01*
X327415Y146734D01*
X327363Y146689D01*
X327309Y146646D01*
X327253Y146607D01*
X327194Y146571D01*
X327134Y146538D01*
X327071Y146509D01*
X327008Y146483D01*
X326943Y146461D01*
X326876Y146442D01*
X326809Y146427D01*
X326741Y146416D01*
X326673Y146408D01*
X326604Y146404D01*
X326536Y146404D01*
X326467Y146408D01*
X326399Y146416D01*
X326331Y146427D01*
X326264Y146442D01*
X326197Y146461D01*
X326132Y146483D01*
X326069Y146509D01*
X326006Y146538D01*
X325946Y146571D01*
X325887Y146607D01*
X325831Y146646D01*
X325777Y146689D01*
X325725Y146734D01*
X325675Y146782D01*
X325629Y146832D01*
X325585Y146885D01*
X325544Y146941D01*
X325507Y146998D01*
X325472Y147058D01*
X325441Y147119D01*
X325414Y147182D01*
X325390Y147247D01*
X325369Y147312D01*
X325352Y147379D01*
X325339Y147447D01*
X325330Y147515D01*
X325324Y147583D01*
X325322Y147652D01*
X329922Y147153D02*
X329922Y149399D01*
X329922Y147153D02*
X329924Y147100D01*
X329930Y147046D01*
X329939Y146994D01*
X329952Y146942D01*
X329969Y146891D01*
X329990Y146842D01*
X330014Y146794D01*
X330041Y146748D01*
X330071Y146704D01*
X330105Y146663D01*
X330141Y146623D01*
X330181Y146587D01*
X330222Y146553D01*
X330266Y146523D01*
X330312Y146496D01*
X330360Y146472D01*
X330409Y146451D01*
X330460Y146434D01*
X330512Y146421D01*
X330564Y146412D01*
X330618Y146406D01*
X330671Y146404D01*
X331918Y146404D01*
X331918Y149399D01*
X333580Y149399D02*
X335078Y149399D01*
X334079Y150896D02*
X334079Y147153D01*
X334081Y147100D01*
X334087Y147046D01*
X334096Y146994D01*
X334109Y146942D01*
X334126Y146891D01*
X334147Y146842D01*
X334171Y146794D01*
X334198Y146748D01*
X334228Y146704D01*
X334262Y146663D01*
X334298Y146623D01*
X334338Y146587D01*
X334379Y146553D01*
X334423Y146523D01*
X334469Y146496D01*
X334517Y146472D01*
X334566Y146451D01*
X334617Y146434D01*
X334669Y146421D01*
X334721Y146412D01*
X334775Y146406D01*
X334828Y146404D01*
X335078Y146404D01*
D10*
X341630Y171450D02*
X342094Y171164D01*
X342551Y170866D01*
X343000Y170558D01*
X343442Y170238D01*
X343876Y169908D01*
X344301Y169567D01*
X344718Y169216D01*
X345126Y168855D01*
X345526Y168483D01*
X345916Y168103D01*
X346296Y167712D01*
X346667Y167313D01*
X347028Y166904D01*
X347379Y166487D01*
X347719Y166061D01*
X348049Y165627D01*
X348368Y165185D01*
X348677Y164736D01*
X348974Y164278D01*
X349260Y163814D01*
X349534Y163343D01*
X349797Y162865D01*
X350047Y162381D01*
X350286Y161891D01*
X350513Y161396D01*
X350728Y160895D01*
X350930Y160388D01*
X351120Y159877D01*
X351297Y159362D01*
X351462Y158842D01*
X351613Y158318D01*
X351752Y157791D01*
X351878Y157261D01*
X351990Y156727D01*
X352090Y156191D01*
X352177Y155653D01*
X352250Y155113D01*
X352310Y154571D01*
X352356Y154028D01*
X352390Y153484D01*
X352409Y152939D01*
X352416Y152394D01*
X352409Y151849D01*
X352389Y151304D01*
X352355Y150760D01*
X352308Y150217D01*
X352248Y149675D01*
X352175Y149135D01*
X352088Y148597D01*
X351988Y148061D01*
X351875Y147527D01*
X351749Y146997D01*
X351610Y146470D01*
X351458Y145946D01*
X351293Y145427D01*
X351116Y144911D01*
X350926Y144400D01*
X350723Y143894D01*
X350508Y143393D01*
X350281Y142897D01*
X350042Y142408D01*
X349791Y141924D01*
X349528Y141446D01*
X349253Y140975D01*
X348967Y140511D01*
X348670Y140054D01*
X348361Y139605D01*
X348042Y139163D01*
X347712Y138729D01*
X347371Y138304D01*
X347020Y137887D01*
X346659Y137478D01*
X346288Y137079D01*
X345907Y136689D01*
X345517Y136308D01*
X345117Y135937D01*
X344709Y135576D01*
X344292Y135225D01*
X343866Y134885D01*
X343432Y134554D01*
X342990Y134235D01*
X342541Y133927D01*
X342084Y133630D01*
X341619Y133344D01*
X341148Y133069D01*
X340671Y132806D01*
X340187Y132555D01*
X339697Y132316D01*
X339201Y132089D01*
X338700Y131875D01*
X338194Y131672D01*
X337683Y131482D01*
X337168Y131305D01*
X336648Y131140D01*
X336124Y130988D01*
X335597Y130850D01*
X335067Y130724D01*
X334533Y130611D01*
X333997Y130511D01*
X333459Y130424D01*
X332919Y130351D01*
X332377Y130291D01*
X331834Y130244D01*
X331290Y130211D01*
X330745Y130191D01*
X330200Y130184D01*
X329655Y130191D01*
X329110Y130211D01*
X328566Y130244D01*
X328023Y130291D01*
X327481Y130351D01*
X326941Y130424D01*
X326403Y130511D01*
X325867Y130611D01*
X325333Y130724D01*
X324803Y130850D01*
X324276Y130988D01*
X323752Y131140D01*
X323232Y131305D01*
X322717Y131482D01*
X322206Y131672D01*
X321700Y131875D01*
X321199Y132089D01*
X320703Y132316D01*
X320213Y132555D01*
X319729Y132806D01*
X319252Y133069D01*
X318781Y133344D01*
X318316Y133630D01*
X317859Y133927D01*
X317410Y134235D01*
X316968Y134554D01*
X316534Y134885D01*
X316108Y135225D01*
X315691Y135576D01*
X315283Y135937D01*
X314883Y136308D01*
X314493Y136689D01*
X314112Y137079D01*
X313741Y137478D01*
X313380Y137887D01*
X313029Y138304D01*
X312688Y138729D01*
X312358Y139163D01*
X312039Y139605D01*
X311730Y140054D01*
X311433Y140511D01*
X311147Y140975D01*
X310872Y141446D01*
X310609Y141924D01*
X310358Y142408D01*
X310119Y142897D01*
X309892Y143393D01*
X309677Y143894D01*
X309474Y144400D01*
X309284Y144911D01*
X309107Y145427D01*
X308942Y145946D01*
X308790Y146470D01*
X308651Y146997D01*
X308525Y147527D01*
X308412Y148061D01*
X308312Y148597D01*
X308225Y149135D01*
X308152Y149675D01*
X308092Y150217D01*
X308045Y150760D01*
X308011Y151304D01*
X307991Y151849D01*
X307984Y152394D01*
X307991Y152939D01*
X308010Y153484D01*
X308044Y154028D01*
X308090Y154571D01*
X308150Y155113D01*
X308223Y155653D01*
X308310Y156191D01*
X308410Y156727D01*
X308522Y157261D01*
X308648Y157791D01*
X308787Y158318D01*
X308938Y158842D01*
X309103Y159362D01*
X309280Y159877D01*
X309470Y160388D01*
X309672Y160895D01*
X309887Y161396D01*
X310114Y161891D01*
X310353Y162381D01*
X310603Y162865D01*
X310866Y163343D01*
X311140Y163814D01*
X311426Y164278D01*
X311723Y164736D01*
X312032Y165185D01*
X312351Y165627D01*
X312681Y166061D01*
X313021Y166487D01*
X313372Y166904D01*
X313733Y167313D01*
X314104Y167712D01*
X314484Y168103D01*
X314874Y168483D01*
X315274Y168855D01*
X315682Y169216D01*
X316099Y169567D01*
X316524Y169908D01*
X316958Y170238D01*
X317400Y170558D01*
X317849Y170866D01*
X318306Y171164D01*
X318770Y171450D01*
X87630Y171450D02*
X87630Y192400D01*
X87627Y192678D01*
X87616Y192956D01*
X87600Y193234D01*
X87576Y193512D01*
X87545Y193788D01*
X87508Y194064D01*
X87464Y194339D01*
X87414Y194613D01*
X87357Y194885D01*
X87293Y195156D01*
X87222Y195425D01*
X87145Y195693D01*
X87062Y195959D01*
X86972Y196222D01*
X86876Y196483D01*
X86773Y196742D01*
X86664Y196998D01*
X86549Y197252D01*
X86428Y197502D01*
X86301Y197750D01*
X86168Y197994D01*
X86028Y198235D01*
X85883Y198473D01*
X85733Y198707D01*
X85576Y198937D01*
X85414Y199163D01*
X85247Y199386D01*
X85074Y199604D01*
X84896Y199818D01*
X84713Y200027D01*
X84524Y200232D01*
X84331Y200433D01*
X84133Y200628D01*
X83931Y200819D01*
X83723Y201005D01*
X83511Y201186D01*
X83295Y201361D01*
X83075Y201531D01*
X82851Y201696D01*
X82622Y201855D01*
X82390Y202009D01*
X82154Y202157D01*
X81915Y202299D01*
X81672Y202435D01*
X81426Y202565D01*
X81177Y202689D01*
X80925Y202808D01*
X80670Y202920D01*
X80413Y203025D01*
X80153Y203125D01*
X79891Y203218D01*
X79626Y203304D01*
X79359Y203385D01*
X79091Y203458D01*
X78821Y203525D01*
X78549Y203586D01*
X78276Y203640D01*
X78002Y203687D01*
X77726Y203728D01*
X77450Y203761D01*
X77173Y203789D01*
X76895Y203809D01*
X76617Y203822D01*
X76339Y203829D01*
X76061Y203829D01*
X75783Y203822D01*
X75505Y203809D01*
X75227Y203789D01*
X74950Y203761D01*
X74674Y203728D01*
X74398Y203687D01*
X74124Y203640D01*
X73851Y203586D01*
X73579Y203525D01*
X73309Y203458D01*
X73041Y203385D01*
X72774Y203304D01*
X72509Y203218D01*
X72247Y203125D01*
X71987Y203025D01*
X71730Y202920D01*
X71475Y202808D01*
X71223Y202689D01*
X70974Y202565D01*
X70728Y202435D01*
X70485Y202299D01*
X70246Y202157D01*
X70010Y202009D01*
X69778Y201855D01*
X69549Y201696D01*
X69325Y201531D01*
X69105Y201361D01*
X68889Y201186D01*
X68677Y201005D01*
X68469Y200819D01*
X68267Y200628D01*
X68069Y200433D01*
X67876Y200232D01*
X67687Y200027D01*
X67504Y199818D01*
X67326Y199604D01*
X67153Y199386D01*
X66986Y199163D01*
X66824Y198937D01*
X66667Y198707D01*
X66517Y198473D01*
X66372Y198235D01*
X66232Y197994D01*
X66099Y197750D01*
X65972Y197502D01*
X65851Y197252D01*
X65736Y196998D01*
X65627Y196742D01*
X65524Y196483D01*
X65428Y196222D01*
X65338Y195959D01*
X65255Y195693D01*
X65178Y195425D01*
X65107Y195156D01*
X65043Y194885D01*
X64986Y194613D01*
X64936Y194339D01*
X64892Y194064D01*
X64855Y193788D01*
X64824Y193512D01*
X64800Y193234D01*
X64784Y192956D01*
X64773Y192678D01*
X64770Y192400D01*
X64770Y171450D01*
D12*
X67519Y158396D02*
X67519Y153904D01*
X67519Y158396D02*
X68766Y158396D01*
X68835Y158394D01*
X68903Y158388D01*
X68971Y158379D01*
X69039Y158366D01*
X69106Y158349D01*
X69171Y158328D01*
X69236Y158304D01*
X69299Y158277D01*
X69360Y158246D01*
X69420Y158211D01*
X69477Y158174D01*
X69533Y158133D01*
X69586Y158089D01*
X69636Y158043D01*
X69684Y157993D01*
X69729Y157941D01*
X69772Y157887D01*
X69811Y157831D01*
X69847Y157772D01*
X69880Y157712D01*
X69909Y157649D01*
X69935Y157586D01*
X69957Y157521D01*
X69976Y157454D01*
X69991Y157387D01*
X70002Y157319D01*
X70010Y157251D01*
X70014Y157182D01*
X70014Y157114D01*
X70010Y157045D01*
X70002Y156977D01*
X69991Y156909D01*
X69976Y156842D01*
X69957Y156775D01*
X69935Y156710D01*
X69909Y156647D01*
X69880Y156584D01*
X69847Y156524D01*
X69811Y156465D01*
X69772Y156409D01*
X69729Y156355D01*
X69684Y156303D01*
X69636Y156253D01*
X69586Y156207D01*
X69533Y156163D01*
X69477Y156122D01*
X69420Y156085D01*
X69360Y156050D01*
X69299Y156019D01*
X69236Y155992D01*
X69171Y155968D01*
X69106Y155947D01*
X69039Y155930D01*
X68971Y155917D01*
X68903Y155908D01*
X68835Y155902D01*
X68766Y155900D01*
X67519Y155900D01*
X69016Y155900D02*
X70014Y153904D01*
X71935Y154902D02*
X71935Y155900D01*
X71937Y155961D01*
X71943Y156023D01*
X71952Y156083D01*
X71965Y156143D01*
X71982Y156203D01*
X72002Y156261D01*
X72026Y156317D01*
X72054Y156372D01*
X72084Y156425D01*
X72118Y156477D01*
X72155Y156526D01*
X72195Y156572D01*
X72238Y156616D01*
X72284Y156658D01*
X72332Y156696D01*
X72382Y156732D01*
X72434Y156764D01*
X72488Y156793D01*
X72544Y156819D01*
X72601Y156841D01*
X72660Y156860D01*
X72719Y156875D01*
X72780Y156886D01*
X72841Y156894D01*
X72902Y156898D01*
X72964Y156898D01*
X73025Y156894D01*
X73086Y156886D01*
X73147Y156875D01*
X73206Y156860D01*
X73265Y156841D01*
X73322Y156819D01*
X73378Y156793D01*
X73432Y156764D01*
X73484Y156732D01*
X73534Y156696D01*
X73582Y156658D01*
X73628Y156616D01*
X73671Y156572D01*
X73711Y156526D01*
X73748Y156477D01*
X73782Y156425D01*
X73812Y156372D01*
X73840Y156317D01*
X73864Y156261D01*
X73884Y156203D01*
X73901Y156143D01*
X73914Y156083D01*
X73923Y156023D01*
X73929Y155961D01*
X73931Y155900D01*
X73932Y155900D02*
X73932Y154902D01*
X73931Y154902D02*
X73929Y154841D01*
X73923Y154779D01*
X73914Y154719D01*
X73901Y154659D01*
X73884Y154599D01*
X73864Y154541D01*
X73840Y154485D01*
X73812Y154430D01*
X73782Y154377D01*
X73748Y154325D01*
X73711Y154276D01*
X73671Y154230D01*
X73628Y154186D01*
X73582Y154144D01*
X73534Y154106D01*
X73484Y154070D01*
X73432Y154038D01*
X73378Y154009D01*
X73322Y153983D01*
X73265Y153961D01*
X73206Y153942D01*
X73147Y153927D01*
X73086Y153916D01*
X73025Y153908D01*
X72964Y153904D01*
X72902Y153904D01*
X72841Y153908D01*
X72780Y153916D01*
X72719Y153927D01*
X72660Y153942D01*
X72601Y153961D01*
X72544Y153983D01*
X72488Y154009D01*
X72434Y154038D01*
X72382Y154070D01*
X72332Y154106D01*
X72284Y154144D01*
X72238Y154186D01*
X72195Y154230D01*
X72155Y154276D01*
X72118Y154325D01*
X72084Y154377D01*
X72054Y154430D01*
X72026Y154485D01*
X72002Y154541D01*
X71982Y154599D01*
X71965Y154659D01*
X71952Y154719D01*
X71943Y154779D01*
X71937Y154841D01*
X71935Y154902D01*
X75985Y154653D02*
X75985Y156899D01*
X75985Y154653D02*
X75987Y154600D01*
X75993Y154546D01*
X76002Y154494D01*
X76015Y154442D01*
X76032Y154391D01*
X76053Y154342D01*
X76077Y154294D01*
X76104Y154248D01*
X76134Y154204D01*
X76168Y154163D01*
X76204Y154123D01*
X76244Y154087D01*
X76285Y154053D01*
X76329Y154023D01*
X76375Y153996D01*
X76423Y153972D01*
X76472Y153951D01*
X76523Y153934D01*
X76575Y153921D01*
X76627Y153912D01*
X76681Y153906D01*
X76734Y153904D01*
X77982Y153904D01*
X77982Y156899D01*
X79643Y156899D02*
X81141Y156899D01*
X80143Y158396D02*
X80143Y154653D01*
X80142Y154653D02*
X80144Y154600D01*
X80150Y154546D01*
X80159Y154494D01*
X80172Y154442D01*
X80189Y154391D01*
X80210Y154342D01*
X80234Y154294D01*
X80261Y154248D01*
X80291Y154204D01*
X80325Y154163D01*
X80361Y154123D01*
X80401Y154087D01*
X80442Y154053D01*
X80486Y154023D01*
X80532Y153996D01*
X80580Y153972D01*
X80629Y153951D01*
X80680Y153934D01*
X80732Y153921D01*
X80784Y153912D01*
X80838Y153906D01*
X80891Y153904D01*
X81141Y153904D01*
X83634Y153904D02*
X84882Y153904D01*
X83634Y153904D02*
X83581Y153906D01*
X83527Y153912D01*
X83475Y153921D01*
X83423Y153934D01*
X83372Y153951D01*
X83323Y153972D01*
X83275Y153996D01*
X83229Y154023D01*
X83185Y154053D01*
X83144Y154087D01*
X83104Y154123D01*
X83068Y154163D01*
X83034Y154204D01*
X83004Y154248D01*
X82977Y154294D01*
X82953Y154342D01*
X82932Y154391D01*
X82915Y154442D01*
X82902Y154494D01*
X82893Y154546D01*
X82887Y154600D01*
X82885Y154653D01*
X82885Y155900D01*
X82887Y155961D01*
X82893Y156023D01*
X82902Y156083D01*
X82915Y156143D01*
X82932Y156203D01*
X82952Y156261D01*
X82976Y156317D01*
X83004Y156372D01*
X83034Y156425D01*
X83068Y156477D01*
X83105Y156526D01*
X83145Y156572D01*
X83188Y156616D01*
X83234Y156658D01*
X83282Y156696D01*
X83332Y156732D01*
X83384Y156764D01*
X83438Y156793D01*
X83494Y156819D01*
X83551Y156841D01*
X83610Y156860D01*
X83669Y156875D01*
X83730Y156886D01*
X83791Y156894D01*
X83852Y156898D01*
X83914Y156898D01*
X83975Y156894D01*
X84036Y156886D01*
X84097Y156875D01*
X84156Y156860D01*
X84215Y156841D01*
X84272Y156819D01*
X84328Y156793D01*
X84382Y156764D01*
X84434Y156732D01*
X84484Y156696D01*
X84532Y156658D01*
X84578Y156616D01*
X84621Y156572D01*
X84661Y156526D01*
X84698Y156477D01*
X84732Y156425D01*
X84762Y156372D01*
X84790Y156317D01*
X84814Y156261D01*
X84834Y156203D01*
X84851Y156143D01*
X84864Y156083D01*
X84873Y156023D01*
X84879Y155961D01*
X84881Y155900D01*
X84882Y155900D02*
X84882Y155401D01*
X82885Y155401D01*
X71322Y149648D02*
X71322Y147652D01*
X71322Y149648D02*
X71324Y149717D01*
X71330Y149785D01*
X71339Y149853D01*
X71352Y149921D01*
X71369Y149988D01*
X71390Y150053D01*
X71414Y150118D01*
X71441Y150181D01*
X71472Y150242D01*
X71507Y150302D01*
X71544Y150359D01*
X71585Y150415D01*
X71629Y150468D01*
X71675Y150518D01*
X71725Y150566D01*
X71777Y150611D01*
X71831Y150654D01*
X71887Y150693D01*
X71946Y150729D01*
X72006Y150762D01*
X72069Y150791D01*
X72132Y150817D01*
X72197Y150839D01*
X72264Y150858D01*
X72331Y150873D01*
X72399Y150884D01*
X72467Y150892D01*
X72536Y150896D01*
X72604Y150896D01*
X72673Y150892D01*
X72741Y150884D01*
X72809Y150873D01*
X72876Y150858D01*
X72943Y150839D01*
X73008Y150817D01*
X73071Y150791D01*
X73134Y150762D01*
X73194Y150729D01*
X73253Y150693D01*
X73309Y150654D01*
X73363Y150611D01*
X73415Y150566D01*
X73465Y150518D01*
X73511Y150468D01*
X73555Y150415D01*
X73596Y150359D01*
X73633Y150302D01*
X73668Y150242D01*
X73699Y150181D01*
X73726Y150118D01*
X73750Y150053D01*
X73771Y149988D01*
X73788Y149921D01*
X73801Y149853D01*
X73810Y149785D01*
X73816Y149717D01*
X73818Y149648D01*
X73818Y147652D01*
X73816Y147583D01*
X73810Y147515D01*
X73801Y147447D01*
X73788Y147379D01*
X73771Y147312D01*
X73750Y147247D01*
X73726Y147182D01*
X73699Y147119D01*
X73668Y147058D01*
X73633Y146998D01*
X73596Y146941D01*
X73555Y146885D01*
X73511Y146832D01*
X73465Y146782D01*
X73415Y146734D01*
X73363Y146689D01*
X73309Y146646D01*
X73253Y146607D01*
X73194Y146571D01*
X73134Y146538D01*
X73071Y146509D01*
X73008Y146483D01*
X72943Y146461D01*
X72876Y146442D01*
X72809Y146427D01*
X72741Y146416D01*
X72673Y146408D01*
X72604Y146404D01*
X72536Y146404D01*
X72467Y146408D01*
X72399Y146416D01*
X72331Y146427D01*
X72264Y146442D01*
X72197Y146461D01*
X72132Y146483D01*
X72069Y146509D01*
X72006Y146538D01*
X71946Y146571D01*
X71887Y146607D01*
X71831Y146646D01*
X71777Y146689D01*
X71725Y146734D01*
X71675Y146782D01*
X71629Y146832D01*
X71585Y146885D01*
X71544Y146941D01*
X71507Y146998D01*
X71472Y147058D01*
X71441Y147119D01*
X71414Y147182D01*
X71390Y147247D01*
X71369Y147312D01*
X71352Y147379D01*
X71339Y147447D01*
X71330Y147515D01*
X71324Y147583D01*
X71322Y147652D01*
X75922Y147153D02*
X75922Y149399D01*
X75922Y147153D02*
X75924Y147100D01*
X75930Y147046D01*
X75939Y146994D01*
X75952Y146942D01*
X75969Y146891D01*
X75990Y146842D01*
X76014Y146794D01*
X76041Y146748D01*
X76071Y146704D01*
X76105Y146663D01*
X76141Y146623D01*
X76181Y146587D01*
X76222Y146553D01*
X76266Y146523D01*
X76312Y146496D01*
X76360Y146472D01*
X76409Y146451D01*
X76460Y146434D01*
X76512Y146421D01*
X76564Y146412D01*
X76618Y146406D01*
X76671Y146404D01*
X77918Y146404D01*
X77918Y149399D01*
X79580Y149399D02*
X81078Y149399D01*
X80079Y150896D02*
X80079Y147153D01*
X80081Y147100D01*
X80087Y147046D01*
X80096Y146994D01*
X80109Y146942D01*
X80126Y146891D01*
X80147Y146842D01*
X80171Y146794D01*
X80198Y146748D01*
X80228Y146704D01*
X80262Y146663D01*
X80298Y146623D01*
X80338Y146587D01*
X80379Y146553D01*
X80423Y146523D01*
X80469Y146496D01*
X80517Y146472D01*
X80566Y146451D01*
X80617Y146434D01*
X80669Y146421D01*
X80721Y146412D01*
X80775Y146406D01*
X80828Y146404D01*
X81078Y146404D01*
D10*
X87630Y171450D02*
X88094Y171164D01*
X88551Y170866D01*
X89000Y170558D01*
X89442Y170238D01*
X89876Y169908D01*
X90301Y169567D01*
X90718Y169216D01*
X91126Y168855D01*
X91526Y168483D01*
X91916Y168103D01*
X92296Y167712D01*
X92667Y167313D01*
X93028Y166904D01*
X93379Y166487D01*
X93719Y166061D01*
X94049Y165627D01*
X94368Y165185D01*
X94677Y164736D01*
X94974Y164278D01*
X95260Y163814D01*
X95534Y163343D01*
X95797Y162865D01*
X96047Y162381D01*
X96286Y161891D01*
X96513Y161396D01*
X96728Y160895D01*
X96930Y160388D01*
X97120Y159877D01*
X97297Y159362D01*
X97462Y158842D01*
X97613Y158318D01*
X97752Y157791D01*
X97878Y157261D01*
X97990Y156727D01*
X98090Y156191D01*
X98177Y155653D01*
X98250Y155113D01*
X98310Y154571D01*
X98356Y154028D01*
X98390Y153484D01*
X98409Y152939D01*
X98416Y152394D01*
X98409Y151849D01*
X98389Y151304D01*
X98355Y150760D01*
X98308Y150217D01*
X98248Y149675D01*
X98175Y149135D01*
X98088Y148597D01*
X97988Y148061D01*
X97875Y147527D01*
X97749Y146997D01*
X97610Y146470D01*
X97458Y145946D01*
X97293Y145427D01*
X97116Y144911D01*
X96926Y144400D01*
X96723Y143894D01*
X96508Y143393D01*
X96281Y142897D01*
X96042Y142408D01*
X95791Y141924D01*
X95528Y141446D01*
X95253Y140975D01*
X94967Y140511D01*
X94670Y140054D01*
X94361Y139605D01*
X94042Y139163D01*
X93712Y138729D01*
X93371Y138304D01*
X93020Y137887D01*
X92659Y137478D01*
X92288Y137079D01*
X91907Y136689D01*
X91517Y136308D01*
X91117Y135937D01*
X90709Y135576D01*
X90292Y135225D01*
X89866Y134885D01*
X89432Y134554D01*
X88990Y134235D01*
X88541Y133927D01*
X88084Y133630D01*
X87619Y133344D01*
X87148Y133069D01*
X86671Y132806D01*
X86187Y132555D01*
X85697Y132316D01*
X85201Y132089D01*
X84700Y131875D01*
X84194Y131672D01*
X83683Y131482D01*
X83168Y131305D01*
X82648Y131140D01*
X82124Y130988D01*
X81597Y130850D01*
X81067Y130724D01*
X80533Y130611D01*
X79997Y130511D01*
X79459Y130424D01*
X78919Y130351D01*
X78377Y130291D01*
X77834Y130244D01*
X77290Y130211D01*
X76745Y130191D01*
X76200Y130184D01*
X75655Y130191D01*
X75110Y130211D01*
X74566Y130244D01*
X74023Y130291D01*
X73481Y130351D01*
X72941Y130424D01*
X72403Y130511D01*
X71867Y130611D01*
X71333Y130724D01*
X70803Y130850D01*
X70276Y130988D01*
X69752Y131140D01*
X69232Y131305D01*
X68717Y131482D01*
X68206Y131672D01*
X67700Y131875D01*
X67199Y132089D01*
X66703Y132316D01*
X66213Y132555D01*
X65729Y132806D01*
X65252Y133069D01*
X64781Y133344D01*
X64316Y133630D01*
X63859Y133927D01*
X63410Y134235D01*
X62968Y134554D01*
X62534Y134885D01*
X62108Y135225D01*
X61691Y135576D01*
X61283Y135937D01*
X60883Y136308D01*
X60493Y136689D01*
X60112Y137079D01*
X59741Y137478D01*
X59380Y137887D01*
X59029Y138304D01*
X58688Y138729D01*
X58358Y139163D01*
X58039Y139605D01*
X57730Y140054D01*
X57433Y140511D01*
X57147Y140975D01*
X56872Y141446D01*
X56609Y141924D01*
X56358Y142408D01*
X56119Y142897D01*
X55892Y143393D01*
X55677Y143894D01*
X55474Y144400D01*
X55284Y144911D01*
X55107Y145427D01*
X54942Y145946D01*
X54790Y146470D01*
X54651Y146997D01*
X54525Y147527D01*
X54412Y148061D01*
X54312Y148597D01*
X54225Y149135D01*
X54152Y149675D01*
X54092Y150217D01*
X54045Y150760D01*
X54011Y151304D01*
X53991Y151849D01*
X53984Y152394D01*
X53991Y152939D01*
X54010Y153484D01*
X54044Y154028D01*
X54090Y154571D01*
X54150Y155113D01*
X54223Y155653D01*
X54310Y156191D01*
X54410Y156727D01*
X54522Y157261D01*
X54648Y157791D01*
X54787Y158318D01*
X54938Y158842D01*
X55103Y159362D01*
X55280Y159877D01*
X55470Y160388D01*
X55672Y160895D01*
X55887Y161396D01*
X56114Y161891D01*
X56353Y162381D01*
X56603Y162865D01*
X56866Y163343D01*
X57140Y163814D01*
X57426Y164278D01*
X57723Y164736D01*
X58032Y165185D01*
X58351Y165627D01*
X58681Y166061D01*
X59021Y166487D01*
X59372Y166904D01*
X59733Y167313D01*
X60104Y167712D01*
X60484Y168103D01*
X60874Y168483D01*
X61274Y168855D01*
X61682Y169216D01*
X62099Y169567D01*
X62524Y169908D01*
X62958Y170238D01*
X63400Y170558D01*
X63849Y170866D01*
X64306Y171164D01*
X64770Y171450D01*
D13*
X0Y0D02*
X406400Y0D01*
X406400Y279400D01*
X0Y279400D01*
X0Y0D01*
X64770Y171450D02*
X63153Y170381D01*
X61636Y169176D01*
X60229Y167843D01*
X58944Y166392D01*
X57790Y164835D01*
X56776Y163183D01*
X55910Y161449D01*
X55199Y159646D01*
X54647Y157788D01*
X54260Y155889D01*
X54039Y153964D01*
X53987Y152026D01*
X54104Y150092D01*
X54390Y148175D01*
X54841Y146290D01*
X55455Y144452D01*
X56226Y142674D01*
X57150Y140970D01*
X58219Y139353D01*
X59424Y137836D01*
X60757Y136429D01*
X62208Y135144D01*
X63765Y133990D01*
X65417Y132976D01*
X67151Y132110D01*
X68954Y131399D01*
X70812Y130847D01*
X72711Y130460D01*
X74636Y130239D01*
X76574Y130187D01*
X78508Y130304D01*
X80425Y130590D01*
X82310Y131041D01*
X84148Y131655D01*
X85926Y132426D01*
X87630Y133350D01*
X89247Y134419D01*
X90764Y135624D01*
X92171Y136957D01*
X93456Y138408D01*
X94610Y139965D01*
X95624Y141617D01*
X96490Y143351D01*
X97201Y145154D01*
X97753Y147012D01*
X98140Y148911D01*
X98361Y150836D01*
X98413Y152774D01*
X98296Y154708D01*
X98010Y156625D01*
X97559Y158510D01*
X96945Y160348D01*
X96174Y162126D01*
X95250Y163830D01*
X94181Y165447D01*
X92976Y166964D01*
X91643Y168371D01*
X90192Y169656D01*
X88635Y170810D01*
X87630Y171450D01*
X87630Y192400D01*
X87587Y193396D01*
X87456Y194385D01*
X87241Y195358D01*
X86941Y196309D01*
X86559Y197231D01*
X86099Y198115D01*
X85563Y198956D01*
X84956Y199747D01*
X84282Y200482D01*
X83547Y201156D01*
X82756Y201763D01*
X81915Y202299D01*
X81031Y202759D01*
X80109Y203141D01*
X79158Y203441D01*
X78185Y203656D01*
X77196Y203787D01*
X76200Y203830D01*
X75204Y203787D01*
X74215Y203656D01*
X73242Y203441D01*
X72291Y203141D01*
X71369Y202759D01*
X70485Y202299D01*
X69644Y201763D01*
X68853Y201156D01*
X68118Y200482D01*
X67444Y199747D01*
X66837Y198956D01*
X66301Y198115D01*
X65841Y197231D01*
X65459Y196309D01*
X65159Y195358D01*
X64944Y194385D01*
X64814Y193396D01*
X64770Y192400D01*
X64770Y171450D01*
X318770Y171450D02*
X317765Y170810D01*
X316208Y169656D01*
X314757Y168371D01*
X313424Y166964D01*
X312219Y165447D01*
X311150Y163830D01*
X310226Y162126D01*
X309455Y160348D01*
X308841Y158510D01*
X308390Y156625D01*
X308104Y154708D01*
X307987Y152774D01*
X308039Y150836D01*
X308260Y148911D01*
X308647Y147012D01*
X309199Y145154D01*
X309910Y143351D01*
X310776Y141617D01*
X311790Y139965D01*
X312944Y138408D01*
X314229Y136957D01*
X315636Y135624D01*
X317153Y134419D01*
X318770Y133350D01*
X320474Y132426D01*
X322252Y131655D01*
X324090Y131041D01*
X325975Y130590D01*
X327892Y130304D01*
X329826Y130187D01*
X331764Y130239D01*
X333689Y130460D01*
X335588Y130847D01*
X337446Y131399D01*
X339249Y132110D01*
X340983Y132976D01*
X342635Y133990D01*
X344192Y135144D01*
X345643Y136429D01*
X346976Y137836D01*
X348181Y139353D01*
X349250Y140970D01*
X350174Y142674D01*
X350945Y144452D01*
X351559Y146290D01*
X352010Y148175D01*
X352296Y150092D01*
X352413Y152026D01*
X352361Y153964D01*
X352140Y155889D01*
X351753Y157788D01*
X351201Y159646D01*
X350490Y161449D01*
X349624Y163183D01*
X348610Y164835D01*
X347456Y166392D01*
X346171Y167843D01*
X344764Y169176D01*
X343247Y170381D01*
X341630Y171450D01*
X341630Y192400D01*
X341587Y193396D01*
X341456Y194385D01*
X341241Y195358D01*
X340941Y196309D01*
X340559Y197231D01*
X340099Y198115D01*
X339563Y198956D01*
X338956Y199747D01*
X338282Y200482D01*
X337547Y201156D01*
X336756Y201763D01*
X335915Y202299D01*
X335031Y202759D01*
X334109Y203141D01*
X333158Y203441D01*
X332185Y203656D01*
X331196Y203787D01*
X330200Y203830D01*
X329204Y203787D01*
X328215Y203656D01*
X327242Y203441D01*
X326291Y203141D01*
X325369Y202759D01*
X324485Y202299D01*
X323644Y201763D01*
X322853Y201156D01*
X322118Y200482D01*
X321444Y199747D01*
X320837Y198956D01*
X320301Y198115D01*
X319841Y197231D01*
X319459Y196309D01*
X319159Y195358D01*
X318944Y194385D01*
X318814Y193396D01*
X318770Y192400D01*
X318770Y171450D01*
X397510Y24860D02*
X397439Y23781D01*
X397298Y22709D01*
X397087Y21649D01*
X396808Y20605D01*
X396460Y19581D01*
X396046Y18583D01*
X395568Y17613D01*
X395028Y16677D01*
X394427Y15778D01*
X393769Y14921D01*
X393057Y14108D01*
X392292Y13344D01*
X391479Y12631D01*
X390622Y11973D01*
X389723Y11372D01*
X388787Y10832D01*
X387817Y10354D01*
X386819Y9940D01*
X385795Y9592D01*
X384751Y9313D01*
X383691Y9102D01*
X382619Y8961D01*
X381540Y8890D01*
X380460Y8890D01*
X379381Y8961D01*
X378309Y9102D01*
X377249Y9313D01*
X376205Y9592D01*
X375181Y9940D01*
X374183Y10354D01*
X373213Y10832D01*
X372277Y11372D01*
X371378Y11973D01*
X370521Y12631D01*
X369708Y13344D01*
X368944Y14108D01*
X368231Y14921D01*
X367573Y15778D01*
X366972Y16677D01*
X366432Y17613D01*
X365954Y18583D01*
X365540Y19581D01*
X365192Y20605D01*
X364913Y21649D01*
X364702Y22709D01*
X364561Y23781D01*
X364490Y24860D01*
X364490Y25940D01*
X364561Y27019D01*
X364702Y28091D01*
X364913Y29151D01*
X365192Y30195D01*
X365540Y31219D01*
X365954Y32217D01*
X366432Y33187D01*
X366972Y34123D01*
X367573Y35022D01*
X368231Y35879D01*
X368944Y36692D01*
X369708Y37457D01*
X370521Y38169D01*
X371378Y38827D01*
X372277Y39428D01*
X373213Y39968D01*
X374183Y40446D01*
X375181Y40860D01*
X376205Y41208D01*
X377249Y41487D01*
X378309Y41698D01*
X379381Y41839D01*
X380460Y41910D01*
X381540Y41910D01*
X382619Y41839D01*
X383691Y41698D01*
X384751Y41487D01*
X385795Y41208D01*
X386819Y40860D01*
X387817Y40446D01*
X388787Y39968D01*
X389723Y39428D01*
X390622Y38827D01*
X391479Y38169D01*
X392292Y37457D01*
X393057Y36692D01*
X393769Y35879D01*
X394427Y35022D01*
X395028Y34123D01*
X395568Y33187D01*
X396046Y32217D01*
X396460Y31219D01*
X396808Y30195D01*
X397087Y29151D01*
X397298Y28091D01*
X397439Y27019D01*
X397510Y25940D01*
X397510Y24860D01*
X41910Y253460D02*
X41839Y252381D01*
X41698Y251309D01*
X41487Y250249D01*
X41208Y249205D01*
X40860Y248181D01*
X40446Y247183D01*
X39968Y246213D01*
X39428Y245277D01*
X38827Y244378D01*
X38169Y243521D01*
X37457Y242708D01*
X36692Y241944D01*
X35879Y241231D01*
X35022Y240573D01*
X34123Y239972D01*
X33187Y239432D01*
X32217Y238954D01*
X31219Y238540D01*
X30195Y238192D01*
X29151Y237913D01*
X28091Y237702D01*
X27019Y237561D01*
X25940Y237490D01*
X24860Y237490D01*
X23781Y237561D01*
X22709Y237702D01*
X21649Y237913D01*
X20605Y238192D01*
X19581Y238540D01*
X18583Y238954D01*
X17613Y239432D01*
X16677Y239972D01*
X15778Y240573D01*
X14921Y241231D01*
X14108Y241944D01*
X13344Y242708D01*
X12631Y243521D01*
X11973Y244378D01*
X11372Y245277D01*
X10832Y246213D01*
X10354Y247183D01*
X9940Y248181D01*
X9592Y249205D01*
X9313Y250249D01*
X9102Y251309D01*
X8961Y252381D01*
X8890Y253460D01*
X8890Y254540D01*
X8961Y255619D01*
X9102Y256691D01*
X9313Y257751D01*
X9592Y258795D01*
X9940Y259819D01*
X10354Y260817D01*
X10832Y261787D01*
X11372Y262723D01*
X11973Y263622D01*
X12631Y264479D01*
X13344Y265292D01*
X14108Y266057D01*
X14921Y266769D01*
X15778Y267427D01*
X16677Y268028D01*
X17613Y268568D01*
X18583Y269046D01*
X19581Y269460D01*
X20605Y269808D01*
X21649Y270087D01*
X22709Y270298D01*
X23781Y270439D01*
X24860Y270510D01*
X25940Y270510D01*
X27019Y270439D01*
X28091Y270298D01*
X29151Y270087D01*
X30195Y269808D01*
X31219Y269460D01*
X32217Y269046D01*
X33187Y268568D01*
X34123Y268028D01*
X35022Y267427D01*
X35879Y266769D01*
X36692Y266057D01*
X37457Y265292D01*
X38169Y264479D01*
X38827Y263622D01*
X39428Y262723D01*
X39968Y261787D01*
X40446Y260817D01*
X40860Y259819D01*
X41208Y258795D01*
X41487Y257751D01*
X41698Y256691D01*
X41839Y255619D01*
X41910Y254540D01*
X41910Y253460D01*
X41910Y24860D02*
X41839Y23781D01*
X41698Y22709D01*
X41487Y21649D01*
X41208Y20605D01*
X40860Y19581D01*
X40446Y18583D01*
X39968Y17613D01*
X39428Y16677D01*
X38827Y15778D01*
X38169Y14921D01*
X37457Y14108D01*
X36692Y13344D01*
X35879Y12631D01*
X35022Y11973D01*
X34123Y11372D01*
X33187Y10832D01*
X32217Y10354D01*
X31219Y9940D01*
X30195Y9592D01*
X29151Y9313D01*
X28091Y9102D01*
X27019Y8961D01*
X25940Y8890D01*
X24860Y8890D01*
X23781Y8961D01*
X22709Y9102D01*
X21649Y9313D01*
X20605Y9592D01*
X19581Y9940D01*
X18583Y10354D01*
X17613Y10832D01*
X16677Y11372D01*
X15778Y11973D01*
X14921Y12631D01*
X14108Y13344D01*
X13344Y14108D01*
X12631Y14921D01*
X11973Y15778D01*
X11372Y16677D01*
X10832Y17613D01*
X10354Y18583D01*
X9940Y19581D01*
X9592Y20605D01*
X9313Y21649D01*
X9102Y22709D01*
X8961Y23781D01*
X8890Y24860D01*
X8890Y25940D01*
X8961Y27019D01*
X9102Y28091D01*
X9313Y29151D01*
X9592Y30195D01*
X9940Y31219D01*
X10354Y32217D01*
X10832Y33187D01*
X11372Y34123D01*
X11973Y35022D01*
X12631Y35879D01*
X13344Y36692D01*
X14108Y37457D01*
X14921Y38169D01*
X15778Y38827D01*
X16677Y39428D01*
X17613Y39968D01*
X18583Y40446D01*
X19581Y40860D01*
X20605Y41208D01*
X21649Y41487D01*
X22709Y41698D01*
X23781Y41839D01*
X24860Y41910D01*
X25940Y41910D01*
X27019Y41839D01*
X28091Y41698D01*
X29151Y41487D01*
X30195Y41208D01*
X31219Y40860D01*
X32217Y40446D01*
X33187Y39968D01*
X34123Y39428D01*
X35022Y38827D01*
X35879Y38169D01*
X36692Y37457D01*
X37457Y36692D01*
X38169Y35879D01*
X38827Y35022D01*
X39428Y34123D01*
X39968Y33187D01*
X40446Y32217D01*
X40860Y31219D01*
X41208Y30195D01*
X41487Y29151D01*
X41698Y28091D01*
X41839Y27019D01*
X41910Y25940D01*
X41910Y24860D01*
X397510Y253460D02*
X397439Y252381D01*
X397298Y251309D01*
X397087Y250249D01*
X396808Y249205D01*
X396460Y248181D01*
X396046Y247183D01*
X395568Y246213D01*
X395028Y245277D01*
X394427Y244378D01*
X393769Y243521D01*
X393057Y242708D01*
X392292Y241944D01*
X391479Y241231D01*
X390622Y240573D01*
X389723Y239972D01*
X388787Y239432D01*
X387817Y238954D01*
X386819Y238540D01*
X385795Y238192D01*
X384751Y237913D01*
X383691Y237702D01*
X382619Y237561D01*
X381540Y237490D01*
X380460Y237490D01*
X379381Y237561D01*
X378309Y237702D01*
X377249Y237913D01*
X376205Y238192D01*
X375181Y238540D01*
X374183Y238954D01*
X373213Y239432D01*
X372277Y239972D01*
X371378Y240573D01*
X370521Y241231D01*
X369708Y241944D01*
X368944Y242708D01*
X368231Y243521D01*
X367573Y244378D01*
X366972Y245277D01*
X366432Y246213D01*
X365954Y247183D01*
X365540Y248181D01*
X365192Y249205D01*
X364913Y250249D01*
X364702Y251309D01*
X364561Y252381D01*
X364490Y253460D01*
X364490Y254540D01*
X364561Y255619D01*
X364702Y256691D01*
X364913Y257751D01*
X365192Y258795D01*
X365540Y259819D01*
X365954Y260817D01*
X366432Y261787D01*
X366972Y262723D01*
X367573Y263622D01*
X368231Y264479D01*
X368944Y265292D01*
X369708Y266057D01*
X370521Y266769D01*
X371378Y267427D01*
X372277Y268028D01*
X373213Y268568D01*
X374183Y269046D01*
X375181Y269460D01*
X376205Y269808D01*
X377249Y270087D01*
X378309Y270298D01*
X379381Y270439D01*
X380460Y270510D01*
X381540Y270510D01*
X382619Y270439D01*
X383691Y270298D01*
X384751Y270087D01*
X385795Y269808D01*
X386819Y269460D01*
X387817Y269046D01*
X388787Y268568D01*
X389723Y268028D01*
X390622Y267427D01*
X391479Y266769D01*
X392292Y266057D01*
X393057Y265292D01*
X393769Y264479D01*
X394427Y263622D01*
X395028Y262723D01*
X395568Y261787D01*
X396046Y260817D01*
X396460Y259819D01*
X396808Y258795D01*
X397087Y257751D01*
X397298Y256691D01*
X397439Y255619D01*
X397510Y254540D01*
X397510Y253460D01*
M02*
