G04 EAGLE Gerber RS-274X export*
G75*
%MOMM*%
%FSLAX34Y34*%
%LPD*%
%INSilkscreen Bottom*%
%IPPOS*%
%AMOC8*
5,1,8,0,0,1.08239X$1,22.5*%
G01*
%ADD10C,0.152400*%
%ADD11C,0.150000*%
%ADD12C,0.508000*%

G36*
X239308Y10980D02*
X239308Y10980D01*
X239391Y10983D01*
X239395Y10986D01*
X239399Y10986D01*
X239528Y11053D01*
X240028Y11453D01*
X240039Y11468D01*
X240059Y11481D01*
X240544Y11966D01*
X241528Y12753D01*
X241539Y12768D01*
X241559Y12781D01*
X242444Y13666D01*
X242928Y14053D01*
X242939Y14068D01*
X242959Y14081D01*
X243459Y14581D01*
X243499Y14646D01*
X243543Y14708D01*
X243545Y14720D01*
X243550Y14728D01*
X243554Y14765D01*
X243570Y14850D01*
X243570Y33250D01*
X243567Y33263D01*
X243569Y33277D01*
X243548Y33347D01*
X243531Y33419D01*
X243522Y33429D01*
X243518Y33442D01*
X243467Y33496D01*
X243421Y33552D01*
X243408Y33558D01*
X243399Y33568D01*
X243265Y33623D01*
X242773Y33721D01*
X242382Y33819D01*
X242374Y33819D01*
X242365Y33823D01*
X241865Y33923D01*
X241833Y33922D01*
X241790Y33930D01*
X241428Y33930D01*
X240473Y34121D01*
X240082Y34219D01*
X240074Y34219D01*
X240065Y34223D01*
X239565Y34323D01*
X239563Y34323D01*
X239562Y34323D01*
X239478Y34320D01*
X239391Y34317D01*
X239390Y34317D01*
X239389Y34317D01*
X239315Y34276D01*
X239239Y34235D01*
X239238Y34234D01*
X239237Y34234D01*
X239189Y34165D01*
X239138Y34094D01*
X239138Y34093D01*
X239137Y34092D01*
X239110Y33950D01*
X239110Y33234D01*
X238987Y33388D01*
X238964Y33405D01*
X238886Y33476D01*
X237886Y34076D01*
X237873Y34080D01*
X237860Y34090D01*
X237260Y34390D01*
X237222Y34399D01*
X237153Y34425D01*
X235353Y34725D01*
X235314Y34723D01*
X235243Y34727D01*
X233643Y34527D01*
X233609Y34515D01*
X233554Y34505D01*
X232254Y34005D01*
X232227Y33987D01*
X232186Y33971D01*
X231086Y33271D01*
X231062Y33247D01*
X231021Y33219D01*
X230121Y32319D01*
X230101Y32287D01*
X230062Y32242D01*
X229362Y31042D01*
X229354Y31016D01*
X229335Y30987D01*
X228835Y29687D01*
X228832Y29661D01*
X228818Y29630D01*
X228518Y28230D01*
X228519Y28197D01*
X228510Y28150D01*
X228510Y26750D01*
X228513Y26738D01*
X228511Y26723D01*
X228611Y25323D01*
X228614Y25311D01*
X228614Y25296D01*
X228814Y23896D01*
X228827Y23861D01*
X228839Y23804D01*
X229339Y22604D01*
X229355Y22581D01*
X229369Y22546D01*
X230069Y21446D01*
X230093Y21422D01*
X230121Y21381D01*
X231021Y20481D01*
X231045Y20466D01*
X231072Y20439D01*
X232072Y19739D01*
X232106Y19725D01*
X232154Y19695D01*
X233454Y19195D01*
X233492Y19190D01*
X233565Y19171D01*
X235065Y19071D01*
X235076Y19072D01*
X235090Y19070D01*
X235690Y19070D01*
X235716Y19076D01*
X235753Y19075D01*
X236353Y19175D01*
X236376Y19185D01*
X236410Y19189D01*
X237610Y19589D01*
X237639Y19607D01*
X237686Y19624D01*
X238186Y19924D01*
X238202Y19940D01*
X238228Y19953D01*
X238728Y20353D01*
X238739Y20368D01*
X238759Y20381D01*
X238910Y20532D01*
X238910Y11350D01*
X238911Y11346D01*
X238910Y11341D01*
X238930Y11261D01*
X238949Y11181D01*
X238952Y11178D01*
X238953Y11173D01*
X239007Y11111D01*
X239059Y11048D01*
X239064Y11046D01*
X239067Y11042D01*
X239143Y11010D01*
X239218Y10977D01*
X239222Y10977D01*
X239226Y10975D01*
X239308Y10980D01*
G37*
G36*
X323604Y254641D02*
X323604Y254641D01*
X323609Y254645D01*
X323613Y254643D01*
X324713Y254943D01*
X324715Y254945D01*
X324717Y254944D01*
X325817Y255344D01*
X325821Y255350D01*
X325825Y255348D01*
X326825Y255948D01*
X326828Y255954D01*
X326833Y255953D01*
X327733Y256753D01*
X327734Y256758D01*
X327737Y256757D01*
X328537Y257657D01*
X328537Y257660D01*
X328539Y257660D01*
X329239Y258560D01*
X329239Y258564D01*
X329242Y258565D01*
X329842Y259565D01*
X329836Y259624D01*
X329823Y259622D01*
X329820Y259635D01*
X329792Y259647D01*
X329839Y259660D01*
X329836Y259669D01*
X329846Y259672D01*
X330246Y260672D01*
X330244Y260679D01*
X330249Y260682D01*
X330449Y261882D01*
X330447Y261885D01*
X330449Y261886D01*
X330549Y263086D01*
X330546Y263091D01*
X330549Y263094D01*
X330449Y264294D01*
X330447Y264296D01*
X330449Y264298D01*
X330249Y265498D01*
X330244Y265503D01*
X330246Y265507D01*
X329846Y266607D01*
X329844Y266608D01*
X329845Y266610D01*
X329345Y267710D01*
X329337Y267714D01*
X329339Y267720D01*
X328639Y268620D01*
X328636Y268621D01*
X328637Y268623D01*
X327837Y269523D01*
X327830Y269524D01*
X327830Y269529D01*
X326930Y270229D01*
X326926Y270229D01*
X326925Y270232D01*
X325925Y270832D01*
X325921Y270832D01*
X325920Y270835D01*
X324820Y271335D01*
X324815Y271334D01*
X324813Y271338D01*
X323713Y271638D01*
X323707Y271635D01*
X323704Y271639D01*
X322504Y271739D01*
X322499Y271736D01*
X322496Y271739D01*
X321296Y271639D01*
X321294Y271637D01*
X321292Y271639D01*
X320092Y271439D01*
X320087Y271434D01*
X320083Y271436D01*
X318983Y271036D01*
X318981Y271033D01*
X318978Y271034D01*
X317978Y270534D01*
X317976Y270529D01*
X317972Y270530D01*
X316972Y269830D01*
X316970Y269824D01*
X316965Y269825D01*
X316065Y268925D01*
X316065Y268920D01*
X316061Y268920D01*
X315361Y268020D01*
X315361Y268016D01*
X315358Y268015D01*
X314758Y267015D01*
X314759Y267008D01*
X314754Y267007D01*
X314354Y265907D01*
X314355Y265904D01*
X314353Y265903D01*
X314320Y265783D01*
X314306Y265734D01*
X314293Y265685D01*
X314239Y265488D01*
X314226Y265438D01*
X314172Y265241D01*
X314159Y265192D01*
X314145Y265143D01*
X314091Y264946D01*
X314078Y264897D01*
X314053Y264803D01*
X314054Y264799D01*
X314052Y264798D01*
X314054Y264796D01*
X314051Y264794D01*
X313951Y263594D01*
X313953Y263591D01*
X313951Y263590D01*
X313951Y262390D01*
X313954Y262385D01*
X313951Y262382D01*
X314151Y261182D01*
X314154Y261179D01*
X314153Y261177D01*
X314453Y260077D01*
X314455Y260075D01*
X314454Y260073D01*
X314740Y259310D01*
X313674Y258632D01*
X313672Y258628D01*
X313670Y258629D01*
X312770Y257929D01*
X312765Y257913D01*
X312753Y257903D01*
X312754Y257902D01*
X312752Y257901D01*
X312552Y257001D01*
X312560Y256983D01*
X312554Y256973D01*
X312954Y255873D01*
X312964Y255867D01*
X312962Y255859D01*
X313862Y254759D01*
X313884Y254753D01*
X313889Y254742D01*
X314789Y254542D01*
X314812Y254552D01*
X314824Y254547D01*
X315924Y255147D01*
X315926Y255151D01*
X315929Y255150D01*
X317014Y255939D01*
X317884Y255842D01*
X318875Y255248D01*
X318882Y255249D01*
X318883Y255244D01*
X319983Y254844D01*
X319989Y254846D01*
X319991Y254842D01*
X321091Y254642D01*
X321095Y254643D01*
X321096Y254641D01*
X322396Y254541D01*
X322401Y254544D01*
X322404Y254541D01*
X323604Y254641D01*
G37*
G36*
X246725Y232954D02*
X246725Y232954D01*
X246728Y232951D01*
X248028Y233151D01*
X248041Y233165D01*
X248052Y233163D01*
X248752Y233763D01*
X248758Y233789D01*
X248769Y233796D01*
X248869Y235096D01*
X248868Y235099D01*
X248869Y235100D01*
X248869Y248200D01*
X248863Y248208D01*
X248867Y248214D01*
X248567Y249214D01*
X248545Y249231D01*
X248542Y249244D01*
X247742Y249644D01*
X247730Y249642D01*
X247725Y249649D01*
X246825Y249749D01*
X246822Y249747D01*
X246820Y249749D01*
X242020Y249749D01*
X242015Y249745D01*
X242011Y249748D01*
X240911Y249548D01*
X240909Y249546D01*
X240907Y249548D01*
X239807Y249248D01*
X239803Y249243D01*
X239800Y249245D01*
X238700Y248745D01*
X238698Y248741D01*
X238695Y248742D01*
X237695Y248142D01*
X237692Y248136D01*
X237687Y248137D01*
X236787Y247337D01*
X236786Y247332D01*
X236783Y247333D01*
X235983Y246433D01*
X235983Y246428D01*
X235980Y246428D01*
X235280Y245428D01*
X235280Y245423D01*
X235276Y245422D01*
X234776Y244422D01*
X234777Y244414D01*
X234772Y244412D01*
X234472Y243212D01*
X234473Y243209D01*
X234472Y243208D01*
X234474Y243206D01*
X234471Y243204D01*
X234371Y242104D01*
X234373Y242102D01*
X234371Y242100D01*
X234371Y240800D01*
X234373Y240797D01*
X234371Y240796D01*
X234471Y239596D01*
X234475Y239591D01*
X234473Y239587D01*
X234773Y238487D01*
X234778Y238483D01*
X234776Y238478D01*
X235276Y237478D01*
X235279Y237477D01*
X235278Y237475D01*
X235878Y236475D01*
X235882Y236473D01*
X235882Y236469D01*
X236682Y235469D01*
X236688Y235468D01*
X236687Y235463D01*
X237587Y234663D01*
X237594Y234663D01*
X237595Y234658D01*
X238595Y234058D01*
X238598Y234058D01*
X238598Y234056D01*
X239591Y233560D01*
X239574Y233518D01*
X239590Y233461D01*
X239602Y233464D01*
X239607Y233453D01*
X240707Y233153D01*
X240711Y233154D01*
X240712Y233151D01*
X241912Y232951D01*
X241917Y232954D01*
X241920Y232951D01*
X246720Y232951D01*
X246725Y232954D01*
G37*
G36*
X223420Y18977D02*
X223420Y18977D01*
X223465Y18977D01*
X223928Y19070D01*
X224390Y19070D01*
X224405Y19073D01*
X224420Y19071D01*
X224552Y19108D01*
X224559Y19109D01*
X224559Y19110D01*
X224560Y19110D01*
X224923Y19291D01*
X225282Y19381D01*
X225312Y19397D01*
X225360Y19410D01*
X226080Y19770D01*
X226160Y19810D01*
X226176Y19823D01*
X226201Y19834D01*
X226501Y20034D01*
X226522Y20057D01*
X226559Y20081D01*
X227159Y20681D01*
X227171Y20701D01*
X227194Y20722D01*
X227494Y21122D01*
X227506Y21148D01*
X227530Y21180D01*
X227730Y21580D01*
X227738Y21613D01*
X227759Y21658D01*
X227959Y22458D01*
X227959Y22466D01*
X227963Y22475D01*
X228063Y22975D01*
X228062Y23007D01*
X228070Y23050D01*
X228070Y23550D01*
X228067Y23565D01*
X228069Y23584D01*
X227969Y24684D01*
X227958Y24718D01*
X227951Y24770D01*
X227651Y25670D01*
X227630Y25704D01*
X227599Y25771D01*
X227099Y26471D01*
X227079Y26489D01*
X227059Y26519D01*
X226459Y27119D01*
X226426Y27139D01*
X226379Y27180D01*
X225679Y27580D01*
X225653Y27588D01*
X225624Y27606D01*
X224824Y27906D01*
X224800Y27909D01*
X224773Y27921D01*
X223873Y28121D01*
X223856Y28121D01*
X223837Y28127D01*
X223055Y28225D01*
X222173Y28421D01*
X222154Y28421D01*
X222132Y28428D01*
X221233Y28528D01*
X220441Y28627D01*
X219778Y28722D01*
X219269Y28891D01*
X218962Y29122D01*
X218746Y29409D01*
X218670Y29788D01*
X218670Y29988D01*
X218751Y30230D01*
X218754Y30267D01*
X218760Y30298D01*
X218763Y30305D01*
X218763Y30313D01*
X218770Y30350D01*
X218770Y30460D01*
X218903Y30725D01*
X219115Y30938D01*
X219580Y31170D01*
X219690Y31170D01*
X219705Y31173D01*
X219720Y31171D01*
X219852Y31208D01*
X219859Y31209D01*
X219859Y31210D01*
X219860Y31210D01*
X219980Y31270D01*
X220590Y31270D01*
X220605Y31273D01*
X220620Y31271D01*
X220752Y31308D01*
X220759Y31309D01*
X220759Y31310D01*
X220760Y31310D01*
X220819Y31339D01*
X220970Y31289D01*
X221007Y31286D01*
X221090Y31270D01*
X221528Y31270D01*
X221770Y31189D01*
X221807Y31186D01*
X221890Y31170D01*
X222000Y31170D01*
X222265Y31038D01*
X222778Y30525D01*
X222910Y30260D01*
X222910Y30050D01*
X222913Y30035D01*
X222911Y30020D01*
X222948Y29888D01*
X222949Y29881D01*
X222950Y29881D01*
X222950Y29880D01*
X223010Y29760D01*
X223010Y29550D01*
X223021Y29500D01*
X223023Y29449D01*
X223041Y29417D01*
X223049Y29381D01*
X223082Y29342D01*
X223106Y29297D01*
X223136Y29276D01*
X223159Y29248D01*
X223206Y29227D01*
X223248Y29197D01*
X223290Y29189D01*
X223318Y29177D01*
X223348Y29178D01*
X223390Y29170D01*
X227290Y29170D01*
X227365Y29187D01*
X227442Y29201D01*
X227449Y29207D01*
X227459Y29209D01*
X227519Y29259D01*
X227581Y29305D01*
X227585Y29313D01*
X227592Y29319D01*
X227624Y29390D01*
X227659Y29459D01*
X227660Y29470D01*
X227663Y29478D01*
X227662Y29513D01*
X227666Y29604D01*
X227566Y30304D01*
X227563Y30313D01*
X227563Y30325D01*
X227463Y30825D01*
X227455Y30842D01*
X227454Y30858D01*
X227452Y30863D01*
X227451Y30870D01*
X227251Y31470D01*
X227233Y31499D01*
X227216Y31546D01*
X226916Y32046D01*
X226904Y32058D01*
X226894Y32078D01*
X226594Y32478D01*
X226576Y32493D01*
X226559Y32519D01*
X226159Y32919D01*
X226139Y32931D01*
X226118Y32954D01*
X225318Y33554D01*
X225302Y33561D01*
X225286Y33576D01*
X224786Y33876D01*
X224761Y33884D01*
X224731Y33903D01*
X223731Y34303D01*
X223698Y34308D01*
X223653Y34325D01*
X221853Y34625D01*
X221826Y34623D01*
X221790Y34630D01*
X219590Y34630D01*
X219564Y34624D01*
X219528Y34625D01*
X218959Y34530D01*
X218490Y34530D01*
X218460Y34523D01*
X218415Y34523D01*
X217915Y34423D01*
X217897Y34414D01*
X217870Y34411D01*
X217284Y34215D01*
X216898Y34119D01*
X216878Y34109D01*
X216849Y34103D01*
X216349Y33903D01*
X216337Y33895D01*
X216320Y33890D01*
X216060Y33760D01*
X215920Y33690D01*
X215898Y33672D01*
X215862Y33654D01*
X215462Y33354D01*
X215447Y33336D01*
X215421Y33319D01*
X214721Y32619D01*
X214719Y32615D01*
X214715Y32613D01*
X214637Y32491D01*
X214443Y32006D01*
X214250Y31620D01*
X214241Y31582D01*
X214215Y31513D01*
X214015Y30313D01*
X214017Y30286D01*
X214010Y30250D01*
X214010Y21340D01*
X213950Y21220D01*
X213946Y21205D01*
X213937Y21192D01*
X213911Y21058D01*
X213910Y21052D01*
X213910Y21051D01*
X213910Y21050D01*
X213910Y20740D01*
X213850Y20620D01*
X213846Y20605D01*
X213837Y20592D01*
X213811Y20458D01*
X213810Y20452D01*
X213810Y20451D01*
X213810Y20450D01*
X213810Y20440D01*
X213750Y20320D01*
X213746Y20305D01*
X213737Y20292D01*
X213711Y20158D01*
X213710Y20152D01*
X213710Y20151D01*
X213710Y20150D01*
X213710Y20140D01*
X213650Y20020D01*
X213646Y20005D01*
X213637Y19992D01*
X213611Y19858D01*
X213610Y19852D01*
X213610Y19851D01*
X213610Y19850D01*
X213610Y19750D01*
X213621Y19700D01*
X213623Y19649D01*
X213641Y19617D01*
X213649Y19581D01*
X213682Y19542D01*
X213706Y19497D01*
X213736Y19476D01*
X213759Y19448D01*
X213806Y19427D01*
X213848Y19397D01*
X213890Y19389D01*
X213918Y19377D01*
X213948Y19378D01*
X213990Y19370D01*
X217890Y19370D01*
X217940Y19381D01*
X217991Y19383D01*
X218023Y19401D01*
X218059Y19409D01*
X218098Y19442D01*
X218143Y19466D01*
X218164Y19496D01*
X218192Y19519D01*
X218213Y19566D01*
X218243Y19608D01*
X218251Y19650D01*
X218263Y19678D01*
X218262Y19708D01*
X218270Y19750D01*
X218270Y19799D01*
X218299Y19846D01*
X218343Y19908D01*
X218345Y19920D01*
X218350Y19928D01*
X218354Y19965D01*
X218356Y19979D01*
X218359Y19981D01*
X218399Y20046D01*
X218443Y20108D01*
X218445Y20120D01*
X218450Y20128D01*
X218454Y20165D01*
X218470Y20250D01*
X218470Y20273D01*
X218679Y20134D01*
X218715Y20120D01*
X218770Y20089D01*
X219022Y20005D01*
X219279Y19834D01*
X219299Y19826D01*
X219320Y19810D01*
X219499Y19721D01*
X219779Y19534D01*
X219815Y19520D01*
X219870Y19489D01*
X220170Y19389D01*
X220183Y19388D01*
X220198Y19381D01*
X220584Y19285D01*
X220870Y19189D01*
X220907Y19186D01*
X220990Y19170D01*
X221228Y19170D01*
X221470Y19089D01*
X221507Y19086D01*
X221590Y19070D01*
X222228Y19070D01*
X222470Y18989D01*
X222507Y18986D01*
X222590Y18970D01*
X223390Y18970D01*
X223420Y18977D01*
G37*
G36*
X192424Y19378D02*
X192424Y19378D01*
X192458Y19376D01*
X192507Y19397D01*
X192559Y19409D01*
X192585Y19431D01*
X192617Y19445D01*
X192662Y19495D01*
X192692Y19519D01*
X192700Y19536D01*
X192715Y19552D01*
X196363Y25539D01*
X197410Y24493D01*
X197410Y19750D01*
X197421Y19700D01*
X197423Y19649D01*
X197441Y19617D01*
X197449Y19581D01*
X197482Y19542D01*
X197506Y19497D01*
X197536Y19476D01*
X197559Y19448D01*
X197606Y19427D01*
X197648Y19397D01*
X197690Y19389D01*
X197718Y19377D01*
X197748Y19378D01*
X197790Y19370D01*
X201590Y19370D01*
X201640Y19381D01*
X201691Y19383D01*
X201723Y19401D01*
X201759Y19409D01*
X201798Y19442D01*
X201843Y19466D01*
X201864Y19496D01*
X201892Y19519D01*
X201913Y19566D01*
X201943Y19608D01*
X201951Y19650D01*
X201963Y19678D01*
X201962Y19708D01*
X201970Y19750D01*
X201970Y37150D01*
X201961Y37188D01*
X201962Y37227D01*
X201942Y37271D01*
X201931Y37319D01*
X201906Y37349D01*
X201890Y37384D01*
X201844Y37423D01*
X201821Y37452D01*
X201801Y37461D01*
X201781Y37479D01*
X197981Y39679D01*
X197920Y39697D01*
X197862Y39723D01*
X197838Y39722D01*
X197815Y39729D01*
X197753Y39719D01*
X197689Y39717D01*
X197668Y39705D01*
X197644Y39701D01*
X197593Y39664D01*
X197537Y39634D01*
X197523Y39614D01*
X197503Y39600D01*
X197474Y39544D01*
X197437Y39492D01*
X197432Y39465D01*
X197422Y39447D01*
X197421Y39409D01*
X197410Y39350D01*
X197410Y29795D01*
X193164Y34213D01*
X193097Y34257D01*
X193032Y34303D01*
X193024Y34304D01*
X193019Y34308D01*
X192986Y34312D01*
X192890Y34330D01*
X188290Y34330D01*
X188263Y34324D01*
X188236Y34326D01*
X188180Y34304D01*
X188121Y34291D01*
X188100Y34273D01*
X188074Y34263D01*
X188034Y34219D01*
X187988Y34181D01*
X187976Y34155D01*
X187958Y34135D01*
X187941Y34077D01*
X187917Y34022D01*
X187918Y33995D01*
X187910Y33968D01*
X187921Y33909D01*
X187923Y33849D01*
X187937Y33825D01*
X187942Y33798D01*
X187988Y33731D01*
X188006Y33697D01*
X188016Y33690D01*
X188024Y33679D01*
X193101Y28697D01*
X187372Y19958D01*
X187347Y19889D01*
X187317Y19822D01*
X187317Y19809D01*
X187313Y19796D01*
X187321Y19723D01*
X187323Y19649D01*
X187330Y19637D01*
X187331Y19624D01*
X187371Y19562D01*
X187406Y19497D01*
X187417Y19489D01*
X187425Y19478D01*
X187488Y19440D01*
X187548Y19397D01*
X187563Y19394D01*
X187573Y19388D01*
X187612Y19385D01*
X187690Y19370D01*
X192390Y19370D01*
X192424Y19378D01*
G37*
G36*
X130206Y254547D02*
X130206Y254547D01*
X130212Y254542D01*
X131412Y254842D01*
X131432Y254867D01*
X131445Y254870D01*
X131845Y255770D01*
X131842Y255782D01*
X131849Y255786D01*
X131949Y256986D01*
X131947Y256989D01*
X131949Y256990D01*
X131949Y260486D01*
X132146Y261765D01*
X132917Y262439D01*
X134071Y262343D01*
X134551Y261576D01*
X134551Y256690D01*
X134555Y256685D01*
X134552Y256681D01*
X134752Y255581D01*
X134763Y255570D01*
X134761Y255560D01*
X135361Y254760D01*
X135386Y254753D01*
X135393Y254741D01*
X136693Y254541D01*
X136702Y254547D01*
X136708Y254541D01*
X138008Y254741D01*
X138026Y254760D01*
X138039Y254760D01*
X138639Y255560D01*
X138639Y255580D01*
X138649Y255586D01*
X138749Y256786D01*
X138747Y256789D01*
X138749Y256790D01*
X138749Y260288D01*
X138848Y261668D01*
X139522Y262343D01*
X140582Y262439D01*
X141254Y261767D01*
X141451Y260486D01*
X141451Y255790D01*
X141461Y255776D01*
X141457Y255766D01*
X141957Y254866D01*
X141983Y254854D01*
X141989Y254842D01*
X143289Y254542D01*
X143301Y254547D01*
X143307Y254541D01*
X144707Y254741D01*
X144722Y254757D01*
X144735Y254755D01*
X145435Y255455D01*
X145439Y255482D01*
X145449Y255490D01*
X145449Y264990D01*
X145445Y264996D01*
X145448Y265000D01*
X145248Y266000D01*
X145226Y266020D01*
X145224Y266033D01*
X144324Y266533D01*
X144307Y266531D01*
X144300Y266539D01*
X142800Y266539D01*
X142788Y266530D01*
X142780Y266535D01*
X141880Y266135D01*
X141867Y266111D01*
X141854Y266107D01*
X141482Y265084D01*
X140637Y266023D01*
X140624Y266025D01*
X140622Y266034D01*
X139622Y266534D01*
X139606Y266531D01*
X139600Y266539D01*
X138500Y266539D01*
X138495Y266536D01*
X138492Y266539D01*
X137292Y266339D01*
X137282Y266328D01*
X137273Y266331D01*
X136373Y265731D01*
X136370Y265722D01*
X136363Y265723D01*
X135593Y264857D01*
X134830Y265429D01*
X133930Y266129D01*
X133919Y266129D01*
X133917Y266136D01*
X132817Y266536D01*
X132805Y266533D01*
X132800Y266539D01*
X131600Y266539D01*
X131592Y266533D01*
X131587Y266538D01*
X130487Y266238D01*
X130481Y266230D01*
X130475Y266232D01*
X129475Y265632D01*
X129471Y265622D01*
X129463Y265622D01*
X128763Y264822D01*
X128762Y264812D01*
X128755Y264810D01*
X128355Y263910D01*
X128356Y263905D01*
X128353Y263903D01*
X128315Y263764D01*
X128301Y263715D01*
X128288Y263665D01*
X128234Y263468D01*
X128221Y263419D01*
X128167Y263222D01*
X128153Y263173D01*
X128140Y263124D01*
X128086Y262927D01*
X128073Y262877D01*
X128053Y262803D01*
X128054Y262799D01*
X128051Y262798D01*
X127851Y261498D01*
X127854Y261492D01*
X127851Y261490D01*
X127851Y256490D01*
X127855Y256485D01*
X127852Y256481D01*
X128052Y255381D01*
X128067Y255367D01*
X128065Y255355D01*
X128765Y254655D01*
X128789Y254652D01*
X128797Y254641D01*
X130197Y254541D01*
X130206Y254547D01*
G37*
G36*
X152940Y19381D02*
X152940Y19381D01*
X152991Y19383D01*
X153023Y19401D01*
X153059Y19409D01*
X153098Y19442D01*
X153143Y19466D01*
X153164Y19496D01*
X153192Y19519D01*
X153213Y19566D01*
X153243Y19608D01*
X153251Y19650D01*
X153263Y19678D01*
X153262Y19708D01*
X153270Y19750D01*
X153270Y28523D01*
X153362Y29162D01*
X153538Y29690D01*
X153806Y30138D01*
X154062Y30478D01*
X154344Y30690D01*
X155394Y30865D01*
X156660Y30684D01*
X157036Y30459D01*
X157377Y30032D01*
X157638Y29597D01*
X157821Y28956D01*
X158010Y28108D01*
X158010Y19750D01*
X158021Y19700D01*
X158023Y19649D01*
X158041Y19617D01*
X158049Y19581D01*
X158082Y19542D01*
X158106Y19497D01*
X158136Y19476D01*
X158159Y19448D01*
X158206Y19427D01*
X158248Y19397D01*
X158290Y19389D01*
X158318Y19377D01*
X158348Y19378D01*
X158390Y19370D01*
X162290Y19370D01*
X162340Y19381D01*
X162391Y19383D01*
X162423Y19401D01*
X162459Y19409D01*
X162498Y19442D01*
X162543Y19466D01*
X162564Y19496D01*
X162592Y19519D01*
X162613Y19566D01*
X162643Y19608D01*
X162651Y19650D01*
X162663Y19678D01*
X162662Y19708D01*
X162670Y19750D01*
X162670Y32150D01*
X162668Y32159D01*
X162670Y32171D01*
X162570Y33971D01*
X162558Y34010D01*
X162557Y34051D01*
X162534Y34092D01*
X162521Y34137D01*
X162493Y34167D01*
X162474Y34203D01*
X162435Y34230D01*
X162403Y34265D01*
X162365Y34279D01*
X162332Y34303D01*
X162276Y34314D01*
X162242Y34327D01*
X162219Y34325D01*
X162190Y34330D01*
X158590Y34330D01*
X158540Y34319D01*
X158489Y34317D01*
X158457Y34299D01*
X158421Y34291D01*
X158382Y34258D01*
X158337Y34234D01*
X158316Y34204D01*
X158288Y34181D01*
X158267Y34134D01*
X158237Y34092D01*
X158229Y34050D01*
X158217Y34022D01*
X158218Y33992D01*
X158210Y33950D01*
X158210Y33009D01*
X157987Y33288D01*
X157964Y33305D01*
X157961Y33312D01*
X157945Y33323D01*
X157901Y33366D01*
X157301Y33766D01*
X157293Y33769D01*
X157286Y33776D01*
X156786Y34076D01*
X156753Y34086D01*
X156710Y34111D01*
X155510Y34511D01*
X155485Y34513D01*
X155453Y34525D01*
X154253Y34725D01*
X154214Y34723D01*
X154136Y34726D01*
X152736Y34526D01*
X152720Y34520D01*
X152698Y34519D01*
X151498Y34219D01*
X151464Y34202D01*
X151405Y34182D01*
X150505Y33682D01*
X150477Y33656D01*
X150421Y33619D01*
X149821Y33019D01*
X149801Y32986D01*
X149758Y32935D01*
X149258Y32035D01*
X149252Y32014D01*
X149237Y31991D01*
X148837Y30991D01*
X148831Y30953D01*
X148811Y30884D01*
X148711Y29784D01*
X148712Y29782D01*
X148711Y29779D01*
X148611Y28479D01*
X148613Y28466D01*
X148610Y28450D01*
X148610Y19750D01*
X148621Y19700D01*
X148623Y19649D01*
X148641Y19617D01*
X148649Y19581D01*
X148682Y19542D01*
X148706Y19497D01*
X148736Y19476D01*
X148759Y19448D01*
X148806Y19427D01*
X148848Y19397D01*
X148890Y19389D01*
X148918Y19377D01*
X148948Y19378D01*
X148990Y19370D01*
X152890Y19370D01*
X152940Y19381D01*
G37*
G36*
X173944Y19174D02*
X173944Y19174D01*
X173963Y19181D01*
X173990Y19183D01*
X175090Y19483D01*
X175122Y19500D01*
X175175Y19518D01*
X176075Y20018D01*
X176098Y20039D01*
X176137Y20061D01*
X176837Y20661D01*
X176854Y20684D01*
X176922Y20765D01*
X177422Y21665D01*
X177432Y21698D01*
X177454Y21741D01*
X177754Y22741D01*
X177755Y22760D01*
X177764Y22782D01*
X177964Y23882D01*
X177963Y23911D01*
X177970Y23950D01*
X177970Y33950D01*
X177959Y34000D01*
X177957Y34051D01*
X177939Y34083D01*
X177931Y34119D01*
X177898Y34158D01*
X177874Y34203D01*
X177844Y34224D01*
X177821Y34252D01*
X177774Y34273D01*
X177732Y34303D01*
X177690Y34311D01*
X177662Y34323D01*
X177632Y34322D01*
X177590Y34330D01*
X173690Y34330D01*
X173640Y34319D01*
X173589Y34317D01*
X173557Y34299D01*
X173521Y34291D01*
X173482Y34258D01*
X173437Y34234D01*
X173416Y34204D01*
X173388Y34181D01*
X173367Y34134D01*
X173337Y34092D01*
X173329Y34050D01*
X173317Y34022D01*
X173318Y33992D01*
X173310Y33950D01*
X173310Y25177D01*
X173218Y24538D01*
X173033Y23981D01*
X172866Y23564D01*
X172540Y23238D01*
X172231Y23006D01*
X171826Y22925D01*
X171190Y22834D01*
X170547Y22926D01*
X170024Y23013D01*
X169626Y23252D01*
X169192Y23686D01*
X168942Y24103D01*
X168764Y24724D01*
X168668Y25590D01*
X168570Y26569D01*
X168570Y33950D01*
X168559Y34000D01*
X168557Y34051D01*
X168539Y34083D01*
X168531Y34119D01*
X168498Y34158D01*
X168474Y34203D01*
X168444Y34224D01*
X168421Y34252D01*
X168374Y34273D01*
X168332Y34303D01*
X168290Y34311D01*
X168262Y34323D01*
X168232Y34322D01*
X168190Y34330D01*
X164390Y34330D01*
X164340Y34319D01*
X164289Y34317D01*
X164257Y34299D01*
X164221Y34291D01*
X164182Y34258D01*
X164137Y34234D01*
X164116Y34204D01*
X164088Y34181D01*
X164067Y34134D01*
X164037Y34092D01*
X164029Y34050D01*
X164017Y34022D01*
X164018Y33992D01*
X164010Y33950D01*
X164010Y19750D01*
X164021Y19700D01*
X164023Y19649D01*
X164041Y19617D01*
X164049Y19581D01*
X164082Y19542D01*
X164106Y19497D01*
X164136Y19476D01*
X164159Y19448D01*
X164206Y19427D01*
X164248Y19397D01*
X164290Y19389D01*
X164318Y19377D01*
X164348Y19378D01*
X164390Y19370D01*
X168090Y19370D01*
X168140Y19381D01*
X168191Y19383D01*
X168223Y19401D01*
X168259Y19409D01*
X168298Y19442D01*
X168343Y19466D01*
X168364Y19496D01*
X168392Y19519D01*
X168413Y19566D01*
X168443Y19608D01*
X168451Y19650D01*
X168463Y19678D01*
X168462Y19708D01*
X168470Y19750D01*
X168470Y20679D01*
X168736Y20466D01*
X169221Y19981D01*
X169252Y19962D01*
X169294Y19924D01*
X169794Y19624D01*
X169827Y19614D01*
X169870Y19589D01*
X171070Y19189D01*
X171095Y19187D01*
X171128Y19175D01*
X171728Y19075D01*
X171732Y19075D01*
X171736Y19074D01*
X172436Y18974D01*
X172475Y18977D01*
X172544Y18974D01*
X173944Y19174D01*
G37*
G36*
X252516Y19076D02*
X252516Y19076D01*
X252553Y19075D01*
X253753Y19275D01*
X253780Y19286D01*
X253820Y19293D01*
X254920Y19693D01*
X254936Y19703D01*
X254960Y19710D01*
X255280Y19870D01*
X255960Y20210D01*
X255982Y20228D01*
X256018Y20246D01*
X256818Y20846D01*
X256843Y20875D01*
X256890Y20917D01*
X257590Y21817D01*
X257606Y21852D01*
X257647Y21920D01*
X258047Y23020D01*
X258051Y23049D01*
X258065Y23088D01*
X258265Y24288D01*
X258260Y24369D01*
X258257Y24451D01*
X258254Y24455D01*
X258254Y24460D01*
X258213Y24531D01*
X258174Y24603D01*
X258170Y24606D01*
X258167Y24610D01*
X258099Y24656D01*
X258032Y24703D01*
X258027Y24704D01*
X258023Y24706D01*
X257995Y24710D01*
X257890Y24730D01*
X254190Y24730D01*
X254171Y24726D01*
X254151Y24728D01*
X254087Y24706D01*
X254021Y24691D01*
X254006Y24678D01*
X253987Y24672D01*
X253940Y24624D01*
X253888Y24581D01*
X253879Y24562D01*
X253866Y24548D01*
X253828Y24448D01*
X253817Y24422D01*
X253817Y24418D01*
X253815Y24413D01*
X253724Y23869D01*
X253550Y23520D01*
X253547Y23506D01*
X253537Y23491D01*
X253377Y23090D01*
X253102Y22884D01*
X252181Y22516D01*
X251721Y22424D01*
X251206Y22338D01*
X250882Y22419D01*
X250846Y22419D01*
X250790Y22430D01*
X250463Y22430D01*
X250031Y22603D01*
X250009Y22606D01*
X249982Y22619D01*
X249684Y22693D01*
X249203Y23175D01*
X249070Y23440D01*
X249070Y23803D01*
X249143Y24094D01*
X249286Y24308D01*
X249526Y24548D01*
X249943Y24798D01*
X251284Y25181D01*
X252168Y25378D01*
X253165Y25577D01*
X253189Y25588D01*
X253224Y25594D01*
X254003Y25886D01*
X254782Y26081D01*
X254799Y26090D01*
X254824Y26094D01*
X255624Y26394D01*
X255645Y26409D01*
X255679Y26420D01*
X256379Y26820D01*
X256407Y26846D01*
X256459Y26881D01*
X257459Y27881D01*
X257463Y27888D01*
X257470Y27893D01*
X257546Y28017D01*
X257846Y28817D01*
X257851Y28852D01*
X257853Y28859D01*
X257864Y28884D01*
X257864Y28892D01*
X257867Y28903D01*
X257967Y29703D01*
X257963Y29741D01*
X257966Y29808D01*
X257766Y31108D01*
X257753Y31140D01*
X257743Y31191D01*
X257343Y32191D01*
X257322Y32221D01*
X257279Y32297D01*
X256679Y32997D01*
X256664Y33008D01*
X256662Y33012D01*
X256647Y33023D01*
X256618Y33054D01*
X255818Y33654D01*
X255797Y33663D01*
X255775Y33682D01*
X254875Y34182D01*
X254842Y34192D01*
X254799Y34214D01*
X253799Y34514D01*
X253768Y34516D01*
X253724Y34529D01*
X252624Y34629D01*
X252623Y34629D01*
X252622Y34629D01*
X251422Y34729D01*
X251394Y34725D01*
X251356Y34729D01*
X249156Y34529D01*
X249125Y34519D01*
X249081Y34514D01*
X248081Y34214D01*
X248052Y34198D01*
X248005Y34182D01*
X247105Y33682D01*
X247089Y33667D01*
X247062Y33654D01*
X246262Y33054D01*
X246241Y33029D01*
X246204Y33000D01*
X245504Y32200D01*
X245488Y32170D01*
X245437Y32091D01*
X245037Y31091D01*
X245032Y31060D01*
X245016Y31018D01*
X244816Y29918D01*
X244820Y29833D01*
X244823Y29749D01*
X244824Y29747D01*
X244825Y29745D01*
X244866Y29670D01*
X244906Y29597D01*
X244908Y29596D01*
X244909Y29594D01*
X244981Y29545D01*
X245048Y29497D01*
X245050Y29497D01*
X245052Y29496D01*
X245069Y29493D01*
X245190Y29470D01*
X248890Y29470D01*
X248903Y29473D01*
X248917Y29471D01*
X248987Y29492D01*
X249059Y29509D01*
X249069Y29518D01*
X249082Y29522D01*
X249136Y29573D01*
X249192Y29619D01*
X249198Y29632D01*
X249208Y29641D01*
X249263Y29775D01*
X249361Y30267D01*
X249433Y30556D01*
X249915Y31038D01*
X250223Y31191D01*
X250573Y31279D01*
X251028Y31370D01*
X251828Y31370D01*
X252070Y31289D01*
X252107Y31286D01*
X252190Y31270D01*
X252528Y31270D01*
X252722Y31205D01*
X253171Y30906D01*
X253225Y30744D01*
X253300Y30441D01*
X253234Y30109D01*
X253018Y29822D01*
X252711Y29591D01*
X252177Y29413D01*
X250814Y29024D01*
X250043Y28927D01*
X250024Y28920D01*
X249998Y28919D01*
X249202Y28720D01*
X248308Y28521D01*
X248287Y28511D01*
X248257Y28506D01*
X247457Y28206D01*
X247450Y28202D01*
X247440Y28200D01*
X246740Y27900D01*
X246725Y27888D01*
X246701Y27880D01*
X246001Y27480D01*
X245981Y27461D01*
X245947Y27442D01*
X245347Y26942D01*
X245323Y26911D01*
X245318Y26906D01*
X245317Y26905D01*
X245274Y26861D01*
X244874Y26261D01*
X244861Y26228D01*
X244834Y26184D01*
X244534Y25384D01*
X244529Y25347D01*
X244512Y25292D01*
X244412Y24392D01*
X244416Y24362D01*
X244411Y24321D01*
X244511Y23021D01*
X244511Y23020D01*
X244550Y22880D01*
X245050Y21880D01*
X245063Y21864D01*
X245074Y21839D01*
X245674Y20939D01*
X245699Y20915D01*
X245762Y20846D01*
X246562Y20246D01*
X246588Y20234D01*
X246620Y20210D01*
X247620Y19710D01*
X247639Y19705D01*
X247660Y19693D01*
X248760Y19293D01*
X248789Y19289D01*
X248828Y19275D01*
X250028Y19075D01*
X250054Y19077D01*
X250090Y19070D01*
X252490Y19070D01*
X252516Y19076D01*
G37*
G36*
X251814Y254843D02*
X251814Y254843D01*
X251820Y254851D01*
X251827Y254849D01*
X253027Y255649D01*
X253034Y255667D01*
X253045Y255670D01*
X253445Y256570D01*
X253439Y256595D01*
X253440Y256596D01*
X253440Y256597D01*
X253446Y256607D01*
X253046Y257707D01*
X253043Y257709D01*
X253044Y257711D01*
X247344Y269611D01*
X247341Y269613D01*
X247342Y269615D01*
X246742Y270615D01*
X246732Y270619D01*
X246733Y270627D01*
X245833Y271427D01*
X245811Y271429D01*
X245804Y271439D01*
X244704Y271539D01*
X244693Y271532D01*
X244686Y271532D01*
X244684Y271531D01*
X244678Y271534D01*
X243678Y271034D01*
X243672Y271021D01*
X243662Y271022D01*
X243162Y270422D01*
X243162Y270414D01*
X243160Y270413D01*
X243161Y270412D01*
X243156Y270411D01*
X237456Y258513D01*
X236857Y257414D01*
X236857Y257411D01*
X236857Y257409D01*
X236858Y257403D01*
X236852Y257400D01*
X236652Y256400D01*
X236663Y256375D01*
X236659Y256363D01*
X237259Y255463D01*
X237274Y255458D01*
X237275Y255447D01*
X238475Y254747D01*
X238490Y254749D01*
X238496Y254741D01*
X239596Y254641D01*
X239619Y254656D01*
X239632Y254653D01*
X240432Y255353D01*
X240435Y255365D01*
X240443Y255366D01*
X241043Y256466D01*
X241043Y256469D01*
X241045Y256470D01*
X241542Y257563D01*
X242222Y258341D01*
X248168Y258341D01*
X248655Y257270D01*
X248656Y257269D01*
X248656Y257268D01*
X249156Y256268D01*
X249157Y256267D01*
X249157Y256266D01*
X249757Y255166D01*
X249773Y255159D01*
X249775Y255148D01*
X250775Y254548D01*
X250803Y254551D01*
X250814Y254543D01*
X251814Y254843D01*
G37*
G36*
X208430Y227860D02*
X208430Y227860D01*
X208438Y227854D01*
X209438Y228254D01*
X209453Y228278D01*
X209466Y228282D01*
X209866Y229282D01*
X209862Y229295D01*
X209869Y229300D01*
X209869Y244000D01*
X209857Y244016D01*
X209861Y244027D01*
X209261Y244927D01*
X209234Y244937D01*
X209228Y244949D01*
X207928Y245149D01*
X207918Y245143D01*
X207912Y245149D01*
X206712Y244949D01*
X206697Y244933D01*
X206685Y244935D01*
X206010Y244260D01*
X205442Y244544D01*
X205441Y244544D01*
X205440Y244545D01*
X204340Y245045D01*
X204329Y245042D01*
X204324Y245049D01*
X203124Y245149D01*
X203116Y245144D01*
X203111Y245148D01*
X202011Y244948D01*
X202004Y244941D01*
X201998Y244944D01*
X200998Y244444D01*
X200995Y244437D01*
X200989Y244438D01*
X199989Y243638D01*
X199988Y243632D01*
X199983Y243633D01*
X199183Y242733D01*
X199183Y242724D01*
X199177Y242724D01*
X198577Y241624D01*
X198577Y241619D01*
X198574Y241618D01*
X198174Y240618D01*
X198177Y240608D01*
X198171Y240604D01*
X198071Y239404D01*
X198073Y239401D01*
X198071Y239400D01*
X198071Y238200D01*
X198078Y238190D01*
X198074Y238183D01*
X198474Y237083D01*
X198477Y237081D01*
X198476Y237078D01*
X198976Y236078D01*
X198984Y236074D01*
X198983Y236067D01*
X199783Y235167D01*
X199787Y235166D01*
X199787Y235163D01*
X200787Y234263D01*
X200797Y234263D01*
X200798Y234256D01*
X201798Y233756D01*
X201804Y233757D01*
X201806Y233753D01*
X202806Y233453D01*
X202816Y233456D01*
X202820Y233451D01*
X204120Y233451D01*
X204130Y233458D01*
X204137Y233454D01*
X205237Y233854D01*
X205242Y233862D01*
X205249Y233860D01*
X205871Y234304D01*
X205871Y229700D01*
X205877Y229692D01*
X205873Y229687D01*
X206173Y228587D01*
X206192Y228572D01*
X206193Y228559D01*
X207093Y227959D01*
X207110Y227960D01*
X207116Y227951D01*
X208416Y227851D01*
X208430Y227860D01*
G37*
G36*
X221410Y249450D02*
X221410Y249450D01*
X221418Y249444D01*
X222418Y249844D01*
X222433Y249868D01*
X222446Y249872D01*
X222846Y250872D01*
X222842Y250885D01*
X222849Y250890D01*
X222849Y265590D01*
X222839Y265604D01*
X222843Y265614D01*
X222343Y266514D01*
X222314Y266527D01*
X222307Y266539D01*
X220907Y266739D01*
X220897Y266733D01*
X220892Y266739D01*
X219692Y266539D01*
X219676Y266521D01*
X219663Y266522D01*
X219086Y265850D01*
X218421Y266135D01*
X217422Y266634D01*
X217409Y266632D01*
X217404Y266639D01*
X216104Y266739D01*
X216095Y266734D01*
X216090Y266738D01*
X215090Y266538D01*
X215085Y266532D01*
X215080Y266535D01*
X213980Y266035D01*
X213975Y266027D01*
X213969Y266028D01*
X212969Y265228D01*
X212968Y265222D01*
X212963Y265223D01*
X212163Y264323D01*
X212163Y264314D01*
X212157Y264314D01*
X211557Y263214D01*
X211557Y263209D01*
X211554Y263208D01*
X211154Y262208D01*
X211157Y262198D01*
X211151Y262194D01*
X211051Y260994D01*
X211054Y260989D01*
X211051Y260986D01*
X211151Y259786D01*
X211155Y259781D01*
X211153Y259777D01*
X211453Y258677D01*
X211458Y258673D01*
X211456Y258668D01*
X211956Y257668D01*
X211964Y257664D01*
X211963Y257657D01*
X212763Y256757D01*
X212767Y256756D01*
X212767Y256753D01*
X213767Y255853D01*
X213777Y255853D01*
X213778Y255846D01*
X214778Y255346D01*
X214785Y255347D01*
X214787Y255343D01*
X215887Y255043D01*
X215896Y255046D01*
X215900Y255041D01*
X217100Y255041D01*
X217110Y255048D01*
X217117Y255044D01*
X218217Y255444D01*
X218222Y255452D01*
X218229Y255450D01*
X218851Y255894D01*
X218851Y251290D01*
X218857Y251282D01*
X218853Y251277D01*
X219153Y250177D01*
X219172Y250162D01*
X219173Y250149D01*
X220073Y249549D01*
X220090Y249550D01*
X220096Y249541D01*
X221396Y249441D01*
X221410Y249450D01*
G37*
G36*
X304708Y254741D02*
X304708Y254741D01*
X304723Y254757D01*
X304735Y254755D01*
X305535Y255555D01*
X305537Y255569D01*
X305546Y255571D01*
X308645Y263171D01*
X309145Y264371D01*
X309144Y264375D01*
X309148Y264377D01*
X309144Y264382D01*
X309149Y264385D01*
X309249Y265385D01*
X309235Y265407D01*
X309239Y265420D01*
X308539Y266320D01*
X308521Y266325D01*
X308518Y266336D01*
X307218Y266836D01*
X307202Y266832D01*
X307196Y266839D01*
X306096Y266739D01*
X306075Y266720D01*
X306061Y266720D01*
X305361Y265820D01*
X305361Y265810D01*
X305354Y265807D01*
X304255Y262911D01*
X303709Y261909D01*
X302546Y265107D01*
X302543Y265109D01*
X302544Y265112D01*
X302044Y266112D01*
X302025Y266121D01*
X302024Y266133D01*
X300924Y266733D01*
X300901Y266730D01*
X300891Y266738D01*
X299791Y266538D01*
X299778Y266525D01*
X299767Y266527D01*
X298867Y265727D01*
X298864Y265713D01*
X298855Y265711D01*
X298255Y264411D01*
X298256Y264408D01*
X298254Y264407D01*
X297358Y262017D01*
X297218Y261878D01*
X295946Y265108D01*
X295945Y265108D01*
X295945Y265109D01*
X295445Y266309D01*
X295426Y266320D01*
X295424Y266333D01*
X294524Y266833D01*
X294501Y266830D01*
X294491Y266838D01*
X293391Y266638D01*
X293382Y266628D01*
X293373Y266631D01*
X292173Y265831D01*
X292166Y265811D01*
X292154Y265807D01*
X291854Y265007D01*
X291857Y264996D01*
X291855Y264995D01*
X291859Y264990D01*
X291861Y264985D01*
X291853Y264974D01*
X292253Y263774D01*
X292255Y263773D01*
X292254Y263771D01*
X293154Y261571D01*
X295354Y256072D01*
X295361Y256067D01*
X295360Y256062D01*
X296060Y255062D01*
X296075Y255057D01*
X296076Y255047D01*
X296976Y254547D01*
X297002Y254551D01*
X297012Y254542D01*
X298212Y254842D01*
X298224Y254857D01*
X298235Y254855D01*
X299035Y255655D01*
X299037Y255670D01*
X299046Y255673D01*
X299346Y256472D01*
X300145Y258568D01*
X300683Y259466D01*
X300953Y258477D01*
X300955Y258475D01*
X300954Y258473D01*
X301454Y257073D01*
X301456Y257072D01*
X301455Y257070D01*
X301855Y256170D01*
X301859Y256168D01*
X301858Y256165D01*
X302458Y255165D01*
X302474Y255158D01*
X302475Y255148D01*
X303475Y254548D01*
X303499Y254550D01*
X303508Y254541D01*
X304708Y254741D01*
G37*
G36*
X182907Y254548D02*
X182907Y254548D01*
X182914Y254543D01*
X183914Y254843D01*
X183930Y254864D01*
X183943Y254866D01*
X184413Y255713D01*
X185168Y255053D01*
X185181Y255052D01*
X185183Y255044D01*
X186283Y254644D01*
X186292Y254647D01*
X186296Y254641D01*
X187496Y254541D01*
X187504Y254546D01*
X187509Y254542D01*
X188609Y254742D01*
X188617Y254751D01*
X188625Y254748D01*
X189625Y255348D01*
X189627Y255352D01*
X189631Y255352D01*
X190631Y256152D01*
X190633Y256159D01*
X190638Y256159D01*
X191438Y257159D01*
X191439Y257164D01*
X191442Y257165D01*
X192042Y258165D01*
X192042Y258170D01*
X192045Y258172D01*
X192042Y258175D01*
X192048Y258177D01*
X192060Y258221D01*
X192073Y258270D01*
X192127Y258467D01*
X192140Y258517D01*
X192154Y258566D01*
X192207Y258763D01*
X192221Y258812D01*
X192274Y259009D01*
X192288Y259058D01*
X192301Y259108D01*
X192348Y259277D01*
X192346Y259281D01*
X192349Y259282D01*
X192549Y260482D01*
X192546Y260486D01*
X192547Y260487D01*
X192545Y260489D01*
X192544Y260490D01*
X192549Y260494D01*
X192449Y261694D01*
X192445Y261699D01*
X192448Y261703D01*
X192148Y262803D01*
X192142Y262807D01*
X192144Y262812D01*
X191644Y263812D01*
X191637Y263815D01*
X191638Y263821D01*
X190838Y264821D01*
X190832Y264822D01*
X190833Y264827D01*
X189933Y265627D01*
X189926Y265627D01*
X189925Y265632D01*
X188925Y266232D01*
X188916Y266231D01*
X188913Y266238D01*
X187813Y266538D01*
X187804Y266534D01*
X187800Y266539D01*
X186600Y266539D01*
X186592Y266533D01*
X186587Y266538D01*
X185487Y266238D01*
X185479Y266227D01*
X185470Y266229D01*
X184570Y265529D01*
X184569Y265524D01*
X184565Y265525D01*
X184416Y265376D01*
X184045Y266210D01*
X184020Y266224D01*
X184016Y266237D01*
X182816Y266637D01*
X182802Y266632D01*
X182796Y266639D01*
X181496Y266539D01*
X181481Y266526D01*
X181470Y266529D01*
X180570Y265829D01*
X180563Y265805D01*
X180552Y265800D01*
X180352Y264800D01*
X180355Y264793D01*
X180351Y264790D01*
X180351Y256390D01*
X180355Y256385D01*
X180352Y256381D01*
X180552Y255281D01*
X180570Y255264D01*
X180570Y255251D01*
X181370Y254651D01*
X181390Y254651D01*
X181397Y254641D01*
X182897Y254541D01*
X182907Y254548D01*
G37*
G36*
X175628Y232958D02*
X175628Y232958D01*
X175636Y232953D01*
X176536Y233253D01*
X176550Y233274D01*
X176563Y233276D01*
X177033Y234123D01*
X177788Y233463D01*
X177801Y233462D01*
X177803Y233454D01*
X178903Y233054D01*
X178913Y233057D01*
X178916Y233051D01*
X180216Y232951D01*
X180224Y232956D01*
X180229Y232952D01*
X181329Y233152D01*
X181337Y233161D01*
X181345Y233158D01*
X182345Y233758D01*
X182347Y233762D01*
X182351Y233762D01*
X183351Y234562D01*
X183353Y234569D01*
X183358Y234569D01*
X184158Y235569D01*
X184159Y235577D01*
X184164Y235578D01*
X184664Y236578D01*
X184664Y236581D01*
X184665Y236582D01*
X184665Y236583D01*
X184666Y236583D01*
X185066Y237683D01*
X185063Y237692D01*
X185069Y237696D01*
X185169Y238896D01*
X185167Y238899D01*
X185169Y238900D01*
X185169Y240100D01*
X185163Y240108D01*
X185168Y240113D01*
X184868Y241213D01*
X184860Y241219D01*
X184862Y241225D01*
X184262Y242225D01*
X184260Y242226D01*
X184260Y242228D01*
X183560Y243228D01*
X183551Y243231D01*
X183551Y243238D01*
X182551Y244038D01*
X182546Y244039D01*
X182545Y244042D01*
X181545Y244642D01*
X181536Y244641D01*
X181533Y244648D01*
X180433Y244948D01*
X180424Y244944D01*
X180420Y244949D01*
X179320Y244949D01*
X179313Y244944D01*
X179308Y244948D01*
X178108Y244648D01*
X178099Y244636D01*
X178090Y244639D01*
X177190Y243939D01*
X177186Y243924D01*
X177176Y243922D01*
X177118Y243806D01*
X176663Y244624D01*
X176641Y244634D01*
X176637Y244646D01*
X175537Y245046D01*
X175523Y245042D01*
X175517Y245049D01*
X174117Y244949D01*
X174100Y244935D01*
X174088Y244937D01*
X173288Y244237D01*
X173283Y244215D01*
X173272Y244210D01*
X173072Y243210D01*
X173075Y243203D01*
X173071Y243200D01*
X173071Y234800D01*
X173075Y234795D01*
X173072Y234791D01*
X173272Y233691D01*
X173290Y233674D01*
X173290Y233661D01*
X174090Y233061D01*
X174110Y233061D01*
X174117Y233051D01*
X175617Y232951D01*
X175628Y232958D01*
G37*
G36*
X206603Y254641D02*
X206603Y254641D01*
X206618Y254654D01*
X206630Y254651D01*
X207430Y255251D01*
X207437Y255278D01*
X207449Y255286D01*
X207549Y256386D01*
X207547Y256388D01*
X207549Y256390D01*
X207549Y270790D01*
X207542Y270799D01*
X207547Y270806D01*
X207247Y271706D01*
X207221Y271723D01*
X207217Y271736D01*
X206117Y272136D01*
X206103Y272132D01*
X206097Y272139D01*
X204497Y272039D01*
X204480Y272025D01*
X204468Y272027D01*
X203768Y271427D01*
X203763Y271407D01*
X203757Y271401D01*
X203752Y271399D01*
X203552Y270299D01*
X203555Y270293D01*
X203551Y270290D01*
X203551Y265570D01*
X203023Y265833D01*
X202025Y266432D01*
X202013Y266431D01*
X202009Y266438D01*
X200909Y266638D01*
X200898Y266633D01*
X200892Y266639D01*
X199692Y266439D01*
X199687Y266434D01*
X199683Y266436D01*
X198583Y266036D01*
X198578Y266029D01*
X198573Y266031D01*
X197673Y265431D01*
X197670Y265422D01*
X197663Y265423D01*
X196863Y264523D01*
X196863Y264516D01*
X196858Y264515D01*
X196258Y263515D01*
X196259Y263508D01*
X196254Y263507D01*
X195854Y262407D01*
X195856Y262400D01*
X195851Y262398D01*
X195651Y261198D01*
X195654Y261193D01*
X195651Y261190D01*
X195651Y256290D01*
X195655Y256285D01*
X195652Y256281D01*
X195852Y255181D01*
X195873Y255162D01*
X195874Y255148D01*
X196674Y254648D01*
X196691Y254650D01*
X196697Y254641D01*
X198297Y254541D01*
X198312Y254551D01*
X198322Y254546D01*
X199322Y255046D01*
X199334Y255070D01*
X199347Y255074D01*
X199647Y255974D01*
X199643Y255985D01*
X199649Y255990D01*
X199649Y260881D01*
X200040Y261955D01*
X201010Y262440D01*
X202185Y262342D01*
X203160Y261757D01*
X203551Y260681D01*
X203551Y255890D01*
X203560Y255878D01*
X203555Y255870D01*
X203955Y254970D01*
X203979Y254957D01*
X203983Y254944D01*
X205083Y254544D01*
X205097Y254548D01*
X205103Y254541D01*
X206603Y254641D01*
G37*
G36*
X185340Y19381D02*
X185340Y19381D01*
X185391Y19383D01*
X185423Y19401D01*
X185459Y19409D01*
X185498Y19442D01*
X185543Y19466D01*
X185564Y19496D01*
X185592Y19519D01*
X185613Y19566D01*
X185643Y19608D01*
X185651Y19650D01*
X185663Y19678D01*
X185662Y19708D01*
X185670Y19750D01*
X185670Y30970D01*
X189090Y30970D01*
X189115Y30976D01*
X189141Y30973D01*
X189199Y30995D01*
X189259Y31009D01*
X189279Y31026D01*
X189303Y31035D01*
X189345Y31080D01*
X189392Y31119D01*
X189403Y31143D01*
X189420Y31162D01*
X189438Y31221D01*
X189463Y31278D01*
X189462Y31303D01*
X189470Y31328D01*
X189459Y31389D01*
X189457Y31451D01*
X189444Y31473D01*
X189440Y31499D01*
X189392Y31570D01*
X189374Y31603D01*
X189366Y31609D01*
X189359Y31619D01*
X188759Y32219D01*
X188739Y32231D01*
X188718Y32254D01*
X188362Y32522D01*
X188094Y32878D01*
X188076Y32893D01*
X188059Y32919D01*
X187459Y33519D01*
X187439Y33531D01*
X187418Y33554D01*
X187062Y33822D01*
X186794Y34178D01*
X186782Y34189D01*
X186774Y34203D01*
X186716Y34244D01*
X186661Y34289D01*
X186646Y34293D01*
X186632Y34303D01*
X186505Y34327D01*
X186493Y34330D01*
X186492Y34330D01*
X186490Y34330D01*
X185670Y34330D01*
X185670Y35050D01*
X185666Y35068D01*
X185668Y35092D01*
X185568Y35992D01*
X185560Y36013D01*
X185559Y36042D01*
X185359Y36842D01*
X185341Y36877D01*
X185320Y36939D01*
X184920Y37639D01*
X184901Y37659D01*
X184882Y37693D01*
X184382Y38293D01*
X184370Y38303D01*
X184359Y38319D01*
X183759Y38919D01*
X183752Y38923D01*
X183747Y38930D01*
X183624Y39006D01*
X182824Y39306D01*
X182812Y39308D01*
X182799Y39314D01*
X181799Y39614D01*
X181768Y39616D01*
X181724Y39629D01*
X180624Y39729D01*
X180609Y39727D01*
X180590Y39730D01*
X179790Y39730D01*
X179753Y39722D01*
X179670Y39711D01*
X179428Y39630D01*
X178490Y39630D01*
X178440Y39619D01*
X178389Y39617D01*
X178357Y39599D01*
X178321Y39591D01*
X178282Y39558D01*
X178237Y39534D01*
X178216Y39504D01*
X178188Y39481D01*
X178167Y39434D01*
X178137Y39392D01*
X178129Y39350D01*
X178117Y39322D01*
X178118Y39292D01*
X178110Y39250D01*
X178110Y36350D01*
X178121Y36300D01*
X178123Y36249D01*
X178141Y36217D01*
X178149Y36181D01*
X178182Y36142D01*
X178206Y36097D01*
X178236Y36076D01*
X178259Y36048D01*
X178306Y36027D01*
X178348Y35997D01*
X178390Y35989D01*
X178418Y35977D01*
X178448Y35978D01*
X178490Y35970D01*
X180228Y35970D01*
X180744Y35798D01*
X180779Y35780D01*
X180829Y35630D01*
X180842Y35610D01*
X180850Y35580D01*
X180931Y35417D01*
X181010Y35103D01*
X181010Y34330D01*
X178690Y34330D01*
X178640Y34319D01*
X178589Y34317D01*
X178557Y34299D01*
X178521Y34291D01*
X178482Y34258D01*
X178437Y34234D01*
X178416Y34204D01*
X178388Y34181D01*
X178367Y34134D01*
X178337Y34092D01*
X178329Y34050D01*
X178317Y34022D01*
X178318Y33992D01*
X178310Y33950D01*
X178310Y31350D01*
X178321Y31300D01*
X178323Y31249D01*
X178341Y31217D01*
X178349Y31181D01*
X178382Y31142D01*
X178406Y31097D01*
X178436Y31076D01*
X178459Y31048D01*
X178506Y31027D01*
X178548Y30997D01*
X178590Y30989D01*
X178618Y30977D01*
X178648Y30978D01*
X178690Y30970D01*
X181010Y30970D01*
X181010Y19750D01*
X181021Y19700D01*
X181023Y19649D01*
X181041Y19617D01*
X181049Y19581D01*
X181082Y19542D01*
X181106Y19497D01*
X181136Y19476D01*
X181159Y19448D01*
X181206Y19427D01*
X181248Y19397D01*
X181290Y19389D01*
X181318Y19377D01*
X181348Y19378D01*
X181390Y19370D01*
X185290Y19370D01*
X185340Y19381D01*
G37*
G36*
X117901Y254544D02*
X117901Y254544D01*
X117904Y254541D01*
X119304Y254641D01*
X119306Y254643D01*
X119308Y254641D01*
X120508Y254841D01*
X120513Y254846D01*
X120517Y254844D01*
X121617Y255244D01*
X121621Y255250D01*
X121625Y255248D01*
X122625Y255848D01*
X122629Y255858D01*
X122637Y255857D01*
X123437Y256757D01*
X123437Y256764D01*
X123442Y256765D01*
X124042Y257765D01*
X124041Y257772D01*
X124046Y257773D01*
X124446Y258873D01*
X124444Y258879D01*
X124448Y258881D01*
X124648Y259981D01*
X124647Y259985D01*
X124649Y259986D01*
X124749Y261286D01*
X124744Y261294D01*
X124749Y261298D01*
X124549Y262498D01*
X124544Y262503D01*
X124546Y262507D01*
X124146Y263607D01*
X124140Y263611D01*
X124142Y263615D01*
X123542Y264615D01*
X123534Y264619D01*
X123535Y264625D01*
X122735Y265425D01*
X122730Y265425D01*
X122730Y265429D01*
X121830Y266129D01*
X121823Y266129D01*
X121822Y266134D01*
X120822Y266634D01*
X120814Y266633D01*
X120812Y266638D01*
X119612Y266938D01*
X119606Y266935D01*
X119604Y266939D01*
X118404Y267039D01*
X118401Y267037D01*
X118400Y267039D01*
X117100Y267039D01*
X117093Y267034D01*
X117088Y267038D01*
X115888Y266738D01*
X115883Y266732D01*
X115878Y266734D01*
X114878Y266234D01*
X114874Y266226D01*
X114867Y266227D01*
X113967Y265427D01*
X113965Y265418D01*
X113959Y265417D01*
X113359Y264517D01*
X113360Y264509D01*
X113354Y264507D01*
X112954Y263407D01*
X112956Y263400D01*
X112951Y263398D01*
X112751Y262198D01*
X112754Y262193D01*
X112751Y262190D01*
X112751Y260890D01*
X112768Y260867D01*
X112767Y260853D01*
X113667Y260053D01*
X113677Y260052D01*
X113678Y260046D01*
X114678Y259546D01*
X114694Y259549D01*
X114700Y259541D01*
X119492Y259541D01*
X120314Y259267D01*
X119573Y258434D01*
X118493Y258139D01*
X117205Y258139D01*
X116111Y258338D01*
X115013Y258638D01*
X114991Y258629D01*
X114980Y258635D01*
X114080Y258235D01*
X114069Y258214D01*
X114056Y258212D01*
X113456Y257012D01*
X113459Y256996D01*
X113451Y256990D01*
X113451Y256090D01*
X113465Y256071D01*
X113462Y256058D01*
X113962Y255458D01*
X113975Y255456D01*
X113976Y255447D01*
X114876Y254947D01*
X114886Y254948D01*
X114889Y254942D01*
X116189Y254642D01*
X116195Y254645D01*
X116197Y254641D01*
X117897Y254541D01*
X117901Y254544D01*
G37*
G36*
X165736Y228253D02*
X165736Y228253D01*
X165741Y228261D01*
X165746Y228258D01*
X166846Y228958D01*
X166855Y228982D01*
X166867Y228986D01*
X166877Y229019D01*
X166919Y229167D01*
X166961Y229315D01*
X166975Y229364D01*
X167017Y229512D01*
X167018Y229512D01*
X167017Y229512D01*
X167060Y229660D01*
X167067Y229686D01*
X167059Y229707D01*
X167066Y229718D01*
X166866Y230217D01*
X166567Y231116D01*
X166562Y231119D01*
X166564Y231122D01*
X165965Y232321D01*
X165269Y233912D01*
X165170Y235288D01*
X169263Y242375D01*
X169262Y242379D01*
X169265Y242380D01*
X169765Y243480D01*
X169761Y243498D01*
X169762Y243499D01*
X169760Y243502D01*
X169758Y243508D01*
X169765Y243520D01*
X169365Y244420D01*
X169348Y244429D01*
X169347Y244441D01*
X168147Y245241D01*
X168134Y245240D01*
X168130Y245248D01*
X167130Y245448D01*
X167108Y245438D01*
X167096Y245443D01*
X166196Y244943D01*
X166189Y244927D01*
X166178Y244926D01*
X164278Y241826D01*
X164278Y241823D01*
X164276Y241823D01*
X163182Y239733D01*
X162838Y239475D01*
X162465Y240220D01*
X161866Y241718D01*
X161864Y241719D01*
X161865Y241721D01*
X161065Y243421D01*
X161064Y243421D01*
X161064Y243422D01*
X160564Y244422D01*
X160560Y244424D01*
X160561Y244427D01*
X160161Y245027D01*
X160141Y245034D01*
X160138Y245046D01*
X159138Y245446D01*
X159117Y245440D01*
X159107Y245448D01*
X158007Y245148D01*
X157999Y245137D01*
X157991Y245140D01*
X156891Y244340D01*
X156886Y244324D01*
X156873Y244314D01*
X156875Y244311D01*
X156872Y244310D01*
X156672Y243310D01*
X156682Y243289D01*
X156676Y243278D01*
X157176Y242279D01*
X162875Y229280D01*
X162879Y229278D01*
X162878Y229275D01*
X163478Y228275D01*
X163498Y228266D01*
X163502Y228254D01*
X164502Y227854D01*
X164525Y227861D01*
X164536Y227853D01*
X165736Y228253D01*
G37*
G36*
X175212Y254551D02*
X175212Y254551D01*
X175222Y254546D01*
X176222Y255046D01*
X176234Y255071D01*
X176247Y255076D01*
X176547Y256076D01*
X176544Y256086D01*
X176549Y256090D01*
X176549Y265590D01*
X176534Y265610D01*
X176537Y265622D01*
X175837Y266422D01*
X175814Y266427D01*
X175808Y266439D01*
X174508Y266639D01*
X174498Y266634D01*
X174493Y266639D01*
X173093Y266439D01*
X173072Y266417D01*
X173058Y266416D01*
X172576Y265644D01*
X172019Y265737D01*
X171028Y266430D01*
X171013Y266430D01*
X171008Y266439D01*
X169808Y266639D01*
X169798Y266633D01*
X169792Y266639D01*
X168592Y266439D01*
X168586Y266433D01*
X168582Y266436D01*
X167582Y266036D01*
X167579Y266031D01*
X167575Y266032D01*
X166575Y265432D01*
X166571Y265422D01*
X166563Y265423D01*
X165763Y264523D01*
X165763Y264518D01*
X165760Y264518D01*
X165060Y263518D01*
X165060Y263509D01*
X165054Y263507D01*
X164654Y262407D01*
X164656Y262400D01*
X164651Y262398D01*
X164451Y261198D01*
X164454Y261193D01*
X164451Y261190D01*
X164451Y256390D01*
X164455Y256385D01*
X164452Y256381D01*
X164652Y255281D01*
X164670Y255264D01*
X164670Y255251D01*
X165470Y254651D01*
X165490Y254651D01*
X165497Y254641D01*
X166997Y254541D01*
X167009Y254549D01*
X167017Y254544D01*
X168117Y254944D01*
X168132Y254967D01*
X168145Y254970D01*
X168545Y255870D01*
X168542Y255884D01*
X168549Y255890D01*
X168549Y260684D01*
X168843Y261860D01*
X169717Y262442D01*
X170891Y262540D01*
X171964Y262052D01*
X172452Y261076D01*
X172551Y259888D01*
X172551Y256190D01*
X172555Y256184D01*
X172552Y256180D01*
X172752Y255180D01*
X172773Y255162D01*
X172774Y255148D01*
X173574Y254648D01*
X173591Y254650D01*
X173597Y254641D01*
X175197Y254541D01*
X175212Y254551D01*
G37*
G36*
X156804Y254641D02*
X156804Y254641D01*
X156811Y254647D01*
X156817Y254644D01*
X157917Y255044D01*
X157922Y255052D01*
X157928Y255050D01*
X158928Y255750D01*
X158931Y255758D01*
X158937Y255757D01*
X159737Y256657D01*
X159737Y256664D01*
X159742Y256665D01*
X160342Y257665D01*
X160342Y257671D01*
X160346Y257672D01*
X160746Y258672D01*
X160744Y258679D01*
X160749Y258682D01*
X160949Y259882D01*
X160947Y259885D01*
X160949Y259886D01*
X161049Y261086D01*
X161047Y261089D01*
X161049Y261090D01*
X161049Y264790D01*
X161045Y264796D01*
X161048Y264800D01*
X160848Y265800D01*
X160831Y265815D01*
X160832Y265827D01*
X160132Y266427D01*
X160112Y266429D01*
X160107Y266439D01*
X158607Y266639D01*
X158593Y266631D01*
X158584Y266637D01*
X157384Y266237D01*
X157366Y266210D01*
X157353Y266206D01*
X157053Y265306D01*
X157056Y265297D01*
X157051Y265294D01*
X156951Y263994D01*
X156953Y263991D01*
X156951Y263990D01*
X156951Y260397D01*
X156942Y260366D01*
X156929Y260316D01*
X156915Y260267D01*
X156862Y260070D01*
X156848Y260021D01*
X156795Y259824D01*
X156781Y259775D01*
X156768Y259725D01*
X156714Y259528D01*
X156701Y259479D01*
X156658Y259322D01*
X155686Y258739D01*
X154512Y258739D01*
X153538Y259226D01*
X153049Y260301D01*
X153049Y265090D01*
X153043Y265098D01*
X153047Y265104D01*
X152747Y266104D01*
X152722Y266123D01*
X152718Y266136D01*
X151718Y266536D01*
X151705Y266532D01*
X151700Y266539D01*
X150200Y266539D01*
X150186Y266529D01*
X150176Y266533D01*
X149276Y266033D01*
X149265Y266009D01*
X149253Y266004D01*
X148953Y265004D01*
X148955Y264997D01*
X148953Y264995D01*
X148954Y264993D01*
X148951Y264990D01*
X148951Y256590D01*
X148953Y256587D01*
X148951Y256586D01*
X149051Y255486D01*
X149067Y255468D01*
X149065Y255455D01*
X149765Y254755D01*
X149787Y254752D01*
X149793Y254741D01*
X151193Y254541D01*
X151204Y254548D01*
X151211Y254542D01*
X152511Y254842D01*
X152528Y254863D01*
X152542Y254864D01*
X153020Y255629D01*
X153478Y255446D01*
X154475Y254848D01*
X154484Y254849D01*
X154487Y254843D01*
X155587Y254543D01*
X155599Y254547D01*
X155604Y254541D01*
X156804Y254641D01*
G37*
G36*
X220024Y233051D02*
X220024Y233051D01*
X220027Y233053D01*
X220029Y233052D01*
X221129Y233252D01*
X221133Y233256D01*
X221137Y233254D01*
X222237Y233654D01*
X222240Y233658D01*
X222244Y233657D01*
X223344Y234257D01*
X223353Y234278D01*
X223366Y234282D01*
X223766Y235282D01*
X223761Y235301D01*
X223762Y235301D01*
X223760Y235304D01*
X223759Y235307D01*
X223766Y235318D01*
X223366Y236318D01*
X223355Y236325D01*
X223357Y236333D01*
X222457Y237333D01*
X222428Y237338D01*
X222420Y237349D01*
X221420Y237349D01*
X221406Y237338D01*
X221395Y237343D01*
X220199Y236645D01*
X219113Y236250D01*
X217850Y236347D01*
X217494Y236969D01*
X218532Y237252D01*
X219831Y237552D01*
X219834Y237556D01*
X219837Y237554D01*
X220937Y237954D01*
X220941Y237960D01*
X220945Y237958D01*
X221945Y238558D01*
X221950Y238570D01*
X221959Y238570D01*
X222659Y239470D01*
X222659Y239477D01*
X222664Y239478D01*
X223164Y240478D01*
X223162Y240489D01*
X223169Y240492D01*
X223369Y241692D01*
X223364Y241700D01*
X223369Y241704D01*
X223269Y242804D01*
X223262Y242812D01*
X223266Y242818D01*
X222866Y243818D01*
X222856Y243824D01*
X222857Y243832D01*
X222257Y244532D01*
X222244Y244535D01*
X222242Y244544D01*
X221242Y245044D01*
X221234Y245043D01*
X221232Y245048D01*
X220032Y245348D01*
X220026Y245345D01*
X220023Y245349D01*
X218523Y245449D01*
X218521Y245448D01*
X218520Y245449D01*
X217320Y245449D01*
X217313Y245444D01*
X217308Y245448D01*
X216108Y245148D01*
X216106Y245145D01*
X216103Y245146D01*
X215003Y244746D01*
X214995Y244733D01*
X214985Y244735D01*
X214185Y243935D01*
X214181Y243901D01*
X214176Y243898D01*
X214177Y243896D01*
X214172Y243890D01*
X214372Y242890D01*
X214384Y242879D01*
X214382Y242869D01*
X215282Y241769D01*
X215312Y241762D01*
X215320Y241751D01*
X216120Y241751D01*
X216129Y241757D01*
X216134Y241753D01*
X217431Y242152D01*
X218615Y242349D01*
X219654Y241972D01*
X219384Y241340D01*
X218109Y240948D01*
X216912Y240749D01*
X216909Y240746D01*
X216907Y240748D01*
X215807Y240448D01*
X215801Y240440D01*
X215795Y240442D01*
X214795Y239842D01*
X214790Y239830D01*
X214781Y239830D01*
X214081Y238930D01*
X214081Y238924D01*
X214080Y238923D01*
X214081Y238922D01*
X214081Y238916D01*
X214073Y238913D01*
X214048Y238825D01*
X214035Y238776D01*
X213981Y238579D01*
X213968Y238529D01*
X213954Y238480D01*
X213901Y238283D01*
X213887Y238234D01*
X213834Y238037D01*
X213820Y237988D01*
X213807Y237938D01*
X213773Y237813D01*
X213775Y237806D01*
X213771Y237804D01*
X213671Y236504D01*
X213678Y236494D01*
X213673Y236487D01*
X213973Y235387D01*
X213978Y235383D01*
X213976Y235378D01*
X214476Y234378D01*
X214490Y234371D01*
X214490Y234361D01*
X215390Y233661D01*
X215400Y233661D01*
X215402Y233654D01*
X216402Y233254D01*
X216409Y233256D01*
X216412Y233251D01*
X217612Y233051D01*
X217615Y233053D01*
X217616Y233051D01*
X218816Y232951D01*
X218821Y232954D01*
X218824Y232951D01*
X220024Y233051D01*
G37*
G36*
X212340Y19381D02*
X212340Y19381D01*
X212391Y19383D01*
X212423Y19401D01*
X212459Y19409D01*
X212498Y19442D01*
X212543Y19466D01*
X212564Y19496D01*
X212592Y19519D01*
X212613Y19566D01*
X212643Y19608D01*
X212651Y19650D01*
X212663Y19678D01*
X212662Y19708D01*
X212670Y19750D01*
X212670Y33250D01*
X212667Y33263D01*
X212669Y33277D01*
X212648Y33347D01*
X212631Y33419D01*
X212622Y33429D01*
X212618Y33442D01*
X212567Y33496D01*
X212521Y33552D01*
X212508Y33558D01*
X212499Y33568D01*
X212365Y33623D01*
X211373Y33821D01*
X210982Y33919D01*
X210946Y33919D01*
X210890Y33930D01*
X210428Y33930D01*
X209973Y34021D01*
X209582Y34119D01*
X209574Y34119D01*
X209565Y34123D01*
X209073Y34221D01*
X208682Y34319D01*
X208672Y34319D01*
X208662Y34323D01*
X208586Y34320D01*
X208509Y34322D01*
X208500Y34317D01*
X208489Y34317D01*
X208422Y34280D01*
X208353Y34247D01*
X208346Y34239D01*
X208337Y34234D01*
X208293Y34171D01*
X208245Y34111D01*
X208243Y34101D01*
X208237Y34092D01*
X208210Y33950D01*
X208210Y32606D01*
X208106Y32761D01*
X208084Y32782D01*
X208059Y32819D01*
X207559Y33319D01*
X207532Y33335D01*
X207501Y33366D01*
X206301Y34166D01*
X206265Y34180D01*
X206194Y34216D01*
X204794Y34616D01*
X204756Y34618D01*
X204690Y34630D01*
X203290Y34630D01*
X203216Y34613D01*
X203141Y34600D01*
X203131Y34593D01*
X203121Y34591D01*
X203092Y34567D01*
X203021Y34519D01*
X202921Y34419D01*
X202881Y34354D01*
X202837Y34292D01*
X202835Y34280D01*
X202830Y34272D01*
X202826Y34235D01*
X202810Y34150D01*
X202810Y30550D01*
X202821Y30500D01*
X202823Y30449D01*
X202841Y30417D01*
X202849Y30381D01*
X202882Y30342D01*
X202906Y30297D01*
X202936Y30276D01*
X202959Y30248D01*
X203006Y30227D01*
X203048Y30197D01*
X203090Y30189D01*
X203118Y30177D01*
X203148Y30178D01*
X203190Y30170D01*
X203290Y30170D01*
X203305Y30173D01*
X203320Y30171D01*
X203452Y30208D01*
X203459Y30209D01*
X203459Y30210D01*
X203460Y30210D01*
X203580Y30270D01*
X204571Y30270D01*
X205525Y30174D01*
X206234Y29997D01*
X206748Y29655D01*
X207269Y29133D01*
X207827Y27833D01*
X208010Y27008D01*
X208010Y19750D01*
X208021Y19700D01*
X208023Y19649D01*
X208041Y19617D01*
X208049Y19581D01*
X208082Y19542D01*
X208106Y19497D01*
X208136Y19476D01*
X208159Y19448D01*
X208206Y19427D01*
X208248Y19397D01*
X208290Y19389D01*
X208318Y19377D01*
X208348Y19378D01*
X208390Y19370D01*
X212290Y19370D01*
X212340Y19381D01*
G37*
G36*
X83405Y254544D02*
X83405Y254544D01*
X83408Y254541D01*
X84608Y254741D01*
X84615Y254749D01*
X84622Y254746D01*
X85622Y255246D01*
X85623Y255247D01*
X85624Y255247D01*
X86724Y255847D01*
X86727Y255854D01*
X86733Y255853D01*
X87633Y256653D01*
X87634Y256662D01*
X87640Y256662D01*
X88340Y257662D01*
X88340Y257669D01*
X88345Y257670D01*
X88845Y258770D01*
X88844Y258775D01*
X88848Y258777D01*
X88884Y258911D01*
X88897Y258960D01*
X88911Y259009D01*
X88965Y259206D01*
X88978Y259255D01*
X89032Y259452D01*
X89045Y259502D01*
X89059Y259551D01*
X89112Y259748D01*
X89126Y259797D01*
X89148Y259877D01*
X89144Y259886D01*
X89149Y259890D01*
X89149Y261090D01*
X89146Y261095D01*
X89149Y261098D01*
X88949Y262298D01*
X88944Y262303D01*
X88946Y262307D01*
X88546Y263407D01*
X88542Y263410D01*
X88543Y263414D01*
X87943Y264514D01*
X87934Y264518D01*
X87935Y264525D01*
X87135Y265325D01*
X87127Y265326D01*
X87126Y265332D01*
X86026Y266032D01*
X86023Y266031D01*
X86022Y266034D01*
X85022Y266534D01*
X85014Y266533D01*
X85012Y266538D01*
X83812Y266838D01*
X83804Y266834D01*
X83800Y266839D01*
X82700Y266839D01*
X82695Y266836D01*
X82692Y266839D01*
X81492Y266639D01*
X81488Y266634D01*
X81484Y266637D01*
X80284Y266237D01*
X80280Y266230D01*
X80275Y266232D01*
X79275Y265632D01*
X79270Y265620D01*
X79261Y265620D01*
X78561Y264720D01*
X78561Y264705D01*
X78553Y264700D01*
X78560Y264691D01*
X78552Y264681D01*
X78752Y263581D01*
X78761Y263573D01*
X78757Y263565D01*
X79457Y262365D01*
X79472Y262359D01*
X79473Y262349D01*
X80373Y261749D01*
X80403Y261751D01*
X80414Y261743D01*
X81414Y262043D01*
X81419Y262049D01*
X81424Y262047D01*
X82513Y262641D01*
X83684Y262641D01*
X84659Y261959D01*
X85051Y260881D01*
X85051Y259714D01*
X84077Y258935D01*
X83002Y258642D01*
X81920Y259035D01*
X80824Y259633D01*
X80794Y259629D01*
X80783Y259636D01*
X79983Y259336D01*
X79974Y259322D01*
X79964Y259323D01*
X78964Y258223D01*
X78962Y258210D01*
X78954Y258207D01*
X78554Y257107D01*
X78560Y257085D01*
X78553Y257074D01*
X78853Y256174D01*
X78871Y256162D01*
X78871Y256150D01*
X79971Y255350D01*
X79977Y255350D01*
X79978Y255346D01*
X80978Y254846D01*
X80986Y254847D01*
X80988Y254842D01*
X82188Y254542D01*
X82196Y254546D01*
X82200Y254541D01*
X83400Y254541D01*
X83405Y254544D01*
G37*
G36*
X267505Y254545D02*
X267505Y254545D01*
X267509Y254542D01*
X268609Y254742D01*
X268615Y254748D01*
X268620Y254745D01*
X269720Y255245D01*
X269722Y255248D01*
X269724Y255247D01*
X270824Y255847D01*
X270827Y255854D01*
X270833Y255853D01*
X271733Y256653D01*
X271734Y256662D01*
X271740Y256662D01*
X272440Y257662D01*
X272440Y257669D01*
X272445Y257670D01*
X272945Y258770D01*
X272943Y258778D01*
X272948Y258781D01*
X273148Y259881D01*
X273147Y259884D01*
X273149Y259886D01*
X273249Y261086D01*
X273244Y261094D01*
X273249Y261098D01*
X273049Y262298D01*
X273044Y262303D01*
X273046Y262307D01*
X272646Y263407D01*
X272642Y263410D01*
X272643Y263414D01*
X272043Y264514D01*
X272034Y264518D01*
X272035Y264525D01*
X271235Y265325D01*
X271227Y265326D01*
X271226Y265332D01*
X270126Y266032D01*
X270121Y266031D01*
X270120Y266035D01*
X269020Y266535D01*
X269015Y266534D01*
X269013Y266538D01*
X267913Y266838D01*
X267904Y266834D01*
X267900Y266839D01*
X266700Y266839D01*
X266695Y266835D01*
X266691Y266838D01*
X265591Y266638D01*
X265588Y266635D01*
X265584Y266637D01*
X264384Y266237D01*
X264381Y266231D01*
X264376Y266233D01*
X263276Y265633D01*
X263270Y265618D01*
X263259Y265617D01*
X262659Y264717D01*
X262660Y264705D01*
X262653Y264700D01*
X262660Y264691D01*
X262652Y264681D01*
X262852Y263581D01*
X262861Y263573D01*
X262857Y263565D01*
X263557Y262365D01*
X263572Y262359D01*
X263573Y262349D01*
X264473Y261749D01*
X264504Y261751D01*
X264516Y261743D01*
X265416Y262043D01*
X265419Y262048D01*
X265422Y262046D01*
X266612Y262641D01*
X267784Y262641D01*
X268759Y261959D01*
X269151Y260881D01*
X269151Y259714D01*
X268177Y258935D01*
X267102Y258642D01*
X266020Y259035D01*
X264924Y259633D01*
X264894Y259629D01*
X264883Y259636D01*
X264083Y259336D01*
X264074Y259322D01*
X264064Y259323D01*
X263064Y258223D01*
X263062Y258210D01*
X263054Y258207D01*
X262654Y257107D01*
X262660Y257085D01*
X262653Y257074D01*
X262953Y256174D01*
X262971Y256162D01*
X262971Y256150D01*
X264071Y255350D01*
X264077Y255350D01*
X264078Y255346D01*
X265078Y254846D01*
X265086Y254847D01*
X265088Y254842D01*
X266288Y254542D01*
X266296Y254546D01*
X266300Y254541D01*
X267500Y254541D01*
X267505Y254545D01*
G37*
G36*
X228805Y254545D02*
X228805Y254545D01*
X228809Y254542D01*
X230409Y254842D01*
X230415Y254848D01*
X230420Y254845D01*
X231520Y255345D01*
X231529Y255361D01*
X231540Y255361D01*
X232040Y256061D01*
X232040Y256072D01*
X232047Y256074D01*
X232347Y256974D01*
X232345Y256980D01*
X232349Y256982D01*
X232549Y258182D01*
X232546Y258187D01*
X232549Y258190D01*
X232549Y271390D01*
X232533Y271411D01*
X232535Y271425D01*
X231835Y272125D01*
X231813Y272128D01*
X231807Y272139D01*
X230407Y272339D01*
X230395Y272332D01*
X230388Y272338D01*
X229188Y272038D01*
X229172Y272018D01*
X229159Y272017D01*
X228559Y271117D01*
X228560Y271107D01*
X228553Y271102D01*
X228558Y271095D01*
X228551Y271090D01*
X228551Y259204D01*
X228071Y258437D01*
X226896Y258339D01*
X226870Y258316D01*
X226857Y258314D01*
X226357Y257414D01*
X226357Y257411D01*
X226358Y257409D01*
X226359Y257397D01*
X226351Y257390D01*
X226351Y255790D01*
X226360Y255778D01*
X226355Y255770D01*
X226755Y254870D01*
X226777Y254858D01*
X226781Y254845D01*
X227481Y254545D01*
X227494Y254548D01*
X227500Y254541D01*
X228800Y254541D01*
X228805Y254545D01*
G37*
G36*
X190725Y232955D02*
X190725Y232955D01*
X190729Y232952D01*
X192329Y233252D01*
X192335Y233258D01*
X192340Y233255D01*
X193440Y233755D01*
X193448Y233769D01*
X193457Y233768D01*
X194057Y234468D01*
X194058Y234482D01*
X194067Y234484D01*
X194367Y235384D01*
X194365Y235390D01*
X194369Y235392D01*
X194569Y236592D01*
X194566Y236597D01*
X194569Y236600D01*
X194569Y248700D01*
X194567Y248703D01*
X194569Y248704D01*
X194469Y249804D01*
X194455Y249820D01*
X194457Y249832D01*
X193857Y250532D01*
X193833Y250537D01*
X193827Y250549D01*
X192427Y250749D01*
X192416Y250742D01*
X192409Y250748D01*
X191109Y250448D01*
X191090Y250426D01*
X191077Y250424D01*
X190577Y249524D01*
X190578Y249516D01*
X190573Y249512D01*
X190578Y249505D01*
X190571Y249500D01*
X190571Y237616D01*
X189994Y236847D01*
X188916Y236749D01*
X188890Y236726D01*
X188877Y236724D01*
X188377Y235824D01*
X188377Y235821D01*
X188378Y235819D01*
X188379Y235807D01*
X188371Y235800D01*
X188371Y234200D01*
X188380Y234188D01*
X188375Y234180D01*
X188775Y233280D01*
X188797Y233268D01*
X188801Y233255D01*
X189501Y232955D01*
X189514Y232958D01*
X189520Y232951D01*
X190720Y232951D01*
X190725Y232955D01*
G37*
G36*
X107203Y254547D02*
X107203Y254547D01*
X107208Y254541D01*
X108408Y254741D01*
X108430Y254764D01*
X108443Y254766D01*
X108943Y255666D01*
X108941Y255683D01*
X108949Y255690D01*
X108949Y265290D01*
X108942Y265299D01*
X108947Y265306D01*
X108647Y266206D01*
X108618Y266225D01*
X108613Y266238D01*
X107513Y266538D01*
X107504Y266534D01*
X107500Y266539D01*
X106000Y266539D01*
X105985Y266528D01*
X105974Y266532D01*
X105174Y266032D01*
X105171Y266024D01*
X105165Y266025D01*
X104794Y265654D01*
X103828Y266330D01*
X103819Y266330D01*
X103817Y266336D01*
X102717Y266736D01*
X102702Y266732D01*
X102696Y266739D01*
X101496Y266639D01*
X101491Y266635D01*
X101487Y266638D01*
X100387Y266338D01*
X100372Y266318D01*
X100359Y266317D01*
X99759Y265417D01*
X99760Y265394D01*
X99758Y265392D01*
X99754Y265389D01*
X99751Y265386D01*
X99851Y264186D01*
X99858Y264178D01*
X99855Y264171D01*
X100355Y262971D01*
X100372Y262961D01*
X100373Y262949D01*
X101273Y262349D01*
X101302Y262351D01*
X101313Y262343D01*
X102411Y262642D01*
X103492Y262838D01*
X104561Y262255D01*
X104951Y261281D01*
X104951Y256590D01*
X104953Y256587D01*
X104951Y256586D01*
X105051Y255486D01*
X105067Y255468D01*
X105065Y255455D01*
X105765Y254755D01*
X105787Y254752D01*
X105793Y254741D01*
X107193Y254541D01*
X107203Y254547D01*
G37*
%LPC*%
G36*
X321015Y258837D02*
X321015Y258837D01*
X319927Y259332D01*
X319038Y260122D01*
X318446Y261110D01*
X318149Y262198D01*
X318050Y263488D01*
X318247Y264675D01*
X318741Y265662D01*
X319533Y266553D01*
X320521Y267245D01*
X321607Y267541D01*
X322793Y267541D01*
X323879Y267245D01*
X324867Y266553D01*
X325659Y265662D01*
X326153Y264675D01*
X326351Y263486D01*
X326351Y261110D01*
X325267Y260027D01*
X324276Y259234D01*
X323187Y258838D01*
X322100Y258640D01*
X321015Y258837D01*
G37*
%LPD*%
%LPC*%
G36*
X241040Y237049D02*
X241040Y237049D01*
X240655Y237435D01*
X240653Y237435D01*
X240653Y237437D01*
X239756Y238234D01*
X239062Y239126D01*
X238568Y240213D01*
X238469Y241400D01*
X238568Y242586D01*
X239062Y243575D01*
X239754Y244563D01*
X240741Y245155D01*
X241831Y245551D01*
X243022Y245651D01*
X244200Y245651D01*
X244771Y245080D01*
X244771Y238007D01*
X244483Y237049D01*
X241040Y237049D01*
G37*
%LPD*%
G36*
X95403Y254641D02*
X95403Y254641D01*
X95422Y254657D01*
X95435Y254655D01*
X96135Y255355D01*
X96138Y255379D01*
X96149Y255386D01*
X96249Y256486D01*
X96247Y256488D01*
X96249Y256490D01*
X96249Y265690D01*
X96233Y265711D01*
X96235Y265725D01*
X95535Y266425D01*
X95513Y266428D01*
X95507Y266439D01*
X94007Y266639D01*
X93994Y266632D01*
X93987Y266638D01*
X92887Y266338D01*
X92872Y266318D01*
X92859Y266317D01*
X92259Y265417D01*
X92260Y265397D01*
X92251Y265390D01*
X92251Y255790D01*
X92260Y255778D01*
X92255Y255770D01*
X92655Y254870D01*
X92683Y254855D01*
X92688Y254842D01*
X93888Y254542D01*
X93898Y254547D01*
X93903Y254541D01*
X95403Y254641D01*
G37*
G36*
X279503Y254641D02*
X279503Y254641D01*
X279522Y254657D01*
X279535Y254655D01*
X280235Y255355D01*
X280238Y255379D01*
X280249Y255386D01*
X280349Y256486D01*
X280347Y256488D01*
X280349Y256490D01*
X280349Y264590D01*
X280347Y264593D01*
X280349Y264594D01*
X280249Y265694D01*
X280235Y265710D01*
X280237Y265722D01*
X279637Y266422D01*
X279613Y266427D01*
X279607Y266439D01*
X278107Y266639D01*
X278095Y266632D01*
X278088Y266638D01*
X276888Y266338D01*
X276870Y266316D01*
X276857Y266314D01*
X276357Y265414D01*
X276359Y265397D01*
X276351Y265390D01*
X276351Y255790D01*
X276360Y255778D01*
X276355Y255770D01*
X276755Y254870D01*
X276783Y254855D01*
X276788Y254842D01*
X277988Y254542D01*
X277998Y254547D01*
X278003Y254541D01*
X279503Y254641D01*
G37*
G36*
X287003Y254641D02*
X287003Y254641D01*
X287022Y254657D01*
X287035Y254655D01*
X287735Y255355D01*
X287738Y255379D01*
X287749Y255386D01*
X287849Y256486D01*
X287847Y256488D01*
X287849Y256490D01*
X287849Y264590D01*
X287847Y264593D01*
X287849Y264594D01*
X287749Y265694D01*
X287733Y265712D01*
X287735Y265725D01*
X287035Y266425D01*
X287013Y266428D01*
X287007Y266439D01*
X285607Y266639D01*
X285595Y266632D01*
X285588Y266638D01*
X284388Y266338D01*
X284370Y266316D01*
X284357Y266314D01*
X283857Y265414D01*
X283859Y265397D01*
X283851Y265390D01*
X283851Y255790D01*
X283860Y255778D01*
X283855Y255770D01*
X284255Y254870D01*
X284282Y254855D01*
X284287Y254843D01*
X285387Y254543D01*
X285398Y254547D01*
X285403Y254541D01*
X287003Y254641D01*
G37*
G36*
X230023Y233051D02*
X230023Y233051D01*
X230042Y233067D01*
X230055Y233065D01*
X230755Y233765D01*
X230758Y233789D01*
X230769Y233796D01*
X230869Y234896D01*
X230867Y234898D01*
X230869Y234900D01*
X230869Y243000D01*
X230867Y243003D01*
X230869Y243004D01*
X230769Y244104D01*
X230753Y244122D01*
X230755Y244135D01*
X230055Y244835D01*
X230033Y244838D01*
X230027Y244849D01*
X228627Y245049D01*
X228615Y245042D01*
X228608Y245048D01*
X227408Y244748D01*
X227390Y244726D01*
X227377Y244724D01*
X226877Y243824D01*
X226879Y243807D01*
X226871Y243800D01*
X226871Y234200D01*
X226880Y234188D01*
X226875Y234180D01*
X227275Y233280D01*
X227302Y233265D01*
X227307Y233253D01*
X228407Y232953D01*
X228418Y232957D01*
X228423Y232951D01*
X230023Y233051D01*
G37*
%LPC*%
G36*
X235288Y22822D02*
X235288Y22822D01*
X234672Y23086D01*
X234164Y23424D01*
X233443Y24506D01*
X233264Y25220D01*
X233168Y25993D01*
X233073Y26847D01*
X233262Y28358D01*
X233543Y29108D01*
X233818Y29749D01*
X234247Y30264D01*
X234772Y30614D01*
X235390Y30879D01*
X236093Y30967D01*
X236892Y30878D01*
X237508Y30614D01*
X238033Y30264D01*
X238462Y29749D01*
X238728Y29128D01*
X239110Y27603D01*
X239110Y25997D01*
X238737Y24506D01*
X238016Y23424D01*
X237508Y23086D01*
X236892Y22822D01*
X236090Y22733D01*
X235288Y22822D01*
G37*
%LPD*%
G36*
X279504Y268241D02*
X279504Y268241D01*
X279523Y268258D01*
X279537Y268257D01*
X280337Y269157D01*
X280339Y269182D01*
X280349Y269190D01*
X280349Y270290D01*
X280347Y270293D01*
X280349Y270294D01*
X280249Y271494D01*
X280227Y271518D01*
X280226Y271532D01*
X279426Y272032D01*
X279413Y272031D01*
X279412Y272032D01*
X279408Y272032D01*
X279403Y272039D01*
X277903Y272139D01*
X277893Y272133D01*
X277887Y272138D01*
X276787Y271838D01*
X276767Y271812D01*
X276754Y271808D01*
X276354Y270808D01*
X276358Y270795D01*
X276351Y270790D01*
X276351Y269490D01*
X276359Y269479D01*
X276354Y269472D01*
X276754Y268472D01*
X276780Y268456D01*
X276784Y268443D01*
X277084Y268343D01*
X277089Y268345D01*
X277091Y268342D01*
X278191Y268142D01*
X278200Y268146D01*
X278204Y268141D01*
X279504Y268241D01*
G37*
G36*
X95404Y268241D02*
X95404Y268241D01*
X95423Y268258D01*
X95437Y268257D01*
X96237Y269157D01*
X96239Y269182D01*
X96249Y269190D01*
X96249Y270290D01*
X96247Y270293D01*
X96249Y270294D01*
X96149Y271494D01*
X96127Y271518D01*
X96126Y271532D01*
X95326Y272032D01*
X95313Y272031D01*
X95312Y272032D01*
X95308Y272032D01*
X95303Y272039D01*
X93803Y272139D01*
X93793Y272133D01*
X93787Y272138D01*
X92687Y271838D01*
X92667Y271812D01*
X92654Y271808D01*
X92254Y270808D01*
X92258Y270795D01*
X92251Y270790D01*
X92251Y269490D01*
X92259Y269479D01*
X92254Y269472D01*
X92654Y268472D01*
X92680Y268456D01*
X92684Y268443D01*
X92984Y268343D01*
X92990Y268345D01*
X92992Y268341D01*
X94192Y268141D01*
X94200Y268146D01*
X94204Y268141D01*
X95404Y268241D01*
G37*
G36*
X286904Y268241D02*
X286904Y268241D01*
X286923Y268258D01*
X286937Y268257D01*
X287737Y269157D01*
X287739Y269179D01*
X287749Y269186D01*
X287849Y270286D01*
X287844Y270293D01*
X287849Y270298D01*
X287649Y271498D01*
X287629Y271517D01*
X287629Y271530D01*
X286929Y272030D01*
X286912Y272030D01*
X286911Y272032D01*
X286908Y272032D01*
X286903Y272039D01*
X285303Y272139D01*
X285293Y272133D01*
X285287Y272138D01*
X284187Y271838D01*
X284165Y271809D01*
X284164Y271808D01*
X284153Y271804D01*
X283853Y270804D01*
X283856Y270794D01*
X283851Y270790D01*
X283851Y269490D01*
X283857Y269482D01*
X283853Y269476D01*
X284153Y268476D01*
X284183Y268454D01*
X284188Y268442D01*
X284588Y268342D01*
X284590Y268343D01*
X284591Y268342D01*
X285691Y268142D01*
X285700Y268146D01*
X285704Y268141D01*
X286904Y268241D01*
G37*
G36*
X229924Y246651D02*
X229924Y246651D01*
X229943Y246668D01*
X229957Y246667D01*
X230757Y247567D01*
X230759Y247589D01*
X230769Y247596D01*
X230869Y248696D01*
X230864Y248703D01*
X230869Y248708D01*
X230669Y249908D01*
X230649Y249927D01*
X230649Y249940D01*
X229949Y250440D01*
X229932Y250440D01*
X229931Y250441D01*
X229928Y250441D01*
X229923Y250449D01*
X228323Y250549D01*
X228313Y250543D01*
X228307Y250548D01*
X227207Y250248D01*
X227185Y250219D01*
X227184Y250218D01*
X227173Y250214D01*
X226873Y249214D01*
X226876Y249204D01*
X226871Y249200D01*
X226871Y247900D01*
X226877Y247892D01*
X226873Y247886D01*
X227173Y246886D01*
X227203Y246864D01*
X227208Y246852D01*
X227608Y246752D01*
X227610Y246753D01*
X227611Y246752D01*
X228711Y246552D01*
X228720Y246556D01*
X228724Y246551D01*
X229924Y246651D01*
G37*
%LPC*%
G36*
X220937Y22430D02*
X220937Y22430D01*
X219846Y22703D01*
X219632Y22846D01*
X219222Y23255D01*
X219151Y23470D01*
X219143Y23484D01*
X219140Y23499D01*
X219064Y23612D01*
X219060Y23618D01*
X219059Y23618D01*
X219059Y23619D01*
X218922Y23755D01*
X218870Y23912D01*
X218870Y24150D01*
X218867Y24165D01*
X218869Y24180D01*
X218832Y24312D01*
X218831Y24319D01*
X218830Y24319D01*
X218830Y24320D01*
X218770Y24440D01*
X218770Y24650D01*
X218767Y24665D01*
X218769Y24680D01*
X218745Y24766D01*
X218745Y24774D01*
X218741Y24782D01*
X218732Y24812D01*
X218731Y24819D01*
X218730Y24819D01*
X218730Y24820D01*
X218670Y24940D01*
X218670Y26051D01*
X218686Y26041D01*
X218748Y25997D01*
X218760Y25995D01*
X218768Y25990D01*
X218805Y25986D01*
X218890Y25970D01*
X219000Y25970D01*
X219320Y25810D01*
X219335Y25806D01*
X219348Y25797D01*
X219482Y25771D01*
X219489Y25770D01*
X219490Y25770D01*
X219900Y25770D01*
X220020Y25710D01*
X220035Y25706D01*
X220048Y25697D01*
X220182Y25671D01*
X220189Y25670D01*
X220190Y25670D01*
X220528Y25670D01*
X220770Y25589D01*
X220807Y25586D01*
X220890Y25570D01*
X221228Y25570D01*
X221470Y25489D01*
X221507Y25486D01*
X221590Y25470D01*
X221700Y25470D01*
X221820Y25410D01*
X221835Y25406D01*
X221848Y25397D01*
X221982Y25371D01*
X221989Y25370D01*
X221990Y25370D01*
X222100Y25370D01*
X222965Y24938D01*
X223278Y24625D01*
X223410Y24360D01*
X223410Y24050D01*
X223418Y24013D01*
X223429Y23930D01*
X223479Y23779D01*
X223450Y23720D01*
X223446Y23705D01*
X223437Y23692D01*
X223423Y23620D01*
X223417Y23605D01*
X223417Y23589D01*
X223411Y23558D01*
X223410Y23552D01*
X223410Y23551D01*
X223410Y23550D01*
X223410Y23412D01*
X223329Y23170D01*
X223326Y23133D01*
X223310Y23050D01*
X223310Y23040D01*
X223278Y22975D01*
X223065Y22763D01*
X223005Y22733D01*
X222920Y22690D01*
X222891Y22666D01*
X222821Y22619D01*
X222765Y22563D01*
X222700Y22530D01*
X222590Y22530D01*
X222575Y22527D01*
X222560Y22529D01*
X222428Y22492D01*
X222421Y22491D01*
X222421Y22490D01*
X222420Y22490D01*
X222300Y22430D01*
X220937Y22430D01*
G37*
%LPD*%
%LPC*%
G36*
X185719Y258838D02*
X185719Y258838D01*
X184844Y259518D01*
X184551Y260687D01*
X184941Y261760D01*
X185819Y262442D01*
X186988Y262540D01*
X187962Y261955D01*
X188452Y260976D01*
X188549Y259811D01*
X187873Y259231D01*
X186890Y258740D01*
X185719Y258838D01*
G37*
%LPD*%
%LPC*%
G36*
X178439Y237248D02*
X178439Y237248D01*
X177564Y237928D01*
X177271Y239097D01*
X177662Y240171D01*
X178452Y240863D01*
X178461Y240907D01*
X178476Y240878D01*
X178519Y240857D01*
X178524Y240851D01*
X179609Y240950D01*
X180584Y240364D01*
X181171Y239386D01*
X181171Y238220D01*
X180591Y237641D01*
X179610Y237150D01*
X178439Y237248D01*
G37*
%LPD*%
%LPC*%
G36*
X202655Y237838D02*
X202655Y237838D01*
X202070Y238812D01*
X202168Y239981D01*
X202848Y240856D01*
X204017Y241149D01*
X205093Y240757D01*
X205871Y239980D01*
X205871Y239407D01*
X205826Y239241D01*
X205812Y239192D01*
X205799Y239142D01*
X205745Y238945D01*
X205732Y238896D01*
X205678Y238699D01*
X205664Y238650D01*
X205651Y238601D01*
X205597Y238404D01*
X205584Y238354D01*
X205576Y238326D01*
X204785Y237535D01*
X204784Y237522D01*
X204776Y237517D01*
X204782Y237510D01*
X204779Y237492D01*
X204774Y237484D01*
X204787Y237447D01*
X203630Y237350D01*
X202655Y237838D01*
G37*
%LPD*%
%LPC*%
G36*
X215634Y259429D02*
X215634Y259429D01*
X215050Y260402D01*
X215148Y261570D01*
X215927Y262446D01*
X216998Y262738D01*
X218073Y262347D01*
X218851Y261570D01*
X218851Y260997D01*
X218806Y260831D01*
X218792Y260782D01*
X218779Y260732D01*
X218725Y260535D01*
X218712Y260486D01*
X218658Y260289D01*
X218644Y260240D01*
X218631Y260191D01*
X218577Y259994D01*
X218564Y259944D01*
X218556Y259916D01*
X217765Y259125D01*
X217764Y259112D01*
X217756Y259107D01*
X217762Y259100D01*
X217759Y259082D01*
X217754Y259074D01*
X217767Y259036D01*
X216709Y258940D01*
X215634Y259429D01*
G37*
%LPD*%
%LPC*%
G36*
X119922Y261634D02*
X119922Y261634D01*
X119909Y261627D01*
X119900Y261639D01*
X117614Y261639D01*
X116860Y262111D01*
X117238Y263149D01*
X118300Y263439D01*
X119373Y263146D01*
X120241Y262182D01*
X119956Y261612D01*
X119957Y261604D01*
X119952Y261602D01*
X119947Y261582D01*
X119922Y261634D01*
G37*
%LPD*%
%LPC*%
G36*
X243677Y261739D02*
X243677Y261739D01*
X244144Y262769D01*
X245101Y264778D01*
X245256Y264469D01*
X246245Y262291D01*
X245970Y261739D01*
X243677Y261739D01*
G37*
%LPD*%
D10*
X403380Y59530D02*
X3380Y59530D01*
X403380Y59530D02*
X403380Y219530D01*
X3380Y219530D01*
X3380Y59530D01*
D11*
X301780Y196690D02*
X360200Y196690D01*
X353850Y186530D02*
X310670Y186530D01*
X327180Y93820D02*
X370360Y93820D01*
X327180Y93820D02*
X320830Y87470D01*
X320830Y84930D01*
X322100Y83660D01*
X377980Y83660D01*
X379250Y84930D01*
X370360Y93820D01*
X375440Y134460D02*
X370360Y139540D01*
X366550Y133190D01*
X370360Y143350D02*
X372900Y148430D01*
X370360Y143350D02*
X364010Y148430D01*
X357660Y185260D01*
X353850Y186530D02*
X360200Y196690D01*
X310670Y186530D02*
X301780Y196690D01*
X357660Y185260D02*
X364010Y194150D01*
X372900Y148430D01*
X338610Y182720D02*
X328450Y182720D01*
X333530Y153510D01*
X341150Y143350D01*
X343690Y149700D01*
X338610Y182720D01*
X355120Y181450D02*
X357660Y162400D01*
X346230Y161130D02*
X355120Y181450D01*
X346230Y161130D02*
X348770Y148430D01*
X351310Y149700D01*
X357660Y162400D01*
X327180Y161130D02*
X314480Y182720D01*
X311940Y182720D01*
X315750Y164940D01*
X324640Y149700D01*
X329720Y148430D01*
X327180Y161130D01*
X306860Y147160D02*
X299240Y192880D01*
X306860Y147160D02*
X311940Y142080D01*
X315750Y147160D01*
X308130Y183990D01*
X299240Y192880D01*
X336070Y143350D02*
X339880Y139540D01*
X336070Y143350D02*
X318290Y143350D01*
X315750Y139540D01*
X320830Y134460D01*
X337340Y134460D01*
X339880Y139540D01*
X324640Y115410D02*
X328450Y97630D01*
X324640Y115410D02*
X330990Y130650D01*
X334800Y130650D01*
X337340Y117950D01*
X328450Y97630D01*
X369090Y97630D02*
X366550Y116680D01*
X353850Y115410D02*
X369090Y97630D01*
X353850Y115410D02*
X351310Y130650D01*
X355120Y130650D01*
X366550Y116680D01*
X348770Y126840D02*
X342420Y135730D01*
X338610Y128110D01*
X344960Y96360D01*
X353850Y96360D01*
X348770Y126840D01*
X375440Y134460D02*
X383060Y88740D01*
X381790Y87470D01*
X374170Y95090D01*
X366550Y133190D01*
X366550Y139540D02*
X361470Y144620D01*
X346230Y144620D01*
X343690Y139540D01*
X347500Y134460D01*
X364010Y134460D01*
X318290Y131920D02*
X311940Y138270D01*
X308130Y133190D01*
X317020Y90010D01*
X318290Y90010D01*
X324640Y95090D01*
X318290Y131920D01*
X364010Y134460D02*
X366550Y139540D01*
X271300Y196690D02*
X212880Y196690D01*
X221770Y186530D02*
X264950Y186530D01*
X281460Y93820D02*
X238280Y93820D01*
X231930Y87470D01*
X231930Y84930D01*
X233200Y83660D01*
X289080Y83660D01*
X290350Y84930D01*
X281460Y93820D01*
X286540Y134460D02*
X281460Y139540D01*
X277650Y133190D01*
X281460Y143350D02*
X284000Y148430D01*
X281460Y143350D02*
X275110Y148430D01*
X268760Y185260D01*
X264950Y186530D02*
X271300Y196690D01*
X221770Y186530D02*
X212880Y196690D01*
X268760Y185260D02*
X275110Y194150D01*
X284000Y148430D01*
X249710Y182720D02*
X239550Y182720D01*
X244630Y153510D01*
X252250Y143350D01*
X254790Y149700D01*
X249710Y182720D01*
X266220Y181450D02*
X268760Y162400D01*
X257330Y161130D02*
X266220Y181450D01*
X257330Y161130D02*
X259870Y148430D01*
X262410Y149700D01*
X268760Y162400D01*
X238280Y161130D02*
X225580Y182720D01*
X223040Y182720D01*
X226850Y164940D01*
X235740Y149700D01*
X240820Y148430D01*
X238280Y161130D01*
X217960Y147160D02*
X210340Y192880D01*
X217960Y147160D02*
X223040Y142080D01*
X226850Y147160D01*
X219230Y183990D01*
X210340Y192880D01*
X247170Y143350D02*
X250980Y139540D01*
X247170Y143350D02*
X229390Y143350D01*
X226850Y139540D01*
X231930Y134460D01*
X248440Y134460D01*
X250980Y139540D01*
X235740Y115410D02*
X239550Y97630D01*
X235740Y115410D02*
X242090Y130650D01*
X245900Y130650D01*
X248440Y117950D01*
X239550Y97630D01*
X280190Y97630D02*
X277650Y116680D01*
X264950Y115410D02*
X280190Y97630D01*
X264950Y115410D02*
X262410Y130650D01*
X266220Y130650D01*
X277650Y116680D01*
X259870Y126840D02*
X253520Y135730D01*
X249710Y128110D01*
X256060Y96360D01*
X264950Y96360D01*
X259870Y126840D01*
X286540Y134460D02*
X294160Y88740D01*
X292890Y87470D01*
X285270Y95090D01*
X277650Y133190D01*
X277650Y139540D02*
X272570Y144620D01*
X257330Y144620D01*
X254790Y139540D01*
X258600Y134460D01*
X275110Y134460D01*
X229390Y131920D02*
X223040Y138270D01*
X219230Y133190D01*
X228120Y90010D01*
X229390Y90010D01*
X235740Y95090D01*
X229390Y131920D01*
X275110Y134460D02*
X277650Y139540D01*
X174780Y196690D02*
X116360Y196690D01*
X125250Y186530D02*
X168430Y186530D01*
X184940Y93820D02*
X141760Y93820D01*
X135410Y87470D01*
X135410Y84930D01*
X136680Y83660D01*
X192560Y83660D01*
X193830Y84930D01*
X184940Y93820D01*
X190020Y134460D02*
X184940Y139540D01*
X181130Y133190D01*
X184940Y143350D02*
X187480Y148430D01*
X184940Y143350D02*
X178590Y148430D01*
X172240Y185260D01*
X168430Y186530D02*
X174780Y196690D01*
X125250Y186530D02*
X116360Y196690D01*
X172240Y185260D02*
X178590Y194150D01*
X187480Y148430D01*
X153190Y182720D02*
X143030Y182720D01*
X148110Y153510D01*
X155730Y143350D01*
X158270Y149700D01*
X153190Y182720D01*
X169700Y181450D02*
X172240Y162400D01*
X160810Y161130D02*
X169700Y181450D01*
X160810Y161130D02*
X163350Y148430D01*
X165890Y149700D01*
X172240Y162400D01*
X141760Y161130D02*
X129060Y182720D01*
X126520Y182720D01*
X130330Y164940D01*
X139220Y149700D01*
X144300Y148430D01*
X141760Y161130D01*
X121440Y147160D02*
X113820Y192880D01*
X121440Y147160D02*
X126520Y142080D01*
X130330Y147160D01*
X122710Y183990D01*
X113820Y192880D01*
X150650Y143350D02*
X154460Y139540D01*
X150650Y143350D02*
X132870Y143350D01*
X130330Y139540D01*
X135410Y134460D01*
X151920Y134460D01*
X154460Y139540D01*
X139220Y115410D02*
X143030Y97630D01*
X139220Y115410D02*
X145570Y130650D01*
X149380Y130650D01*
X151920Y117950D01*
X143030Y97630D01*
X183670Y97630D02*
X181130Y116680D01*
X168430Y115410D02*
X183670Y97630D01*
X168430Y115410D02*
X165890Y130650D01*
X169700Y130650D01*
X181130Y116680D01*
X163350Y126840D02*
X157000Y135730D01*
X153190Y128110D01*
X159540Y96360D01*
X168430Y96360D01*
X163350Y126840D01*
X190020Y134460D02*
X197640Y88740D01*
X196370Y87470D01*
X188750Y95090D01*
X181130Y133190D01*
X181130Y139540D02*
X176050Y144620D01*
X160810Y144620D01*
X158270Y139540D01*
X162080Y134460D01*
X178590Y134460D01*
X132870Y131920D02*
X126520Y138270D01*
X122710Y133190D01*
X131600Y90010D01*
X132870Y90010D01*
X139220Y95090D01*
X132870Y131920D01*
X178590Y134460D02*
X181130Y139540D01*
X85880Y196690D02*
X27460Y196690D01*
X36350Y186530D02*
X79530Y186530D01*
X96040Y93820D02*
X52860Y93820D01*
X46510Y87470D01*
X46510Y84930D01*
X47780Y83660D01*
X103660Y83660D01*
X104930Y84930D01*
X96040Y93820D01*
X101120Y134460D02*
X96040Y139540D01*
X92230Y133190D01*
X96040Y143350D02*
X98580Y148430D01*
X96040Y143350D02*
X89690Y148430D01*
X83340Y185260D01*
X79530Y186530D02*
X85880Y196690D01*
X36350Y186530D02*
X27460Y196690D01*
X83340Y185260D02*
X89690Y194150D01*
X98580Y148430D01*
X64290Y182720D02*
X54130Y182720D01*
X59210Y153510D01*
X66830Y143350D01*
X69370Y149700D01*
X64290Y182720D01*
X80800Y181450D02*
X83340Y162400D01*
X71910Y161130D02*
X80800Y181450D01*
X71910Y161130D02*
X74450Y148430D01*
X76990Y149700D01*
X83340Y162400D01*
X52860Y161130D02*
X40160Y182720D01*
X37620Y182720D01*
X41430Y164940D01*
X50320Y149700D01*
X55400Y148430D01*
X52860Y161130D01*
X32540Y147160D02*
X24920Y192880D01*
X32540Y147160D02*
X37620Y142080D01*
X41430Y147160D01*
X33810Y183990D01*
X24920Y192880D01*
X61750Y143350D02*
X65560Y139540D01*
X61750Y143350D02*
X43970Y143350D01*
X41430Y139540D01*
X46510Y134460D01*
X63020Y134460D01*
X65560Y139540D01*
X50320Y115410D02*
X54130Y97630D01*
X50320Y115410D02*
X56670Y130650D01*
X60480Y130650D01*
X63020Y117950D01*
X54130Y97630D01*
X94770Y97630D02*
X92230Y116680D01*
X79530Y115410D02*
X94770Y97630D01*
X79530Y115410D02*
X76990Y130650D01*
X80800Y130650D01*
X92230Y116680D01*
X74450Y126840D02*
X68100Y135730D01*
X64290Y128110D01*
X70640Y96360D01*
X79530Y96360D01*
X74450Y126840D01*
X101120Y134460D02*
X108740Y88740D01*
X107470Y87470D01*
X99850Y95090D01*
X92230Y133190D01*
X92230Y139540D02*
X87150Y144620D01*
X71910Y144620D01*
X69370Y139540D01*
X73180Y134460D01*
X89690Y134460D01*
X43970Y131920D02*
X37620Y138270D01*
X33810Y133190D01*
X42700Y90010D01*
X43970Y90010D01*
X50320Y95090D01*
X43970Y131920D01*
X89690Y134460D02*
X92230Y139540D01*
X196370Y154780D02*
X196372Y154922D01*
X196378Y155065D01*
X196388Y155207D01*
X196402Y155349D01*
X196420Y155490D01*
X196442Y155631D01*
X196468Y155771D01*
X196497Y155910D01*
X196531Y156049D01*
X196569Y156186D01*
X196610Y156323D01*
X196655Y156458D01*
X196704Y156592D01*
X196757Y156724D01*
X196813Y156855D01*
X196873Y156984D01*
X196937Y157112D01*
X197004Y157237D01*
X197075Y157361D01*
X197149Y157483D01*
X197226Y157602D01*
X197307Y157720D01*
X197391Y157835D01*
X197478Y157947D01*
X197569Y158057D01*
X197662Y158165D01*
X197759Y158270D01*
X197858Y158372D01*
X197960Y158471D01*
X198065Y158568D01*
X198173Y158661D01*
X198283Y158752D01*
X198395Y158839D01*
X198510Y158923D01*
X198628Y159004D01*
X198747Y159081D01*
X198869Y159155D01*
X198993Y159226D01*
X199118Y159293D01*
X199246Y159357D01*
X199375Y159417D01*
X199506Y159473D01*
X199638Y159526D01*
X199772Y159575D01*
X199907Y159620D01*
X200044Y159661D01*
X200181Y159699D01*
X200320Y159733D01*
X200459Y159762D01*
X200599Y159788D01*
X200740Y159810D01*
X200881Y159828D01*
X201023Y159842D01*
X201165Y159852D01*
X201308Y159858D01*
X201450Y159860D01*
X201592Y159858D01*
X201735Y159852D01*
X201877Y159842D01*
X202019Y159828D01*
X202160Y159810D01*
X202301Y159788D01*
X202441Y159762D01*
X202580Y159733D01*
X202719Y159699D01*
X202856Y159661D01*
X202993Y159620D01*
X203128Y159575D01*
X203262Y159526D01*
X203394Y159473D01*
X203525Y159417D01*
X203654Y159357D01*
X203782Y159293D01*
X203907Y159226D01*
X204031Y159155D01*
X204153Y159081D01*
X204272Y159004D01*
X204390Y158923D01*
X204505Y158839D01*
X204617Y158752D01*
X204727Y158661D01*
X204835Y158568D01*
X204940Y158471D01*
X205042Y158372D01*
X205141Y158270D01*
X205238Y158165D01*
X205331Y158057D01*
X205422Y157947D01*
X205509Y157835D01*
X205593Y157720D01*
X205674Y157602D01*
X205751Y157483D01*
X205825Y157361D01*
X205896Y157237D01*
X205963Y157112D01*
X206027Y156984D01*
X206087Y156855D01*
X206143Y156724D01*
X206196Y156592D01*
X206245Y156458D01*
X206290Y156323D01*
X206331Y156186D01*
X206369Y156049D01*
X206403Y155910D01*
X206432Y155771D01*
X206458Y155631D01*
X206480Y155490D01*
X206498Y155349D01*
X206512Y155207D01*
X206522Y155065D01*
X206528Y154922D01*
X206530Y154780D01*
X206528Y154638D01*
X206522Y154495D01*
X206512Y154353D01*
X206498Y154211D01*
X206480Y154070D01*
X206458Y153929D01*
X206432Y153789D01*
X206403Y153650D01*
X206369Y153511D01*
X206331Y153374D01*
X206290Y153237D01*
X206245Y153102D01*
X206196Y152968D01*
X206143Y152836D01*
X206087Y152705D01*
X206027Y152576D01*
X205963Y152448D01*
X205896Y152323D01*
X205825Y152199D01*
X205751Y152077D01*
X205674Y151958D01*
X205593Y151840D01*
X205509Y151725D01*
X205422Y151613D01*
X205331Y151503D01*
X205238Y151395D01*
X205141Y151290D01*
X205042Y151188D01*
X204940Y151089D01*
X204835Y150992D01*
X204727Y150899D01*
X204617Y150808D01*
X204505Y150721D01*
X204390Y150637D01*
X204272Y150556D01*
X204153Y150479D01*
X204031Y150405D01*
X203907Y150334D01*
X203782Y150267D01*
X203654Y150203D01*
X203525Y150143D01*
X203394Y150087D01*
X203262Y150034D01*
X203128Y149985D01*
X202993Y149940D01*
X202856Y149899D01*
X202719Y149861D01*
X202580Y149827D01*
X202441Y149798D01*
X202301Y149772D01*
X202160Y149750D01*
X202019Y149732D01*
X201877Y149718D01*
X201735Y149708D01*
X201592Y149702D01*
X201450Y149700D01*
X201308Y149702D01*
X201165Y149708D01*
X201023Y149718D01*
X200881Y149732D01*
X200740Y149750D01*
X200599Y149772D01*
X200459Y149798D01*
X200320Y149827D01*
X200181Y149861D01*
X200044Y149899D01*
X199907Y149940D01*
X199772Y149985D01*
X199638Y150034D01*
X199506Y150087D01*
X199375Y150143D01*
X199246Y150203D01*
X199118Y150267D01*
X198993Y150334D01*
X198869Y150405D01*
X198747Y150479D01*
X198628Y150556D01*
X198510Y150637D01*
X198395Y150721D01*
X198283Y150808D01*
X198173Y150899D01*
X198065Y150992D01*
X197960Y151089D01*
X197858Y151188D01*
X197759Y151290D01*
X197662Y151395D01*
X197569Y151503D01*
X197478Y151613D01*
X197391Y151725D01*
X197307Y151840D01*
X197226Y151958D01*
X197149Y152077D01*
X197075Y152199D01*
X197004Y152323D01*
X196937Y152448D01*
X196873Y152576D01*
X196813Y152705D01*
X196757Y152836D01*
X196704Y152968D01*
X196655Y153102D01*
X196610Y153237D01*
X196569Y153374D01*
X196531Y153511D01*
X196497Y153650D01*
X196468Y153789D01*
X196442Y153929D01*
X196420Y154070D01*
X196402Y154211D01*
X196388Y154353D01*
X196378Y154495D01*
X196372Y154638D01*
X196370Y154780D01*
X201450Y126840D02*
X201452Y126982D01*
X201458Y127125D01*
X201468Y127267D01*
X201482Y127409D01*
X201500Y127550D01*
X201522Y127691D01*
X201548Y127831D01*
X201577Y127970D01*
X201611Y128109D01*
X201649Y128246D01*
X201690Y128383D01*
X201735Y128518D01*
X201784Y128652D01*
X201837Y128784D01*
X201893Y128915D01*
X201953Y129044D01*
X202017Y129172D01*
X202084Y129297D01*
X202155Y129421D01*
X202229Y129543D01*
X202306Y129662D01*
X202387Y129780D01*
X202471Y129895D01*
X202558Y130007D01*
X202649Y130117D01*
X202742Y130225D01*
X202839Y130330D01*
X202938Y130432D01*
X203040Y130531D01*
X203145Y130628D01*
X203253Y130721D01*
X203363Y130812D01*
X203475Y130899D01*
X203590Y130983D01*
X203708Y131064D01*
X203827Y131141D01*
X203949Y131215D01*
X204073Y131286D01*
X204198Y131353D01*
X204326Y131417D01*
X204455Y131477D01*
X204586Y131533D01*
X204718Y131586D01*
X204852Y131635D01*
X204987Y131680D01*
X205124Y131721D01*
X205261Y131759D01*
X205400Y131793D01*
X205539Y131822D01*
X205679Y131848D01*
X205820Y131870D01*
X205961Y131888D01*
X206103Y131902D01*
X206245Y131912D01*
X206388Y131918D01*
X206530Y131920D01*
X206672Y131918D01*
X206815Y131912D01*
X206957Y131902D01*
X207099Y131888D01*
X207240Y131870D01*
X207381Y131848D01*
X207521Y131822D01*
X207660Y131793D01*
X207799Y131759D01*
X207936Y131721D01*
X208073Y131680D01*
X208208Y131635D01*
X208342Y131586D01*
X208474Y131533D01*
X208605Y131477D01*
X208734Y131417D01*
X208862Y131353D01*
X208987Y131286D01*
X209111Y131215D01*
X209233Y131141D01*
X209352Y131064D01*
X209470Y130983D01*
X209585Y130899D01*
X209697Y130812D01*
X209807Y130721D01*
X209915Y130628D01*
X210020Y130531D01*
X210122Y130432D01*
X210221Y130330D01*
X210318Y130225D01*
X210411Y130117D01*
X210502Y130007D01*
X210589Y129895D01*
X210673Y129780D01*
X210754Y129662D01*
X210831Y129543D01*
X210905Y129421D01*
X210976Y129297D01*
X211043Y129172D01*
X211107Y129044D01*
X211167Y128915D01*
X211223Y128784D01*
X211276Y128652D01*
X211325Y128518D01*
X211370Y128383D01*
X211411Y128246D01*
X211449Y128109D01*
X211483Y127970D01*
X211512Y127831D01*
X211538Y127691D01*
X211560Y127550D01*
X211578Y127409D01*
X211592Y127267D01*
X211602Y127125D01*
X211608Y126982D01*
X211610Y126840D01*
X211608Y126698D01*
X211602Y126555D01*
X211592Y126413D01*
X211578Y126271D01*
X211560Y126130D01*
X211538Y125989D01*
X211512Y125849D01*
X211483Y125710D01*
X211449Y125571D01*
X211411Y125434D01*
X211370Y125297D01*
X211325Y125162D01*
X211276Y125028D01*
X211223Y124896D01*
X211167Y124765D01*
X211107Y124636D01*
X211043Y124508D01*
X210976Y124383D01*
X210905Y124259D01*
X210831Y124137D01*
X210754Y124018D01*
X210673Y123900D01*
X210589Y123785D01*
X210502Y123673D01*
X210411Y123563D01*
X210318Y123455D01*
X210221Y123350D01*
X210122Y123248D01*
X210020Y123149D01*
X209915Y123052D01*
X209807Y122959D01*
X209697Y122868D01*
X209585Y122781D01*
X209470Y122697D01*
X209352Y122616D01*
X209233Y122539D01*
X209111Y122465D01*
X208987Y122394D01*
X208862Y122327D01*
X208734Y122263D01*
X208605Y122203D01*
X208474Y122147D01*
X208342Y122094D01*
X208208Y122045D01*
X208073Y122000D01*
X207936Y121959D01*
X207799Y121921D01*
X207660Y121887D01*
X207521Y121858D01*
X207381Y121832D01*
X207240Y121810D01*
X207099Y121792D01*
X206957Y121778D01*
X206815Y121768D01*
X206672Y121762D01*
X206530Y121760D01*
X206388Y121762D01*
X206245Y121768D01*
X206103Y121778D01*
X205961Y121792D01*
X205820Y121810D01*
X205679Y121832D01*
X205539Y121858D01*
X205400Y121887D01*
X205261Y121921D01*
X205124Y121959D01*
X204987Y122000D01*
X204852Y122045D01*
X204718Y122094D01*
X204586Y122147D01*
X204455Y122203D01*
X204326Y122263D01*
X204198Y122327D01*
X204073Y122394D01*
X203949Y122465D01*
X203827Y122539D01*
X203708Y122616D01*
X203590Y122697D01*
X203475Y122781D01*
X203363Y122868D01*
X203253Y122959D01*
X203145Y123052D01*
X203040Y123149D01*
X202938Y123248D01*
X202839Y123350D01*
X202742Y123455D01*
X202649Y123563D01*
X202558Y123673D01*
X202471Y123785D01*
X202387Y123900D01*
X202306Y124018D01*
X202229Y124137D01*
X202155Y124259D01*
X202084Y124383D01*
X202017Y124508D01*
X201953Y124636D01*
X201893Y124765D01*
X201837Y124896D01*
X201784Y125028D01*
X201735Y125162D01*
X201690Y125297D01*
X201649Y125434D01*
X201611Y125571D01*
X201577Y125710D01*
X201548Y125849D01*
X201522Y125989D01*
X201500Y126130D01*
X201482Y126271D01*
X201468Y126413D01*
X201458Y126555D01*
X201452Y126698D01*
X201450Y126840D01*
X115090Y88740D02*
X115092Y88882D01*
X115098Y89025D01*
X115108Y89167D01*
X115122Y89309D01*
X115140Y89450D01*
X115162Y89591D01*
X115188Y89731D01*
X115217Y89870D01*
X115251Y90009D01*
X115289Y90146D01*
X115330Y90283D01*
X115375Y90418D01*
X115424Y90552D01*
X115477Y90684D01*
X115533Y90815D01*
X115593Y90944D01*
X115657Y91072D01*
X115724Y91197D01*
X115795Y91321D01*
X115869Y91443D01*
X115946Y91562D01*
X116027Y91680D01*
X116111Y91795D01*
X116198Y91907D01*
X116289Y92017D01*
X116382Y92125D01*
X116479Y92230D01*
X116578Y92332D01*
X116680Y92431D01*
X116785Y92528D01*
X116893Y92621D01*
X117003Y92712D01*
X117115Y92799D01*
X117230Y92883D01*
X117348Y92964D01*
X117467Y93041D01*
X117589Y93115D01*
X117713Y93186D01*
X117838Y93253D01*
X117966Y93317D01*
X118095Y93377D01*
X118226Y93433D01*
X118358Y93486D01*
X118492Y93535D01*
X118627Y93580D01*
X118764Y93621D01*
X118901Y93659D01*
X119040Y93693D01*
X119179Y93722D01*
X119319Y93748D01*
X119460Y93770D01*
X119601Y93788D01*
X119743Y93802D01*
X119885Y93812D01*
X120028Y93818D01*
X120170Y93820D01*
X120312Y93818D01*
X120455Y93812D01*
X120597Y93802D01*
X120739Y93788D01*
X120880Y93770D01*
X121021Y93748D01*
X121161Y93722D01*
X121300Y93693D01*
X121439Y93659D01*
X121576Y93621D01*
X121713Y93580D01*
X121848Y93535D01*
X121982Y93486D01*
X122114Y93433D01*
X122245Y93377D01*
X122374Y93317D01*
X122502Y93253D01*
X122627Y93186D01*
X122751Y93115D01*
X122873Y93041D01*
X122992Y92964D01*
X123110Y92883D01*
X123225Y92799D01*
X123337Y92712D01*
X123447Y92621D01*
X123555Y92528D01*
X123660Y92431D01*
X123762Y92332D01*
X123861Y92230D01*
X123958Y92125D01*
X124051Y92017D01*
X124142Y91907D01*
X124229Y91795D01*
X124313Y91680D01*
X124394Y91562D01*
X124471Y91443D01*
X124545Y91321D01*
X124616Y91197D01*
X124683Y91072D01*
X124747Y90944D01*
X124807Y90815D01*
X124863Y90684D01*
X124916Y90552D01*
X124965Y90418D01*
X125010Y90283D01*
X125051Y90146D01*
X125089Y90009D01*
X125123Y89870D01*
X125152Y89731D01*
X125178Y89591D01*
X125200Y89450D01*
X125218Y89309D01*
X125232Y89167D01*
X125242Y89025D01*
X125248Y88882D01*
X125250Y88740D01*
X125248Y88598D01*
X125242Y88455D01*
X125232Y88313D01*
X125218Y88171D01*
X125200Y88030D01*
X125178Y87889D01*
X125152Y87749D01*
X125123Y87610D01*
X125089Y87471D01*
X125051Y87334D01*
X125010Y87197D01*
X124965Y87062D01*
X124916Y86928D01*
X124863Y86796D01*
X124807Y86665D01*
X124747Y86536D01*
X124683Y86408D01*
X124616Y86283D01*
X124545Y86159D01*
X124471Y86037D01*
X124394Y85918D01*
X124313Y85800D01*
X124229Y85685D01*
X124142Y85573D01*
X124051Y85463D01*
X123958Y85355D01*
X123861Y85250D01*
X123762Y85148D01*
X123660Y85049D01*
X123555Y84952D01*
X123447Y84859D01*
X123337Y84768D01*
X123225Y84681D01*
X123110Y84597D01*
X122992Y84516D01*
X122873Y84439D01*
X122751Y84365D01*
X122627Y84294D01*
X122502Y84227D01*
X122374Y84163D01*
X122245Y84103D01*
X122114Y84047D01*
X121982Y83994D01*
X121848Y83945D01*
X121713Y83900D01*
X121576Y83859D01*
X121439Y83821D01*
X121300Y83787D01*
X121161Y83758D01*
X121021Y83732D01*
X120880Y83710D01*
X120739Y83692D01*
X120597Y83678D01*
X120455Y83668D01*
X120312Y83662D01*
X120170Y83660D01*
X120028Y83662D01*
X119885Y83668D01*
X119743Y83678D01*
X119601Y83692D01*
X119460Y83710D01*
X119319Y83732D01*
X119179Y83758D01*
X119040Y83787D01*
X118901Y83821D01*
X118764Y83859D01*
X118627Y83900D01*
X118492Y83945D01*
X118358Y83994D01*
X118226Y84047D01*
X118095Y84103D01*
X117966Y84163D01*
X117838Y84227D01*
X117713Y84294D01*
X117589Y84365D01*
X117467Y84439D01*
X117348Y84516D01*
X117230Y84597D01*
X117115Y84681D01*
X117003Y84768D01*
X116893Y84859D01*
X116785Y84952D01*
X116680Y85049D01*
X116578Y85148D01*
X116479Y85250D01*
X116382Y85355D01*
X116289Y85463D01*
X116198Y85573D01*
X116111Y85685D01*
X116027Y85800D01*
X115946Y85918D01*
X115869Y86037D01*
X115795Y86159D01*
X115724Y86283D01*
X115657Y86408D01*
X115593Y86536D01*
X115533Y86665D01*
X115477Y86796D01*
X115424Y86928D01*
X115375Y87062D01*
X115330Y87197D01*
X115289Y87334D01*
X115251Y87471D01*
X115217Y87610D01*
X115188Y87749D01*
X115162Y87889D01*
X115140Y88030D01*
X115122Y88171D01*
X115108Y88313D01*
X115098Y88455D01*
X115092Y88598D01*
X115090Y88740D01*
D12*
X118900Y53180D02*
X118902Y53251D01*
X118908Y53322D01*
X118918Y53393D01*
X118932Y53463D01*
X118950Y53532D01*
X118971Y53599D01*
X118997Y53666D01*
X119026Y53731D01*
X119058Y53794D01*
X119095Y53856D01*
X119134Y53915D01*
X119177Y53972D01*
X119223Y54026D01*
X119272Y54078D01*
X119324Y54127D01*
X119378Y54173D01*
X119435Y54216D01*
X119494Y54255D01*
X119556Y54292D01*
X119619Y54324D01*
X119684Y54353D01*
X119751Y54379D01*
X119818Y54400D01*
X119887Y54418D01*
X119957Y54432D01*
X120028Y54442D01*
X120099Y54448D01*
X120170Y54450D01*
X120241Y54448D01*
X120312Y54442D01*
X120383Y54432D01*
X120453Y54418D01*
X120522Y54400D01*
X120589Y54379D01*
X120656Y54353D01*
X120721Y54324D01*
X120784Y54292D01*
X120846Y54255D01*
X120905Y54216D01*
X120962Y54173D01*
X121016Y54127D01*
X121068Y54078D01*
X121117Y54026D01*
X121163Y53972D01*
X121206Y53915D01*
X121245Y53856D01*
X121282Y53794D01*
X121314Y53731D01*
X121343Y53666D01*
X121369Y53599D01*
X121390Y53532D01*
X121408Y53463D01*
X121422Y53393D01*
X121432Y53322D01*
X121438Y53251D01*
X121440Y53180D01*
X121438Y53109D01*
X121432Y53038D01*
X121422Y52967D01*
X121408Y52897D01*
X121390Y52828D01*
X121369Y52761D01*
X121343Y52694D01*
X121314Y52629D01*
X121282Y52566D01*
X121245Y52504D01*
X121206Y52445D01*
X121163Y52388D01*
X121117Y52334D01*
X121068Y52282D01*
X121016Y52233D01*
X120962Y52187D01*
X120905Y52144D01*
X120846Y52105D01*
X120784Y52068D01*
X120721Y52036D01*
X120656Y52007D01*
X120589Y51981D01*
X120522Y51960D01*
X120453Y51942D01*
X120383Y51928D01*
X120312Y51918D01*
X120241Y51912D01*
X120170Y51910D01*
X120099Y51912D01*
X120028Y51918D01*
X119957Y51928D01*
X119887Y51942D01*
X119818Y51960D01*
X119751Y51981D01*
X119684Y52007D01*
X119619Y52036D01*
X119556Y52068D01*
X119494Y52105D01*
X119435Y52144D01*
X119378Y52187D01*
X119324Y52233D01*
X119272Y52282D01*
X119223Y52334D01*
X119177Y52388D01*
X119134Y52445D01*
X119095Y52504D01*
X119058Y52566D01*
X119026Y52629D01*
X118997Y52694D01*
X118971Y52761D01*
X118950Y52828D01*
X118932Y52897D01*
X118918Y52967D01*
X118908Y53038D01*
X118902Y53109D01*
X118900Y53180D01*
M02*
