M48
;GenerationSoftware,Autodesk,EAGLE,9.6.2*%
;CreationDate,2021-07-27T14:01:52Z*%
FMAT,2
ICI,OFF
METRIC,TZ,000.000
T4C0.305
T3C0.750
T2C1.016
T1C3.302
%
G90
M71
T1
X2540Y25400
X38100Y2540
X2540Y2540
X38100Y25400
T2
X29210Y10160
X29210Y12700
X29210Y15240
X29210Y17780
T3
X12718Y20118
X30498Y7878
X27958Y7878
X25418Y7878
X22878Y7878
X20338Y7878
X17798Y7878
X15258Y7878
X12718Y7878
X15258Y20118
X17798Y20118
X20338Y20118
X22878Y20118
X25418Y20118
X27958Y20118
X30498Y20118
T4
X12065Y10541
X37338Y14097
X22225Y14859
X22898Y13037
X20955Y15367
X1270Y10160
X19663Y12043
X13970Y11176
X17866Y11598
X3175Y11176
X25837Y12281
X26416Y11684
X25291Y12936
X2794Y18923
X4318Y14224
X8265Y7658
X10414Y11176
X10668Y20574
X27432Y12827
X31877Y6858
X11938Y15240
X26924Y19177
X3429Y13589
X5715Y10287
X32766Y10414
X25984Y14162
X2921Y17907
X24430Y15794
X1778Y7366
X25400Y14859
X5334Y17018
X11303Y13716
X25325Y15800
X17145Y10541
X16510Y15113
M30