M48
;GenerationSoftware,Autodesk,EAGLE,9.6.2*%
;CreationDate,2021-09-03T16:46:12Z*%
FMAT,2
ICI,OFF
METRIC,TZ,000.000
T4C0.305
T3C0.750
T2C1.016
T1C3.302
%
G90
M71
T1
X43688Y139192
X38100Y2540
X2540Y25400
X2540Y2540
X38100Y25400
X79248Y2540
X43688Y25400
X43688Y2540
X79248Y25400
X120396Y2540
X84836Y25400
X84836Y2540
X120396Y25400
X38100Y30988
X2540Y53848
X2540Y30988
X38100Y53848
X79248Y30988
X43688Y53848
X43688Y30988
X79248Y53848
X120396Y30988
X84836Y53848
X84836Y30988
X120396Y53848
X38100Y59436
X2540Y82296
X2540Y59436
X38100Y82296
X79248Y59436
X43688Y82296
X43688Y59436
X79248Y82296
X120396Y59436
X84836Y82296
X84836Y59436
X120396Y82296
X38100Y87884
X2540Y110744
X2540Y87884
X38100Y110744
X79248Y87884
X43688Y110744
X43688Y87884
X79248Y110744
X120396Y87884
X84836Y110744
X84836Y87884
X120396Y110744
X38100Y116332
X2540Y139192
X2540Y116332
X38100Y139192
X79248Y116332
X120396Y167640
X43688Y116332
X79248Y139192
X120396Y116332
X84836Y139192
X84836Y116332
X120396Y139192
X38100Y144780
X2540Y167640
X2540Y144780
X38100Y167640
X79248Y144780
X43688Y167640
X43688Y144780
X79248Y167640
X120396Y144780
X84836Y167640
X84836Y144780
T2
X111506Y43688
X29210Y10160
X29210Y12700
X29210Y15240
X29210Y17780
X111506Y46228
X70358Y67056
X70358Y69596
X29210Y67056
X29210Y38608
X29210Y41148
X29210Y43688
X29210Y46228
X111506Y10160
X111506Y12700
X111506Y15240
X111506Y17780
X70358Y38608
X70358Y41148
X70358Y43688
X70358Y46228
X70358Y10160
X70358Y12700
X70358Y15240
X70358Y17780
X29210Y69596
X29210Y72136
X29210Y74676
X70358Y72136
X111506Y38608
X70358Y74676
X111506Y41148
X111506Y67056
X111506Y69596
X111506Y72136
X111506Y74676
X29210Y95504
X29210Y98044
X29210Y100584
X29210Y103124
X70358Y95504
X70358Y98044
X70358Y100584
X70358Y103124
X111506Y95504
X111506Y98044
X111506Y100584
X111506Y103124
X29210Y123952
X29210Y126492
X29210Y129032
X29210Y131572
X70358Y123952
X70358Y126492
X70358Y129032
X70358Y131572
X111506Y123952
X111506Y126492
X111506Y129032
X111506Y131572
X29210Y152400
X29210Y154940
X29210Y157480
X29210Y160020
X70358Y152400
X70358Y154940
X70358Y157480
X70358Y160020
X111506Y152400
X111506Y154940
X111506Y157480
X111506Y160020
T3
X95014Y7878
X95014Y20118
X97554Y20118
X100094Y20118
X102634Y20118
X105174Y20118
X107714Y20118
X110254Y20118
X112794Y20118
X30498Y36326
X27958Y36326
X25418Y36326
X22878Y36326
X20338Y36326
X17798Y36326
X15258Y36326
X12718Y36326
X12718Y48566
X15258Y48566
X17798Y48566
X20338Y48566
X22878Y48566
X25418Y48566
X27958Y48566
X30498Y48566
X71646Y36326
X69106Y36326
X66566Y36326
X64026Y36326
X61486Y36326
X56406Y36326
X53866Y36326
X53866Y48566
X56406Y48566
X58946Y48566
X61486Y48566
X64026Y48566
X66566Y48566
X69106Y48566
X71646Y48566
X112794Y36326
X110254Y36326
X107714Y36326
X105174Y36326
X102634Y36326
X100094Y36326
X97554Y36326
X95014Y36326
X95014Y48566
X97554Y48566
X100094Y48566
X102634Y48566
X105174Y48566
X107714Y48566
X110254Y48566
X112794Y48566
X30498Y64774
X27958Y64774
X25418Y64774
X22878Y64774
X20338Y64774
X17798Y64774
X15258Y64774
X12718Y64774
X12718Y77014
X15258Y77014
X17798Y77014
X20338Y77014
X22878Y77014
X25418Y77014
X27958Y77014
X30498Y77014
X58946Y36326
X71646Y64774
X69106Y64774
X66566Y64774
X64026Y64774
X61486Y64774
X58946Y64774
X56406Y64774
X53866Y64774
X53866Y77014
X56406Y77014
X58946Y77014
X61486Y77014
X64026Y77014
X66566Y77014
X69106Y77014
X71646Y77014
X61486Y105462
X30498Y7878
X27958Y7878
X25418Y7878
X112794Y64774
X110254Y64774
X107714Y64774
X105174Y64774
X102634Y64774
X100094Y64774
X97554Y64774
X95014Y64774
X95014Y77014
X97554Y77014
X100094Y77014
X102634Y77014
X105174Y77014
X107714Y77014
X110254Y77014
X112794Y77014
X22878Y7878
X20338Y7878
X17798Y7878
X15258Y7878
X30498Y93222
X27958Y93222
X25418Y93222
X22878Y93222
X20338Y93222
X17798Y93222
X15258Y93222
X12718Y93222
X12718Y105462
X15258Y105462
X17798Y105462
X20338Y105462
X22878Y105462
X25418Y105462
X27958Y105462
X30498Y105462
X12718Y7878
X12718Y20118
X15258Y20118
X17798Y20118
X71646Y93222
X69106Y93222
X66566Y93222
X64026Y93222
X61486Y93222
X58946Y93222
X56406Y93222
X53866Y93222
X53866Y105462
X56406Y105462
X58946Y105462
X64026Y105462
X66566Y105462
X69106Y105462
X71646Y105462
X20338Y20118
X22878Y20118
X25418Y20118
X27958Y20118
X112794Y93222
X110254Y93222
X107714Y93222
X105174Y93222
X102634Y93222
X100094Y93222
X97554Y93222
X95014Y93222
X95014Y105462
X97554Y105462
X100094Y105462
X102634Y105462
X105174Y105462
X107714Y105462
X110254Y105462
X112794Y105462
X30498Y20118
X71646Y7878
X69106Y7878
X66566Y7878
X30498Y121670
X27958Y121670
X25418Y121670
X22878Y121670
X20338Y121670
X17798Y121670
X15258Y121670
X12718Y121670
X12718Y133910
X15258Y133910
X17798Y133910
X20338Y133910
X22878Y133910
X25418Y133910
X27958Y133910
X30498Y133910
X64026Y7878
X61486Y7878
X58946Y7878
X56406Y7878
X71646Y121670
X69106Y121670
X66566Y121670
X64026Y121670
X61486Y121670
X58946Y121670
X56406Y121670
X53866Y121670
X53866Y133910
X56406Y133910
X58946Y133910
X61486Y133910
X64026Y133910
X66566Y133910
X69106Y133910
X71646Y133910
X53866Y7878
X53866Y20118
X56406Y20118
X58946Y20118
X112794Y121670
X110254Y121670
X107714Y121670
X105174Y121670
X102634Y121670
X100094Y121670
X97554Y121670
X95014Y121670
X95014Y133910
X97554Y133910
X100094Y133910
X102634Y133910
X105174Y133910
X107714Y133910
X110254Y133910
X112794Y133910
X61486Y20118
X64026Y20118
X66566Y20118
X69106Y20118
X30498Y150118
X27958Y150118
X25418Y150118
X22878Y150118
X20338Y150118
X17798Y150118
X15258Y150118
X12718Y150118
X12718Y162358
X15258Y162358
X17798Y162358
X20338Y162358
X22878Y162358
X25418Y162358
X27958Y162358
X30498Y162358
X71646Y20118
X112794Y7878
X110254Y7878
X107714Y7878
X71646Y150118
X69106Y150118
X66566Y150118
X64026Y150118
X61486Y150118
X58946Y150118
X56406Y150118
X53866Y150118
X53866Y162358
X56406Y162358
X58946Y162358
X61486Y162358
X64026Y162358
X66566Y162358
X69106Y162358
X71646Y162358
X105174Y7878
X102634Y7878
X100094Y7878
X97554Y7878
X112794Y150118
X110254Y150118
X107714Y150118
X105174Y150118
X102634Y150118
X100094Y150118
X97554Y150118
X95014Y150118
X95014Y162358
X97554Y162358
X100094Y162358
X102634Y162358
X105174Y162358
X107714Y162358
X110254Y162358
X112794Y162358
T4
X63373Y100203
X62103Y100711
X66439Y98661
X60706Y97663
X55118Y96520
X59014Y96942
X44450Y96393
X66985Y98006
X108712Y97028
X85090Y104267
X86614Y99568
X92202Y96393
X89311Y93726
X92964Y105918
X109728Y98171
X83566Y95504
X113538Y91948
X94488Y100584
X109220Y104648
X85725Y98933
X88011Y95631
X101092Y100076
X119888Y93472
X84963Y105283
X98933Y97790
X103886Y96647
X97536Y95758
X106426Y95758
X115062Y95758
X108915Y100395
X93980Y97409
X92456Y92418
X108458Y100965
X108637Y102160
X99441Y95885
X107696Y102362
X98171Y100457
X94361Y95885
X118364Y99822
X104521Y100203
X105194Y98381
X103251Y100711
X107587Y98661
X101854Y97663
X96266Y96520
X100162Y96942
X85598Y96393
X108133Y98006
X26416Y125476
X2794Y132715
X4318Y128016
X9906Y124841
X7015Y122174
X10668Y134366
X27432Y126619
X1270Y123952
X31242Y120396
X12192Y129032
X26924Y133096
X3429Y127381
X5715Y124079
X18796Y128524
X37592Y121920
X2667Y133731
X16637Y126238
X21590Y125095
X15240Y124206
X24130Y124206
X32766Y124206
X26619Y128843
X11684Y125857
X10160Y120866
X26162Y129413
X26341Y130608
X17145Y124333
X25400Y130810
X15875Y128905
X12065Y124333
X36068Y128270
X22225Y128651
X22898Y126829
X20955Y129159
X25291Y127109
X19558Y126111
X13970Y124968
X17866Y125390
X3302Y124841
X25837Y126454
X67564Y125476
X43942Y132715
X45466Y128016
X51054Y124841
X48163Y122174
X51816Y134366
X68580Y126619
X42418Y123952
X72390Y120396
X53340Y129032
X68072Y133096
X44577Y127381
X46863Y124079
X59944Y128524
X78740Y121920
X43815Y133731
X57785Y126238
X62738Y125095
X56388Y124206
X65278Y124206
X73914Y124206
X67767Y128843
X52832Y125857
X51308Y120866
X67310Y129413
X67489Y130608
X58293Y124333
X66548Y130810
X57023Y128905
X53213Y124333
X77216Y128270
X63373Y128651
X64046Y126829
X62103Y129159
X66439Y127109
X60706Y126111
X55118Y124968
X59014Y125390
X44450Y124841
X66985Y126454
X108712Y125476
X85090Y132715
X86614Y128016
X92202Y124841
X89311Y122174
X92964Y134366
X109728Y126619
X83566Y123952
X113538Y120396
X94488Y129032
X109220Y133096
X85725Y127381
X88011Y124079
X101092Y128524
X119888Y121920
X84963Y133731
X26162Y44069
X103886Y125095
X97536Y124206
X106426Y124206
X115062Y124206
X108915Y128843
X93980Y125857
X92456Y120866
X108458Y129413
X108637Y130608
X99441Y124333
X107696Y130810
X98171Y128905
X94361Y124333
X118364Y128270
X104521Y128651
X105194Y126829
X103251Y129159
X107587Y127109
X101854Y126111
X96266Y124968
X100162Y125390
X85598Y124841
X108133Y126454
X26416Y153924
X2794Y161163
X4318Y156464
X9906Y153289
X7015Y150622
X10668Y162814
X27432Y155067
X1270Y152400
X31242Y148844
X12192Y157480
X26924Y161544
X3429Y155829
X5715Y152527
X18796Y156972
X37592Y150368
X2667Y162179
X16637Y154686
X21590Y153543
X15240Y152654
X24130Y152654
X32766Y152654
X26619Y157291
X11684Y154305
X10160Y149314
X26162Y157861
X26341Y159056
X17145Y152781
X25400Y159258
X15875Y157353
X12065Y152781
X36068Y156718
X22225Y157099
X22898Y155277
X20955Y157607
X25291Y155557
X19558Y154559
X13970Y153416
X17866Y153838
X3302Y153289
X25837Y154902
X67564Y153924
X43942Y161163
X45466Y156464
X51054Y153289
X48163Y150622
X51816Y162814
X68580Y155067
X42418Y152400
X72390Y148844
X53340Y157480
X68072Y161544
X44577Y155829
X46863Y152527
X59944Y156972
X78740Y150368
X43815Y162179
X57785Y154686
X62738Y153543
X56388Y152654
X65278Y152654
X73914Y152654
X67767Y157291
X52832Y154305
X51308Y149314
X67310Y157861
X67489Y159056
X58293Y152781
X66548Y159258
X57023Y157353
X53213Y152781
X77216Y156718
X63373Y157099
X64046Y155277
X62103Y157607
X66439Y155557
X60706Y154559
X55118Y153416
X59014Y153838
X44450Y153289
X66985Y154902
X108712Y153924
X85090Y161163
X86614Y156464
X92202Y153289
X89311Y150622
X92964Y162814
X109728Y155067
X83566Y152400
X113538Y148844
X94488Y157480
X109220Y161544
X85725Y155829
X88011Y152527
X101092Y156972
X119888Y150368
X84963Y162179
X98933Y154686
X103886Y153543
X97536Y152654
X106426Y152654
X115062Y152654
X108915Y157291
X93980Y154305
X92456Y149314
X108458Y157861
X108637Y159056
X99441Y152781
X107696Y159258
X98171Y157353
X94361Y152781
X118364Y156718
X104521Y157099
X105194Y155277
X103251Y157607
X107587Y155557
X101854Y154559
X96266Y153416
X100162Y153838
X85598Y153289
X108133Y154902
X98933Y126238
X26416Y11684
X2794Y18923
X4318Y14224
X9906Y11049
X7015Y8382
X10668Y20574
X27432Y12827
X1270Y10160
X31242Y6604
X12192Y15240
X26924Y19304
X3429Y13589
X5715Y10287
X18796Y14732
X37592Y8128
X2667Y19939
X16637Y12446
X21590Y11303
X15240Y10414
X24130Y10414
X32766Y10414
X26619Y15051
X11684Y12065
X10160Y7074
X26162Y15621
X26341Y16816
X17145Y10541
X25400Y17018
X15875Y15113
X12065Y10541
X36068Y14478
X22225Y14859
X22898Y13037
X20955Y15367
X25291Y13317
X19558Y12319
X13970Y11176
X17866Y11598
X3302Y11049
X25837Y12662
X67564Y11684
X43942Y18923
X45466Y14224
X51054Y11049
X48163Y8382
X51816Y20574
X68580Y12827
X42418Y10160
X72390Y6604
X53340Y15240
X68072Y19304
X44577Y13589
X46863Y10287
X59944Y14732
X78740Y8128
X43815Y19939
X57785Y12446
X62738Y11303
X56388Y10414
X65278Y10414
X73914Y10414
X67767Y15051
X52832Y12065
X51308Y7074
X67310Y15621
X67489Y16816
X58293Y10541
X66548Y17018
X57023Y15113
X53213Y10541
X77216Y14478
X63373Y14859
X64046Y13037
X62103Y15367
X66439Y13317
X60706Y12319
X55118Y11176
X59014Y11598
X44450Y11049
X66985Y12662
X108712Y11684
X85090Y18923
X86614Y14224
X92202Y11049
X89311Y8382
X92964Y20574
X109728Y12827
X83566Y10160
X113538Y6604
X94488Y15240
X109220Y19304
X85725Y13589
X88011Y10287
X101092Y14732
X119888Y8128
X84963Y19939
X98933Y12446
X103886Y11303
X97536Y10414
X106426Y10414
X115062Y10414
X108915Y15051
X93980Y12065
X92456Y7074
X108458Y15621
X108637Y16816
X99441Y10541
X107696Y17018
X98171Y15113
X94361Y10541
X118364Y14478
X104521Y14859
X105194Y13037
X103251Y15367
X107587Y13317
X101854Y12319
X96266Y11176
X100162Y11598
X85598Y11049
X108133Y12662
X26416Y40132
X2794Y47371
X4318Y42672
X9906Y39497
X7015Y36830
X10668Y49022
X27432Y41275
X1270Y38608
X31242Y35052
X12192Y43688
X26924Y47752
X3429Y42037
X5715Y38735
X18796Y43180
X37592Y36576
X2667Y48387
X16637Y40894
X21590Y39751
X15240Y38862
X24130Y38862
X32766Y38862
X26619Y43499
X11684Y40513
X10160Y35522
X26341Y45264
X17145Y38989
X25400Y45466
X15875Y43561
X12065Y38989
X36068Y42926
X22225Y43307
X22898Y41485
X20955Y43815
X25291Y41765
X19558Y40767
X13970Y39624
X17866Y40046
X3302Y39497
X25837Y41110
X67564Y40132
X43942Y47371
X45466Y42672
X51054Y39497
X48163Y36830
X51816Y49022
X68580Y41275
X42418Y38608
X72390Y35052
X53340Y43688
X68072Y47752
X44577Y42037
X46863Y38735
X59944Y43180
X78740Y36576
X43815Y48387
X57785Y40894
X62738Y39751
X56388Y38862
X65278Y38862
X73914Y38862
X67767Y43499
X52832Y40513
X51308Y35522
X67310Y44069
X67489Y45264
X58293Y38989
X66548Y45466
X57023Y43561
X53213Y38989
X77216Y42926
X63373Y43307
X64046Y41485
X62103Y43815
X66439Y41765
X60706Y40767
X55118Y39624
X59014Y40046
X44450Y39497
X66985Y41110
X108712Y40132
X85090Y47371
X86614Y42672
X92202Y39497
X89311Y36830
X92964Y49022
X109728Y41275
X83566Y38608
X113538Y35052
X94488Y43688
X109220Y47752
X85725Y42037
X88011Y38735
X101092Y43180
X119888Y36576
X84963Y48387
X98933Y40894
X103886Y39751
X97536Y38862
X106426Y38862
X115062Y38862
X108915Y43499
X93980Y40513
X92456Y35522
X108458Y44069
X108637Y45264
X99441Y38989
X107696Y45466
X98171Y43561
X94361Y38989
X118364Y42926
X104521Y43307
X105194Y41485
X103251Y43815
X107587Y41765
X101854Y40767
X96266Y39624
X100162Y40046
X85598Y39497
X108133Y41110
X26416Y68580
X2794Y75819
X4318Y71120
X9906Y67945
X7015Y65278
X10668Y77470
X27432Y69723
X1270Y67056
X31242Y63500
X12192Y72136
X26924Y76200
X3429Y70485
X5715Y67183
X18796Y71628
X37592Y65024
X2667Y76835
X16637Y69342
X21590Y68199
X15240Y67310
X24130Y67310
X32766Y67310
X26619Y71947
X11684Y68961
X10160Y63970
X26162Y72517
X26341Y73712
X17145Y67437
X25400Y73914
X15875Y72009
X12065Y67437
X36068Y71374
X22225Y71755
X22898Y69933
X20955Y72263
X25291Y70213
X19558Y69215
X13970Y68072
X17866Y68494
X3302Y67945
X25837Y69558
X67564Y68580
X43942Y75819
X45466Y71120
X51054Y67945
X48163Y65278
X51816Y77470
X68580Y69723
X64046Y98381
X42418Y67056
X72390Y63500
X53340Y72136
X68072Y76200
X44577Y70485
X46863Y67183
X59944Y71628
X78740Y65024
X43815Y76835
X57785Y69342
X62738Y68199
X56388Y67310
X65278Y67310
X73914Y67310
X67767Y71947
X52832Y68961
X51308Y63970
X67310Y72517
X67489Y73712
X58293Y67437
X66548Y73914
X57023Y72009
X53213Y67437
X77216Y71374
X63373Y71755
X64046Y69933
X62103Y72263
X66439Y70213
X60706Y69215
X55118Y68072
X59014Y68494
X44450Y67945
X66985Y69558
X108712Y68580
X85090Y75819
X86614Y71120
X92202Y67945
X89311Y65278
X92964Y77470
X109728Y69723
X83566Y67056
X113538Y63500
X94488Y72136
X109220Y76200
X85725Y70485
X88011Y67183
X101092Y71628
X119888Y65024
X84963Y76835
X98933Y69342
X103886Y68199
X97536Y67310
X106426Y67310
X115062Y67310
X108915Y71947
X93980Y68961
X92456Y63970
X108458Y72517
X108637Y73712
X99441Y67437
X107696Y73914
X98171Y72009
X94361Y67437
X118364Y71374
X104521Y71755
X105194Y69933
X103251Y72263
X107587Y70213
X101854Y69215
X96266Y68072
X100162Y68494
X85598Y67945
X108133Y69558
X26416Y97028
X2794Y104267
X4318Y99568
X9906Y96393
X7015Y93726
X10668Y105918
X27432Y98171
X1270Y95504
X31242Y91948
X12192Y100584
X26924Y104648
X3429Y98933
X5715Y95631
X18796Y100076
X37592Y93472
X2667Y105283
X16637Y97790
X21590Y96647
X15240Y95758
X24130Y95758
X32766Y95758
X26619Y100395
X11684Y97409
X10160Y92418
X26162Y100965
X26341Y102160
X17145Y95885
X25400Y102362
X15875Y100457
X12065Y95885
X36068Y99822
X22225Y100203
X22898Y98381
X20955Y100711
X25291Y98661
X19558Y97663
X13970Y96520
X17866Y96942
X3302Y96393
X25837Y98006
X67564Y97028
X43942Y104267
X45466Y99568
X51054Y96393
X48163Y93726
X51816Y105918
X68580Y98171
X42418Y95504
X72390Y91948
X53340Y100584
X68072Y104648
X44577Y98933
X46863Y95631
X59944Y100076
X78740Y93472
X43815Y105283
X57785Y97790
X62738Y96647
X56388Y95758
X65278Y95758
X73914Y95758
X67767Y100395
X52832Y97409
X51308Y92418
X67310Y100965
X67489Y102160
X58293Y95885
X66548Y102362
X57023Y100457
X53213Y95885
X77216Y99822
M30